<?xml version="1.0" encoding="UTF-8" standalone="no"?>
<svg width="1011.97px" height="578px" viewBox="0 0 595.275 340"
 xmlns="http://www.w3.org/2000/svg" xmlns:xlink="http://www.w3.org/1999/xlink" version="1.2" baseProfile="tiny">
<title>35.神气的王</title>
<desc>Generated by MuseScore 2.0.3</desc>
<polyline class="StaffLines" fill="none" stroke="#000000" stroke-width="0.40" stroke-linejoin="bevel" points="46.1339,100.205 559.558,100.205" x="46.1339" y="100.205" bx="46.1339" by="135.784" measure_no="0" elid="0" sysno="1" spatium="4.96063"/>
<polyline class="StaffLines" fill="none" stroke="#000000" stroke-width="0.40" stroke-linejoin="bevel" points="46.1339,105.165 559.558,105.165"/>
<polyline class="StaffLines" fill="none" stroke="#000000" stroke-width="0.40" stroke-linejoin="bevel" points="46.1339,110.126 559.558,110.126"/>
<polyline class="StaffLines" fill="none" stroke="#000000" stroke-width="0.40" stroke-linejoin="bevel" points="46.1339,115.087 559.558,115.087"/>
<polyline class="StaffLines" fill="none" stroke="#000000" stroke-width="0.40" stroke-linejoin="bevel" points="46.1339,120.047 559.558,120.047"/>
<polyline class="StaffLines" fill="none" stroke="#000000" stroke-width="0.40" stroke-linejoin="bevel" points="46.1339,152.291 559.558,152.291"/>
<polyline class="StaffLines" fill="none" stroke="#000000" stroke-width="0.40" stroke-linejoin="bevel" points="46.1339,157.252 559.558,157.252"/>
<polyline class="StaffLines" fill="none" stroke="#000000" stroke-width="0.40" stroke-linejoin="bevel" points="46.1339,162.213 559.558,162.213"/>
<polyline class="StaffLines" fill="none" stroke="#000000" stroke-width="0.40" stroke-linejoin="bevel" points="46.1339,167.173 559.558,167.173"/>
<polyline class="StaffLines" fill="none" stroke="#000000" stroke-width="0.40" stroke-linejoin="bevel" points="46.1339,172.134 559.558,172.134"/>
<polyline class="StaffLines" fill="none" stroke="#000000" stroke-width="0.40" stroke-linejoin="bevel" points="46.1339,246.543 559.558,246.543" x="46.1339" y="246.543" bx="46.1339" by="282.123" measure_no="4" elid="13" sysno="2" spatium="4.96063"/>
<polyline class="StaffLines" fill="none" stroke="#000000" stroke-width="0.40" stroke-linejoin="bevel" points="46.1339,251.504 559.558,251.504"/>
<polyline class="StaffLines" fill="none" stroke="#000000" stroke-width="0.40" stroke-linejoin="bevel" points="46.1339,256.465 559.558,256.465"/>
<polyline class="StaffLines" fill="none" stroke="#000000" stroke-width="0.40" stroke-linejoin="bevel" points="46.1339,261.425 559.558,261.425"/>
<polyline class="StaffLines" fill="none" stroke="#000000" stroke-width="0.40" stroke-linejoin="bevel" points="46.1339,266.386 559.558,266.386"/>
<polyline class="StaffLines" fill="none" stroke="#000000" stroke-width="0.40" stroke-linejoin="bevel" points="46.1339,298.63 559.558,298.63"/>
<polyline class="StaffLines" fill="none" stroke="#000000" stroke-width="0.40" stroke-linejoin="bevel" points="46.1339,303.591 559.558,303.591"/>
<polyline class="StaffLines" fill="none" stroke="#000000" stroke-width="0.40" stroke-linejoin="bevel" points="46.1339,308.551 559.558,308.551"/>
<polyline class="StaffLines" fill="none" stroke="#000000" stroke-width="0.40" stroke-linejoin="bevel" points="46.1339,313.512 559.558,313.512"/>
<polyline class="StaffLines" fill="none" stroke="#000000" stroke-width="0.40" stroke-linejoin="bevel" points="46.1339,318.472 559.558,318.472"/>
<path class="Text" d="M47.0089,233.044 C47.0089,232.763 46.9464,232.513 46.8214,232.294 C46.6964,232.075 46.5427,231.903 46.3604,231.778 C46.1781,231.653 45.9776,231.554 45.7589,231.481 C45.5401,231.409 45.35,231.359 45.1886,231.333 C45.0271,231.307 44.8839,231.294 44.7589,231.294 C44.6964,231.294 44.6651,231.273 44.6651,231.231 C44.6651,231.211 44.6651,231.195 44.6651,231.185 L45.5401,229.325 L47.212,229.325 C47.2953,229.325 47.363,229.312 47.4151,229.286 C47.4672,229.26 47.5245,229.205 47.587,229.122 L47.6495,229.185 L47.3526,229.841 C47.3318,229.893 47.2693,229.919 47.1651,229.919 L45.6026,229.919 L45.2589,230.591 C46.0401,230.737 46.6209,230.966 47.0011,231.278 C47.3813,231.591 47.5714,232.054 47.5714,232.669 C47.5714,232.981 47.5219,233.263 47.4229,233.513 C47.324,233.763 47.1964,233.963 47.0401,234.114 C46.8839,234.265 46.7068,234.388 46.5089,234.481 C46.311,234.575 46.1209,234.64 45.9386,234.677 C45.7563,234.713 45.5714,234.731 45.3839,234.731 C45.0818,234.731 44.8422,234.687 44.6651,234.599 C44.488,234.51 44.3995,234.388 44.3995,234.231 C44.3995,234.034 44.5141,233.935 44.7432,233.935 C44.8995,233.935 45.0948,234.018 45.3292,234.185 C45.5636,234.351 45.7537,234.435 45.8995,234.435 C46.212,234.435 46.475,234.302 46.6886,234.036 C46.9021,233.77 47.0089,233.44 47.0089,233.044"/>
<path class="Text" d="M237.982,32.6395 L239.529,32.3895 C239.758,33.1291 240.131,33.7437 240.646,34.2333 C241.162,34.7229 241.808,34.952 242.584,34.9208 C243.36,34.8895 243.977,34.5744 244.435,33.9755 C244.894,33.3765 245.094,32.689 245.037,31.913 C244.98,31.1369 244.677,30.5354 244.131,30.1083 C243.584,29.6812 242.711,29.3791 241.513,29.202 L241.513,28.0927 C242.711,27.9781 243.584,27.663 244.131,27.1473 C244.677,26.6317 244.922,25.9572 244.865,25.1239 C244.808,24.2906 244.435,23.689 243.748,23.3192 C243.06,22.9494 242.329,22.9078 241.552,23.1942 C240.776,23.4807 240.159,24.2802 239.701,25.5927 L238.154,25.3427 C238.498,24.3114 238.972,23.452 239.576,22.7645 C240.18,22.077 240.998,21.676 242.029,21.5614 C243.06,21.4468 243.961,21.5744 244.732,21.9442 C245.503,22.314 246.047,22.8869 246.365,23.663 C246.683,24.439 246.727,25.2854 246.498,26.202 C246.269,27.1187 245.607,27.9208 244.513,28.6083 C245.316,28.952 245.933,29.4677 246.365,30.1552 C246.797,30.8427 246.941,31.7437 246.795,32.8583 C246.649,33.9729 246.146,34.8739 245.287,35.5614 C244.427,36.2489 243.454,36.5796 242.365,36.5536 C241.276,36.5275 240.331,36.1838 239.529,35.5223 C238.727,34.8609 238.211,33.8999 237.982,32.6395 M250.013,32.2958 C250.42,33.8479 251.11,34.7098 252.084,34.8817 C253.058,35.0536 253.844,34.952 254.443,34.577 C255.042,34.202 255.472,33.715 255.732,33.1161 C255.993,32.5171 256.107,31.8453 256.076,31.1005 C256.045,30.3557 255.844,29.7255 255.474,29.2098 C255.105,28.6942 254.633,28.3505 254.06,28.1786 C253.487,28.0067 252.842,28.0067 252.123,28.1786 C251.404,28.3505 250.816,28.7489 250.357,29.3739 L248.904,29.202 C249.019,28.8583 249.56,26.3947 250.529,21.8114 L257.326,21.8114 L257.326,23.3583 L251.826,23.3583 C251.534,24.9104 251.248,26.1447 250.967,27.0614 C251.821,26.6552 252.62,26.4677 253.365,26.4989 C254.11,26.5302 254.826,26.702 255.513,27.0145 C256.201,27.327 256.704,27.7567 257.021,28.3036 C257.339,28.8505 257.568,29.3947 257.709,29.9364 C257.849,30.4781 257.907,31.064 257.881,31.6942 C257.855,32.3244 257.727,32.9703 257.498,33.6317 C257.269,34.2932 256.925,34.8374 256.467,35.2645 C256.008,35.6916 255.448,36.0354 254.787,36.2958 C254.125,36.5562 253.365,36.6578 252.506,36.6005 C251.646,36.5432 250.831,36.2281 250.06,35.6552 C249.289,35.0822 248.758,34.1083 248.467,32.7333 L250.013,32.2958 M262.826,36.4208 L260.842,36.4208 L260.842,34.5302 L262.826,34.5302 L262.826,36.4208 M284.31,22.2489 C284.31,20.7593 284.279,19.6395 284.217,18.8895 L285.935,18.8895 C285.883,19.8687 285.857,20.9885 285.857,22.2489 L290.498,22.2489 C290.435,23.676 290.404,25.7645 290.404,28.5145 C290.404,31.2124 290.435,33.2177 290.498,34.5302 L288.779,34.5302 L288.779,33.077 L285.857,33.077 C285.857,35.7124 285.883,37.7489 285.935,39.1864 L284.217,39.1864 C284.279,37.6968 284.31,35.6604 284.31,33.077 L281.295,33.077 L281.295,34.9677 L279.67,34.9677 C279.722,33.4781 279.748,31.3583 279.748,28.6083 C279.748,25.8583 279.722,23.7385 279.67,22.2489 L284.31,22.2489 M278.467,23.3583 C278.352,23.8166 278.066,24.5328 277.607,25.5067 C277.149,26.4807 276.659,27.426 276.138,28.3427 L276.138,29.3739 C276.482,29.0927 276.826,28.7802 277.17,28.4364 C277.743,29.2385 278.347,30.1239 278.982,31.0927 C278.461,31.3843 278.003,31.702 277.607,32.0458 C277.378,31.6395 276.888,30.8062 276.138,29.5458 L276.138,36.2489 C276.138,36.9989 276.17,37.9208 276.232,39.0145 L274.513,39.0145 C274.566,37.9208 274.592,37.0302 274.592,36.3427 L274.592,30.1552 C274.133,30.7802 273.305,31.6083 272.107,32.6395 C271.763,32.2437 271.362,31.8427 270.904,31.4364 C272.102,30.5197 273.159,29.4885 274.076,28.3427 C274.993,27.1968 275.711,25.9937 276.232,24.7333 L274.076,24.7333 C273.274,24.7333 272.414,24.7645 271.498,24.827 L271.498,23.2802 C272.362,23.3322 273.196,23.3583 273.998,23.3583 L278.467,23.3583 M284.31,26.9677 L284.31,23.6239 L281.295,23.6239 L281.295,26.9677 L284.31,26.9677 M288.779,26.9677 L288.779,23.6239 L285.857,23.6239 L285.857,26.9677 L288.779,26.9677 M284.31,31.6083 L284.31,28.4364 L281.295,28.4364 L281.295,31.6083 L284.31,31.6083 M288.779,31.6083 L288.779,28.4364 L285.857,28.4364 L285.857,31.6083 L288.779,31.6083 M275.451,18.8895 C275.972,19.577 276.576,20.4677 277.263,21.5614 C276.805,21.7906 276.316,22.1343 275.795,22.5927 C275.399,21.7281 274.826,20.7802 274.076,19.7489 C274.649,19.4677 275.107,19.1812 275.451,18.8895 M313.263,35.1395 C312.461,37.4937 311.659,38.7411 310.857,38.8817 C310.055,39.0223 309.368,38.6343 308.795,37.7177 C308.222,36.801 307.821,35.7541 307.592,34.577 C307.362,33.3999 307.305,31.6968 307.42,29.4677 L297.967,29.4677 C297.05,29.4677 296.076,29.4937 295.045,29.5458 L295.045,27.9989 C296.076,28.0614 297.05,28.0927 297.967,28.0927 L309.232,28.0927 C309.118,29.8635 309.073,31.2359 309.099,32.2098 C309.125,33.1838 309.269,34.0588 309.529,34.8348 C309.789,35.6109 310.076,36.1994 310.388,36.6005 C310.701,37.0015 311.118,36.0822 311.638,33.8427 C312.263,34.5927 312.805,35.0249 313.263,35.1395 M300.029,19.4989 C299.685,20.0093 299.316,20.5822 298.92,21.2177 L308.373,21.2177 C309.404,21.2177 310.378,21.1864 311.295,21.1239 L311.295,22.6708 C310.378,22.6187 309.404,22.5927 308.373,22.5927 L298.232,22.5927 C297.941,23.1656 297.495,23.8947 296.896,24.7802 C296.297,25.6656 295.711,26.426 295.138,27.0614 C294.68,26.6031 294.107,26.2854 293.42,26.1083 C294.159,25.4833 295.016,24.4104 295.99,22.8895 C296.964,21.3687 297.654,19.9781 298.06,18.7177 C298.685,19.0093 299.342,19.2697 300.029,19.4989 M306.904,24.5614 C307.821,24.5614 308.737,24.5354 309.654,24.4833 L309.654,26.0302 C308.737,25.9677 307.821,25.9364 306.904,25.9364 L300.545,25.9364 C299.628,25.9364 298.711,25.9677 297.795,26.0302 L297.795,24.5614 C298.711,24.6239 299.628,24.6239 300.545,24.5614 L306.904,24.5614 M321.342,19.7489 C321.06,20.2697 320.659,21.4468 320.138,23.2802 L324.013,23.2802 C323.951,24.2489 323.92,25.4781 323.92,26.9677 L323.92,34.5302 C323.92,35.3947 323.951,36.6291 324.013,38.2333 L322.295,38.2333 L322.295,36.5145 L317.904,36.5145 L317.904,38.4052 L316.185,38.4052 C316.248,36.5718 316.279,35.426 316.279,34.9677 L316.279,27.0614 C316.279,25.5093 316.248,24.2489 316.185,23.2802 L318.685,23.2802 C318.967,21.9572 319.196,20.5822 319.373,19.1552 C320.175,19.4364 320.831,19.6343 321.342,19.7489 M334.154,26.2802 C334.092,29.7802 333.946,33.1031 333.717,36.2489 C333.602,37.2906 333.058,37.9833 332.084,38.327 C331.11,38.6708 330.024,38.8999 328.826,39.0145 C328.763,38.3791 328.503,37.7177 328.045,37.0302 C329.191,37.0927 330.094,37.064 330.756,36.9442 C331.417,36.8244 331.834,36.564 332.006,36.163 C332.177,35.7619 332.305,34.5874 332.388,32.6395 C332.472,30.6916 332.545,27.9729 332.607,24.4833 L327.623,24.4833 C327.164,25.5666 326.503,26.8531 325.638,28.3427 C325.243,27.9468 324.758,27.6343 324.185,27.4052 C324.696,26.7177 325.18,25.8869 325.638,24.913 C326.097,23.939 326.498,22.8791 326.842,21.7333 C327.185,20.5874 327.388,19.6968 327.451,19.0614 C328.253,19.4052 328.941,19.6656 329.513,19.8427 C329.222,20.301 328.977,20.801 328.779,21.3427 C328.581,21.8843 328.368,22.4156 328.138,22.9364 L334.232,22.9364 C334.18,24.1343 334.154,25.2489 334.154,26.2802 M322.295,35.0458 L322.295,30.4989 L317.904,30.4989 L317.904,35.0458 L322.295,35.0458 M322.295,29.0302 L322.295,24.7333 L317.904,24.7333 L317.904,29.0302 L322.295,29.0302 M329.076,29.8114 C329.42,30.4989 329.821,31.3843 330.279,32.4677 C329.883,32.6447 329.342,32.9312 328.654,33.327 C328.248,32.2437 327.873,31.314 327.529,30.538 C327.185,29.7619 326.842,29.1187 326.498,28.6083 C326.904,28.3791 327.42,28.0927 328.045,27.7489 L329.076,29.8114 M352.201,21.0458 C353.347,21.0458 354.461,21.0145 355.545,20.952 L355.545,22.6708 C354.461,22.6187 353.347,22.5927 352.201,22.5927 L348.076,22.5927 L348.076,27.9989 L351.248,27.9989 C352.164,27.9989 353.138,27.9729 354.17,27.9208 L354.17,29.7177 C353.138,29.6656 352.164,29.6395 351.248,29.6395 L348.076,29.6395 L348.076,36.3427 L353.576,36.3427 C354.545,36.3427 355.602,36.3114 356.748,36.2489 L356.748,37.9833 C355.602,37.9208 354.545,37.8895 353.576,37.8895 L341.201,37.8895 C339.993,37.8895 338.758,37.9208 337.498,37.9833 L337.498,36.2489 C338.758,36.3114 339.993,36.3427 341.201,36.3427 L346.357,36.3427 L346.357,29.6395 L343.685,29.6395 C342.539,29.6395 341.336,29.6656 340.076,29.7177 L340.076,27.9208 C341.336,27.9729 342.539,27.9989 343.685,27.9989 L346.357,27.9989 L346.357,22.5927 L342.654,22.5927 C341.394,22.5927 340.076,22.6187 338.701,22.6708 L338.701,20.952 C340.076,21.0145 341.368,21.0458 342.576,21.0458 L352.201,21.0458 "/>
<path class="Text" d="M532.31,56.3084 C532.539,55.7043 532.711,55.0845 532.826,54.4491 C533.222,54.6574 533.566,54.7876 533.857,54.8397 C533.711,55.0168 533.594,55.2121 533.506,55.4256 C533.417,55.6392 533.305,55.9334 533.17,56.3084 L535.435,56.3084 C535.956,56.3084 536.373,56.2928 536.685,56.2616 L536.685,57.0741 C536.258,57.0428 535.842,57.0272 535.435,57.0272 L532.904,57.0272 L532.482,58.0584 C532.336,58.4022 532.118,58.8605 531.826,59.4334 L533.592,59.4334 C533.592,58.8084 533.576,58.2251 533.545,57.6834 L534.451,57.6834 C534.42,58.1418 534.404,58.7251 534.404,59.4334 L535.185,59.4334 C535.727,59.4334 536.243,59.423 536.732,59.4022 L536.732,60.2147 C536.243,60.1834 535.727,60.1678 535.185,60.1678 L534.404,60.1678 L534.404,63.5272 C534.435,63.8084 534.287,64.0298 533.959,64.1913 C533.631,64.3527 533.222,64.4595 532.732,64.5116 C532.68,64.1991 532.55,63.8709 532.342,63.5272 C532.862,63.5272 533.201,63.4986 533.357,63.4413 C533.513,63.384 533.592,63.1939 533.592,62.8709 L533.592,60.1678 C533.164,60.1678 532.722,60.1834 532.263,60.2147 C531.805,60.2459 531.42,60.3189 531.107,60.4334 C530.993,60.0272 530.862,59.6834 530.717,59.4022 C530.977,59.2251 531.198,58.9647 531.381,58.6209 C531.563,58.2772 531.784,57.7459 532.045,57.0272 C531.503,57.0272 531.029,57.0428 530.623,57.0741 L530.623,56.2616 C531.196,56.2928 531.758,56.3084 532.31,56.3084 M530.795,55.1366 C530.368,56.2616 529.956,57.4387 529.56,58.6678 C529.956,59.2095 530.24,59.6522 530.412,59.9959 C530.584,60.3397 530.657,60.7043 530.631,61.0897 C530.605,61.4751 530.433,61.7824 530.115,62.0116 C529.797,62.2407 529.394,62.4022 528.904,62.4959 C528.821,62.0897 528.68,61.7459 528.482,61.4647 C529.024,61.4647 529.381,61.3631 529.552,61.16 C529.724,60.9569 529.724,60.6418 529.552,60.2147 C529.381,59.7876 529.066,59.298 528.607,58.7459 C528.951,57.923 529.279,56.9803 529.592,55.9178 L528.185,55.9178 L528.185,64.3866 L527.326,64.3866 C527.347,63.6366 527.357,62.9022 527.357,62.1834 L527.357,57.1678 C527.357,56.5324 527.347,55.8553 527.326,55.1366 L530.795,55.1366 M532.857,61.4178 C532.722,61.5637 532.138,62.3657 531.107,63.8241 C530.878,63.5949 530.649,63.4074 530.42,63.2616 C530.67,62.9491 530.938,62.5923 531.224,62.1913 C531.511,61.7902 531.769,61.3293 531.998,60.8084 C532.321,61.0689 532.607,61.272 532.857,61.4178 M535.701,60.9022 C535.982,61.2459 536.498,61.9907 537.248,63.1366 C537.05,63.2199 536.763,63.3918 536.388,63.6522 C535.961,62.7876 535.503,62.0428 535.013,61.4178 C535.243,61.272 535.472,61.1001 535.701,60.9022 M541.154,55.1834 C542.102,55.7251 542.862,56.2147 543.435,56.6522 C543.123,56.8501 542.894,57.0793 542.748,57.3397 C542.404,56.9022 541.758,56.3397 540.81,55.6522 C540.321,56.3189 539.894,56.8657 539.529,57.2928 C539.842,57.3241 540.17,57.3397 540.513,57.3397 L541.451,57.3397 C541.774,57.3397 542.076,57.3241 542.357,57.2928 L542.357,58.0584 C542.076,58.0376 541.691,58.0272 541.201,58.0272 L541.201,59.0116 C541.805,59.0116 542.263,58.9959 542.576,58.9647 L542.576,59.7459 C542.232,59.7147 541.774,59.6991 541.201,59.6991 L541.201,60.8084 L542.748,60.8084 C542.717,61.0689 542.701,61.6157 542.701,62.4491 C542.701,63.2512 542.717,63.8241 542.748,64.1678 L541.935,64.1678 L541.935,63.5272 L539.654,63.5272 L539.654,64.4647 L538.795,64.4647 C538.826,64.0689 538.842,63.4699 538.842,62.6678 C538.842,61.8345 538.826,61.2147 538.795,60.8084 L540.42,60.8084 L540.42,59.6991 C539.42,59.6991 538.763,59.7147 538.451,59.7459 L538.451,58.9647 C538.795,58.9959 539.451,59.0116 540.42,59.0116 L540.42,58.0272 C540.107,58.0272 539.795,58.0376 539.482,58.0584 L539.482,57.3397 C539.138,57.7043 538.836,57.9751 538.576,58.1522 C538.378,57.923 538.149,57.7355 537.888,57.5897 C538.493,57.1626 539.032,56.6756 539.506,56.1288 C539.98,55.5819 540.316,54.9959 540.513,54.3709 C540.857,54.5376 541.17,54.7095 541.451,54.8866 L541.154,55.1834 M548.029,58.6209 C547.946,58.8814 547.868,59.1913 547.795,59.5506 C547.722,59.91 547.644,60.272 547.56,60.6366 C547.217,60.5532 546.93,60.5116 546.701,60.5116 C546.784,60.2512 546.899,59.8501 547.045,59.3084 L545.748,59.3084 L545.748,63.7459 C545.748,64.3397 545.191,64.6522 544.076,64.6834 C543.993,64.3397 543.878,64.0116 543.732,63.6991 C544.253,63.7512 544.599,63.7642 544.771,63.7381 C544.943,63.7121 545.013,63.5689 544.982,63.3084 L544.982,59.3084 L544.17,59.3084 C543.763,59.3084 543.362,59.3241 542.967,59.3553 L542.967,58.5428 C543.331,58.5949 543.732,58.6209 544.17,58.6209 L548.029,58.6209 M547.56,55.1053 C547.383,55.4491 547.131,55.8423 546.802,56.285 C546.474,56.7277 546.112,57.1782 545.717,57.6366 L546.138,58.0272 C545.909,58.1939 545.711,58.3657 545.545,58.5428 C545.368,58.3345 545.128,58.1157 544.826,57.8866 C544.524,57.6574 544.217,57.4439 543.904,57.2459 L544.467,56.6834 C544.664,56.8605 544.909,57.048 545.201,57.2459 C545.368,57.048 545.537,56.8189 545.709,56.5584 C545.881,56.298 546.039,56.0428 546.185,55.7928 L544.592,55.7928 C544.081,55.7928 543.597,55.8032 543.138,55.8241 L543.138,55.0584 C543.597,55.0897 544.081,55.1053 544.592,55.1053 L547.56,55.1053 M541.935,62.8397 L541.935,61.4959 L539.654,61.4959 L539.654,62.8397 L541.935,62.8397 M555.342,54.5897 C555.279,54.9334 555.248,55.3449 555.248,55.8241 L555.248,56.8553 C555.675,56.6574 556.084,56.4439 556.474,56.2147 C556.865,55.9855 557.289,55.6574 557.748,55.2303 C557.914,55.4595 558.154,55.7303 558.467,56.0428 C558.102,56.1887 557.605,56.4334 556.974,56.7772 C556.344,57.1209 555.769,57.423 555.248,57.6834 L555.248,58.7928 C555.248,59.1678 555.451,59.3553 555.857,59.3553 L557.357,59.3553 C557.732,59.3553 557.948,59.2694 558.006,59.0975 C558.063,58.9256 558.118,58.6366 558.17,58.2303 C558.513,58.4387 558.842,58.5845 559.154,58.6678 C559.019,59.2095 558.865,59.5819 558.693,59.785 C558.521,59.9881 558.274,60.0897 557.951,60.0897 L555.342,60.0897 C554.737,60.0897 554.42,59.7876 554.388,59.1834 L554.388,58.0272 C553.784,58.3084 553.326,58.5064 553.013,58.6209 C552.93,58.3605 552.774,58.1157 552.545,57.8866 C553.086,57.772 553.701,57.5584 554.388,57.2459 L554.388,55.9178 C554.388,55.3762 554.373,54.9334 554.342,54.5897 L555.342,54.5897 M553.482,61.3709 C553.482,60.8814 553.472,60.4803 553.451,60.1678 L554.342,60.1678 C554.321,60.4282 554.31,60.8293 554.31,61.3709 L557.404,61.3709 C557.831,61.3709 558.331,61.3553 558.904,61.3241 L558.904,62.1834 C558.362,62.1626 557.873,62.1522 557.435,62.1522 L554.31,62.1522 C554.31,63.3293 554.321,64.1001 554.342,64.4647 L553.451,64.4647 C553.472,64.0689 553.482,63.298 553.482,62.1522 L550.357,62.1522 C549.982,62.1522 549.566,62.1626 549.107,62.1834 L549.107,61.3241 C549.566,61.3553 549.993,61.3709 550.388,61.3709 L553.482,61.3709 M552.717,55.0116 C552.519,55.1887 552.362,55.3762 552.248,55.5741 C552.133,55.772 551.987,55.9855 551.81,56.2147 L551.81,59.0116 C551.81,59.4699 551.826,59.9543 551.857,60.4647 L550.904,60.4647 C550.935,59.923 550.951,59.4387 550.951,59.0116 L550.951,57.1678 C550.836,57.3657 550.664,57.5871 550.435,57.8319 C550.206,58.0767 549.977,58.3241 549.748,58.5741 C549.487,58.3241 549.243,58.1105 549.013,57.9334 C549.42,57.6522 549.787,57.3241 550.115,56.9491 C550.443,56.5741 550.709,56.2512 550.912,55.9803 C551.115,55.7095 551.279,55.4387 551.404,55.1678 C551.529,54.897 551.623,54.673 551.685,54.4959 C551.967,54.673 552.31,54.8449 552.717,55.0116"/>
<path class="SlurSegment" stroke="#000000" stroke-width="0.35" stroke-linecap="round" stroke-linejoin="round" fill-rule="evenodd" d="M85.8835,292.429 C109.996,285.583 182.335,285.583 206.447,292.429 C182.335,286.377 109.996,286.377 85.8835,292.429"/>
<path class="SlurSegment" stroke="#000000" stroke-width="0.35" stroke-linecap="round" stroke-linejoin="round" fill-rule="evenodd" d="M96.3504,146.091 C120.163,139.245 191.601,139.245 215.414,146.091 C191.601,140.039 120.163,140.039 96.3504,146.091"/>
<polyline class="BarLine" stroke="#000000" stroke-width="0.79" stroke-linejoin="bevel" points="46.5307,246.543 46.5307,318.472"/>
<polyline class="BarLine" stroke="#000000" stroke-width="0.79" stroke-linejoin="bevel" points="46.5307,100.205 46.5307,172.134"/>
<polyline class="BarLine" stroke="#000000" stroke-width="0.79" stroke-linejoin="bevel" points="554.697,298.63 554.697,318.472"/>
<polyline class="BarLine" stroke="#000000" stroke-width="2.48" stroke-linejoin="bevel" points="558.318,298.63 558.318,318.472"/>
<polyline class="BarLine" stroke="#000000" stroke-width="0.79" stroke-linejoin="bevel" points="554.697,246.543 554.697,266.386"/>
<polyline class="BarLine" stroke="#000000" stroke-width="2.48" stroke-linejoin="bevel" points="558.318,246.543 558.318,266.386"/>
<polyline class="BarLine" stroke="#000000" stroke-width="0.79" stroke-linejoin="bevel" points="442.883,298.63 442.883,318.472"/>
<polyline class="BarLine" stroke="#000000" stroke-width="0.79" stroke-linejoin="bevel" points="442.883,246.543 442.883,266.386"/>
<polyline class="BarLine" stroke="#000000" stroke-width="0.79" stroke-linejoin="bevel" points="316.065,298.63 316.065,318.472"/>
<polyline class="BarLine" stroke="#000000" stroke-width="0.79" stroke-linejoin="bevel" points="316.065,246.543 316.065,266.386"/>
<polyline class="BarLine" stroke="#000000" stroke-width="0.79" stroke-linejoin="bevel" points="196.659,298.63 196.659,318.472"/>
<polyline class="BarLine" stroke="#000000" stroke-width="0.79" stroke-linejoin="bevel" points="196.659,246.543 196.659,266.386"/>
<polyline class="BarLine" stroke="#000000" stroke-width="0.79" stroke-linejoin="bevel" points="559.162,152.291 559.162,172.134"/>
<polyline class="BarLine" stroke="#000000" stroke-width="0.79" stroke-linejoin="bevel" points="559.162,100.205 559.162,120.047"/>
<polyline class="BarLine" stroke="#000000" stroke-width="0.79" stroke-linejoin="bevel" points="448.849,152.291 448.849,172.134"/>
<polyline class="BarLine" stroke="#000000" stroke-width="0.79" stroke-linejoin="bevel" points="448.849,100.205 448.849,120.047"/>
<polyline class="BarLine" stroke="#000000" stroke-width="0.79" stroke-linejoin="bevel" points="323.53,152.291 323.53,172.134"/>
<polyline class="BarLine" stroke="#000000" stroke-width="0.79" stroke-linejoin="bevel" points="323.53,100.205 323.53,120.047"/>
<polyline class="BarLine" stroke="#000000" stroke-width="0.79" stroke-linejoin="bevel" points="205.625,152.291 205.625,172.134"/>
<polyline class="BarLine" stroke="#000000" stroke-width="0.79" stroke-linejoin="bevel" points="205.625,100.205 205.625,120.047"/>
<polyline class="Stem" stroke="#000000" stroke-width="0.64" stroke-linecap="round" stroke-linejoin="bevel" points="508.978,260.663 508.978,244.683" notes="{982de152-2c97-47a5-815d-c2f2088748e8}" x1="508.978" y1="260.663" x2="508.978" y2="244.683" height="-16.7421"/>
<polyline class="Stem" stroke="#000000" stroke-width="0.64" stroke-linecap="round" stroke-linejoin="bevel" points="457.268,260.663 457.268,244.683" notes="{b3d07881-9017-4dce-93f0-ab3734525808}" x1="457.268" y1="260.663" x2="457.268" y2="244.683" height="-16.7421"/>
<polyline class="Stem" stroke="#000000" stroke-width="0.64" stroke-linecap="round" stroke-linejoin="bevel" points="419.089,262.974 419.089,246.543" notes="{b3ebaf89-e55f-4b2b-a3b2-68a02fac5d81}" x1="419.089" y1="262.974" x2="419.089" y2="246.543" height="-17.3622"/>
<polyline class="Stem" stroke="#000000" stroke-width="0.64" stroke-linecap="round" stroke-linejoin="bevel" points="389.483,265.454 389.483,249.024" notes="{451b17a6-32e1-415a-884a-4eb7bdf7d7c8}" x1="389.483" y1="265.454" x2="389.483" y2="249.024" height="-17.3622"/>
<polyline class="Stem" stroke="#000000" stroke-width="0.64" stroke-linecap="round" stroke-linejoin="bevel" points="359.876,267.934 359.876,251.504" notes="{60f93292-d534-4074-a140-638570e759b0}" x1="359.876" y1="267.934" x2="359.876" y2="251.504" height="-17.3622"/>
<polyline class="Stem" stroke="#000000" stroke-width="0.64" stroke-linecap="round" stroke-linejoin="bevel" points="330.27,265.454 330.27,249.024" notes="{e3dda5c3-1670-4062-abfe-24169ffb0fb6}" x1="330.27" y1="265.454" x2="330.27" y2="249.024" height="-17.3622"/>
<polyline class="Stem" stroke="#000000" stroke-width="0.64" stroke-linecap="round" stroke-linejoin="bevel" points="272.717,268.104 272.717,251.504" notes="{527a0237-7dae-4961-bb67-12e11272baef}" x1="272.717" y1="268.104" x2="272.717" y2="251.504" height="-17.3622"/>
<polyline class="Stem" stroke="#000000" stroke-width="0.64" stroke-linecap="round" stroke-linejoin="bevel" points="241.701,260.494 241.701,244.683" notes="{860f74d9-9af4-4251-a64a-75389e0a3c06}" x1="241.701" y1="260.494" x2="241.701" y2="244.683" height="-16.7421"/>
<polyline class="Stem" stroke="#000000" stroke-width="0.64" stroke-linecap="round" stroke-linejoin="bevel" points="210.864,260.494 210.864,244.683" notes="{5629e308-26e5-4d45-abb8-6128bddf64bb}" x1="210.864" y1="260.494" x2="210.864" y2="244.683" height="-16.7421"/>
<polyline class="Stem" stroke="#000000" stroke-width="0.64" stroke-linecap="round" stroke-linejoin="bevel" points="173.691,258.013 173.691,242.823" notes="{2b0fe21a-ec3b-4241-ada3-90f56adc814d}" x1="173.691" y1="258.013" x2="173.691" y2="242.823" height="-16.122"/>
<polyline class="Stem" stroke="#000000" stroke-width="0.64" stroke-linecap="round" stroke-linejoin="bevel" points="144.912,260.494 144.912,244.683" notes="{7c66c4de-79e8-46ba-bf5b-af9a45ad3d45}" x1="144.912" y1="260.494" x2="144.912" y2="244.683" height="-16.7421"/>
<polyline class="Stem" stroke="#000000" stroke-width="0.64" stroke-linecap="round" stroke-linejoin="bevel" points="116.132,260.494 116.132,244.683" notes="{fdd98b5e-e479-4d76-9a7a-22712c9b4670}" x1="116.132" y1="260.494" x2="116.132" y2="244.683" height="-16.7421"/>
<polyline class="Stem" stroke="#000000" stroke-width="0.64" stroke-linecap="round" stroke-linejoin="bevel" points="87.3528,260.494 87.3528,244.683" notes="{874d746a-cfd1-458f-a099-7936c244c9f0}" x1="87.3528" y1="260.494" x2="87.3528" y2="244.683" height="-16.7421"/>
<polyline class="Stem" stroke="#000000" stroke-width="0.64" stroke-linecap="round" stroke-linejoin="bevel" points="514.193,114.325 514.193,98.3445" notes="{3daa6c15-6bab-4bc5-aafc-3dea5f3a95be}" x1="514.193" y1="114.325" x2="514.193" y2="98.3445" height="-16.7421"/>
<polyline class="Stem" stroke="#000000" stroke-width="0.64" stroke-linecap="round" stroke-linejoin="bevel" points="463.233,114.325 463.233,98.3445" notes="{8bed0f50-5001-42ce-abc7-7376b2c53bcb}" x1="463.233" y1="114.325" x2="463.233" y2="98.3445" height="-16.7421"/>
<polyline class="Stem" stroke="#000000" stroke-width="0.64" stroke-linecap="round" stroke-linejoin="bevel" points="425.429,116.635 425.429,100.205" notes="{e379fbef-5a09-4915-ba2a-e2fbd9ab06bd}" x1="425.429" y1="116.635" x2="425.429" y2="100.205" height="-17.3622"/>
<polyline class="Stem" stroke="#000000" stroke-width="0.64" stroke-linecap="round" stroke-linejoin="bevel" points="396.198,119.116 396.198,102.685" notes="{dcbfb233-41e2-4e94-9ea6-f4663d2c774e}" x1="396.198" y1="119.116" x2="396.198" y2="102.685" height="-17.3622"/>
<polyline class="Stem" stroke="#000000" stroke-width="0.64" stroke-linecap="round" stroke-linejoin="bevel" points="366.967,121.596 366.967,105.165" notes="{631044fc-0bde-4fc4-9fd2-27e02cdcb095}" x1="366.967" y1="121.596" x2="366.967" y2="105.165" height="-17.3622"/>
<polyline class="Stem" stroke="#000000" stroke-width="0.64" stroke-linecap="round" stroke-linejoin="bevel" points="337.736,119.116 337.736,102.685" notes="{97d0d4b9-fccd-4dea-b5a3-7c278f2805d0}" x1="337.736" y1="119.116" x2="337.736" y2="102.685" height="-17.3622"/>
<polyline class="Stem" stroke="#000000" stroke-width="0.64" stroke-linecap="round" stroke-linejoin="bevel" points="280.849,121.766 280.849,105.165" notes="{81cfd08c-0a0f-4248-9fbd-6274dd4a4d48}" x1="280.849" y1="121.766" x2="280.849" y2="105.165" height="-17.3622"/>
<polyline class="Stem" stroke="#000000" stroke-width="0.64" stroke-linecap="round" stroke-linejoin="bevel" points="250.25,114.155 250.25,98.3445" notes="{0591f780-e715-4a87-a4bc-9185a2949c2c}" x1="250.25" y1="114.155" x2="250.25" y2="98.3445" height="-16.7421"/>
<polyline class="Stem" stroke="#000000" stroke-width="0.64" stroke-linecap="round" stroke-linejoin="bevel" points="219.831,114.155 219.831,98.3445" notes="{3cf0259c-ee80-492d-93cf-cb3911a65a42}" x1="219.831" y1="114.155" x2="219.831" y2="98.3445" height="-16.7421"/>
<polyline class="Stem" stroke="#000000" stroke-width="0.64" stroke-linecap="round" stroke-linejoin="bevel" points="183.033,111.675 183.033,96.4843" notes="{31f7bc8e-5d80-4c17-b660-d9457ece2bae}" x1="183.033" y1="111.675" x2="183.033" y2="96.4843" height="-16.122"/>
<polyline class="Stem" stroke="#000000" stroke-width="0.64" stroke-linecap="round" stroke-linejoin="bevel" points="154.628,114.155 154.628,98.3445" notes="{b4268bd6-3473-4b8e-978c-492c24c920b8}" x1="154.628" y1="114.155" x2="154.628" y2="98.3445" height="-16.7421"/>
<polyline class="Stem" stroke="#000000" stroke-width="0.64" stroke-linecap="round" stroke-linejoin="bevel" points="126.224,114.155 126.224,98.3445" notes="{4ccec6c9-0da1-4e98-ad3f-72725e41cbc4}" x1="126.224" y1="114.155" x2="126.224" y2="98.3445" height="-16.7421"/>
<polyline class="Stem" stroke="#000000" stroke-width="0.64" stroke-linecap="round" stroke-linejoin="bevel" points="97.8197,114.155 97.8197,98.3445" notes="{22439219-4023-4cd3-851b-90afca416b90}" x1="97.8197" y1="114.155" x2="97.8197" y2="98.3445" height="-16.7421"/>
<polyline class="LedgerLine" stroke="#000000" stroke-width="0.79" stroke-linecap="square" stroke-linejoin="bevel" points="320.926,293.669 333.728,293.669"/>
<polyline class="LedgerLine" stroke="#000000" stroke-width="0.79" stroke-linecap="square" stroke-linejoin="bevel" points="328.392,147.331 341.193,147.331"/>
<path class="Note" transform="matrix(0.992126,0,0,0.992126,502.411,261.425)" d="M6.3125,-1.3125 C6.3125,-1.53125 6.22917,-1.71875 6.0625,-1.875 C5.88542,-2.04167 5.6875,-2.125 5.46875,-2.125 C5.08333,-2.125 4.29688,-1.73438 3.10938,-0.953125 C1.88021,-0.161458 1.13021,0.40625 0.859375,0.75 C0.713542,0.927083 0.640625,1.11458 0.640625,1.3125 C0.640625,1.53125 0.729167,1.71875 0.90625,1.875 C1.0625,2.04167 1.25521,2.125 1.48438,2.125 C1.85938,2.125 2.65625,1.73438 3.875,0.953125 C5.07292,0.171875 5.8125,-0.395833 6.09375,-0.75 C6.23958,-0.916667 6.3125,-1.10417 6.3125,-1.3125 M5.28125,-2.75 C6.39583,-2.75 6.95312,-2.27083 6.95312,-1.3125 C6.95312,-0.84375 6.81771,-0.296875 6.54688,0.328125 C6.27604,0.942708 5.91146,1.41146 5.45312,1.73438 C4.45312,2.41146 3.19792,2.75 1.6875,2.75 C0.5625,2.75 0,2.27083 0,1.3125 C0,0.885417 0.135417,0.34375 0.40625,-0.3125 C0.666667,-0.9375 1.03125,-1.41146 1.5,-1.73438 C2.51042,-2.41146 3.77083,-2.75 5.28125,-2.75" id="{982de152-2c97-47a5-815d-c2f2088748e8}" stem_h="-16.7421"/>
<path class="Note" transform="matrix(0.992126,0,0,0.992126,449.233,296.15)" d="M4.29688,-2.25 C3.82812,-2.25 3.48958,-2.08854 3.28125,-1.76562 C3.05208,-1.45312 2.9375,-1.02604 2.9375,-0.484375 C2.9375,0.130208 3.09896,0.65625 3.42188,1.09375 C3.74479,1.52083 4.10417,1.82292 4.5,2 C4.84375,2.16667 5.21354,2.25 5.60938,2.25 C6.06771,2.25 6.41146,2.08854 6.64062,1.76562 C6.85938,1.43229 6.96875,1.00521 6.96875,0.484375 C6.96875,-0.130208 6.80729,-0.65625 6.48438,-1.09375 C6.16146,-1.51042 5.8125,-1.8125 5.4375,-2 C5.05208,-2.16667 4.67188,-2.25 4.29688,-2.25 M4.96875,-2.75 C6.375,-2.75 7.54688,-2.47917 8.48438,-1.9375 C9.43229,-1.38542 9.90625,-0.739583 9.90625,0 C9.90625,0.791667 9.41667,1.44271 8.4375,1.95312 C7.45833,2.48438 6.30208,2.75 4.96875,2.75 C3.58333,2.75 2.41146,2.47917 1.45312,1.9375 C0.484375,1.38542 0,0.739583 0,0 C0,-0.791667 0.494792,-1.44271 1.48438,-1.95312 C2.46354,-2.48438 3.625,-2.75 4.96875,-2.75" id="{78f648a4-88e9-46b7-a061-e2ccc591cab8}"/>
<path class="Note" transform="matrix(0.992126,0,0,0.992126,450.701,261.425)" d="M6.3125,-1.3125 C6.3125,-1.53125 6.22917,-1.71875 6.0625,-1.875 C5.88542,-2.04167 5.6875,-2.125 5.46875,-2.125 C5.08333,-2.125 4.29688,-1.73438 3.10938,-0.953125 C1.88021,-0.161458 1.13021,0.40625 0.859375,0.75 C0.713542,0.927083 0.640625,1.11458 0.640625,1.3125 C0.640625,1.53125 0.729167,1.71875 0.90625,1.875 C1.0625,2.04167 1.25521,2.125 1.48438,2.125 C1.85938,2.125 2.65625,1.73438 3.875,0.953125 C5.07292,0.171875 5.8125,-0.395833 6.09375,-0.75 C6.23958,-0.916667 6.3125,-1.10417 6.3125,-1.3125 M5.28125,-2.75 C6.39583,-2.75 6.95312,-2.27083 6.95312,-1.3125 C6.95312,-0.84375 6.81771,-0.296875 6.54688,0.328125 C6.27604,0.942708 5.91146,1.41146 5.45312,1.73438 C4.45312,2.41146 3.19792,2.75 1.6875,2.75 C0.5625,2.75 0,2.27083 0,1.3125 C0,0.885417 0.135417,0.34375 0.40625,-0.3125 C0.666667,-0.9375 1.03125,-1.41146 1.5,-1.73438 C2.51042,-2.41146 3.77083,-2.75 5.28125,-2.75" id="{b3d07881-9017-4dce-93f0-ab3734525808}" stem_h="-16.7421"/>
<path class="Note" transform="matrix(0.992126,0,0,0.992126,412.88,263.906)" d="M4.39062,-2.75 C5.01562,-2.75 5.54688,-2.58854 5.98438,-2.26562 C6.38021,-1.91146 6.57812,-1.46875 6.57812,-0.9375 C6.57812,-0.0416667 6.11979,0.796875 5.20312,1.57812 C4.26562,2.35938 3.26042,2.75 2.1875,2.75 C1.5625,2.75 1.03646,2.58854 0.609375,2.26562 C0.203125,1.91146 0,1.46875 0,0.9375 C0,0.0416667 0.46875,-0.796875 1.40625,-1.57812 C2.32292,-2.35938 3.31771,-2.75 4.39062,-2.75" id="{b3ebaf89-e55f-4b2b-a3b2-68a02fac5d81}" stem_h="-17.3622"/>
<path class="Note" transform="matrix(0.992126,0,0,0.992126,383.274,266.386)" d="M4.39062,-2.75 C5.01562,-2.75 5.54688,-2.58854 5.98438,-2.26562 C6.38021,-1.91146 6.57812,-1.46875 6.57812,-0.9375 C6.57812,-0.0416667 6.11979,0.796875 5.20312,1.57812 C4.26562,2.35938 3.26042,2.75 2.1875,2.75 C1.5625,2.75 1.03646,2.58854 0.609375,2.26562 C0.203125,1.91146 0,1.46875 0,0.9375 C0,0.0416667 0.46875,-0.796875 1.40625,-1.57812 C2.32292,-2.35938 3.31771,-2.75 4.39062,-2.75" id="{451b17a6-32e1-415a-884a-4eb7bdf7d7c8}" stem_h="-17.3622"/>
<path class="Note" transform="matrix(0.992126,0,0,0.992126,353.668,268.866)" d="M4.39062,-2.75 C5.01562,-2.75 5.54688,-2.58854 5.98438,-2.26562 C6.38021,-1.91146 6.57812,-1.46875 6.57812,-0.9375 C6.57812,-0.0416667 6.11979,0.796875 5.20312,1.57812 C4.26562,2.35938 3.26042,2.75 2.1875,2.75 C1.5625,2.75 1.03646,2.58854 0.609375,2.26562 C0.203125,1.91146 0,1.46875 0,0.9375 C0,0.0416667 0.46875,-0.796875 1.40625,-1.57812 C2.32292,-2.35938 3.31771,-2.75 4.39062,-2.75" id="{60f93292-d534-4074-a140-638570e759b0}" stem_h="-17.3622"/>
<path class="Note" transform="matrix(0.992126,0,0,0.992126,322.414,293.669)" d="M4.29688,-2.25 C3.82812,-2.25 3.48958,-2.08854 3.28125,-1.76562 C3.05208,-1.45312 2.9375,-1.02604 2.9375,-0.484375 C2.9375,0.130208 3.09896,0.65625 3.42188,1.09375 C3.74479,1.52083 4.10417,1.82292 4.5,2 C4.84375,2.16667 5.21354,2.25 5.60938,2.25 C6.06771,2.25 6.41146,2.08854 6.64062,1.76562 C6.85938,1.43229 6.96875,1.00521 6.96875,0.484375 C6.96875,-0.130208 6.80729,-0.65625 6.48438,-1.09375 C6.16146,-1.51042 5.8125,-1.8125 5.4375,-2 C5.05208,-2.16667 4.67188,-2.25 4.29688,-2.25 M4.96875,-2.75 C6.375,-2.75 7.54688,-2.47917 8.48438,-1.9375 C9.43229,-1.38542 9.90625,-0.739583 9.90625,0 C9.90625,0.791667 9.41667,1.44271 8.4375,1.95312 C7.45833,2.48438 6.30208,2.75 4.96875,2.75 C3.58333,2.75 2.41146,2.47917 1.45312,1.9375 C0.484375,1.38542 0,0.739583 0,0 C0,-0.791667 0.494792,-1.44271 1.48438,-1.95312 C2.46354,-2.48438 3.625,-2.75 4.96875,-2.75" id="{dbde014a-26fd-4a65-9fbe-8792a3261f57}"/>
<path class="Note" transform="matrix(0.992126,0,0,0.992126,324.061,266.386)" d="M4.39062,-2.75 C5.01562,-2.75 5.54688,-2.58854 5.98438,-2.26562 C6.38021,-1.91146 6.57812,-1.46875 6.57812,-0.9375 C6.57812,-0.0416667 6.11979,0.796875 5.20312,1.57812 C4.26562,2.35938 3.26042,2.75 2.1875,2.75 C1.5625,2.75 1.03646,2.58854 0.609375,2.26562 C0.203125,1.91146 0,1.46875 0,0.9375 C0,0.0416667 0.46875,-0.796875 1.40625,-1.57812 C2.32292,-2.35938 3.31771,-2.75 4.39062,-2.75" id="{e3dda5c3-1670-4062-abfe-24169ffb0fb6}" stem_h="-17.3622"/>
<path class="Note" transform="matrix(0.992126,0,0,0.992126,266.15,268.866)" d="M6.3125,-1.3125 C6.3125,-1.53125 6.22917,-1.71875 6.0625,-1.875 C5.88542,-2.04167 5.6875,-2.125 5.46875,-2.125 C5.08333,-2.125 4.29688,-1.73438 3.10938,-0.953125 C1.88021,-0.161458 1.13021,0.40625 0.859375,0.75 C0.713542,0.927083 0.640625,1.11458 0.640625,1.3125 C0.640625,1.53125 0.729167,1.71875 0.90625,1.875 C1.0625,2.04167 1.25521,2.125 1.48438,2.125 C1.85938,2.125 2.65625,1.73438 3.875,0.953125 C5.07292,0.171875 5.8125,-0.395833 6.09375,-0.75 C6.23958,-0.916667 6.3125,-1.10417 6.3125,-1.3125 M5.28125,-2.75 C6.39583,-2.75 6.95312,-2.27083 6.95312,-1.3125 C6.95312,-0.84375 6.81771,-0.296875 6.54688,0.328125 C6.27604,0.942708 5.91146,1.41146 5.45312,1.73438 C4.45312,2.41146 3.19792,2.75 1.6875,2.75 C0.5625,2.75 0,2.27083 0,1.3125 C0,0.885417 0.135417,0.34375 0.40625,-0.3125 C0.666667,-0.9375 1.03125,-1.41146 1.5,-1.73438 C2.51042,-2.41146 3.77083,-2.75 5.28125,-2.75" id="{527a0237-7dae-4961-bb67-12e11272baef}" stem_h="-17.3622"/>
<path class="Note" transform="matrix(0.992126,0,0,0.992126,235.492,261.425)" d="M4.39062,-2.75 C5.01562,-2.75 5.54688,-2.58854 5.98438,-2.26562 C6.38021,-1.91146 6.57812,-1.46875 6.57812,-0.9375 C6.57812,-0.0416667 6.11979,0.796875 5.20312,1.57812 C4.26562,2.35938 3.26042,2.75 2.1875,2.75 C1.5625,2.75 1.03646,2.58854 0.609375,2.26562 C0.203125,1.91146 0,1.46875 0,0.9375 C0,0.0416667 0.46875,-0.796875 1.40625,-1.57812 C2.32292,-2.35938 3.31771,-2.75 4.39062,-2.75" id="{860f74d9-9af4-4251-a64a-75389e0a3c06}" stem_h="-16.7421"/>
<path class="Note" transform="matrix(0.992126,0,0,0.992126,203.009,296.15)" d="M4.29688,-2.25 C3.82812,-2.25 3.48958,-2.08854 3.28125,-1.76562 C3.05208,-1.45312 2.9375,-1.02604 2.9375,-0.484375 C2.9375,0.130208 3.09896,0.65625 3.42188,1.09375 C3.74479,1.52083 4.10417,1.82292 4.5,2 C4.84375,2.16667 5.21354,2.25 5.60938,2.25 C6.06771,2.25 6.41146,2.08854 6.64062,1.76562 C6.85938,1.43229 6.96875,1.00521 6.96875,0.484375 C6.96875,-0.130208 6.80729,-0.65625 6.48438,-1.09375 C6.16146,-1.51042 5.8125,-1.8125 5.4375,-2 C5.05208,-2.16667 4.67188,-2.25 4.29688,-2.25 M4.96875,-2.75 C6.375,-2.75 7.54688,-2.47917 8.48438,-1.9375 C9.43229,-1.38542 9.90625,-0.739583 9.90625,0 C9.90625,0.791667 9.41667,1.44271 8.4375,1.95312 C7.45833,2.48438 6.30208,2.75 4.96875,2.75 C3.58333,2.75 2.41146,2.47917 1.45312,1.9375 C0.484375,1.38542 0,0.739583 0,0 C0,-0.791667 0.494792,-1.44271 1.48438,-1.95312 C2.46354,-2.48438 3.625,-2.75 4.96875,-2.75" id="{6cdc5acc-dcce-4801-904e-ec0dfd5958e9}"/>
<path class="Note" transform="matrix(0.992126,0,0,0.992126,204.656,261.425)" d="M4.39062,-2.75 C5.01562,-2.75 5.54688,-2.58854 5.98438,-2.26562 C6.38021,-1.91146 6.57812,-1.46875 6.57812,-0.9375 C6.57812,-0.0416667 6.11979,0.796875 5.20312,1.57812 C4.26562,2.35938 3.26042,2.75 2.1875,2.75 C1.5625,2.75 1.03646,2.58854 0.609375,2.26562 C0.203125,1.91146 0,1.46875 0,0.9375 C0,0.0416667 0.46875,-0.796875 1.40625,-1.57812 C2.32292,-2.35938 3.31771,-2.75 4.39062,-2.75" id="{5629e308-26e5-4d45-abb8-6128bddf64bb}" stem_h="-16.7421"/>
<path class="Note" transform="matrix(0.992126,0,0,0.992126,167.483,258.945)" d="M4.39062,-2.75 C5.01562,-2.75 5.54688,-2.58854 5.98438,-2.26562 C6.38021,-1.91146 6.57812,-1.46875 6.57812,-0.9375 C6.57812,-0.0416667 6.11979,0.796875 5.20312,1.57812 C4.26562,2.35938 3.26042,2.75 2.1875,2.75 C1.5625,2.75 1.03646,2.58854 0.609375,2.26562 C0.203125,1.91146 0,1.46875 0,0.9375 C0,0.0416667 0.46875,-0.796875 1.40625,-1.57812 C2.32292,-2.35938 3.31771,-2.75 4.39062,-2.75" id="{2b0fe21a-ec3b-4241-ada3-90f56adc814d}" stem_h="-16.122"/>
<path class="Note" transform="matrix(0.992126,0,0,0.992126,138.703,261.425)" d="M4.39062,-2.75 C5.01562,-2.75 5.54688,-2.58854 5.98438,-2.26562 C6.38021,-1.91146 6.57812,-1.46875 6.57812,-0.9375 C6.57812,-0.0416667 6.11979,0.796875 5.20312,1.57812 C4.26562,2.35938 3.26042,2.75 2.1875,2.75 C1.5625,2.75 1.03646,2.58854 0.609375,2.26562 C0.203125,1.91146 0,1.46875 0,0.9375 C0,0.0416667 0.46875,-0.796875 1.40625,-1.57812 C2.32292,-2.35938 3.31771,-2.75 4.39062,-2.75" id="{7c66c4de-79e8-46ba-bf5b-af9a45ad3d45}" stem_h="-16.7421"/>
<path class="Note" transform="matrix(0.992126,0,0,0.992126,109.924,261.425)" d="M4.39062,-2.75 C5.01562,-2.75 5.54688,-2.58854 5.98438,-2.26562 C6.38021,-1.91146 6.57812,-1.46875 6.57812,-0.9375 C6.57812,-0.0416667 6.11979,0.796875 5.20312,1.57812 C4.26562,2.35938 3.26042,2.75 2.1875,2.75 C1.5625,2.75 1.03646,2.58854 0.609375,2.26562 C0.203125,1.91146 0,1.46875 0,0.9375 C0,0.0416667 0.46875,-0.796875 1.40625,-1.57812 C2.32292,-2.35938 3.31771,-2.75 4.39062,-2.75" id="{fdd98b5e-e479-4d76-9a7a-22712c9b4670}" stem_h="-16.7421"/>
<path class="Note" transform="matrix(0.992126,0,0,0.992126,79.4972,296.15)" d="M4.29688,-2.25 C3.82812,-2.25 3.48958,-2.08854 3.28125,-1.76562 C3.05208,-1.45312 2.9375,-1.02604 2.9375,-0.484375 C2.9375,0.130208 3.09896,0.65625 3.42188,1.09375 C3.74479,1.52083 4.10417,1.82292 4.5,2 C4.84375,2.16667 5.21354,2.25 5.60938,2.25 C6.06771,2.25 6.41146,2.08854 6.64062,1.76562 C6.85938,1.43229 6.96875,1.00521 6.96875,0.484375 C6.96875,-0.130208 6.80729,-0.65625 6.48438,-1.09375 C6.16146,-1.51042 5.8125,-1.8125 5.4375,-2 C5.05208,-2.16667 4.67188,-2.25 4.29688,-2.25 M4.96875,-2.75 C6.375,-2.75 7.54688,-2.47917 8.48438,-1.9375 C9.43229,-1.38542 9.90625,-0.739583 9.90625,0 C9.90625,0.791667 9.41667,1.44271 8.4375,1.95312 C7.45833,2.48438 6.30208,2.75 4.96875,2.75 C3.58333,2.75 2.41146,2.47917 1.45312,1.9375 C0.484375,1.38542 0,0.739583 0,0 C0,-0.791667 0.494792,-1.44271 1.48438,-1.95312 C2.46354,-2.48438 3.625,-2.75 4.96875,-2.75" id="{78017f85-333a-488f-93d0-ae737066fcc5}"/>
<path class="Note" transform="matrix(0.992126,0,0,0.992126,81.1442,261.425)" d="M4.39062,-2.75 C5.01562,-2.75 5.54688,-2.58854 5.98438,-2.26562 C6.38021,-1.91146 6.57812,-1.46875 6.57812,-0.9375 C6.57812,-0.0416667 6.11979,0.796875 5.20312,1.57812 C4.26562,2.35938 3.26042,2.75 2.1875,2.75 C1.5625,2.75 1.03646,2.58854 0.609375,2.26562 C0.203125,1.91146 0,1.46875 0,0.9375 C0,0.0416667 0.46875,-0.796875 1.40625,-1.57812 C2.32292,-2.35938 3.31771,-2.75 4.39062,-2.75" id="{874d746a-cfd1-458f-a099-7936c244c9f0}" stem_h="-16.7421"/>
<path class="Note" transform="matrix(0.992126,0,0,0.992126,507.626,115.087)" d="M6.3125,-1.3125 C6.3125,-1.53125 6.22917,-1.71875 6.0625,-1.875 C5.88542,-2.04167 5.6875,-2.125 5.46875,-2.125 C5.08333,-2.125 4.29688,-1.73438 3.10938,-0.953125 C1.88021,-0.161458 1.13021,0.40625 0.859375,0.75 C0.713542,0.927083 0.640625,1.11458 0.640625,1.3125 C0.640625,1.53125 0.729167,1.71875 0.90625,1.875 C1.0625,2.04167 1.25521,2.125 1.48438,2.125 C1.85938,2.125 2.65625,1.73438 3.875,0.953125 C5.07292,0.171875 5.8125,-0.395833 6.09375,-0.75 C6.23958,-0.916667 6.3125,-1.10417 6.3125,-1.3125 M5.28125,-2.75 C6.39583,-2.75 6.95312,-2.27083 6.95312,-1.3125 C6.95312,-0.84375 6.81771,-0.296875 6.54688,0.328125 C6.27604,0.942708 5.91146,1.41146 5.45312,1.73438 C4.45312,2.41146 3.19792,2.75 1.6875,2.75 C0.5625,2.75 0,2.27083 0,1.3125 C0,0.885417 0.135417,0.34375 0.40625,-0.3125 C0.666667,-0.9375 1.03125,-1.41146 1.5,-1.73438 C2.51042,-2.41146 3.77083,-2.75 5.28125,-2.75" id="{3daa6c15-6bab-4bc5-aafc-3dea5f3a95be}" stem_h="-16.7421"/>
<path class="Note" transform="matrix(0.992126,0,0,0.992126,455.198,149.811)" d="M4.29688,-2.25 C3.82812,-2.25 3.48958,-2.08854 3.28125,-1.76562 C3.05208,-1.45312 2.9375,-1.02604 2.9375,-0.484375 C2.9375,0.130208 3.09896,0.65625 3.42188,1.09375 C3.74479,1.52083 4.10417,1.82292 4.5,2 C4.84375,2.16667 5.21354,2.25 5.60938,2.25 C6.06771,2.25 6.41146,2.08854 6.64062,1.76562 C6.85938,1.43229 6.96875,1.00521 6.96875,0.484375 C6.96875,-0.130208 6.80729,-0.65625 6.48438,-1.09375 C6.16146,-1.51042 5.8125,-1.8125 5.4375,-2 C5.05208,-2.16667 4.67188,-2.25 4.29688,-2.25 M4.96875,-2.75 C6.375,-2.75 7.54688,-2.47917 8.48438,-1.9375 C9.43229,-1.38542 9.90625,-0.739583 9.90625,0 C9.90625,0.791667 9.41667,1.44271 8.4375,1.95312 C7.45833,2.48438 6.30208,2.75 4.96875,2.75 C3.58333,2.75 2.41146,2.47917 1.45312,1.9375 C0.484375,1.38542 0,0.739583 0,0 C0,-0.791667 0.494792,-1.44271 1.48438,-1.95312 C2.46354,-2.48438 3.625,-2.75 4.96875,-2.75" id="{53113f22-d041-43bc-9f44-a6c2475dd93d}"/>
<path class="Note" transform="matrix(0.992126,0,0,0.992126,456.666,115.087)" d="M6.3125,-1.3125 C6.3125,-1.53125 6.22917,-1.71875 6.0625,-1.875 C5.88542,-2.04167 5.6875,-2.125 5.46875,-2.125 C5.08333,-2.125 4.29688,-1.73438 3.10938,-0.953125 C1.88021,-0.161458 1.13021,0.40625 0.859375,0.75 C0.713542,0.927083 0.640625,1.11458 0.640625,1.3125 C0.640625,1.53125 0.729167,1.71875 0.90625,1.875 C1.0625,2.04167 1.25521,2.125 1.48438,2.125 C1.85938,2.125 2.65625,1.73438 3.875,0.953125 C5.07292,0.171875 5.8125,-0.395833 6.09375,-0.75 C6.23958,-0.916667 6.3125,-1.10417 6.3125,-1.3125 M5.28125,-2.75 C6.39583,-2.75 6.95312,-2.27083 6.95312,-1.3125 C6.95312,-0.84375 6.81771,-0.296875 6.54688,0.328125 C6.27604,0.942708 5.91146,1.41146 5.45312,1.73438 C4.45312,2.41146 3.19792,2.75 1.6875,2.75 C0.5625,2.75 0,2.27083 0,1.3125 C0,0.885417 0.135417,0.34375 0.40625,-0.3125 C0.666667,-0.9375 1.03125,-1.41146 1.5,-1.73438 C2.51042,-2.41146 3.77083,-2.75 5.28125,-2.75" id="{8bed0f50-5001-42ce-abc7-7376b2c53bcb}" stem_h="-16.7421"/>
<path class="Note" transform="matrix(0.992126,0,0,0.992126,419.221,117.567)" d="M4.39062,-2.75 C5.01562,-2.75 5.54688,-2.58854 5.98438,-2.26562 C6.38021,-1.91146 6.57812,-1.46875 6.57812,-0.9375 C6.57812,-0.0416667 6.11979,0.796875 5.20312,1.57812 C4.26562,2.35938 3.26042,2.75 2.1875,2.75 C1.5625,2.75 1.03646,2.58854 0.609375,2.26562 C0.203125,1.91146 0,1.46875 0,0.9375 C0,0.0416667 0.46875,-0.796875 1.40625,-1.57812 C2.32292,-2.35938 3.31771,-2.75 4.39062,-2.75" id="{e379fbef-5a09-4915-ba2a-e2fbd9ab06bd}" stem_h="-17.3622"/>
<path class="Note" transform="matrix(0.992126,0,0,0.992126,389.989,120.047)" d="M4.39062,-2.75 C5.01562,-2.75 5.54688,-2.58854 5.98438,-2.26562 C6.38021,-1.91146 6.57812,-1.46875 6.57812,-0.9375 C6.57812,-0.0416667 6.11979,0.796875 5.20312,1.57812 C4.26562,2.35938 3.26042,2.75 2.1875,2.75 C1.5625,2.75 1.03646,2.58854 0.609375,2.26562 C0.203125,1.91146 0,1.46875 0,0.9375 C0,0.0416667 0.46875,-0.796875 1.40625,-1.57812 C2.32292,-2.35938 3.31771,-2.75 4.39062,-2.75" id="{dcbfb233-41e2-4e94-9ea6-f4663d2c774e}" stem_h="-17.3622"/>
<path class="Note" transform="matrix(0.992126,0,0,0.992126,360.758,122.528)" d="M4.39062,-2.75 C5.01562,-2.75 5.54688,-2.58854 5.98438,-2.26562 C6.38021,-1.91146 6.57812,-1.46875 6.57812,-0.9375 C6.57812,-0.0416667 6.11979,0.796875 5.20312,1.57812 C4.26562,2.35938 3.26042,2.75 2.1875,2.75 C1.5625,2.75 1.03646,2.58854 0.609375,2.26562 C0.203125,1.91146 0,1.46875 0,0.9375 C0,0.0416667 0.46875,-0.796875 1.40625,-1.57812 C2.32292,-2.35938 3.31771,-2.75 4.39062,-2.75" id="{631044fc-0bde-4fc4-9fd2-27e02cdcb095}" stem_h="-17.3622"/>
<path class="Note" transform="matrix(0.992126,0,0,0.992126,329.88,147.331)" d="M4.29688,-2.25 C3.82812,-2.25 3.48958,-2.08854 3.28125,-1.76562 C3.05208,-1.45312 2.9375,-1.02604 2.9375,-0.484375 C2.9375,0.130208 3.09896,0.65625 3.42188,1.09375 C3.74479,1.52083 4.10417,1.82292 4.5,2 C4.84375,2.16667 5.21354,2.25 5.60938,2.25 C6.06771,2.25 6.41146,2.08854 6.64062,1.76562 C6.85938,1.43229 6.96875,1.00521 6.96875,0.484375 C6.96875,-0.130208 6.80729,-0.65625 6.48438,-1.09375 C6.16146,-1.51042 5.8125,-1.8125 5.4375,-2 C5.05208,-2.16667 4.67188,-2.25 4.29688,-2.25 M4.96875,-2.75 C6.375,-2.75 7.54688,-2.47917 8.48438,-1.9375 C9.43229,-1.38542 9.90625,-0.739583 9.90625,0 C9.90625,0.791667 9.41667,1.44271 8.4375,1.95312 C7.45833,2.48438 6.30208,2.75 4.96875,2.75 C3.58333,2.75 2.41146,2.47917 1.45312,1.9375 C0.484375,1.38542 0,0.739583 0,0 C0,-0.791667 0.494792,-1.44271 1.48438,-1.95312 C2.46354,-2.48438 3.625,-2.75 4.96875,-2.75" id="{c4b85a8e-28b5-4d05-b4a5-d8833091d7b3}"/>
<path class="Note" transform="matrix(0.992126,0,0,0.992126,331.527,120.047)" d="M4.39062,-2.75 C5.01562,-2.75 5.54688,-2.58854 5.98438,-2.26562 C6.38021,-1.91146 6.57812,-1.46875 6.57812,-0.9375 C6.57812,-0.0416667 6.11979,0.796875 5.20312,1.57812 C4.26562,2.35938 3.26042,2.75 2.1875,2.75 C1.5625,2.75 1.03646,2.58854 0.609375,2.26562 C0.203125,1.91146 0,1.46875 0,0.9375 C0,0.0416667 0.46875,-0.796875 1.40625,-1.57812 C2.32292,-2.35938 3.31771,-2.75 4.39062,-2.75" id="{97d0d4b9-fccd-4dea-b5a3-7c278f2805d0}" stem_h="-17.3622"/>
<path class="Note" transform="matrix(0.992126,0,0,0.992126,274.283,122.528)" d="M6.3125,-1.3125 C6.3125,-1.53125 6.22917,-1.71875 6.0625,-1.875 C5.88542,-2.04167 5.6875,-2.125 5.46875,-2.125 C5.08333,-2.125 4.29688,-1.73438 3.10938,-0.953125 C1.88021,-0.161458 1.13021,0.40625 0.859375,0.75 C0.713542,0.927083 0.640625,1.11458 0.640625,1.3125 C0.640625,1.53125 0.729167,1.71875 0.90625,1.875 C1.0625,2.04167 1.25521,2.125 1.48438,2.125 C1.85938,2.125 2.65625,1.73438 3.875,0.953125 C5.07292,0.171875 5.8125,-0.395833 6.09375,-0.75 C6.23958,-0.916667 6.3125,-1.10417 6.3125,-1.3125 M5.28125,-2.75 C6.39583,-2.75 6.95312,-2.27083 6.95312,-1.3125 C6.95312,-0.84375 6.81771,-0.296875 6.54688,0.328125 C6.27604,0.942708 5.91146,1.41146 5.45312,1.73438 C4.45312,2.41146 3.19792,2.75 1.6875,2.75 C0.5625,2.75 0,2.27083 0,1.3125 C0,0.885417 0.135417,0.34375 0.40625,-0.3125 C0.666667,-0.9375 1.03125,-1.41146 1.5,-1.73438 C2.51042,-2.41146 3.77083,-2.75 5.28125,-2.75" id="{81cfd08c-0a0f-4248-9fbd-6274dd4a4d48}" stem_h="-17.3622"/>
<path class="Note" transform="matrix(0.992126,0,0,0.992126,244.042,115.087)" d="M4.39062,-2.75 C5.01562,-2.75 5.54688,-2.58854 5.98438,-2.26562 C6.38021,-1.91146 6.57812,-1.46875 6.57812,-0.9375 C6.57812,-0.0416667 6.11979,0.796875 5.20312,1.57812 C4.26562,2.35938 3.26042,2.75 2.1875,2.75 C1.5625,2.75 1.03646,2.58854 0.609375,2.26562 C0.203125,1.91146 0,1.46875 0,0.9375 C0,0.0416667 0.46875,-0.796875 1.40625,-1.57812 C2.32292,-2.35938 3.31771,-2.75 4.39062,-2.75" id="{0591f780-e715-4a87-a4bc-9185a2949c2c}" stem_h="-16.7421"/>
<path class="Note" transform="matrix(0.992126,0,0,0.992126,211.975,149.811)" d="M4.29688,-2.25 C3.82812,-2.25 3.48958,-2.08854 3.28125,-1.76562 C3.05208,-1.45312 2.9375,-1.02604 2.9375,-0.484375 C2.9375,0.130208 3.09896,0.65625 3.42188,1.09375 C3.74479,1.52083 4.10417,1.82292 4.5,2 C4.84375,2.16667 5.21354,2.25 5.60938,2.25 C6.06771,2.25 6.41146,2.08854 6.64062,1.76562 C6.85938,1.43229 6.96875,1.00521 6.96875,0.484375 C6.96875,-0.130208 6.80729,-0.65625 6.48438,-1.09375 C6.16146,-1.51042 5.8125,-1.8125 5.4375,-2 C5.05208,-2.16667 4.67188,-2.25 4.29688,-2.25 M4.96875,-2.75 C6.375,-2.75 7.54688,-2.47917 8.48438,-1.9375 C9.43229,-1.38542 9.90625,-0.739583 9.90625,0 C9.90625,0.791667 9.41667,1.44271 8.4375,1.95312 C7.45833,2.48438 6.30208,2.75 4.96875,2.75 C3.58333,2.75 2.41146,2.47917 1.45312,1.9375 C0.484375,1.38542 0,0.739583 0,0 C0,-0.791667 0.494792,-1.44271 1.48438,-1.95312 C2.46354,-2.48438 3.625,-2.75 4.96875,-2.75" id="{7c198c97-d73d-4263-a985-b0f9126da7bf}"/>
<path class="Note" transform="matrix(0.992126,0,0,0.992126,213.622,115.087)" d="M4.39062,-2.75 C5.01562,-2.75 5.54688,-2.58854 5.98438,-2.26562 C6.38021,-1.91146 6.57812,-1.46875 6.57812,-0.9375 C6.57812,-0.0416667 6.11979,0.796875 5.20312,1.57812 C4.26562,2.35938 3.26042,2.75 2.1875,2.75 C1.5625,2.75 1.03646,2.58854 0.609375,2.26562 C0.203125,1.91146 0,1.46875 0,0.9375 C0,0.0416667 0.46875,-0.796875 1.40625,-1.57812 C2.32292,-2.35938 3.31771,-2.75 4.39062,-2.75" id="{3cf0259c-ee80-492d-93cf-cb3911a65a42}" stem_h="-16.7421"/>
<path class="Note" transform="matrix(0.992126,0,0,0.992126,176.824,112.606)" d="M4.39062,-2.75 C5.01562,-2.75 5.54688,-2.58854 5.98438,-2.26562 C6.38021,-1.91146 6.57812,-1.46875 6.57812,-0.9375 C6.57812,-0.0416667 6.11979,0.796875 5.20312,1.57812 C4.26562,2.35938 3.26042,2.75 2.1875,2.75 C1.5625,2.75 1.03646,2.58854 0.609375,2.26562 C0.203125,1.91146 0,1.46875 0,0.9375 C0,0.0416667 0.46875,-0.796875 1.40625,-1.57812 C2.32292,-2.35938 3.31771,-2.75 4.39062,-2.75" id="{31f7bc8e-5d80-4c17-b660-d9457ece2bae}" stem_h="-16.122"/>
<path class="Note" transform="matrix(0.992126,0,0,0.992126,148.42,115.087)" d="M4.39062,-2.75 C5.01562,-2.75 5.54688,-2.58854 5.98438,-2.26562 C6.38021,-1.91146 6.57812,-1.46875 6.57812,-0.9375 C6.57812,-0.0416667 6.11979,0.796875 5.20312,1.57812 C4.26562,2.35938 3.26042,2.75 2.1875,2.75 C1.5625,2.75 1.03646,2.58854 0.609375,2.26562 C0.203125,1.91146 0,1.46875 0,0.9375 C0,0.0416667 0.46875,-0.796875 1.40625,-1.57812 C2.32292,-2.35938 3.31771,-2.75 4.39062,-2.75" id="{b4268bd6-3473-4b8e-978c-492c24c920b8}" stem_h="-16.7421"/>
<path class="Note" transform="matrix(0.992126,0,0,0.992126,120.016,115.087)" d="M4.39062,-2.75 C5.01562,-2.75 5.54688,-2.58854 5.98438,-2.26562 C6.38021,-1.91146 6.57812,-1.46875 6.57812,-0.9375 C6.57812,-0.0416667 6.11979,0.796875 5.20312,1.57812 C4.26562,2.35938 3.26042,2.75 2.1875,2.75 C1.5625,2.75 1.03646,2.58854 0.609375,2.26562 C0.203125,1.91146 0,1.46875 0,0.9375 C0,0.0416667 0.46875,-0.796875 1.40625,-1.57812 C2.32292,-2.35938 3.31771,-2.75 4.39062,-2.75" id="{4ccec6c9-0da1-4e98-ad3f-72725e41cbc4}" stem_h="-16.7421"/>
<path class="Note" transform="matrix(0.992126,0,0,0.992126,89.9641,149.811)" d="M4.29688,-2.25 C3.82812,-2.25 3.48958,-2.08854 3.28125,-1.76562 C3.05208,-1.45312 2.9375,-1.02604 2.9375,-0.484375 C2.9375,0.130208 3.09896,0.65625 3.42188,1.09375 C3.74479,1.52083 4.10417,1.82292 4.5,2 C4.84375,2.16667 5.21354,2.25 5.60938,2.25 C6.06771,2.25 6.41146,2.08854 6.64062,1.76562 C6.85938,1.43229 6.96875,1.00521 6.96875,0.484375 C6.96875,-0.130208 6.80729,-0.65625 6.48438,-1.09375 C6.16146,-1.51042 5.8125,-1.8125 5.4375,-2 C5.05208,-2.16667 4.67188,-2.25 4.29688,-2.25 M4.96875,-2.75 C6.375,-2.75 7.54688,-2.47917 8.48438,-1.9375 C9.43229,-1.38542 9.90625,-0.739583 9.90625,0 C9.90625,0.791667 9.41667,1.44271 8.4375,1.95312 C7.45833,2.48438 6.30208,2.75 4.96875,2.75 C3.58333,2.75 2.41146,2.47917 1.45312,1.9375 C0.484375,1.38542 0,0.739583 0,0 C0,-0.791667 0.494792,-1.44271 1.48438,-1.95312 C2.46354,-2.48438 3.625,-2.75 4.96875,-2.75" id="{407e5e58-7a6b-4f99-b8c8-49ceef5c5842}"/>
<path class="Note" transform="matrix(0.992126,0,0,0.992126,91.6112,115.087)" d="M4.39062,-2.75 C5.01562,-2.75 5.54688,-2.58854 5.98438,-2.26562 C6.38021,-1.91146 6.57812,-1.46875 6.57812,-0.9375 C6.57812,-0.0416667 6.11979,0.796875 5.20312,1.57812 C4.26562,2.35938 3.26042,2.75 2.1875,2.75 C1.5625,2.75 1.03646,2.58854 0.609375,2.26562 C0.203125,1.91146 0,1.46875 0,0.9375 C0,0.0416667 0.46875,-0.796875 1.40625,-1.57812 C2.32292,-2.35938 3.31771,-2.75 4.39062,-2.75" id="{22439219-4023-4cd3-851b-90afca416b90}" stem_h="-16.7421"/>
<path class="Clef" transform="matrix(0.992126,0,0,0.992126,50.0961,303.591)" d="M11.4297,-1.78125 C11.237,-1.97917 11.1406,-2.22135 11.1406,-2.50781 C11.1406,-2.79427 11.237,-3.03385 11.4297,-3.22656 C11.6224,-3.41927 11.862,-3.51562 12.1484,-3.51562 C12.4349,-3.51562 12.6771,-3.41927 12.875,-3.22656 C13.0729,-3.03385 13.1719,-2.79427 13.1719,-2.50781 C13.1719,-2.22135 13.0729,-1.97917 12.875,-1.78125 C12.6771,-1.58333 12.4349,-1.48438 12.1484,-1.48438 C11.862,-1.48438 11.6224,-1.58333 11.4297,-1.78125 M11.4297,3.22656 C11.237,3.03385 11.1406,2.79427 11.1406,2.50781 C11.1406,2.22135 11.237,1.97917 11.4297,1.78125 C11.6224,1.58333 11.862,1.48438 12.1484,1.48438 C12.4349,1.48438 12.6771,1.58333 12.875,1.78125 C13.0729,1.97917 13.1719,2.22135 13.1719,2.50781 C13.1719,2.79427 13.0729,3.03385 12.875,3.22656 C12.6771,3.41927 12.4349,3.51562 12.1484,3.51562 C11.862,3.51562 11.6224,3.41927 11.4297,3.22656 M4.65625,-5.25 C6.38542,-5.25 7.80208,-4.81771 8.90625,-3.95312 C9.97917,-3.03646 10.5156,-1.79688 10.5156,-0.234375 C10.5156,0.817708 10.3073,1.78125 9.89062,2.65625 C9.49479,3.57292 8.97917,4.38021 8.34375,5.07812 C7.6875,5.79688 6.90104,6.47396 5.98438,7.10938 C5.07812,7.73438 4.15104,8.29688 3.20312,8.79688 C1.27604,9.76562 0.208333,10.25 0,10.25 C-0.166667,10.25 -0.25,10.1667 -0.25,10 C-0.25,9.9375 -0.223958,9.88021 -0.171875,9.82812 C0.494792,9.43229 1.30729,8.93229 2.26562,8.32812 C2.89062,7.92188 3.61979,7.35938 4.45312,6.64062 C5.26562,5.96354 5.89062,5.32812 6.32812,4.73438 C6.78646,4.14062 7.20312,3.41146 7.57812,2.54688 C7.90104,1.67188 8.0625,0.807292 8.0625,-0.046875 C8.0625,-1.30729 7.75,-2.40625 7.125,-3.34375 C6.5,-4.28125 5.67708,-4.75 4.65625,-4.75 C3.92708,-4.75 3.30208,-4.51562 2.78125,-4.04688 C2.21875,-3.56771 1.8125,-2.96354 1.5625,-2.23438 C1.8125,-2.33854 2.04167,-2.39062 2.25,-2.39062 C2.79167,-2.39062 3.26042,-2.19271 3.65625,-1.79688 C4.04167,-1.38021 4.23438,-0.90625 4.23438,-0.375 C4.23438,0.1875 4.04688,0.692708 3.67188,1.14062 C3.26562,1.53646 2.79167,1.73438 2.25,1.73438 C1.66667,1.73438 1.14062,1.53646 0.671875,1.14062 C0.223958,0.692708 0,0.1875 0,-0.375 C0,-1.71875 0.458333,-2.86458 1.375,-3.8125 C2.27083,-4.77083 3.36458,-5.25 4.65625,-5.25"/>
<path class="Clef" transform="matrix(0.992126,0,0,0.992126,50.0961,261.425)" d="M7.34375,-5.125 C7.34375,-5.125 7.38542,-5.125 7.46875,-5.125 C7.52083,-5.13542 7.5625,-5.14062 7.59375,-5.14062 C9.05208,-5.14062 10.25,-4.625 11.1875,-3.59375 C12.125,-2.58333 12.5938,-1.40104 12.5938,-0.046875 C12.5938,1.64062 11.901,3.01042 10.5156,4.0625 C10.151,4.35417 9.67188,4.58854 9.07812,4.76562 C9.15104,5.60938 9.1875,6.29167 9.1875,6.8125 C9.1875,6.91667 9.17188,7.29688 9.14062,7.95312 C9.08854,9.16146 8.67188,10.2083 7.89062,11.0938 C7.14062,11.9688 6.20312,12.4062 5.07812,12.4062 C4.02604,12.4062 3.13021,12.0365 2.39062,11.2969 C1.64062,10.5365 1.26562,9.625 1.26562,8.5625 C1.26562,8 1.48438,7.52083 1.92188,7.125 C2.35938,6.73958 2.86979,6.54688 3.45312,6.54688 C3.97396,6.54688 4.41146,6.75 4.76562,7.15625 C5.13021,7.53125 5.3125,8 5.3125,8.5625 C5.3125,9.0625 5.13021,9.49479 4.76562,9.85938 C4.40104,10.224 3.96354,10.4062 3.45312,10.4062 C3.24479,10.4062 3.04688,10.3698 2.85938,10.2969 C3.43229,11.1406 4.19271,11.5625 5.14062,11.5625 C6.03646,11.5625 6.77083,11.1979 7.34375,10.4688 C7.94792,9.71875 8.27604,8.83854 8.32812,7.82812 C8.34896,7.20312 8.35938,6.84896 8.35938,6.76562 C8.35938,6.03646 8.33333,5.4375 8.28125,4.96875 C7.63542,5.07292 7.05729,5.125 6.54688,5.125 C4.73438,5.125 3.19271,4.40625 1.92188,2.96875 C0.671875,1.52083 0.046875,-0.197917 0.046875,-2.1875 C0.046875,-2.60417 0.0833333,-3.02604 0.15625,-3.45312 C0.239583,-3.80729 0.338542,-4.19271 0.453125,-4.60938 C0.515625,-4.84896 0.692708,-5.22917 0.984375,-5.75 C1.08854,-5.90625 1.20573,-6.10156 1.33594,-6.33594 C1.46615,-6.57031 1.55729,-6.72396 1.60938,-6.79688 C1.73438,-7.05729 1.98438,-7.41146 2.35938,-7.85938 C2.46354,-7.97396 2.57292,-8.10156 2.6875,-8.24219 C2.80208,-8.38281 2.89844,-8.5 2.97656,-8.59375 C3.05469,-8.6875 3.11198,-8.76042 3.14844,-8.8125 C3.1849,-8.86458 3.47917,-9.20833 4.03125,-9.84375 C4.15625,-9.97917 4.28125,-10.1198 4.40625,-10.2656 C4.53125,-10.4115 4.63281,-10.5286 4.71094,-10.6172 C4.78906,-10.7057 4.84896,-10.7656 4.89062,-10.7969 C4.42188,-12.349 4.125,-13.5885 4,-14.5156 C3.91667,-15.2552 3.875,-16.2708 3.875,-17.5625 C3.875,-18.6979 4.13542,-19.7604 4.65625,-20.75 C5.15625,-21.7708 5.86458,-22.6094 6.78125,-23.2656 C6.84375,-23.3073 6.90625,-23.3281 6.96875,-23.3281 C7.0625,-23.3281 7.13021,-23.3073 7.17188,-23.2656 C7.86979,-22.4219 8.47396,-21.3229 8.98438,-19.9688 C9.50521,-18.6146 9.76562,-17.3802 9.76562,-16.2656 C9.76562,-15.0156 9.46875,-13.8438 8.875,-12.75 C8.19792,-11.5938 7.32292,-10.3958 6.25,-9.15625 C6.52083,-8.30208 6.88542,-6.95833 7.34375,-5.125 M9,3.96875 C9.67708,3.71875 10.2083,3.29688 10.5938,2.70312 C11.0104,2.13021 11.2188,1.48438 11.2188,0.765625 C11.2188,-0.161458 10.9062,-0.984375 10.2812,-1.70312 C9.63542,-2.44271 8.81771,-2.85938 7.82812,-2.95312 C8.39062,-0.203125 8.78125,2.10417 9,3.96875 M1.45312,-0.546875 C1.45312,0.744792 1.97396,1.88021 3.01562,2.85938 C4.07812,3.80729 5.27604,4.28125 6.60938,4.28125 C7.15104,4.28125 7.68229,4.23958 8.20312,4.15625 C7.99479,2.17708 7.58333,-0.192708 6.96875,-2.95312 C6.22917,-2.86979 5.64062,-2.60938 5.20312,-2.17188 C4.76562,-1.71354 4.54688,-1.19792 4.54688,-0.625 C4.54688,0.364583 5.07812,1.16667 6.14062,1.78125 C6.22396,1.875 6.26562,1.97396 6.26562,2.07812 C6.26562,2.18229 6.22396,2.27604 6.14062,2.35938 C6.05729,2.45312 5.95833,2.5 5.84375,2.5 C5.83333,2.5 5.77604,2.48958 5.67188,2.46875 C4.92188,2.0625 4.34896,1.54167 3.95312,0.90625 C3.56771,0.21875 3.375,-0.46875 3.375,-1.15625 C3.375,-2.05208 3.65625,-2.86458 4.21875,-3.59375 C4.80208,-4.32292 5.5625,-4.79167 6.5,-5 C6.13542,-6.45833 5.83854,-7.59896 5.60938,-8.42188 C5.40104,-8.18229 5.15104,-7.89844 4.85938,-7.57031 C4.56771,-7.24219 4.39583,-7.04167 4.34375,-6.96875 C3.875,-6.36458 3.51562,-5.89062 3.26562,-5.54688 C2.81771,-4.93229 2.48958,-4.40625 2.28125,-3.96875 C2.0625,-3.46875 1.86979,-2.92708 1.70312,-2.34375 C1.53646,-1.78125 1.45312,-1.18229 1.45312,-0.546875 M7.96875,-20.4062 C6.98958,-19.9271 6.22396,-19.2396 5.67188,-18.3438 C5.09896,-17.4167 4.8125,-16.4219 4.8125,-15.3594 C4.8125,-14.4219 5.04688,-13.1562 5.51562,-11.5625 C6.45312,-12.6979 7.15625,-13.7448 7.625,-14.7031 C8.11458,-15.724 8.35938,-16.7865 8.35938,-17.8906 C8.35938,-18.724 8.22917,-19.5625 7.96875,-20.4062"/>
<path class="Clef" transform="matrix(0.992126,0,0,0.992126,50.0961,157.252)" d="M11.4297,-1.78125 C11.237,-1.97917 11.1406,-2.22135 11.1406,-2.50781 C11.1406,-2.79427 11.237,-3.03385 11.4297,-3.22656 C11.6224,-3.41927 11.862,-3.51562 12.1484,-3.51562 C12.4349,-3.51562 12.6771,-3.41927 12.875,-3.22656 C13.0729,-3.03385 13.1719,-2.79427 13.1719,-2.50781 C13.1719,-2.22135 13.0729,-1.97917 12.875,-1.78125 C12.6771,-1.58333 12.4349,-1.48438 12.1484,-1.48438 C11.862,-1.48438 11.6224,-1.58333 11.4297,-1.78125 M11.4297,3.22656 C11.237,3.03385 11.1406,2.79427 11.1406,2.50781 C11.1406,2.22135 11.237,1.97917 11.4297,1.78125 C11.6224,1.58333 11.862,1.48438 12.1484,1.48438 C12.4349,1.48438 12.6771,1.58333 12.875,1.78125 C13.0729,1.97917 13.1719,2.22135 13.1719,2.50781 C13.1719,2.79427 13.0729,3.03385 12.875,3.22656 C12.6771,3.41927 12.4349,3.51562 12.1484,3.51562 C11.862,3.51562 11.6224,3.41927 11.4297,3.22656 M4.65625,-5.25 C6.38542,-5.25 7.80208,-4.81771 8.90625,-3.95312 C9.97917,-3.03646 10.5156,-1.79688 10.5156,-0.234375 C10.5156,0.817708 10.3073,1.78125 9.89062,2.65625 C9.49479,3.57292 8.97917,4.38021 8.34375,5.07812 C7.6875,5.79688 6.90104,6.47396 5.98438,7.10938 C5.07812,7.73438 4.15104,8.29688 3.20312,8.79688 C1.27604,9.76562 0.208333,10.25 0,10.25 C-0.166667,10.25 -0.25,10.1667 -0.25,10 C-0.25,9.9375 -0.223958,9.88021 -0.171875,9.82812 C0.494792,9.43229 1.30729,8.93229 2.26562,8.32812 C2.89062,7.92188 3.61979,7.35938 4.45312,6.64062 C5.26562,5.96354 5.89062,5.32812 6.32812,4.73438 C6.78646,4.14062 7.20312,3.41146 7.57812,2.54688 C7.90104,1.67188 8.0625,0.807292 8.0625,-0.046875 C8.0625,-1.30729 7.75,-2.40625 7.125,-3.34375 C6.5,-4.28125 5.67708,-4.75 4.65625,-4.75 C3.92708,-4.75 3.30208,-4.51562 2.78125,-4.04688 C2.21875,-3.56771 1.8125,-2.96354 1.5625,-2.23438 C1.8125,-2.33854 2.04167,-2.39062 2.25,-2.39062 C2.79167,-2.39062 3.26042,-2.19271 3.65625,-1.79688 C4.04167,-1.38021 4.23438,-0.90625 4.23438,-0.375 C4.23438,0.1875 4.04688,0.692708 3.67188,1.14062 C3.26562,1.53646 2.79167,1.73438 2.25,1.73438 C1.66667,1.73438 1.14062,1.53646 0.671875,1.14062 C0.223958,0.692708 0,0.1875 0,-0.375 C0,-1.71875 0.458333,-2.86458 1.375,-3.8125 C2.27083,-4.77083 3.36458,-5.25 4.65625,-5.25"/>
<path class="Clef" transform="matrix(0.992126,0,0,0.992126,50.0961,115.087)" d="M7.34375,-5.125 C7.34375,-5.125 7.38542,-5.125 7.46875,-5.125 C7.52083,-5.13542 7.5625,-5.14062 7.59375,-5.14062 C9.05208,-5.14062 10.25,-4.625 11.1875,-3.59375 C12.125,-2.58333 12.5938,-1.40104 12.5938,-0.046875 C12.5938,1.64062 11.901,3.01042 10.5156,4.0625 C10.151,4.35417 9.67188,4.58854 9.07812,4.76562 C9.15104,5.60938 9.1875,6.29167 9.1875,6.8125 C9.1875,6.91667 9.17188,7.29688 9.14062,7.95312 C9.08854,9.16146 8.67188,10.2083 7.89062,11.0938 C7.14062,11.9688 6.20312,12.4062 5.07812,12.4062 C4.02604,12.4062 3.13021,12.0365 2.39062,11.2969 C1.64062,10.5365 1.26562,9.625 1.26562,8.5625 C1.26562,8 1.48438,7.52083 1.92188,7.125 C2.35938,6.73958 2.86979,6.54688 3.45312,6.54688 C3.97396,6.54688 4.41146,6.75 4.76562,7.15625 C5.13021,7.53125 5.3125,8 5.3125,8.5625 C5.3125,9.0625 5.13021,9.49479 4.76562,9.85938 C4.40104,10.224 3.96354,10.4062 3.45312,10.4062 C3.24479,10.4062 3.04688,10.3698 2.85938,10.2969 C3.43229,11.1406 4.19271,11.5625 5.14062,11.5625 C6.03646,11.5625 6.77083,11.1979 7.34375,10.4688 C7.94792,9.71875 8.27604,8.83854 8.32812,7.82812 C8.34896,7.20312 8.35938,6.84896 8.35938,6.76562 C8.35938,6.03646 8.33333,5.4375 8.28125,4.96875 C7.63542,5.07292 7.05729,5.125 6.54688,5.125 C4.73438,5.125 3.19271,4.40625 1.92188,2.96875 C0.671875,1.52083 0.046875,-0.197917 0.046875,-2.1875 C0.046875,-2.60417 0.0833333,-3.02604 0.15625,-3.45312 C0.239583,-3.80729 0.338542,-4.19271 0.453125,-4.60938 C0.515625,-4.84896 0.692708,-5.22917 0.984375,-5.75 C1.08854,-5.90625 1.20573,-6.10156 1.33594,-6.33594 C1.46615,-6.57031 1.55729,-6.72396 1.60938,-6.79688 C1.73438,-7.05729 1.98438,-7.41146 2.35938,-7.85938 C2.46354,-7.97396 2.57292,-8.10156 2.6875,-8.24219 C2.80208,-8.38281 2.89844,-8.5 2.97656,-8.59375 C3.05469,-8.6875 3.11198,-8.76042 3.14844,-8.8125 C3.1849,-8.86458 3.47917,-9.20833 4.03125,-9.84375 C4.15625,-9.97917 4.28125,-10.1198 4.40625,-10.2656 C4.53125,-10.4115 4.63281,-10.5286 4.71094,-10.6172 C4.78906,-10.7057 4.84896,-10.7656 4.89062,-10.7969 C4.42188,-12.349 4.125,-13.5885 4,-14.5156 C3.91667,-15.2552 3.875,-16.2708 3.875,-17.5625 C3.875,-18.6979 4.13542,-19.7604 4.65625,-20.75 C5.15625,-21.7708 5.86458,-22.6094 6.78125,-23.2656 C6.84375,-23.3073 6.90625,-23.3281 6.96875,-23.3281 C7.0625,-23.3281 7.13021,-23.3073 7.17188,-23.2656 C7.86979,-22.4219 8.47396,-21.3229 8.98438,-19.9688 C9.50521,-18.6146 9.76562,-17.3802 9.76562,-16.2656 C9.76562,-15.0156 9.46875,-13.8438 8.875,-12.75 C8.19792,-11.5938 7.32292,-10.3958 6.25,-9.15625 C6.52083,-8.30208 6.88542,-6.95833 7.34375,-5.125 M9,3.96875 C9.67708,3.71875 10.2083,3.29688 10.5938,2.70312 C11.0104,2.13021 11.2188,1.48438 11.2188,0.765625 C11.2188,-0.161458 10.9062,-0.984375 10.2812,-1.70312 C9.63542,-2.44271 8.81771,-2.85938 7.82812,-2.95312 C8.39062,-0.203125 8.78125,2.10417 9,3.96875 M1.45312,-0.546875 C1.45312,0.744792 1.97396,1.88021 3.01562,2.85938 C4.07812,3.80729 5.27604,4.28125 6.60938,4.28125 C7.15104,4.28125 7.68229,4.23958 8.20312,4.15625 C7.99479,2.17708 7.58333,-0.192708 6.96875,-2.95312 C6.22917,-2.86979 5.64062,-2.60938 5.20312,-2.17188 C4.76562,-1.71354 4.54688,-1.19792 4.54688,-0.625 C4.54688,0.364583 5.07812,1.16667 6.14062,1.78125 C6.22396,1.875 6.26562,1.97396 6.26562,2.07812 C6.26562,2.18229 6.22396,2.27604 6.14062,2.35938 C6.05729,2.45312 5.95833,2.5 5.84375,2.5 C5.83333,2.5 5.77604,2.48958 5.67188,2.46875 C4.92188,2.0625 4.34896,1.54167 3.95312,0.90625 C3.56771,0.21875 3.375,-0.46875 3.375,-1.15625 C3.375,-2.05208 3.65625,-2.86458 4.21875,-3.59375 C4.80208,-4.32292 5.5625,-4.79167 6.5,-5 C6.13542,-6.45833 5.83854,-7.59896 5.60938,-8.42188 C5.40104,-8.18229 5.15104,-7.89844 4.85938,-7.57031 C4.56771,-7.24219 4.39583,-7.04167 4.34375,-6.96875 C3.875,-6.36458 3.51562,-5.89062 3.26562,-5.54688 C2.81771,-4.93229 2.48958,-4.40625 2.28125,-3.96875 C2.0625,-3.46875 1.86979,-2.92708 1.70312,-2.34375 C1.53646,-1.78125 1.45312,-1.18229 1.45312,-0.546875 M7.96875,-20.4062 C6.98958,-19.9271 6.22396,-19.2396 5.67188,-18.3438 C5.09896,-17.4167 4.8125,-16.4219 4.8125,-15.3594 C4.8125,-14.4219 5.04688,-13.1562 5.51562,-11.5625 C6.45312,-12.6979 7.15625,-13.7448 7.625,-14.7031 C8.11458,-15.724 8.35938,-16.7865 8.35938,-17.8906 C8.35938,-18.724 8.22917,-19.5625 7.96875,-20.4062"/>
<path class="KeySig" transform="matrix(0.992126,0,0,0.992126,65.3516,303.591)" d="M4.3125,6.23438 C4.3125,6.48438 4.1901,6.60938 3.94531,6.60938 C3.70052,6.60938 3.57812,6.48438 3.57812,6.23438 L3.57812,3.34375 L1.92188,3.96875 L1.92188,7.125 C1.92188,7.375 1.79688,7.5 1.54688,7.5 C1.29688,7.5 1.17188,7.375 1.17188,7.125 L1.17188,4.21875 L0.546875,4.45312 C0.536458,4.46354 0.484375,4.46875 0.390625,4.46875 C0.286458,4.46875 0.195312,4.42969 0.117188,4.35156 C0.0390625,4.27344 0,4.18229 0,4.07812 L0,2.875 C0,2.67708 0.0833333,2.55208 0.25,2.5 L1.17188,2.1875 L1.17188,-1.01562 L0.546875,-0.796875 C0.536458,-0.786458 0.484375,-0.78125 0.390625,-0.78125 C0.286458,-0.78125 0.195312,-0.820312 0.117188,-0.898438 C0.0390625,-0.976562 0,-1.06771 0,-1.17188 L0,-2.39062 C0,-2.56771 0.0833333,-2.68229 0.25,-2.73438 L1.17188,-3.09375 L1.17188,-6.23438 C1.17188,-6.48438 1.29688,-6.60938 1.54688,-6.60938 C1.79688,-6.60938 1.92188,-6.48438 1.92188,-6.23438 L1.92188,-3.34375 L3.57812,-3.96875 L3.57812,-7.125 C3.57812,-7.375 3.70052,-7.5 3.94531,-7.5 C4.1901,-7.5 4.3125,-7.375 4.3125,-7.125 L4.3125,-4.21875 L4.96875,-4.45312 C4.97917,-4.46354 5.02083,-4.46875 5.09375,-4.46875 C5.1875,-4.46875 5.28646,-4.43229 5.39062,-4.35938 C5.47396,-4.27604 5.51562,-4.18229 5.51562,-4.07812 L5.51562,-2.875 C5.51562,-2.6875 5.42188,-2.5625 5.23438,-2.5 L4.3125,-2.1875 L4.3125,1.01562 L4.96875,0.796875 C4.97917,0.786458 5.02083,0.78125 5.09375,0.78125 C5.1875,0.78125 5.28646,0.822917 5.39062,0.90625 C5.47396,0.979167 5.51562,1.06771 5.51562,1.17188 L5.51562,2.39062 C5.51562,2.55729 5.42188,2.67188 5.23438,2.73438 L4.3125,3.09375 L4.3125,6.23438 M3.57812,-1.89062 L1.92188,-1.3125 L1.92188,1.89062 L3.57812,1.3125 L3.57812,-1.89062 "/>
<path class="KeySig" transform="matrix(0.992126,0,0,0.992126,65.3516,246.543)" d="M4.3125,6.23438 C4.3125,6.48438 4.1901,6.60938 3.94531,6.60938 C3.70052,6.60938 3.57812,6.48438 3.57812,6.23438 L3.57812,3.34375 L1.92188,3.96875 L1.92188,7.125 C1.92188,7.375 1.79688,7.5 1.54688,7.5 C1.29688,7.5 1.17188,7.375 1.17188,7.125 L1.17188,4.21875 L0.546875,4.45312 C0.536458,4.46354 0.484375,4.46875 0.390625,4.46875 C0.286458,4.46875 0.195312,4.42969 0.117188,4.35156 C0.0390625,4.27344 0,4.18229 0,4.07812 L0,2.875 C0,2.67708 0.0833333,2.55208 0.25,2.5 L1.17188,2.1875 L1.17188,-1.01562 L0.546875,-0.796875 C0.536458,-0.786458 0.484375,-0.78125 0.390625,-0.78125 C0.286458,-0.78125 0.195312,-0.820312 0.117188,-0.898438 C0.0390625,-0.976562 0,-1.06771 0,-1.17188 L0,-2.39062 C0,-2.56771 0.0833333,-2.68229 0.25,-2.73438 L1.17188,-3.09375 L1.17188,-6.23438 C1.17188,-6.48438 1.29688,-6.60938 1.54688,-6.60938 C1.79688,-6.60938 1.92188,-6.48438 1.92188,-6.23438 L1.92188,-3.34375 L3.57812,-3.96875 L3.57812,-7.125 C3.57812,-7.375 3.70052,-7.5 3.94531,-7.5 C4.1901,-7.5 4.3125,-7.375 4.3125,-7.125 L4.3125,-4.21875 L4.96875,-4.45312 C4.97917,-4.46354 5.02083,-4.46875 5.09375,-4.46875 C5.1875,-4.46875 5.28646,-4.43229 5.39062,-4.35938 C5.47396,-4.27604 5.51562,-4.18229 5.51562,-4.07812 L5.51562,-2.875 C5.51562,-2.6875 5.42188,-2.5625 5.23438,-2.5 L4.3125,-2.1875 L4.3125,1.01562 L4.96875,0.796875 C4.97917,0.786458 5.02083,0.78125 5.09375,0.78125 C5.1875,0.78125 5.28646,0.822917 5.39062,0.90625 C5.47396,0.979167 5.51562,1.06771 5.51562,1.17188 L5.51562,2.39062 C5.51562,2.55729 5.42188,2.67188 5.23438,2.73438 L4.3125,3.09375 L4.3125,6.23438 M3.57812,-1.89062 L1.92188,-1.3125 L1.92188,1.89062 L3.57812,1.3125 L3.57812,-1.89062 "/>
<path class="KeySig" transform="matrix(0.992126,0,0,0.992126,65.3516,157.252)" d="M4.3125,6.23438 C4.3125,6.48438 4.1901,6.60938 3.94531,6.60938 C3.70052,6.60938 3.57812,6.48438 3.57812,6.23438 L3.57812,3.34375 L1.92188,3.96875 L1.92188,7.125 C1.92188,7.375 1.79688,7.5 1.54688,7.5 C1.29688,7.5 1.17188,7.375 1.17188,7.125 L1.17188,4.21875 L0.546875,4.45312 C0.536458,4.46354 0.484375,4.46875 0.390625,4.46875 C0.286458,4.46875 0.195312,4.42969 0.117188,4.35156 C0.0390625,4.27344 0,4.18229 0,4.07812 L0,2.875 C0,2.67708 0.0833333,2.55208 0.25,2.5 L1.17188,2.1875 L1.17188,-1.01562 L0.546875,-0.796875 C0.536458,-0.786458 0.484375,-0.78125 0.390625,-0.78125 C0.286458,-0.78125 0.195312,-0.820312 0.117188,-0.898438 C0.0390625,-0.976562 0,-1.06771 0,-1.17188 L0,-2.39062 C0,-2.56771 0.0833333,-2.68229 0.25,-2.73438 L1.17188,-3.09375 L1.17188,-6.23438 C1.17188,-6.48438 1.29688,-6.60938 1.54688,-6.60938 C1.79688,-6.60938 1.92188,-6.48438 1.92188,-6.23438 L1.92188,-3.34375 L3.57812,-3.96875 L3.57812,-7.125 C3.57812,-7.375 3.70052,-7.5 3.94531,-7.5 C4.1901,-7.5 4.3125,-7.375 4.3125,-7.125 L4.3125,-4.21875 L4.96875,-4.45312 C4.97917,-4.46354 5.02083,-4.46875 5.09375,-4.46875 C5.1875,-4.46875 5.28646,-4.43229 5.39062,-4.35938 C5.47396,-4.27604 5.51562,-4.18229 5.51562,-4.07812 L5.51562,-2.875 C5.51562,-2.6875 5.42188,-2.5625 5.23438,-2.5 L4.3125,-2.1875 L4.3125,1.01562 L4.96875,0.796875 C4.97917,0.786458 5.02083,0.78125 5.09375,0.78125 C5.1875,0.78125 5.28646,0.822917 5.39062,0.90625 C5.47396,0.979167 5.51562,1.06771 5.51562,1.17188 L5.51562,2.39062 C5.51562,2.55729 5.42188,2.67188 5.23438,2.73438 L4.3125,3.09375 L4.3125,6.23438 M3.57812,-1.89062 L1.92188,-1.3125 L1.92188,1.89062 L3.57812,1.3125 L3.57812,-1.89062 "/>
<path class="KeySig" transform="matrix(0.992126,0,0,0.992126,65.3516,100.205)" d="M4.3125,6.23438 C4.3125,6.48438 4.1901,6.60938 3.94531,6.60938 C3.70052,6.60938 3.57812,6.48438 3.57812,6.23438 L3.57812,3.34375 L1.92188,3.96875 L1.92188,7.125 C1.92188,7.375 1.79688,7.5 1.54688,7.5 C1.29688,7.5 1.17188,7.375 1.17188,7.125 L1.17188,4.21875 L0.546875,4.45312 C0.536458,4.46354 0.484375,4.46875 0.390625,4.46875 C0.286458,4.46875 0.195312,4.42969 0.117188,4.35156 C0.0390625,4.27344 0,4.18229 0,4.07812 L0,2.875 C0,2.67708 0.0833333,2.55208 0.25,2.5 L1.17188,2.1875 L1.17188,-1.01562 L0.546875,-0.796875 C0.536458,-0.786458 0.484375,-0.78125 0.390625,-0.78125 C0.286458,-0.78125 0.195312,-0.820312 0.117188,-0.898438 C0.0390625,-0.976562 0,-1.06771 0,-1.17188 L0,-2.39062 C0,-2.56771 0.0833333,-2.68229 0.25,-2.73438 L1.17188,-3.09375 L1.17188,-6.23438 C1.17188,-6.48438 1.29688,-6.60938 1.54688,-6.60938 C1.79688,-6.60938 1.92188,-6.48438 1.92188,-6.23438 L1.92188,-3.34375 L3.57812,-3.96875 L3.57812,-7.125 C3.57812,-7.375 3.70052,-7.5 3.94531,-7.5 C4.1901,-7.5 4.3125,-7.375 4.3125,-7.125 L4.3125,-4.21875 L4.96875,-4.45312 C4.97917,-4.46354 5.02083,-4.46875 5.09375,-4.46875 C5.1875,-4.46875 5.28646,-4.43229 5.39062,-4.35938 C5.47396,-4.27604 5.51562,-4.18229 5.51562,-4.07812 L5.51562,-2.875 C5.51562,-2.6875 5.42188,-2.5625 5.23438,-2.5 L4.3125,-2.1875 L4.3125,1.01562 L4.96875,0.796875 C4.97917,0.786458 5.02083,0.78125 5.09375,0.78125 C5.1875,0.78125 5.28646,0.822917 5.39062,0.90625 C5.47396,0.979167 5.51562,1.06771 5.51562,1.17188 L5.51562,2.39062 C5.51562,2.55729 5.42188,2.67188 5.23438,2.73438 L4.3125,3.09375 L4.3125,6.23438 M3.57812,-1.89062 L1.92188,-1.3125 L1.92188,1.89062 L3.57812,1.3125 L3.57812,-1.89062 "/>
<path class="TimeSig" transform="matrix(0.992126,0,0,0.992126,73.346,157.252)" d="M4.5,-4.75 C4.88542,-4.75 5.21615,-4.79427 5.49219,-4.88281 C5.76823,-4.97135 5.94271,-5.01562 6.01562,-5.01562 C6.10938,-5.01562 6.18229,-4.98958 6.23438,-4.9375 C6.27604,-4.90625 6.30208,-4.86458 6.3125,-4.8125 C6.3125,-4.78125 6.29688,-4.73958 6.26562,-4.6875 L0.59375,1.92188 L3.92188,1.92188 L3.92188,-0.703125 C3.92188,-0.869792 3.96875,-1.01562 4.0625,-1.14062 C4.21875,-1.26562 4.34896,-1.34375 4.45312,-1.375 C4.61979,-1.44792 4.82812,-1.63021 5.07812,-1.92188 C5.28646,-2.15104 5.53646,-2.55729 5.82812,-3.14062 C5.85938,-3.22396 5.91667,-3.26562 6,-3.26562 C6.15625,-3.26562 6.24479,-3.17188 6.26562,-2.98438 L6.26562,1.92188 L7.70312,1.92188 C7.88021,1.92188 7.98438,2.01562 8.01562,2.20312 C8.01562,2.40104 7.91146,2.5 7.70312,2.5 L6.26562,2.5 L6.26562,2.65625 C6.26562,3.17708 6.39583,3.61979 6.65625,3.98438 C6.95833,4.34896 7.3125,4.53125 7.71875,4.53125 C7.875,4.53125 7.95312,4.60938 7.95312,4.76562 C7.95312,4.92188 7.875,5 7.71875,5 C7.44792,5 7.00521,4.96354 6.39062,4.89062 C5.82812,4.79688 5.39062,4.75 5.07812,4.75 C4.75521,4.75 4.31771,4.79688 3.76562,4.89062 C3.18229,4.96354 2.75,5 2.46875,5 C2.3125,5 2.23438,4.92188 2.23438,4.76562 C2.23438,4.60938 2.3125,4.53125 2.46875,4.53125 C2.86458,4.53125 3.21354,4.34375 3.51562,3.96875 C3.78646,3.58333 3.92188,3.11979 3.92188,2.57812 L0.59375,2.57812 C0.364583,2.57812 0.208333,2.51562 0.125,2.39062 C0.0104167,2.30729 -0.046875,2.1875 -0.046875,2.03125 C-0.046875,1.98958 0.0520833,1.85417 0.25,1.625 C0.479167,1.36458 0.713542,1.04688 0.953125,0.671875 C1.24479,0.223958 1.52083,-0.234375 1.78125,-0.703125 C2.0625,-1.23438 2.29167,-1.84896 2.46875,-2.54688 C2.65625,-3.24479 2.75,-3.95833 2.75,-4.6875 C2.75,-4.89583 2.84375,-5 3.03125,-5 C3.07292,-5 3.15625,-4.97917 3.28125,-4.9375 C3.32292,-4.92708 3.40625,-4.90885 3.53125,-4.88281 C3.65625,-4.85677 3.75521,-4.83333 3.82812,-4.8125 C4.06771,-4.77083 4.29167,-4.75 4.5,-4.75"/>
<path class="TimeSig" transform="matrix(0.992126,0,0,0.992126,73.346,167.173)" d="M4.5,-4.75 C4.88542,-4.75 5.21615,-4.79427 5.49219,-4.88281 C5.76823,-4.97135 5.94271,-5.01562 6.01562,-5.01562 C6.10938,-5.01562 6.18229,-4.98958 6.23438,-4.9375 C6.27604,-4.90625 6.30208,-4.86458 6.3125,-4.8125 C6.3125,-4.78125 6.29688,-4.73958 6.26562,-4.6875 L0.59375,1.92188 L3.92188,1.92188 L3.92188,-0.703125 C3.92188,-0.869792 3.96875,-1.01562 4.0625,-1.14062 C4.21875,-1.26562 4.34896,-1.34375 4.45312,-1.375 C4.61979,-1.44792 4.82812,-1.63021 5.07812,-1.92188 C5.28646,-2.15104 5.53646,-2.55729 5.82812,-3.14062 C5.85938,-3.22396 5.91667,-3.26562 6,-3.26562 C6.15625,-3.26562 6.24479,-3.17188 6.26562,-2.98438 L6.26562,1.92188 L7.70312,1.92188 C7.88021,1.92188 7.98438,2.01562 8.01562,2.20312 C8.01562,2.40104 7.91146,2.5 7.70312,2.5 L6.26562,2.5 L6.26562,2.65625 C6.26562,3.17708 6.39583,3.61979 6.65625,3.98438 C6.95833,4.34896 7.3125,4.53125 7.71875,4.53125 C7.875,4.53125 7.95312,4.60938 7.95312,4.76562 C7.95312,4.92188 7.875,5 7.71875,5 C7.44792,5 7.00521,4.96354 6.39062,4.89062 C5.82812,4.79688 5.39062,4.75 5.07812,4.75 C4.75521,4.75 4.31771,4.79688 3.76562,4.89062 C3.18229,4.96354 2.75,5 2.46875,5 C2.3125,5 2.23438,4.92188 2.23438,4.76562 C2.23438,4.60938 2.3125,4.53125 2.46875,4.53125 C2.86458,4.53125 3.21354,4.34375 3.51562,3.96875 C3.78646,3.58333 3.92188,3.11979 3.92188,2.57812 L0.59375,2.57812 C0.364583,2.57812 0.208333,2.51562 0.125,2.39062 C0.0104167,2.30729 -0.046875,2.1875 -0.046875,2.03125 C-0.046875,1.98958 0.0520833,1.85417 0.25,1.625 C0.479167,1.36458 0.713542,1.04688 0.953125,0.671875 C1.24479,0.223958 1.52083,-0.234375 1.78125,-0.703125 C2.0625,-1.23438 2.29167,-1.84896 2.46875,-2.54688 C2.65625,-3.24479 2.75,-3.95833 2.75,-4.6875 C2.75,-4.89583 2.84375,-5 3.03125,-5 C3.07292,-5 3.15625,-4.97917 3.28125,-4.9375 C3.32292,-4.92708 3.40625,-4.90885 3.53125,-4.88281 C3.65625,-4.85677 3.75521,-4.83333 3.82812,-4.8125 C4.06771,-4.77083 4.29167,-4.75 4.5,-4.75"/>
<path class="TimeSig" transform="matrix(0.992126,0,0,0.992126,73.346,105.165)" d="M4.5,-4.75 C4.88542,-4.75 5.21615,-4.79427 5.49219,-4.88281 C5.76823,-4.97135 5.94271,-5.01562 6.01562,-5.01562 C6.10938,-5.01562 6.18229,-4.98958 6.23438,-4.9375 C6.27604,-4.90625 6.30208,-4.86458 6.3125,-4.8125 C6.3125,-4.78125 6.29688,-4.73958 6.26562,-4.6875 L0.59375,1.92188 L3.92188,1.92188 L3.92188,-0.703125 C3.92188,-0.869792 3.96875,-1.01562 4.0625,-1.14062 C4.21875,-1.26562 4.34896,-1.34375 4.45312,-1.375 C4.61979,-1.44792 4.82812,-1.63021 5.07812,-1.92188 C5.28646,-2.15104 5.53646,-2.55729 5.82812,-3.14062 C5.85938,-3.22396 5.91667,-3.26562 6,-3.26562 C6.15625,-3.26562 6.24479,-3.17188 6.26562,-2.98438 L6.26562,1.92188 L7.70312,1.92188 C7.88021,1.92188 7.98438,2.01562 8.01562,2.20312 C8.01562,2.40104 7.91146,2.5 7.70312,2.5 L6.26562,2.5 L6.26562,2.65625 C6.26562,3.17708 6.39583,3.61979 6.65625,3.98438 C6.95833,4.34896 7.3125,4.53125 7.71875,4.53125 C7.875,4.53125 7.95312,4.60938 7.95312,4.76562 C7.95312,4.92188 7.875,5 7.71875,5 C7.44792,5 7.00521,4.96354 6.39062,4.89062 C5.82812,4.79688 5.39062,4.75 5.07812,4.75 C4.75521,4.75 4.31771,4.79688 3.76562,4.89062 C3.18229,4.96354 2.75,5 2.46875,5 C2.3125,5 2.23438,4.92188 2.23438,4.76562 C2.23438,4.60938 2.3125,4.53125 2.46875,4.53125 C2.86458,4.53125 3.21354,4.34375 3.51562,3.96875 C3.78646,3.58333 3.92188,3.11979 3.92188,2.57812 L0.59375,2.57812 C0.364583,2.57812 0.208333,2.51562 0.125,2.39062 C0.0104167,2.30729 -0.046875,2.1875 -0.046875,2.03125 C-0.046875,1.98958 0.0520833,1.85417 0.25,1.625 C0.479167,1.36458 0.713542,1.04688 0.953125,0.671875 C1.24479,0.223958 1.52083,-0.234375 1.78125,-0.703125 C2.0625,-1.23438 2.29167,-1.84896 2.46875,-2.54688 C2.65625,-3.24479 2.75,-3.95833 2.75,-4.6875 C2.75,-4.89583 2.84375,-5 3.03125,-5 C3.07292,-5 3.15625,-4.97917 3.28125,-4.9375 C3.32292,-4.92708 3.40625,-4.90885 3.53125,-4.88281 C3.65625,-4.85677 3.75521,-4.83333 3.82812,-4.8125 C4.06771,-4.77083 4.29167,-4.75 4.5,-4.75"/>
<path class="TimeSig" transform="matrix(0.992126,0,0,0.992126,73.346,115.087)" d="M4.5,-4.75 C4.88542,-4.75 5.21615,-4.79427 5.49219,-4.88281 C5.76823,-4.97135 5.94271,-5.01562 6.01562,-5.01562 C6.10938,-5.01562 6.18229,-4.98958 6.23438,-4.9375 C6.27604,-4.90625 6.30208,-4.86458 6.3125,-4.8125 C6.3125,-4.78125 6.29688,-4.73958 6.26562,-4.6875 L0.59375,1.92188 L3.92188,1.92188 L3.92188,-0.703125 C3.92188,-0.869792 3.96875,-1.01562 4.0625,-1.14062 C4.21875,-1.26562 4.34896,-1.34375 4.45312,-1.375 C4.61979,-1.44792 4.82812,-1.63021 5.07812,-1.92188 C5.28646,-2.15104 5.53646,-2.55729 5.82812,-3.14062 C5.85938,-3.22396 5.91667,-3.26562 6,-3.26562 C6.15625,-3.26562 6.24479,-3.17188 6.26562,-2.98438 L6.26562,1.92188 L7.70312,1.92188 C7.88021,1.92188 7.98438,2.01562 8.01562,2.20312 C8.01562,2.40104 7.91146,2.5 7.70312,2.5 L6.26562,2.5 L6.26562,2.65625 C6.26562,3.17708 6.39583,3.61979 6.65625,3.98438 C6.95833,4.34896 7.3125,4.53125 7.71875,4.53125 C7.875,4.53125 7.95312,4.60938 7.95312,4.76562 C7.95312,4.92188 7.875,5 7.71875,5 C7.44792,5 7.00521,4.96354 6.39062,4.89062 C5.82812,4.79688 5.39062,4.75 5.07812,4.75 C4.75521,4.75 4.31771,4.79688 3.76562,4.89062 C3.18229,4.96354 2.75,5 2.46875,5 C2.3125,5 2.23438,4.92188 2.23438,4.76562 C2.23438,4.60938 2.3125,4.53125 2.46875,4.53125 C2.86458,4.53125 3.21354,4.34375 3.51562,3.96875 C3.78646,3.58333 3.92188,3.11979 3.92188,2.57812 L0.59375,2.57812 C0.364583,2.57812 0.208333,2.51562 0.125,2.39062 C0.0104167,2.30729 -0.046875,2.1875 -0.046875,2.03125 C-0.046875,1.98958 0.0520833,1.85417 0.25,1.625 C0.479167,1.36458 0.713542,1.04688 0.953125,0.671875 C1.24479,0.223958 1.52083,-0.234375 1.78125,-0.703125 C2.0625,-1.23438 2.29167,-1.84896 2.46875,-2.54688 C2.65625,-3.24479 2.75,-3.95833 2.75,-4.6875 C2.75,-4.89583 2.84375,-5 3.03125,-5 C3.07292,-5 3.15625,-4.97917 3.28125,-4.9375 C3.32292,-4.92708 3.40625,-4.90885 3.53125,-4.88281 C3.65625,-4.85677 3.75521,-4.83333 3.82812,-4.8125 C4.06771,-4.77083 4.29167,-4.75 4.5,-4.75"/>
<path class="Fingering" d="M333.058,137.593 C333.079,137.478 333.105,137.374 333.136,137.28 C333.168,137.187 333.225,137.054 333.308,136.882 C333.392,136.71 333.488,136.567 333.597,136.452 C333.707,136.338 333.86,136.236 334.058,136.148 C334.256,136.059 334.475,136.015 334.714,136.015 C335.131,136.015 335.48,136.15 335.761,136.421 C336.043,136.692 336.183,137.025 336.183,137.421 C336.183,138.025 335.845,138.687 335.168,139.405 L333.839,140.827 L335.73,140.827 C335.918,140.827 336.056,140.796 336.144,140.734 C336.233,140.671 336.35,140.525 336.496,140.296 L336.605,140.327 L336.152,141.405 L333.043,141.405 L333.043,141.312 L334.464,139.796 C335.162,139.067 335.511,138.379 335.511,137.734 C335.511,137.39 335.407,137.114 335.199,136.905 C334.991,136.697 334.72,136.593 334.386,136.593 C334.105,136.593 333.881,136.668 333.714,136.819 C333.548,136.97 333.386,137.244 333.23,137.64 L333.058,137.593 "/>
<path class="Fingering" d="M93.5329,159.119 C93.6579,159.119 93.8428,159.195 94.0876,159.346 C94.3324,159.497 94.5433,159.572 94.7204,159.572 C95.0121,159.572 95.2595,159.458 95.4626,159.228 C95.6657,158.999 95.7673,158.718 95.7673,158.385 C95.7673,158.176 95.7386,157.994 95.6813,157.838 C95.6241,157.682 95.5407,157.559 95.4313,157.471 C95.322,157.382 95.1918,157.309 95.0407,157.252 C94.8897,157.195 94.7465,157.158 94.611,157.143 C94.4756,157.127 94.3298,157.119 94.1735,157.119 L94.1735,157.01 C94.3506,156.947 94.5043,156.887 94.6345,156.83 C94.7647,156.773 94.9027,156.692 95.0485,156.588 C95.1944,156.484 95.3063,156.356 95.3845,156.205 C95.4626,156.054 95.5017,155.885 95.5017,155.697 C95.5017,155.437 95.4209,155.228 95.2595,155.072 C95.098,154.916 94.8871,154.838 94.6267,154.838 C94.3662,154.838 94.1423,154.906 93.9548,155.041 C93.7673,155.176 93.5902,155.39 93.4235,155.682 L93.3142,155.65 C93.4496,155.275 93.6345,154.965 93.8688,154.721 C94.1032,154.476 94.4392,154.353 94.8767,154.353 C95.2517,154.353 95.5537,154.455 95.7829,154.658 C96.0121,154.861 96.1267,155.124 96.1267,155.447 C96.1267,155.666 96.0694,155.859 95.9548,156.025 C95.8402,156.192 95.6475,156.369 95.3767,156.557 C95.6892,156.692 95.9366,156.866 96.1188,157.08 C96.3011,157.294 96.3923,157.603 96.3923,158.01 C96.3923,158.572 96.1761,159.023 95.7438,159.361 C95.3116,159.7 94.7777,159.869 94.1423,159.869 C93.861,159.869 93.6397,159.827 93.4782,159.744 C93.3168,159.661 93.236,159.546 93.236,159.4 C93.236,159.317 93.2647,159.249 93.322,159.197 C93.3793,159.145 93.4496,159.119 93.5329,159.119"/>
<path class="Fingering" d="M98.6578,91.8685 L98.6578,92.3529 L97.8297,92.3529 L97.8297,93.681 L97.2203,93.681 L97.2203,92.3529 L94.9703,92.3529 L94.9703,91.8685 L97.4859,88.306 L97.8297,88.306 L97.8297,91.8685 L98.6578,91.8685 M97.2047,91.8685 L97.2047,89.1185 L95.2984,91.8685 L97.2047,91.8685 "/>
<path class="StaffText" d="M59.933,81.6866 C58.308,82.1554 57.3158,82.46 56.9565,82.6007 C56.5971,82.7413 56.2143,82.9054 55.808,83.0929 C55.7143,82.8116 55.5893,82.4991 55.433,82.1554 C55.683,82.1241 55.9487,82.0772 56.2299,82.0147 C56.2299,79.7647 56.2143,78.4366 56.183,78.0304 L57.0737,78.0304 C57.0424,78.6241 57.0268,79.8741 57.0268,81.7804 C57.308,81.7179 57.558,81.6554 57.7768,81.5929 L57.7768,76.7647 L56.1362,76.7647 C56.1674,76.421 56.183,75.8741 56.183,75.1241 C56.183,74.3741 56.1674,73.8429 56.1362,73.5304 L59.6987,73.5304 C59.6674,73.8429 59.6518,74.3741 59.6518,75.1241 C59.6518,75.8741 59.6674,76.421 59.6987,76.7647 L58.6205,76.7647 L58.6205,78.4522 C58.9955,78.4522 59.3705,78.4366 59.7455,78.4054 L59.7455,79.2491 C59.2768,79.1866 58.9018,79.1554 58.6205,79.1554 L58.6205,81.3585 C58.8705,81.2335 59.2924,81.0772 59.8862,80.8897 C59.8549,81.171 59.8705,81.4366 59.933,81.6866 M61.3862,76.9522 C61.1362,77.296 60.7455,77.6397 60.2143,77.9835 C60.1205,77.7647 59.9018,77.5147 59.558,77.2335 C60.058,76.9522 60.5112,76.6241 60.9174,76.2491 C61.3237,75.8741 61.6987,75.3585 62.0424,74.7022 C61.0424,74.7022 60.3705,74.7179 60.0268,74.7491 L60.0268,73.9522 C60.4018,73.9835 61.1362,73.9991 62.2299,73.9991 C62.3862,73.4991 62.4799,73.0147 62.5112,72.546 C62.9487,72.7022 63.3393,72.8272 63.683,72.921 C63.5268,73.1085 63.4174,73.2882 63.3549,73.46 C63.2924,73.6319 63.2143,73.8116 63.1205,73.9991 C64.933,73.9991 66.0268,73.9835 66.4018,73.9522 L66.4018,74.7491 C65.9955,74.7179 65.2143,74.7022 64.058,74.7022 C64.3393,75.4522 64.7065,75.9757 65.1596,76.2725 C65.6127,76.5694 66.1049,76.7647 66.6362,76.8585 C66.3549,77.2022 66.1987,77.5304 66.1674,77.8429 C65.6049,77.6554 65.1049,77.3741 64.6674,76.9991 L64.6674,77.5147 C64.3549,77.4835 63.7768,77.4679 62.933,77.4679 C62.1205,77.4679 61.6049,77.4835 61.3862,77.5147 L61.3862,76.9522 M65.6049,80.3741 C65.4799,81.5616 65.3705,82.335 65.2768,82.6944 C65.183,83.0538 64.9721,83.3116 64.644,83.4679 C64.3158,83.6241 63.8549,83.7179 63.2612,83.7491 C63.2299,83.3741 63.1205,83.0147 62.933,82.671 C63.6205,82.7022 64.0502,82.6632 64.2221,82.5538 C64.394,82.4444 64.5112,81.9679 64.5737,81.1241 L61.1518,81.1241 C61.3393,80.3116 61.4799,79.7179 61.5737,79.3429 C60.9799,79.3429 60.5268,79.3585 60.2143,79.3897 L60.2143,78.546 C60.5893,78.5772 61.058,78.5929 61.6205,78.5929 L64.9487,78.5929 C65.5112,78.5929 65.9799,78.5772 66.3549,78.546 L66.3549,79.3897 C66.0112,79.3585 65.5424,79.3429 64.9487,79.3429 L62.4643,79.3429 C62.3705,79.8429 62.2924,80.1866 62.2299,80.3741 L65.6049,80.3741 M58.8549,76.0616 L58.8549,74.2335 L57.0268,74.2335 L57.0268,76.0616 L58.8549,76.0616 M64.3862,76.6241 C63.9174,76.2179 63.558,75.5772 63.308,74.7022 L62.933,74.7022 C62.5893,75.4522 62.1674,76.0929 61.6674,76.6241 C61.8549,76.6554 62.2924,76.671 62.9799,76.671 C63.6987,76.671 64.1674,76.6554 64.3862,76.6241 M73.5737,72.8272 C73.5424,73.2647 73.5268,73.8585 73.5268,74.6085 L73.5268,82.1554 C73.5268,82.7491 73.3705,83.1241 73.058,83.2804 C72.7455,83.4366 72.2143,83.546 71.4643,83.6085 C71.4018,83.2335 71.2612,82.8741 71.0424,82.5304 C71.7299,82.5304 72.1596,82.5147 72.3315,82.4835 C72.5033,82.4522 72.5893,82.2647 72.5893,81.921 L72.5893,74.6085 C72.5893,74.046 72.5737,73.4522 72.5424,72.8272 L73.5737,72.8272 M70.9018,76.1085 C70.6205,76.8897 70.2924,77.7882 69.9174,78.8038 C69.5424,79.8194 69.2143,80.5772 68.933,81.0772 C68.6205,80.8272 68.2924,80.671 67.9487,80.6085 C68.4799,79.671 68.9018,78.7413 69.2143,77.8194 C69.5268,76.8975 69.7299,76.2179 69.8237,75.7804 C70.1987,75.9679 70.558,76.0772 70.9018,76.1085 M75.7768,75.7335 C77.0268,77.9835 77.7768,79.5147 78.0268,80.3272 C77.7143,80.3897 77.4018,80.5304 77.0893,80.7491 C76.6205,79.4054 75.9018,77.9054 74.933,76.2491 C75.183,76.1241 75.4643,75.9522 75.7768,75.7335 M86.8862,82.1085 C86.8237,81.7335 86.6674,81.3585 86.4174,80.9835 C87.0424,80.9835 87.519,80.9522 87.8471,80.8897 C88.1752,80.8272 88.3549,80.6397 88.3862,80.3272 L88.4799,77.796 L84.4955,77.796 L84.4955,81.8741 C84.4955,82.4366 84.5112,83.0147 84.5424,83.6085 L83.4643,83.6085 C83.5268,83.046 83.558,82.4679 83.558,81.8741 L83.558,77.796 L82.5268,77.796 C81.4955,77.796 80.6674,77.8116 80.0424,77.8429 L80.0424,76.9522 C80.6987,76.9835 81.3705,76.9991 82.058,76.9991 L89.558,76.9991 C89.4643,78.3116 89.4018,79.3741 89.3705,80.1866 C89.3393,80.9991 89.1049,81.5069 88.6674,81.71 C88.2299,81.9132 87.6362,82.046 86.8862,82.1085 M83.6518,75.0772 C83.6518,75.6397 83.6674,76.1241 83.6987,76.5304 L82.6674,76.5304 C82.6987,76.0616 82.7143,75.5772 82.7143,75.0772 L81.1205,75.0772 C80.683,75.0772 80.1987,75.1085 79.6674,75.171 L79.6674,74.2335 C80.1987,74.2647 80.683,74.2804 81.1205,74.2804 L82.7143,74.2804 C82.7143,73.6866 82.6987,73.1866 82.6674,72.7804 L83.6987,72.7804 C83.6674,73.1866 83.6518,73.6866 83.6518,74.2804 L86.1362,74.2804 C86.1362,73.6554 86.1205,73.1554 86.0893,72.7804 L87.1674,72.7804 C87.1362,73.1554 87.1205,73.6554 87.1205,74.2804 L88.6205,74.2804 C89.2143,74.2804 89.7612,74.2647 90.2612,74.2335 L90.2612,75.1241 C89.7612,75.0929 89.2143,75.0772 88.6205,75.0772 L87.1205,75.0772 C87.1205,75.5772 87.1362,76.0616 87.1674,76.5304 L86.0893,76.5304 C86.1205,76.0304 86.1362,75.546 86.1362,75.0772 L83.6518,75.0772 M96.9643,74.3272 C97.2768,73.6085 97.4643,73.0772 97.5268,72.7335 C98.0268,72.9522 98.3862,73.0929 98.6049,73.1554 C98.4487,73.2804 98.2143,73.671 97.9018,74.3272 L100.433,74.3272 C101.089,74.3272 101.605,74.3116 101.98,74.2804 L101.98,75.1241 C101.574,75.0929 101.105,75.0772 100.574,75.0772 L97.5268,75.0772 C97.3705,75.3897 96.9955,76.0304 96.4018,76.9991 L98.2768,76.9991 C98.2768,76.4054 98.2612,75.9054 98.2299,75.4991 L99.1674,75.4991 C99.1362,75.8429 99.1205,76.3429 99.1205,76.9991 C100.683,76.9991 101.511,76.9835 101.605,76.9522 L101.605,77.8429 C101.417,77.7804 100.589,77.7491 99.1205,77.7491 L99.1205,79.296 L100.855,79.296 C101.542,79.296 101.98,79.2804 102.167,79.2491 L102.167,80.0929 C101.792,80.0616 101.355,80.046 100.855,80.046 L99.1205,80.046 C99.1205,80.921 99.1362,81.6866 99.1674,82.3429 L98.2299,82.3429 C98.2612,81.6866 98.2768,80.921 98.2768,80.046 C96.1205,80.046 94.933,80.0616 94.7143,80.0929 L94.7143,79.2491 C95.558,79.2804 96.7455,79.296 98.2768,79.296 L98.2768,77.7491 L96.7768,77.7491 C96.0893,77.7804 95.6518,77.8272 95.4643,77.8897 L95.1362,77.046 C95.3862,76.8897 95.6283,76.6554 95.8627,76.3429 C96.0971,76.0304 96.3393,75.6085 96.5893,75.0772 C95.7768,75.0772 95.1518,75.0929 94.7143,75.1241 L94.7143,74.2804 C95.1205,74.3116 95.8705,74.3272 96.9643,74.3272 M94.058,76.9991 C94.0268,77.6241 94.0112,78.1397 94.0112,78.546 L94.0112,81.4522 C94.9174,82.2335 96.308,82.6241 98.183,82.6241 C100.089,82.6241 101.558,82.5772 102.589,82.4835 C102.402,82.796 102.277,83.1397 102.214,83.5147 C100.964,83.5147 99.8393,83.5069 98.8393,83.4913 C97.8393,83.4757 96.9487,83.3975 96.1674,83.2569 C95.3862,83.1163 94.769,82.8897 94.3158,82.5772 C93.8627,82.2647 93.4955,82.2413 93.2143,82.5069 C92.933,82.7725 92.6205,83.1085 92.2768,83.5147 C92.0893,83.2647 91.8393,83.0304 91.5268,82.8116 C92.2455,82.2179 92.7612,81.8116 93.0737,81.5929 L93.0737,77.7491 C92.6674,77.7491 92.2299,77.7647 91.7612,77.796 L91.7612,76.9522 C92.2612,76.9835 92.7143,76.9991 93.1205,76.9991 L94.058,76.9991 M92.8393,73.2022 C93.433,74.046 93.933,74.796 94.3393,75.4522 C94.058,75.546 93.7612,75.7022 93.4487,75.921 C93.2924,75.4522 92.8237,74.7335 92.0424,73.7647 C92.3237,73.5147 92.5893,73.3272 92.8393,73.2022 M109.48,74.421 C109.48,73.9522 109.433,73.4366 109.339,72.8741 C109.746,72.9054 110.167,72.9522 110.605,73.0147 C110.511,73.2022 110.449,73.5069 110.417,73.9288 C110.386,74.3507 110.386,74.9522 110.417,75.7335 L112.011,75.4522 C112.542,75.3272 113.074,75.1866 113.605,75.0304 L113.792,75.921 C113.261,75.9835 112.714,76.0616 112.152,76.1554 L110.464,76.4835 C110.464,76.9835 110.496,77.421 110.558,77.796 L112.386,77.4679 C113.011,77.3429 113.605,77.1866 114.167,76.9991 L114.308,77.8897 C113.746,77.9835 113.152,78.0929 112.527,78.2179 L110.699,78.546 C110.761,79.171 110.917,79.7491 111.167,80.2804 C111.449,80.0616 111.722,79.8116 111.988,79.5304 C112.253,79.2491 112.496,78.9366 112.714,78.5929 C113.183,78.9679 113.542,79.2179 113.792,79.3429 C113.386,79.5304 113.066,79.7413 112.831,79.9757 C112.597,80.21 112.214,80.5772 111.683,81.0772 C112.058,81.7022 112.394,82.1007 112.691,82.2725 C112.988,82.4444 113.199,82.4522 113.324,82.296 C113.449,82.1397 113.558,81.8116 113.652,81.3116 C113.933,81.5304 114.261,81.7022 114.636,81.8272 C114.105,83.2022 113.527,83.7569 112.902,83.4913 C112.277,83.2257 111.621,82.6085 110.933,81.6397 C110.496,81.9835 110.066,82.3038 109.644,82.6007 C109.222,82.8975 108.699,83.2022 108.074,83.5147 C107.917,83.2022 107.683,82.921 107.371,82.671 C107.996,82.4522 108.527,82.2179 108.964,81.9679 C109.402,81.7179 109.902,81.3585 110.464,80.8897 C110.183,80.2647 109.98,79.5304 109.855,78.6866 C108.917,78.8429 108.261,78.9835 107.886,79.1085 L107.746,78.2179 C108.121,78.2179 108.761,78.1241 109.667,77.9366 C109.605,77.4366 109.574,77.0147 109.574,76.671 C108.73,76.8585 108.152,76.9991 107.839,77.0929 L107.652,76.2022 C107.964,76.2022 108.574,76.1085 109.48,75.921 L109.48,74.421 M106.667,73.3429 C106.355,73.6241 106.05,74.0225 105.753,74.5382 C105.456,75.0538 105.058,75.6866 104.558,76.4366 C105.308,76.4054 105.824,76.3897 106.105,76.3897 C106.386,75.921 106.636,75.4054 106.855,74.8429 C107.167,75.0616 107.511,75.2335 107.886,75.3585 C107.574,75.671 107.253,76.0929 106.925,76.6241 C106.597,77.1554 106.027,78.0616 105.214,79.3429 C106.058,79.2804 106.808,79.2179 107.464,79.1554 C107.371,79.4679 107.324,79.7335 107.324,79.9522 C107.105,79.9522 106.621,79.9913 105.871,80.0694 C105.121,80.1475 104.511,80.2491 104.042,80.3741 C104.011,80.0616 103.917,79.7335 103.761,79.3897 C104.136,79.296 104.48,79.046 104.792,78.6397 C105.105,78.2335 105.433,77.7179 105.777,77.0929 C104.746,77.1554 104.089,77.2804 103.808,77.4679 C103.714,77.1241 103.574,76.7804 103.386,76.4366 C103.792,76.1554 104.183,75.6944 104.558,75.0538 C104.933,74.4132 105.277,73.671 105.589,72.8272 C105.902,73.046 106.261,73.2179 106.667,73.3429 M107.839,80.8429 C107.808,81.1866 107.808,81.4522 107.839,81.6397 C107.058,81.796 106.355,81.9522 105.73,82.1085 C105.105,82.2647 104.527,82.4366 103.996,82.6241 C103.902,82.2804 103.73,81.9366 103.48,81.5929 C104.355,81.4991 105.027,81.4132 105.496,81.335 C105.964,81.2569 106.746,81.0929 107.839,80.8429 M112.105,74.9366 C111.886,74.5929 111.589,74.1866 111.214,73.7179 L111.964,73.3429 C112.089,73.4991 112.402,73.8741 112.902,74.4679 C112.589,74.5929 112.324,74.7491 112.105,74.9366"/>
<path class="Bracket" fill-rule="evenodd" d="M44.0589,272.134 C44.0589,266.339 40.0677,260.706 40.0677,255.155 C40.0677,252.358 41.1562,249.643 44.5125,247.212 C44.5578,247.182 44.5805,247.131 44.5805,247.101 C44.5805,247.009 44.331,246.928 44.1496,246.928 C44.0589,246.928 43.9002,246.938 43.7868,247.009 C39.4328,250.13 37.9814,253.736 37.9814,257.383 C37.9814,263.259 42.2447,268.933 42.2447,274.565 C42.2447,277.361 41.1562,279.995 37.8,282.427 L37.8,282.508 L37.8,282.589 C41.1562,285.02 42.2447,287.654 42.2447,290.45 C42.2447,296.083 37.9814,301.757 37.9814,307.632 C37.9814,311.28 39.4328,314.886 43.7868,318.006 C43.9002,318.077 44.0589,318.087 44.1496,318.087 C44.331,318.087 44.5805,318.006 44.5805,317.915 C44.5805,317.885 44.5578,317.834 44.5125,317.804 C41.1562,315.372 40.0677,312.657 40.0677,309.861 C40.0677,304.31 44.0589,298.677 44.0589,292.882 C44.0589,289.194 42.6076,285.669 38.3443,282.508 C42.6076,279.347 44.0589,275.822 44.0589,272.134" id="36.2126,264.402 71.1592"/>
<path class="Bracket" fill-rule="evenodd" d="M44.0589,125.795 C44.0589,120 40.0677,114.368 40.0677,108.816 C40.0677,106.02 41.1562,103.305 44.5125,100.873 C44.5578,100.843 44.5805,100.792 44.5805,100.762 C44.5805,100.671 44.331,100.59 44.1496,100.59 C44.0589,100.59 43.9002,100.6 43.7868,100.671 C39.4328,103.791 37.9814,107.398 37.9814,111.045 C37.9814,116.921 42.2447,122.594 42.2447,128.227 C42.2447,131.023 41.1562,133.657 37.8,136.088 L37.8,136.169 L37.8,136.25 C41.1562,138.682 42.2447,141.316 42.2447,144.112 C42.2447,149.745 37.9814,155.418 37.9814,161.294 C37.9814,164.941 39.4328,168.548 43.7868,171.668 C43.9002,171.739 44.0589,171.749 44.1496,171.749 C44.331,171.749 44.5805,171.668 44.5805,171.577 C44.5805,171.546 44.5578,171.496 44.5125,171.465 C41.1562,169.034 40.0677,166.319 40.0677,163.523 C40.0677,157.971 44.0589,152.338 44.0589,146.543 C44.0589,142.856 42.6076,139.33 38.3443,136.169 C42.6076,133.008 44.0589,129.483 44.0589,125.795" id="36.2126,118.063 71.1592"/>
</svg>
