<?xml version="1.0" encoding="UTF-8" standalone="no"?>
<svg width="1011.97px" height="617.1px" viewBox="0 0 595.275 363"
 xmlns="http://www.w3.org/2000/svg" xmlns:xlink="http://www.w3.org/1999/xlink" version="1.2" baseProfile="tiny">
<title>47.晚霞</title>
<desc>Generated by MuseScore 2.0.3</desc>
<polyline class="StaffLines" fill="none" stroke="#000000" stroke-width="0.40" stroke-linejoin="bevel" points="46.1339,102.189 559.558,102.189" x="46.1339" y="102.189" bx="46.1339" by="137.769" measure_no="0" elid="0" sysno="1" spatium="4.96063"/>
<polyline class="StaffLines" fill="none" stroke="#000000" stroke-width="0.40" stroke-linejoin="bevel" points="46.1339,107.15 559.558,107.15"/>
<polyline class="StaffLines" fill="none" stroke="#000000" stroke-width="0.40" stroke-linejoin="bevel" points="46.1339,112.11 559.558,112.11"/>
<polyline class="StaffLines" fill="none" stroke="#000000" stroke-width="0.40" stroke-linejoin="bevel" points="46.1339,117.071 559.558,117.071"/>
<polyline class="StaffLines" fill="none" stroke="#000000" stroke-width="0.40" stroke-linejoin="bevel" points="46.1339,122.032 559.558,122.032"/>
<polyline class="StaffLines" fill="none" stroke="#000000" stroke-width="0.40" stroke-linejoin="bevel" points="46.1339,154.276 559.558,154.276"/>
<polyline class="StaffLines" fill="none" stroke="#000000" stroke-width="0.40" stroke-linejoin="bevel" points="46.1339,159.236 559.558,159.236"/>
<polyline class="StaffLines" fill="none" stroke="#000000" stroke-width="0.40" stroke-linejoin="bevel" points="46.1339,164.197 559.558,164.197"/>
<polyline class="StaffLines" fill="none" stroke="#000000" stroke-width="0.40" stroke-linejoin="bevel" points="46.1339,169.157 559.558,169.157"/>
<polyline class="StaffLines" fill="none" stroke="#000000" stroke-width="0.40" stroke-linejoin="bevel" points="46.1339,174.118 559.558,174.118"/>
<polyline class="StaffLines" fill="none" stroke="#000000" stroke-width="0.40" stroke-linejoin="bevel" points="46.1339,248.528 559.558,248.528" x="46.1339" y="248.528" bx="46.1339" by="284.107" measure_no="4" elid="13" sysno="2" spatium="4.96063"/>
<polyline class="StaffLines" fill="none" stroke="#000000" stroke-width="0.40" stroke-linejoin="bevel" points="46.1339,253.488 559.558,253.488"/>
<polyline class="StaffLines" fill="none" stroke="#000000" stroke-width="0.40" stroke-linejoin="bevel" points="46.1339,258.449 559.558,258.449"/>
<polyline class="StaffLines" fill="none" stroke="#000000" stroke-width="0.40" stroke-linejoin="bevel" points="46.1339,263.409 559.558,263.409"/>
<polyline class="StaffLines" fill="none" stroke="#000000" stroke-width="0.40" stroke-linejoin="bevel" points="46.1339,268.37 559.558,268.37"/>
<polyline class="StaffLines" fill="none" stroke="#000000" stroke-width="0.40" stroke-linejoin="bevel" points="46.1339,300.614 559.558,300.614"/>
<polyline class="StaffLines" fill="none" stroke="#000000" stroke-width="0.40" stroke-linejoin="bevel" points="46.1339,305.575 559.558,305.575"/>
<polyline class="StaffLines" fill="none" stroke="#000000" stroke-width="0.40" stroke-linejoin="bevel" points="46.1339,310.535 559.558,310.535"/>
<polyline class="StaffLines" fill="none" stroke="#000000" stroke-width="0.40" stroke-linejoin="bevel" points="46.1339,315.496 559.558,315.496"/>
<polyline class="StaffLines" fill="none" stroke="#000000" stroke-width="0.40" stroke-linejoin="bevel" points="46.1339,320.457 559.558,320.457"/>
<path class="Text" d="M47.0089,235.028 C47.0089,234.747 46.9464,234.497 46.8214,234.278 C46.6964,234.059 46.5427,233.888 46.3604,233.763 C46.1781,233.638 45.9776,233.539 45.7589,233.466 C45.5401,233.393 45.35,233.343 45.1886,233.317 C45.0271,233.291 44.8839,233.278 44.7589,233.278 C44.6964,233.278 44.6651,233.257 44.6651,233.216 C44.6651,233.195 44.6651,233.179 44.6651,233.169 L45.5401,231.309 L47.212,231.309 C47.2953,231.309 47.363,231.296 47.4151,231.27 C47.4672,231.244 47.5245,231.19 47.587,231.106 L47.6495,231.169 L47.3526,231.825 C47.3318,231.877 47.2693,231.903 47.1651,231.903 L45.6026,231.903 L45.2589,232.575 C46.0401,232.721 46.6209,232.95 47.0011,233.263 C47.3813,233.575 47.5714,234.039 47.5714,234.653 C47.5714,234.966 47.5219,235.247 47.4229,235.497 C47.324,235.747 47.1964,235.947 47.0401,236.098 C46.8839,236.25 46.7068,236.372 46.5089,236.466 C46.311,236.559 46.1209,236.625 45.9386,236.661 C45.7563,236.697 45.5714,236.716 45.3839,236.716 C45.0818,236.716 44.8422,236.671 44.6651,236.583 C44.488,236.494 44.3995,236.372 44.3995,236.216 C44.3995,236.018 44.5141,235.919 44.7432,235.919 C44.8995,235.919 45.0948,236.002 45.3292,236.169 C45.5636,236.335 45.7537,236.419 45.8995,236.419 C46.212,236.419 46.475,236.286 46.6886,236.02 C46.9021,235.755 47.0089,235.424 47.0089,235.028"/>
<path class="Text" d="M265.998,33.077 L259.388,33.077 L259.388,31.6083 L266.342,21.5614 L267.638,21.5614 L267.638,31.6083 L269.701,31.6083 L269.701,33.077 L267.638,33.077 L267.638,36.3427 L265.998,36.3427 L265.998,33.077 M265.998,31.6083 L265.998,24.827 L261.185,31.6083 L265.998,31.6083 M273.045,36.3427 C274.076,31.9885 275.883,27.6604 278.467,23.3583 L271.076,23.3583 L271.076,21.8114 L280.263,21.8114 L280.263,23.2802 C277.576,27.6343 275.8,31.9885 274.935,36.3427 L273.045,36.3427 M284.826,36.4208 L282.842,36.4208 L282.842,34.5302 L284.826,34.5302 L284.826,36.4208 M306.56,30.9208 C305.821,33.8479 303.732,36.5718 300.295,39.0927 C299.951,38.4677 299.461,38.0093 298.826,37.7177 C299.972,37.2593 301.146,36.3999 302.349,35.1395 C303.552,33.8791 304.383,32.4729 304.842,30.9208 L300.982,30.9208 C301.034,30.2333 301.06,29.3166 301.06,28.1708 C301.06,26.9729 301.034,26.0562 300.982,25.4208 L306.31,25.4208 L307.592,22.6708 L303.295,22.6708 C302.607,23.5874 301.862,24.4781 301.06,25.3427 C300.55,24.8843 300.066,24.5666 299.607,24.3895 C300.576,23.5354 301.448,22.577 302.224,21.5145 C303,20.452 303.56,19.4937 303.904,18.6395 C304.529,18.9833 305.159,19.2697 305.795,19.4989 C305.451,19.7281 304.904,20.3583 304.154,21.3895 L310.092,21.3895 C309.8,21.7333 309.081,23.077 307.935,25.4208 L311.81,25.4208 C311.748,26.0562 311.717,26.9729 311.717,28.1708 C311.717,29.3166 311.748,30.2333 311.81,30.9208 L306.56,30.9208 M299.513,21.0458 C299.461,22.2437 299.435,23.5302 299.435,24.9052 L299.435,31.702 C299.435,33.077 299.461,34.5354 299.513,36.077 L297.967,36.077 L297.967,34.702 L295.482,34.702 L295.482,36.6864 L293.842,36.6864 C293.904,35.3114 293.935,33.8791 293.935,32.3895 L293.935,24.9052 C293.935,23.5302 293.904,22.2437 293.842,21.0458 L299.513,21.0458 M308.451,36.1708 C308.451,36.8583 308.737,37.202 309.31,37.202 L310.435,37.202 C311.008,37.202 311.352,37.0718 311.467,36.8114 C311.581,36.551 311.664,35.9624 311.717,35.0458 C312.237,35.5041 312.81,35.7645 313.435,35.827 C313.154,36.9729 312.912,37.7177 312.709,38.0614 C312.506,38.4052 312.118,38.577 311.545,38.577 L308.623,38.577 C307.539,38.577 306.998,38.0614 306.998,37.0302 L306.998,31.702 L308.451,31.702 L308.451,36.1708 M297.967,33.327 L297.967,28.4364 L295.482,28.4364 L295.482,33.327 L297.967,33.327 M297.967,27.1395 L297.967,22.327 L295.482,22.327 L295.482,27.1395 L297.967,27.1395 M310.17,29.5458 L310.17,26.7177 L307.248,26.7177 C307.133,27.6343 306.993,28.577 306.826,29.5458 L310.17,29.5458 M305.185,29.5458 C305.362,28.6916 305.508,27.7489 305.623,26.7177 L302.529,26.7177 L302.529,29.5458 L305.185,29.5458 M330.279,19.4989 C331.196,19.4989 332.112,19.4677 333.029,19.4052 L333.029,20.8739 C332.112,20.8114 331.196,20.7802 330.279,20.7802 L325.81,20.7802 L325.81,21.9052 L334.576,21.9052 C334.524,22.7072 334.498,23.3374 334.498,23.7958 C334.498,24.2541 334.524,24.827 334.576,25.5145 L332.951,25.5145 L332.951,23.1083 L325.81,23.1083 L325.81,27.1395 L324.435,27.1395 L324.435,23.1083 L317.217,23.1083 L317.217,25.077 L315.592,25.077 C315.644,24.5041 315.67,24.0197 315.67,23.6239 C315.67,23.1656 315.644,22.5927 315.592,21.9052 L324.435,21.9052 L324.435,20.7802 L319.967,20.7802 C319.164,20.7802 318.248,20.8114 317.217,20.8739 L317.217,19.4052 C318.081,19.4677 318.998,19.4989 319.967,19.4989 L330.279,19.4989 M324.357,28.3427 C324.295,28.8635 324.263,29.4364 324.263,30.0614 C324.263,30.6968 324.295,31.3843 324.357,32.1239 L318.513,32.1239 L318.513,33.2489 L324.263,33.2489 L324.263,34.452 L318.513,34.452 L318.513,35.4833 L324.263,35.4833 L324.263,36.6864 L318.513,36.6864 L318.513,39.0145 L317.045,39.0145 C317.107,37.9833 317.138,36.7489 317.138,35.3114 L317.138,31.5302 C317.138,30.1552 317.107,29.0927 317.045,28.3427 L324.357,28.3427 M333.295,32.7333 C332.951,33.4208 332.534,34.1083 332.045,34.7958 C331.555,35.4833 331.024,36.0822 330.451,36.5927 C330.909,36.7697 331.539,36.9156 332.342,37.0302 C333.144,37.1447 334.003,37.202 334.92,37.202 C334.638,37.6083 334.409,38.1552 334.232,38.8427 C332.118,38.6656 330.456,38.2645 329.248,37.6395 C327.758,38.2124 326.128,38.6968 324.357,39.0927 C324.066,38.5822 323.691,38.0979 323.232,37.6395 C324.784,37.577 326.362,37.202 327.967,36.5145 C327.331,36.1083 326.555,35.2489 325.638,33.9364 L325.123,33.9364 L325.123,32.6395 C326.154,32.702 327.128,32.7333 328.045,32.7333 L333.295,32.7333 M333.201,28.2645 C333.149,28.7749 333.123,29.3479 333.123,29.9833 C333.123,30.6083 333.149,31.2072 333.201,31.7802 L325.638,31.7802 L325.638,30.4989 L331.748,30.4989 L331.748,29.4677 L325.56,29.4677 L325.56,28.2645 L333.201,28.2645 M332.342,27.1395 L327.013,27.1395 L327.013,25.9364 L332.342,25.9364 L332.342,27.1395 M323.06,27.1395 L317.904,27.1395 L317.904,25.9364 L323.06,25.9364 L323.06,27.1395 M332.17,25.077 L327.279,25.077 L327.279,23.9677 L332.17,23.9677 L332.17,25.077 M322.717,30.8427 L322.717,29.5458 L318.513,29.5458 L318.513,30.8427 L322.717,30.8427 M322.717,25.077 L317.998,25.077 L317.998,23.9677 L322.717,23.9677 L322.717,25.077 M327.357,33.9364 C328.107,34.9052 328.737,35.5354 329.248,35.827 C329.706,35.4833 330.253,34.8531 330.888,33.9364 L327.357,33.9364 "/>
<path class="SlurSegment" stroke="#000000" stroke-width="0.35" stroke-linecap="round" stroke-linejoin="round" fill-rule="evenodd" d="M316.426,240.133 C329.809,233.832 351.858,239.517 360.525,251.504 C351.66,240.286 329.611,234.6 316.426,240.133"/>
<path class="SlurSegment" stroke="#000000" stroke-width="0.35" stroke-linecap="round" stroke-linejoin="round" fill-rule="evenodd" d="M210.66,108.886 C234.008,93.5279 344.591,90.9236 368.636,105.165 C344.61,91.7171 234.026,94.3214 210.66,108.886"/>
<polyline class="BarLine" stroke="#000000" stroke-width="0.79" stroke-linejoin="bevel" points="46.5307,248.528 46.5307,320.457"/>
<polyline class="BarLine" stroke="#000000" stroke-width="0.79" stroke-linejoin="bevel" points="46.5307,102.189 46.5307,174.118"/>
<polyline class="BarLine" stroke="#000000" stroke-width="0.79" stroke-linejoin="bevel" points="554.697,300.614 554.697,320.457"/>
<polyline class="BarLine" stroke="#000000" stroke-width="2.48" stroke-linejoin="bevel" points="558.318,300.614 558.318,320.457"/>
<polyline class="BarLine" stroke="#000000" stroke-width="0.79" stroke-linejoin="bevel" points="554.697,248.528 554.697,268.37"/>
<polyline class="BarLine" stroke="#000000" stroke-width="2.48" stroke-linejoin="bevel" points="558.318,248.528 558.318,268.37"/>
<polyline class="BarLine" stroke="#000000" stroke-width="0.79" stroke-linejoin="bevel" points="432.923,300.614 432.923,320.457"/>
<polyline class="BarLine" stroke="#000000" stroke-width="0.79" stroke-linejoin="bevel" points="432.923,248.528 432.923,268.37"/>
<polyline class="BarLine" stroke="#000000" stroke-width="0.79" stroke-linejoin="bevel" points="303.689,300.614 303.689,320.457"/>
<polyline class="BarLine" stroke="#000000" stroke-width="0.79" stroke-linejoin="bevel" points="303.689,248.528 303.689,268.37"/>
<polyline class="BarLine" stroke="#000000" stroke-width="0.79" stroke-linejoin="bevel" points="181.915,300.614 181.915,320.457"/>
<polyline class="BarLine" stroke="#000000" stroke-width="0.79" stroke-linejoin="bevel" points="181.915,248.528 181.915,268.37"/>
<polyline class="BarLine" stroke="#000000" stroke-width="0.79" stroke-linejoin="bevel" points="559.162,154.276 559.162,174.118"/>
<polyline class="BarLine" stroke="#000000" stroke-width="0.79" stroke-linejoin="bevel" points="559.162,102.189 559.162,122.032"/>
<polyline class="BarLine" stroke="#000000" stroke-width="0.79" stroke-linejoin="bevel" points="439.247,154.276 439.247,174.118"/>
<polyline class="BarLine" stroke="#000000" stroke-width="0.79" stroke-linejoin="bevel" points="439.247,102.189 439.247,122.032"/>
<polyline class="BarLine" stroke="#000000" stroke-width="0.79" stroke-linejoin="bevel" points="312.917,154.276 312.917,174.118"/>
<polyline class="BarLine" stroke="#000000" stroke-width="0.79" stroke-linejoin="bevel" points="312.917,102.189 312.917,122.032"/>
<polyline class="BarLine" stroke="#000000" stroke-width="0.79" stroke-linejoin="bevel" points="193.002,154.276 193.002,174.118"/>
<polyline class="BarLine" stroke="#000000" stroke-width="0.79" stroke-linejoin="bevel" points="193.002,102.189 193.002,122.032"/>
<path class="Accidental" transform="matrix(0.992126,0,0,0.992126,388.41,327.898)" d="M0.921875,-0.828125 L0.921875,0.71875 C0.921875,1.27083 0.947917,1.70833 1,2.03125 C1.42708,1.66667 1.73438,1.39583 1.92188,1.21875 C2.13021,1.01042 2.33854,0.721354 2.54688,0.351562 C2.75521,-0.0182292 2.85938,-0.385417 2.85938,-0.75 C2.85938,-1.11458 2.78125,-1.42708 2.625,-1.6875 C2.46875,-1.94792 2.26042,-2.07812 2,-2.07812 C1.6875,-2.07812 1.42708,-1.95833 1.21875,-1.71875 C1.02083,-1.45833 0.921875,-1.16146 0.921875,-0.828125 M0.09375,2.75 L-0.15625,-9.14062 C0.03125,-9.24479 0.216146,-9.29688 0.398438,-9.29688 C0.580729,-9.29688 0.760417,-9.24479 0.9375,-9.14062 L0.78125,-2.25 C1.3125,-2.70833 1.92708,-2.9375 2.625,-2.9375 C3.125,-2.9375 3.54427,-2.72917 3.88281,-2.3125 C4.22135,-1.89583 4.39062,-1.41667 4.39062,-0.875 C4.39062,-0.541667 4.28125,-0.182292 4.0625,0.203125 C3.85417,0.546875 3.63542,0.817708 3.40625,1.01562 C3.27083,1.11979 2.9375,1.38021 2.40625,1.79688 C2.25,1.91146 2.0651,2.04688 1.85156,2.20312 C1.63802,2.35938 1.50521,2.45833 1.45312,2.5 C1.35938,2.55208 1.27083,2.65625 1.1875,2.8125 C1.10417,2.94792 1,3.05729 0.875,3.14062 C0.791667,3.22396 0.684896,3.26562 0.554688,3.26562 C0.424479,3.26562 0.317708,3.21875 0.234375,3.125 C0.140625,3.03125 0.09375,2.90625 0.09375,2.75"/>
<path class="Accidental" transform="matrix(0.992126,0,0,0.992126,328.248,258.449)" d="M0.921875,-0.828125 L0.921875,0.71875 C0.921875,1.27083 0.947917,1.70833 1,2.03125 C1.42708,1.66667 1.73438,1.39583 1.92188,1.21875 C2.13021,1.01042 2.33854,0.721354 2.54688,0.351562 C2.75521,-0.0182292 2.85938,-0.385417 2.85938,-0.75 C2.85938,-1.11458 2.78125,-1.42708 2.625,-1.6875 C2.46875,-1.94792 2.26042,-2.07812 2,-2.07812 C1.6875,-2.07812 1.42708,-1.95833 1.21875,-1.71875 C1.02083,-1.45833 0.921875,-1.16146 0.921875,-0.828125 M0.09375,2.75 L-0.15625,-9.14062 C0.03125,-9.24479 0.216146,-9.29688 0.398438,-9.29688 C0.580729,-9.29688 0.760417,-9.24479 0.9375,-9.14062 L0.78125,-2.25 C1.3125,-2.70833 1.92708,-2.9375 2.625,-2.9375 C3.125,-2.9375 3.54427,-2.72917 3.88281,-2.3125 C4.22135,-1.89583 4.39062,-1.41667 4.39062,-0.875 C4.39062,-0.541667 4.28125,-0.182292 4.0625,0.203125 C3.85417,0.546875 3.63542,0.817708 3.40625,1.01562 C3.27083,1.11979 2.9375,1.38021 2.40625,1.79688 C2.25,1.91146 2.0651,2.04688 1.85156,2.20312 C1.63802,2.35938 1.50521,2.45833 1.45312,2.5 C1.35938,2.55208 1.27083,2.65625 1.1875,2.8125 C1.10417,2.94792 1,3.05729 0.875,3.14062 C0.791667,3.22396 0.684896,3.26562 0.554688,3.26562 C0.424479,3.26562 0.317708,3.21875 0.234375,3.125 C0.140625,3.03125 0.09375,2.90625 0.09375,2.75"/>
<path class="Accidental" transform="matrix(0.992126,0,0,0.992126,184.891,327.898)" d="M0.921875,-0.828125 L0.921875,0.71875 C0.921875,1.27083 0.947917,1.70833 1,2.03125 C1.42708,1.66667 1.73438,1.39583 1.92188,1.21875 C2.13021,1.01042 2.33854,0.721354 2.54688,0.351562 C2.75521,-0.0182292 2.85938,-0.385417 2.85938,-0.75 C2.85938,-1.11458 2.78125,-1.42708 2.625,-1.6875 C2.46875,-1.94792 2.26042,-2.07812 2,-2.07812 C1.6875,-2.07812 1.42708,-1.95833 1.21875,-1.71875 C1.02083,-1.45833 0.921875,-1.16146 0.921875,-0.828125 M0.09375,2.75 L-0.15625,-9.14062 C0.03125,-9.24479 0.216146,-9.29688 0.398438,-9.29688 C0.580729,-9.29688 0.760417,-9.24479 0.9375,-9.14062 L0.78125,-2.25 C1.3125,-2.70833 1.92708,-2.9375 2.625,-2.9375 C3.125,-2.9375 3.54427,-2.72917 3.88281,-2.3125 C4.22135,-1.89583 4.39062,-1.41667 4.39062,-0.875 C4.39062,-0.541667 4.28125,-0.182292 4.0625,0.203125 C3.85417,0.546875 3.63542,0.817708 3.40625,1.01562 C3.27083,1.11979 2.9375,1.38021 2.40625,1.79688 C2.25,1.91146 2.0651,2.04688 1.85156,2.20312 C1.63802,2.35938 1.50521,2.45833 1.45312,2.5 C1.35938,2.55208 1.27083,2.65625 1.1875,2.8125 C1.10417,2.94792 1,3.05729 0.875,3.14062 C0.791667,3.22396 0.684896,3.26562 0.554688,3.26562 C0.424479,3.26562 0.317708,3.21875 0.234375,3.125 C0.140625,3.03125 0.09375,2.90625 0.09375,2.75"/>
<path class="Accidental" transform="matrix(0.992126,0,0,0.992126,442.224,181.559)" d="M0.921875,-0.828125 L0.921875,0.71875 C0.921875,1.27083 0.947917,1.70833 1,2.03125 C1.42708,1.66667 1.73438,1.39583 1.92188,1.21875 C2.13021,1.01042 2.33854,0.721354 2.54688,0.351562 C2.75521,-0.0182292 2.85938,-0.385417 2.85938,-0.75 C2.85938,-1.11458 2.78125,-1.42708 2.625,-1.6875 C2.46875,-1.94792 2.26042,-2.07812 2,-2.07812 C1.6875,-2.07812 1.42708,-1.95833 1.21875,-1.71875 C1.02083,-1.45833 0.921875,-1.16146 0.921875,-0.828125 M0.09375,2.75 L-0.15625,-9.14062 C0.03125,-9.24479 0.216146,-9.29688 0.398438,-9.29688 C0.580729,-9.29688 0.760417,-9.24479 0.9375,-9.14062 L0.78125,-2.25 C1.3125,-2.70833 1.92708,-2.9375 2.625,-2.9375 C3.125,-2.9375 3.54427,-2.72917 3.88281,-2.3125 C4.22135,-1.89583 4.39062,-1.41667 4.39062,-0.875 C4.39062,-0.541667 4.28125,-0.182292 4.0625,0.203125 C3.85417,0.546875 3.63542,0.817708 3.40625,1.01562 C3.27083,1.11979 2.9375,1.38021 2.40625,1.79688 C2.25,1.91146 2.0651,2.04688 1.85156,2.20312 C1.63802,2.35938 1.50521,2.45833 1.45312,2.5 C1.35938,2.55208 1.27083,2.65625 1.1875,2.8125 C1.10417,2.94792 1,3.05729 0.875,3.14062 C0.791667,3.22396 0.684896,3.26562 0.554688,3.26562 C0.424479,3.26562 0.317708,3.21875 0.234375,3.125 C0.140625,3.03125 0.09375,2.90625 0.09375,2.75"/>
<path class="Accidental" transform="matrix(0.992126,0,0,0.992126,336.917,112.11)" d="M0.921875,-0.828125 L0.921875,0.71875 C0.921875,1.27083 0.947917,1.70833 1,2.03125 C1.42708,1.66667 1.73438,1.39583 1.92188,1.21875 C2.13021,1.01042 2.33854,0.721354 2.54688,0.351562 C2.75521,-0.0182292 2.85938,-0.385417 2.85938,-0.75 C2.85938,-1.11458 2.78125,-1.42708 2.625,-1.6875 C2.46875,-1.94792 2.26042,-2.07812 2,-2.07812 C1.6875,-2.07812 1.42708,-1.95833 1.21875,-1.71875 C1.02083,-1.45833 0.921875,-1.16146 0.921875,-0.828125 M0.09375,2.75 L-0.15625,-9.14062 C0.03125,-9.24479 0.216146,-9.29688 0.398438,-9.29688 C0.580729,-9.29688 0.760417,-9.24479 0.9375,-9.14062 L0.78125,-2.25 C1.3125,-2.70833 1.92708,-2.9375 2.625,-2.9375 C3.125,-2.9375 3.54427,-2.72917 3.88281,-2.3125 C4.22135,-1.89583 4.39062,-1.41667 4.39062,-0.875 C4.39062,-0.541667 4.28125,-0.182292 4.0625,0.203125 C3.85417,0.546875 3.63542,0.817708 3.40625,1.01562 C3.27083,1.11979 2.9375,1.38021 2.40625,1.79688 C2.25,1.91146 2.0651,2.04688 1.85156,2.20312 C1.63802,2.35938 1.50521,2.45833 1.45312,2.5 C1.35938,2.55208 1.27083,2.65625 1.1875,2.8125 C1.10417,2.94792 1,3.05729 0.875,3.14062 C0.791667,3.22396 0.684896,3.26562 0.554688,3.26562 C0.424479,3.26562 0.317708,3.21875 0.234375,3.125 C0.140625,3.03125 0.09375,2.90625 0.09375,2.75"/>
<path class="Accidental" transform="matrix(0.992126,0,0,0.992126,195.979,181.559)" d="M0.921875,-0.828125 L0.921875,0.71875 C0.921875,1.27083 0.947917,1.70833 1,2.03125 C1.42708,1.66667 1.73438,1.39583 1.92188,1.21875 C2.13021,1.01042 2.33854,0.721354 2.54688,0.351562 C2.75521,-0.0182292 2.85938,-0.385417 2.85938,-0.75 C2.85938,-1.11458 2.78125,-1.42708 2.625,-1.6875 C2.46875,-1.94792 2.26042,-2.07812 2,-2.07812 C1.6875,-2.07812 1.42708,-1.95833 1.21875,-1.71875 C1.02083,-1.45833 0.921875,-1.16146 0.921875,-0.828125 M0.09375,2.75 L-0.15625,-9.14062 C0.03125,-9.24479 0.216146,-9.29688 0.398438,-9.29688 C0.580729,-9.29688 0.760417,-9.24479 0.9375,-9.14062 L0.78125,-2.25 C1.3125,-2.70833 1.92708,-2.9375 2.625,-2.9375 C3.125,-2.9375 3.54427,-2.72917 3.88281,-2.3125 C4.22135,-1.89583 4.39062,-1.41667 4.39062,-0.875 C4.39062,-0.541667 4.28125,-0.182292 4.0625,0.203125 C3.85417,0.546875 3.63542,0.817708 3.40625,1.01562 C3.27083,1.11979 2.9375,1.38021 2.40625,1.79688 C2.25,1.91146 2.0651,2.04688 1.85156,2.20312 C1.63802,2.35938 1.50521,2.45833 1.45312,2.5 C1.35938,2.55208 1.27083,2.65625 1.1875,2.8125 C1.10417,2.94792 1,3.05729 0.875,3.14062 C0.791667,3.22396 0.684896,3.26562 0.554688,3.26562 C0.424479,3.26562 0.317708,3.21875 0.234375,3.125 C0.140625,3.03125 0.09375,2.90625 0.09375,2.75"/>
<polyline class="Stem" stroke="#000000" stroke-width="0.64" stroke-linecap="round" stroke-linejoin="bevel" points="516.34,336.27 516.34,346.5" notes="{f90224c1-1b02-4de0-a5e1-c1f7d048f3cc}" x1="516.34" y1="336.27" x2="516.34" y2="346.5" height="11.1614"/>
<polyline class="Stem" stroke="#000000" stroke-width="0.64" stroke-linecap="round" stroke-linejoin="bevel" points="478.057,326.349 478.057,337.199" notes="{149d4448-558f-417e-92ab-d3ce9260b89b}" x1="478.057" y1="326.349" x2="478.057" y2="337.199" height="11.7815"/>
<polyline class="Stem" stroke="#000000" stroke-width="0.64" stroke-linecap="round" stroke-linejoin="bevel" points="439.774,331.31 439.774,341.539" notes="{b0e96b03-1745-401c-a935-169be4c7b58c}" x1="439.774" y1="331.31" x2="439.774" y2="341.539" height="11.1614"/>
<polyline class="Stem" stroke="#000000" stroke-width="0.64" stroke-linecap="round" stroke-linejoin="bevel" points="445.839,265.128 445.839,248.528" notes="{c116b3d5-2b4f-41a4-bade-2a01a11aa131}" x1="445.839" y1="265.128" x2="445.839" y2="248.528" height="-17.3622"/>
<polyline class="Stem" stroke="#000000" stroke-width="0.64" stroke-linecap="round" stroke-linejoin="bevel" points="395.215,328.829 395.215,339.059" notes="{445937dc-db6a-4cb8-a052-d4baee066a8e}" x1="395.215" y1="328.829" x2="395.215" y2="339.059" height="11.1614"/>
<polyline class="Stem" stroke="#000000" stroke-width="0.64" stroke-linecap="round" stroke-linejoin="bevel" points="401.101,262.478 401.101,246.667" notes="{a94e5219-1848-4566-a75b-5698222be003}" x1="401.101" y1="262.478" x2="401.101" y2="246.667" height="-16.7421"/>
<polyline class="Stem" stroke="#000000" stroke-width="0.64" stroke-linecap="round" stroke-linejoin="bevel" points="357.582,256.9 357.582,272.091" notes="{9f8ee4e3-8a17-4bb8-bdd2-115ba3eeaeda}" x1="357.582" y1="256.9" x2="357.582" y2="272.091" height="16.122"/>
<polyline class="Stem" stroke="#000000" stroke-width="0.64" stroke-linecap="round" stroke-linejoin="bevel" points="339.947,257.517 339.947,243.567" notes="{16760514-c149-4a1a-8068-72e7a99e3d70}" x1="339.947" y1="257.517" x2="339.947" y2="243.567" height="-14.8819"/>
<polyline class="Stem" stroke="#000000" stroke-width="0.64" stroke-linecap="round" stroke-linejoin="bevel" points="310.361,326.195 310.361,337.199" notes="{d75ae34d-a871-4657-a065-bc5646d55554}" x1="310.361" y1="326.195" x2="310.361" y2="337.199" height="11.7815"/>
<polyline class="Stem" stroke="#000000" stroke-width="0.64" stroke-linecap="round" stroke-linejoin="bevel" points="316.426,259.997 316.426,244.807" notes="{45f875e6-89e8-423f-bdb5-3c558bc9f44c}" x1="316.426" y1="259.997" x2="316.426" y2="244.807" height="-16.122"/>
<polyline class="Stem" stroke="#000000" stroke-width="0.64" stroke-linecap="round" stroke-linejoin="bevel" points="266.309,328.829 266.309,339.059" notes="{ee9235ef-ea70-4cbc-a8ad-043299d3af0c}" x1="266.309" y1="328.829" x2="266.309" y2="339.059" height="11.1614"/>
<polyline class="Stem" stroke="#000000" stroke-width="0.64" stroke-linecap="round" stroke-linejoin="bevel" points="229.003,326.349 229.003,337.199" notes="{8af4ad5c-3e3c-4e1d-8a7d-520d8c6e939b}" x1="229.003" y1="326.349" x2="229.003" y2="337.199" height="11.7815"/>
<polyline class="Stem" stroke="#000000" stroke-width="0.64" stroke-linecap="round" stroke-linejoin="bevel" points="191.697,328.829 191.697,339.059" notes="{089721fb-94ca-47c1-a693-f1a357ea54c2}" x1="191.697" y1="328.829" x2="191.697" y2="339.059" height="11.1614"/>
<polyline class="Stem" stroke="#000000" stroke-width="0.64" stroke-linecap="round" stroke-linejoin="bevel" points="197.762,262.648 197.762,246.667" notes="{f448fb16-769e-49f3-ae6e-8719ca1c44d5}" x1="197.762" y1="262.648" x2="197.762" y2="246.667" height="-16.7421"/>
<polyline class="Stem" stroke="#000000" stroke-width="0.64" stroke-linecap="round" stroke-linejoin="bevel" points="145.149,331.31 145.149,341.539" notes="{736ca2c6-5dc0-4abd-aaab-784472247a26}" x1="145.149" y1="331.31" x2="145.149" y2="341.539" height="11.1614"/>
<polyline class="Stem" stroke="#000000" stroke-width="0.64" stroke-linecap="round" stroke-linejoin="bevel" points="108.458,326.349 108.458,337.199" notes="{3a4a93d1-1f17-445d-8ff2-a5232f697b30}" x1="108.458" y1="326.349" x2="108.458" y2="337.199" height="11.7815"/>
<polyline class="Stem" stroke="#000000" stroke-width="0.64" stroke-linecap="round" stroke-linejoin="bevel" points="71.7671,331.31 71.7671,341.539" notes="{bf1b0a89-486d-422e-85d2-cc2513d4cb65}" x1="71.7671" y1="331.31" x2="71.7671" y2="341.539" height="11.1614"/>
<polyline class="Stem" stroke="#000000" stroke-width="0.64" stroke-linecap="round" stroke-linejoin="bevel" points="77.8322,265.128 77.8322,248.528" notes="{3ebf0106-66e3-4ae6-910c-3368b6f0e544}" x1="77.8322" y1="265.128" x2="77.8322" y2="248.528" height="-17.3622"/>
<polyline class="Stem" stroke="#000000" stroke-width="0.64" stroke-linecap="round" stroke-linejoin="bevel" points="522.401,187.451 522.401,197.681" notes="{1a524312-6e24-4289-9604-5a193ac456ac}" x1="522.401" y1="187.451" x2="522.401" y2="197.681" height="11.1614"/>
<polyline class="Stem" stroke="#000000" stroke-width="0.64" stroke-linecap="round" stroke-linejoin="bevel" points="485.715,184.971 485.715,195.201" notes="{b8494b86-b9d3-48b8-8b65-5ec469e127ec}" x1="485.715" y1="184.971" x2="485.715" y2="195.201" height="11.1614"/>
<polyline class="Stem" stroke="#000000" stroke-width="0.64" stroke-linecap="round" stroke-linejoin="bevel" points="449.029,182.491 449.029,192.72" notes="{6719580f-a7d6-4ee0-886e-014cb7e1b8ca}" x1="449.029" y1="182.491" x2="449.029" y2="192.72" height="11.1614"/>
<polyline class="Stem" stroke="#000000" stroke-width="0.64" stroke-linecap="round" stroke-linejoin="bevel" points="455.094,116.309 455.094,100.329" notes="{b5919cc1-30f9-4951-abab-3dd967c5d868}" x1="455.094" y1="116.309" x2="455.094" y2="100.329" height="-16.7421"/>
<polyline class="Stem" stroke="#000000" stroke-width="0.64" stroke-linecap="round" stroke-linejoin="bevel" points="408.319,113.659 408.319,98.4685" notes="{d5105931-d6f8-4f64-8838-c0d3de538b4c}" x1="408.319" y1="113.659" x2="408.319" y2="98.4685" height="-16.122"/>
<polyline class="Stem" stroke="#000000" stroke-width="0.64" stroke-linecap="round" stroke-linejoin="bevel" points="365.693,110.562 365.693,125.752" notes="{76ecf8e1-9839-4dda-8918-074acabfc14e}" x1="365.693" y1="110.562" x2="365.693" y2="125.752" height="16.122"/>
<polyline class="Stem" stroke="#000000" stroke-width="0.64" stroke-linecap="round" stroke-linejoin="bevel" points="348.616,111.179 348.616,97.2284" notes="{c2ddb333-54a2-4b75-8e45-0952ca90a736}" x1="348.616" y1="111.179" x2="348.616" y2="97.2284" height="-14.8819"/>
<polyline class="Stem" stroke="#000000" stroke-width="0.64" stroke-linecap="round" stroke-linejoin="bevel" points="319.589,179.857 319.589,190.86" notes="{959cad5a-05c0-4b99-9344-bfa562b4e9ac}" x1="319.589" y1="179.857" x2="319.589" y2="190.86" height="11.7815"/>
<polyline class="Stem" stroke="#000000" stroke-width="0.64" stroke-linecap="round" stroke-linejoin="bevel" points="325.654,113.659 325.654,98.4685" notes="{6358ef61-b43f-41bb-8ed5-5ad2c0e00a47}" x1="325.654" y1="113.659" x2="325.654" y2="98.4685" height="-16.122"/>
<polyline class="Stem" stroke="#000000" stroke-width="0.64" stroke-linecap="round" stroke-linejoin="bevel" points="276.156,182.491 276.156,192.72" notes="{160ccbc9-9dbc-4442-9fc4-677703fe0d2c}" x1="276.156" y1="182.491" x2="276.156" y2="192.72" height="11.1614"/>
<polyline class="Stem" stroke="#000000" stroke-width="0.64" stroke-linecap="round" stroke-linejoin="bevel" points="239.47,180.01 239.47,190.86" notes="{d3a0d563-1204-4560-8baf-4c997b8b591c}" x1="239.47" y1="180.01" x2="239.47" y2="190.86" height="11.7815"/>
<polyline class="Stem" stroke="#000000" stroke-width="0.64" stroke-linecap="round" stroke-linejoin="bevel" points="202.784,182.491 202.784,192.72" notes="{14d3b0b8-75da-49eb-8fa2-a223a024b1c7}" x1="202.784" y1="182.491" x2="202.784" y2="192.72" height="11.1614"/>
<polyline class="Stem" stroke="#000000" stroke-width="0.64" stroke-linecap="round" stroke-linejoin="bevel" points="208.849,116.309 208.849,100.329" notes="{cb8da6d4-c834-4f71-9537-d1482fc30254}" x1="208.849" y1="116.309" x2="208.849" y2="100.329" height="-16.7421"/>
<polyline class="Stem" stroke="#000000" stroke-width="0.64" stroke-linecap="round" stroke-linejoin="bevel" points="156.857,184.971 156.857,195.201" notes="{927211af-bf84-4ec6-9dba-3d53ba05870b}" x1="156.857" y1="184.971" x2="156.857" y2="195.201" height="11.1614"/>
<polyline class="Stem" stroke="#000000" stroke-width="0.64" stroke-linecap="round" stroke-linejoin="bevel" points="120.786,180.01 120.786,190.86" notes="{23323e49-6d97-4bd1-807f-5bf9e3b85bb0}" x1="120.786" y1="180.01" x2="120.786" y2="190.86" height="11.7815"/>
<polyline class="Stem" stroke="#000000" stroke-width="0.64" stroke-linecap="round" stroke-linejoin="bevel" points="84.7143,184.971 84.7143,195.201" notes="{a357b812-ddbd-4798-a471-6283fd5a86c7}" x1="84.7143" y1="184.971" x2="84.7143" y2="195.201" height="11.1614"/>
<polyline class="Stem" stroke="#000000" stroke-width="0.64" stroke-linecap="round" stroke-linejoin="bevel" points="90.7795,118.789 90.7795,102.189" notes="{db15a0ad-5bcc-4be7-a7b4-b36862e85b70}" x1="90.7795" y1="118.789" x2="90.7795" y2="102.189" height="-17.3622"/>
<polyline class="LedgerLine" stroke="#000000" stroke-width="0.79" stroke-linecap="square" stroke-linejoin="bevel" points="514.529,325.417 524.036,325.417"/>
<polyline class="LedgerLine" stroke="#000000" stroke-width="0.79" stroke-linecap="square" stroke-linejoin="bevel" points="514.529,330.378 524.036,330.378"/>
<polyline class="LedgerLine" stroke="#000000" stroke-width="0.79" stroke-linecap="square" stroke-linejoin="bevel" points="514.529,335.339 524.036,335.339"/>
<polyline class="LedgerLine" stroke="#000000" stroke-width="0.79" stroke-linecap="square" stroke-linejoin="bevel" points="476.246,325.417 485.754,325.417"/>
<polyline class="LedgerLine" stroke="#000000" stroke-width="0.79" stroke-linecap="square" stroke-linejoin="bevel" points="437.963,325.417 447.471,325.417"/>
<polyline class="LedgerLine" stroke="#000000" stroke-width="0.79" stroke-linecap="square" stroke-linejoin="bevel" points="437.963,330.378 447.471,330.378"/>
<polyline class="LedgerLine" stroke="#000000" stroke-width="0.79" stroke-linecap="square" stroke-linejoin="bevel" points="393.404,325.417 402.912,325.417"/>
<polyline class="LedgerLine" stroke="#000000" stroke-width="0.79" stroke-linecap="square" stroke-linejoin="bevel" points="308.55,325.417 318.416,325.417"/>
<polyline class="LedgerLine" stroke="#000000" stroke-width="0.79" stroke-linecap="square" stroke-linejoin="bevel" points="264.498,325.417 274.005,325.417"/>
<polyline class="LedgerLine" stroke="#000000" stroke-width="0.79" stroke-linecap="square" stroke-linejoin="bevel" points="227.192,325.417 236.699,325.417"/>
<polyline class="LedgerLine" stroke="#000000" stroke-width="0.79" stroke-linecap="square" stroke-linejoin="bevel" points="189.886,325.417 199.393,325.417"/>
<polyline class="LedgerLine" stroke="#000000" stroke-width="0.79" stroke-linecap="square" stroke-linejoin="bevel" points="143.339,325.417 152.846,325.417"/>
<polyline class="LedgerLine" stroke="#000000" stroke-width="0.79" stroke-linecap="square" stroke-linejoin="bevel" points="143.339,330.378 152.846,330.378"/>
<polyline class="LedgerLine" stroke="#000000" stroke-width="0.79" stroke-linecap="square" stroke-linejoin="bevel" points="106.648,325.417 116.155,325.417"/>
<polyline class="LedgerLine" stroke="#000000" stroke-width="0.79" stroke-linecap="square" stroke-linejoin="bevel" points="69.9565,325.417 79.4638,325.417"/>
<polyline class="LedgerLine" stroke="#000000" stroke-width="0.79" stroke-linecap="square" stroke-linejoin="bevel" points="69.9565,330.378 79.4638,330.378"/>
<polyline class="LedgerLine" stroke="#000000" stroke-width="0.79" stroke-linecap="square" stroke-linejoin="bevel" points="520.59,179.079 530.098,179.079"/>
<polyline class="LedgerLine" stroke="#000000" stroke-width="0.79" stroke-linecap="square" stroke-linejoin="bevel" points="520.59,184.039 530.098,184.039"/>
<polyline class="LedgerLine" stroke="#000000" stroke-width="0.79" stroke-linecap="square" stroke-linejoin="bevel" points="483.904,179.079 493.412,179.079"/>
<polyline class="LedgerLine" stroke="#000000" stroke-width="0.79" stroke-linecap="square" stroke-linejoin="bevel" points="483.904,184.039 493.412,184.039"/>
<polyline class="LedgerLine" stroke="#000000" stroke-width="0.79" stroke-linecap="square" stroke-linejoin="bevel" points="447.218,179.079 456.726,179.079"/>
<polyline class="LedgerLine" stroke="#000000" stroke-width="0.79" stroke-linecap="square" stroke-linejoin="bevel" points="317.778,179.079 327.643,179.079"/>
<polyline class="LedgerLine" stroke="#000000" stroke-width="0.79" stroke-linecap="square" stroke-linejoin="bevel" points="274.346,179.079 283.853,179.079"/>
<polyline class="LedgerLine" stroke="#000000" stroke-width="0.79" stroke-linecap="square" stroke-linejoin="bevel" points="237.659,179.079 247.167,179.079"/>
<polyline class="LedgerLine" stroke="#000000" stroke-width="0.79" stroke-linecap="square" stroke-linejoin="bevel" points="200.973,179.079 210.481,179.079"/>
<polyline class="LedgerLine" stroke="#000000" stroke-width="0.79" stroke-linecap="square" stroke-linejoin="bevel" points="155.046,179.079 164.553,179.079"/>
<polyline class="LedgerLine" stroke="#000000" stroke-width="0.79" stroke-linecap="square" stroke-linejoin="bevel" points="155.046,184.039 164.553,184.039"/>
<polyline class="LedgerLine" stroke="#000000" stroke-width="0.79" stroke-linecap="square" stroke-linejoin="bevel" points="118.975,179.079 128.482,179.079"/>
<polyline class="LedgerLine" stroke="#000000" stroke-width="0.79" stroke-linecap="square" stroke-linejoin="bevel" points="82.9037,179.079 92.4111,179.079"/>
<polyline class="LedgerLine" stroke="#000000" stroke-width="0.79" stroke-linecap="square" stroke-linejoin="bevel" points="82.9037,184.039 92.4111,184.039"/>
<path class="Note" transform="matrix(0.992126,0,0,0.992126,516.017,335.339)" d="M4.39062,-2.75 C5.01562,-2.75 5.54688,-2.58854 5.98438,-2.26562 C6.38021,-1.91146 6.57812,-1.46875 6.57812,-0.9375 C6.57812,-0.0416667 6.11979,0.796875 5.20312,1.57812 C4.26562,2.35938 3.26042,2.75 2.1875,2.75 C1.5625,2.75 1.03646,2.58854 0.609375,2.26562 C0.203125,1.91146 0,1.46875 0,0.9375 C0,0.0416667 0.46875,-0.796875 1.40625,-1.57812 C2.32292,-2.35938 3.31771,-2.75 4.39062,-2.75" id="{f90224c1-1b02-4de0-a5e1-c1f7d048f3cc}" stem_h="11.1614"/>
<path class="Note" transform="matrix(0.992126,0,0,0.992126,477.734,325.417)" d="M4.39062,-2.75 C5.01562,-2.75 5.54688,-2.58854 5.98438,-2.26562 C6.38021,-1.91146 6.57812,-1.46875 6.57812,-0.9375 C6.57812,-0.0416667 6.11979,0.796875 5.20312,1.57812 C4.26562,2.35938 3.26042,2.75 2.1875,2.75 C1.5625,2.75 1.03646,2.58854 0.609375,2.26562 C0.203125,1.91146 0,1.46875 0,0.9375 C0,0.0416667 0.46875,-0.796875 1.40625,-1.57812 C2.32292,-2.35938 3.31771,-2.75 4.39062,-2.75" id="{149d4448-558f-417e-92ab-d3ce9260b89b}" stem_h="11.7815"/>
<path class="Note" transform="matrix(0.992126,0,0,0.992126,439.451,330.378)" d="M4.39062,-2.75 C5.01562,-2.75 5.54688,-2.58854 5.98438,-2.26562 C6.38021,-1.91146 6.57812,-1.46875 6.57812,-0.9375 C6.57812,-0.0416667 6.11979,0.796875 5.20312,1.57812 C4.26562,2.35938 3.26042,2.75 2.1875,2.75 C1.5625,2.75 1.03646,2.58854 0.609375,2.26562 C0.203125,1.91146 0,1.46875 0,0.9375 C0,0.0416667 0.46875,-0.796875 1.40625,-1.57812 C2.32292,-2.35938 3.31771,-2.75 4.39062,-2.75" id="{b0e96b03-1745-401c-a935-169be4c7b58c}" stem_h="11.1614"/>
<path class="Note" transform="matrix(0.992126,0,0,0.992126,439.272,265.89)" d="M6.3125,-1.3125 C6.3125,-1.53125 6.22917,-1.71875 6.0625,-1.875 C5.88542,-2.04167 5.6875,-2.125 5.46875,-2.125 C5.08333,-2.125 4.29688,-1.73438 3.10938,-0.953125 C1.88021,-0.161458 1.13021,0.40625 0.859375,0.75 C0.713542,0.927083 0.640625,1.11458 0.640625,1.3125 C0.640625,1.53125 0.729167,1.71875 0.90625,1.875 C1.0625,2.04167 1.25521,2.125 1.48438,2.125 C1.85938,2.125 2.65625,1.73438 3.875,0.953125 C5.07292,0.171875 5.8125,-0.395833 6.09375,-0.75 C6.23958,-0.916667 6.3125,-1.10417 6.3125,-1.3125 M5.28125,-2.75 C6.39583,-2.75 6.95312,-2.27083 6.95312,-1.3125 C6.95312,-0.84375 6.81771,-0.296875 6.54688,0.328125 C6.27604,0.942708 5.91146,1.41146 5.45312,1.73438 C4.45312,2.41146 3.19792,2.75 1.6875,2.75 C0.5625,2.75 0,2.27083 0,1.3125 C0,0.885417 0.135417,0.34375 0.40625,-0.3125 C0.666667,-0.9375 1.03125,-1.41146 1.5,-1.73438 C2.51042,-2.41146 3.77083,-2.75 5.28125,-2.75" id="{c116b3d5-2b4f-41a4-bade-2a01a11aa131}" stem_h="-17.3622"/>
<path class="Note" transform="matrix(0.992126,0,0,0.992126,394.893,327.898)" d="M4.39062,-2.75 C5.01562,-2.75 5.54688,-2.58854 5.98438,-2.26562 C6.38021,-1.91146 6.57812,-1.46875 6.57812,-0.9375 C6.57812,-0.0416667 6.11979,0.796875 5.20312,1.57812 C4.26562,2.35938 3.26042,2.75 2.1875,2.75 C1.5625,2.75 1.03646,2.58854 0.609375,2.26562 C0.203125,1.91146 0,1.46875 0,0.9375 C0,0.0416667 0.46875,-0.796875 1.40625,-1.57812 C2.32292,-2.35938 3.31771,-2.75 4.39062,-2.75" id="{445937dc-db6a-4cb8-a052-d4baee066a8e}" stem_h="11.1614"/>
<path class="Note" transform="matrix(0.992126,0,0,0.992126,394.893,263.409)" d="M4.39062,-2.75 C5.01562,-2.75 5.54688,-2.58854 5.98438,-2.26562 C6.38021,-1.91146 6.57812,-1.46875 6.57812,-0.9375 C6.57812,-0.0416667 6.11979,0.796875 5.20312,1.57812 C4.26562,2.35938 3.26042,2.75 2.1875,2.75 C1.5625,2.75 1.03646,2.58854 0.609375,2.26562 C0.203125,1.91146 0,1.46875 0,0.9375 C0,0.0416667 0.46875,-0.796875 1.40625,-1.57812 C2.32292,-2.35938 3.31771,-2.75 4.39062,-2.75" id="{a94e5219-1848-4566-a75b-5698222be003}" stem_h="-16.7421"/>
<path class="Note" transform="matrix(0.992126,0,0,0.992126,357.259,255.969)" d="M4.39062,-2.75 C5.01562,-2.75 5.54688,-2.58854 5.98438,-2.26562 C6.38021,-1.91146 6.57812,-1.46875 6.57812,-0.9375 C6.57812,-0.0416667 6.11979,0.796875 5.20312,1.57812 C4.26562,2.35938 3.26042,2.75 2.1875,2.75 C1.5625,2.75 1.03646,2.58854 0.609375,2.26562 C0.203125,1.91146 0,1.46875 0,0.9375 C0,0.0416667 0.46875,-0.796875 1.40625,-1.57812 C2.32292,-2.35938 3.31771,-2.75 4.39062,-2.75" id="{9f8ee4e3-8a17-4bb8-bdd2-115ba3eeaeda}" stem_h="16.122"/>
<path class="Note" transform="matrix(0.992126,0,0,0.992126,333.739,258.449)" d="M4.39062,-2.75 C5.01562,-2.75 5.54688,-2.58854 5.98438,-2.26562 C6.38021,-1.91146 6.57812,-1.46875 6.57812,-0.9375 C6.57812,-0.0416667 6.11979,0.796875 5.20312,1.57812 C4.26562,2.35938 3.26042,2.75 2.1875,2.75 C1.5625,2.75 1.03646,2.58854 0.609375,2.26562 C0.203125,1.91146 0,1.46875 0,0.9375 C0,0.0416667 0.46875,-0.796875 1.40625,-1.57812 C2.32292,-2.35938 3.31771,-2.75 4.39062,-2.75" id="{16760514-c149-4a1a-8068-72e7a99e3d70}" stem_h="-14.8819"/>
<path class="Note" transform="matrix(0.992126,0,0,0.992126,310.039,325.417)" d="M6.3125,-1.3125 C6.3125,-1.53125 6.22917,-1.71875 6.0625,-1.875 C5.88542,-2.04167 5.6875,-2.125 5.46875,-2.125 C5.08333,-2.125 4.29688,-1.73438 3.10938,-0.953125 C1.88021,-0.161458 1.13021,0.40625 0.859375,0.75 C0.713542,0.927083 0.640625,1.11458 0.640625,1.3125 C0.640625,1.53125 0.729167,1.71875 0.90625,1.875 C1.0625,2.04167 1.25521,2.125 1.48438,2.125 C1.85938,2.125 2.65625,1.73438 3.875,0.953125 C5.07292,0.171875 5.8125,-0.395833 6.09375,-0.75 C6.23958,-0.916667 6.3125,-1.10417 6.3125,-1.3125 M5.28125,-2.75 C6.39583,-2.75 6.95312,-2.27083 6.95312,-1.3125 C6.95312,-0.84375 6.81771,-0.296875 6.54688,0.328125 C6.27604,0.942708 5.91146,1.41146 5.45312,1.73438 C4.45312,2.41146 3.19792,2.75 1.6875,2.75 C0.5625,2.75 0,2.27083 0,1.3125 C0,0.885417 0.135417,0.34375 0.40625,-0.3125 C0.666667,-0.9375 1.03125,-1.41146 1.5,-1.73438 C2.51042,-2.41146 3.77083,-2.75 5.28125,-2.75" id="{d75ae34d-a871-4657-a065-bc5646d55554}" stem_h="11.7815"/>
<path class="Note" transform="matrix(0.992126,0,0,0.992126,310.218,260.929)" d="M4.39062,-2.75 C5.01562,-2.75 5.54688,-2.58854 5.98438,-2.26562 C6.38021,-1.91146 6.57812,-1.46875 6.57812,-0.9375 C6.57812,-0.0416667 6.11979,0.796875 5.20312,1.57812 C4.26562,2.35938 3.26042,2.75 2.1875,2.75 C1.5625,2.75 1.03646,2.58854 0.609375,2.26562 C0.203125,1.91146 0,1.46875 0,0.9375 C0,0.0416667 0.46875,-0.796875 1.40625,-1.57812 C2.32292,-2.35938 3.31771,-2.75 4.39062,-2.75" id="{45f875e6-89e8-423f-bdb5-3c558bc9f44c}" stem_h="-16.122"/>
<path class="Note" transform="matrix(0.992126,0,0,0.992126,265.986,327.898)" d="M4.39062,-2.75 C5.01562,-2.75 5.54688,-2.58854 5.98438,-2.26562 C6.38021,-1.91146 6.57812,-1.46875 6.57812,-0.9375 C6.57812,-0.0416667 6.11979,0.796875 5.20312,1.57812 C4.26562,2.35938 3.26042,2.75 2.1875,2.75 C1.5625,2.75 1.03646,2.58854 0.609375,2.26562 C0.203125,1.91146 0,1.46875 0,0.9375 C0,0.0416667 0.46875,-0.796875 1.40625,-1.57812 C2.32292,-2.35938 3.31771,-2.75 4.39062,-2.75" id="{ee9235ef-ea70-4cbc-a8ad-043299d3af0c}" stem_h="11.1614"/>
<path class="Note" transform="matrix(0.992126,0,0,0.992126,228.68,325.417)" d="M4.39062,-2.75 C5.01562,-2.75 5.54688,-2.58854 5.98438,-2.26562 C6.38021,-1.91146 6.57812,-1.46875 6.57812,-0.9375 C6.57812,-0.0416667 6.11979,0.796875 5.20312,1.57812 C4.26562,2.35938 3.26042,2.75 2.1875,2.75 C1.5625,2.75 1.03646,2.58854 0.609375,2.26562 C0.203125,1.91146 0,1.46875 0,0.9375 C0,0.0416667 0.46875,-0.796875 1.40625,-1.57812 C2.32292,-2.35938 3.31771,-2.75 4.39062,-2.75" id="{8af4ad5c-3e3c-4e1d-8a7d-520d8c6e939b}" stem_h="11.7815"/>
<path class="Note" transform="matrix(0.992126,0,0,0.992126,191.374,327.898)" d="M4.39062,-2.75 C5.01562,-2.75 5.54688,-2.58854 5.98438,-2.26562 C6.38021,-1.91146 6.57812,-1.46875 6.57812,-0.9375 C6.57812,-0.0416667 6.11979,0.796875 5.20312,1.57812 C4.26562,2.35938 3.26042,2.75 2.1875,2.75 C1.5625,2.75 1.03646,2.58854 0.609375,2.26562 C0.203125,1.91146 0,1.46875 0,0.9375 C0,0.0416667 0.46875,-0.796875 1.40625,-1.57812 C2.32292,-2.35938 3.31771,-2.75 4.39062,-2.75" id="{089721fb-94ca-47c1-a693-f1a357ea54c2}" stem_h="11.1614"/>
<path class="Note" transform="matrix(0.992126,0,0,0.992126,191.195,263.409)" d="M6.3125,-1.3125 C6.3125,-1.53125 6.22917,-1.71875 6.0625,-1.875 C5.88542,-2.04167 5.6875,-2.125 5.46875,-2.125 C5.08333,-2.125 4.29688,-1.73438 3.10938,-0.953125 C1.88021,-0.161458 1.13021,0.40625 0.859375,0.75 C0.713542,0.927083 0.640625,1.11458 0.640625,1.3125 C0.640625,1.53125 0.729167,1.71875 0.90625,1.875 C1.0625,2.04167 1.25521,2.125 1.48438,2.125 C1.85938,2.125 2.65625,1.73438 3.875,0.953125 C5.07292,0.171875 5.8125,-0.395833 6.09375,-0.75 C6.23958,-0.916667 6.3125,-1.10417 6.3125,-1.3125 M5.28125,-2.75 C6.39583,-2.75 6.95312,-2.27083 6.95312,-1.3125 C6.95312,-0.84375 6.81771,-0.296875 6.54688,0.328125 C6.27604,0.942708 5.91146,1.41146 5.45312,1.73438 C4.45312,2.41146 3.19792,2.75 1.6875,2.75 C0.5625,2.75 0,2.27083 0,1.3125 C0,0.885417 0.135417,0.34375 0.40625,-0.3125 C0.666667,-0.9375 1.03125,-1.41146 1.5,-1.73438 C2.51042,-2.41146 3.77083,-2.75 5.28125,-2.75" id="{f448fb16-769e-49f3-ae6e-8719ca1c44d5}" stem_h="-16.7421"/>
<path class="Note" transform="matrix(0.992126,0,0,0.992126,144.827,330.378)" d="M4.39062,-2.75 C5.01562,-2.75 5.54688,-2.58854 5.98438,-2.26562 C6.38021,-1.91146 6.57812,-1.46875 6.57812,-0.9375 C6.57812,-0.0416667 6.11979,0.796875 5.20312,1.57812 C4.26562,2.35938 3.26042,2.75 2.1875,2.75 C1.5625,2.75 1.03646,2.58854 0.609375,2.26562 C0.203125,1.91146 0,1.46875 0,0.9375 C0,0.0416667 0.46875,-0.796875 1.40625,-1.57812 C2.32292,-2.35938 3.31771,-2.75 4.39062,-2.75" id="{736ca2c6-5dc0-4abd-aaab-784472247a26}" stem_h="11.1614"/>
<path class="Note" transform="matrix(0.992126,0,0,0.992126,108.136,325.417)" d="M4.39062,-2.75 C5.01562,-2.75 5.54688,-2.58854 5.98438,-2.26562 C6.38021,-1.91146 6.57812,-1.46875 6.57812,-0.9375 C6.57812,-0.0416667 6.11979,0.796875 5.20312,1.57812 C4.26562,2.35938 3.26042,2.75 2.1875,2.75 C1.5625,2.75 1.03646,2.58854 0.609375,2.26562 C0.203125,1.91146 0,1.46875 0,0.9375 C0,0.0416667 0.46875,-0.796875 1.40625,-1.57812 C2.32292,-2.35938 3.31771,-2.75 4.39062,-2.75" id="{3a4a93d1-1f17-445d-8ff2-a5232f697b30}" stem_h="11.7815"/>
<path class="Note" transform="matrix(0.992126,0,0,0.992126,71.4447,330.378)" d="M4.39062,-2.75 C5.01562,-2.75 5.54688,-2.58854 5.98438,-2.26562 C6.38021,-1.91146 6.57812,-1.46875 6.57812,-0.9375 C6.57812,-0.0416667 6.11979,0.796875 5.20312,1.57812 C4.26562,2.35938 3.26042,2.75 2.1875,2.75 C1.5625,2.75 1.03646,2.58854 0.609375,2.26562 C0.203125,1.91146 0,1.46875 0,0.9375 C0,0.0416667 0.46875,-0.796875 1.40625,-1.57812 C2.32292,-2.35938 3.31771,-2.75 4.39062,-2.75" id="{bf1b0a89-486d-422e-85d2-cc2513d4cb65}" stem_h="11.1614"/>
<path class="Note" transform="matrix(0.992126,0,0,0.992126,71.2656,265.89)" d="M6.3125,-1.3125 C6.3125,-1.53125 6.22917,-1.71875 6.0625,-1.875 C5.88542,-2.04167 5.6875,-2.125 5.46875,-2.125 C5.08333,-2.125 4.29688,-1.73438 3.10938,-0.953125 C1.88021,-0.161458 1.13021,0.40625 0.859375,0.75 C0.713542,0.927083 0.640625,1.11458 0.640625,1.3125 C0.640625,1.53125 0.729167,1.71875 0.90625,1.875 C1.0625,2.04167 1.25521,2.125 1.48438,2.125 C1.85938,2.125 2.65625,1.73438 3.875,0.953125 C5.07292,0.171875 5.8125,-0.395833 6.09375,-0.75 C6.23958,-0.916667 6.3125,-1.10417 6.3125,-1.3125 M5.28125,-2.75 C6.39583,-2.75 6.95312,-2.27083 6.95312,-1.3125 C6.95312,-0.84375 6.81771,-0.296875 6.54688,0.328125 C6.27604,0.942708 5.91146,1.41146 5.45312,1.73438 C4.45312,2.41146 3.19792,2.75 1.6875,2.75 C0.5625,2.75 0,2.27083 0,1.3125 C0,0.885417 0.135417,0.34375 0.40625,-0.3125 C0.666667,-0.9375 1.03125,-1.41146 1.5,-1.73438 C2.51042,-2.41146 3.77083,-2.75 5.28125,-2.75" id="{3ebf0106-66e3-4ae6-910c-3368b6f0e544}" stem_h="-17.3622"/>
<path class="Note" transform="matrix(0.992126,0,0,0.992126,522.079,186.52)" d="M4.39062,-2.75 C5.01562,-2.75 5.54688,-2.58854 5.98438,-2.26562 C6.38021,-1.91146 6.57812,-1.46875 6.57812,-0.9375 C6.57812,-0.0416667 6.11979,0.796875 5.20312,1.57812 C4.26562,2.35938 3.26042,2.75 2.1875,2.75 C1.5625,2.75 1.03646,2.58854 0.609375,2.26562 C0.203125,1.91146 0,1.46875 0,0.9375 C0,0.0416667 0.46875,-0.796875 1.40625,-1.57812 C2.32292,-2.35938 3.31771,-2.75 4.39062,-2.75" id="{1a524312-6e24-4289-9604-5a193ac456ac}" stem_h="11.1614"/>
<path class="Note" transform="matrix(0.992126,0,0,0.992126,485.393,184.039)" d="M4.39062,-2.75 C5.01562,-2.75 5.54688,-2.58854 5.98438,-2.26562 C6.38021,-1.91146 6.57812,-1.46875 6.57812,-0.9375 C6.57812,-0.0416667 6.11979,0.796875 5.20312,1.57812 C4.26562,2.35938 3.26042,2.75 2.1875,2.75 C1.5625,2.75 1.03646,2.58854 0.609375,2.26562 C0.203125,1.91146 0,1.46875 0,0.9375 C0,0.0416667 0.46875,-0.796875 1.40625,-1.57812 C2.32292,-2.35938 3.31771,-2.75 4.39062,-2.75" id="{b8494b86-b9d3-48b8-8b65-5ec469e127ec}" stem_h="11.1614"/>
<path class="Note" transform="matrix(0.992126,0,0,0.992126,448.707,181.559)" d="M4.39062,-2.75 C5.01562,-2.75 5.54688,-2.58854 5.98438,-2.26562 C6.38021,-1.91146 6.57812,-1.46875 6.57812,-0.9375 C6.57812,-0.0416667 6.11979,0.796875 5.20312,1.57812 C4.26562,2.35938 3.26042,2.75 2.1875,2.75 C1.5625,2.75 1.03646,2.58854 0.609375,2.26562 C0.203125,1.91146 0,1.46875 0,0.9375 C0,0.0416667 0.46875,-0.796875 1.40625,-1.57812 C2.32292,-2.35938 3.31771,-2.75 4.39062,-2.75" id="{6719580f-a7d6-4ee0-886e-014cb7e1b8ca}" stem_h="11.1614"/>
<path class="Note" transform="matrix(0.992126,0,0,0.992126,448.527,117.071)" d="M6.3125,-1.3125 C6.3125,-1.53125 6.22917,-1.71875 6.0625,-1.875 C5.88542,-2.04167 5.6875,-2.125 5.46875,-2.125 C5.08333,-2.125 4.29688,-1.73438 3.10938,-0.953125 C1.88021,-0.161458 1.13021,0.40625 0.859375,0.75 C0.713542,0.927083 0.640625,1.11458 0.640625,1.3125 C0.640625,1.53125 0.729167,1.71875 0.90625,1.875 C1.0625,2.04167 1.25521,2.125 1.48438,2.125 C1.85938,2.125 2.65625,1.73438 3.875,0.953125 C5.07292,0.171875 5.8125,-0.395833 6.09375,-0.75 C6.23958,-0.916667 6.3125,-1.10417 6.3125,-1.3125 M5.28125,-2.75 C6.39583,-2.75 6.95312,-2.27083 6.95312,-1.3125 C6.95312,-0.84375 6.81771,-0.296875 6.54688,0.328125 C6.27604,0.942708 5.91146,1.41146 5.45312,1.73438 C4.45312,2.41146 3.19792,2.75 1.6875,2.75 C0.5625,2.75 0,2.27083 0,1.3125 C0,0.885417 0.135417,0.34375 0.40625,-0.3125 C0.666667,-0.9375 1.03125,-1.41146 1.5,-1.73438 C2.51042,-2.41146 3.77083,-2.75 5.28125,-2.75" id="{b5919cc1-30f9-4951-abab-3dd967c5d868}" stem_h="-16.7421"/>
<path class="Note" transform="matrix(0.992126,0,0,0.992126,402.11,114.591)" d="M4.39062,-2.75 C5.01562,-2.75 5.54688,-2.58854 5.98438,-2.26562 C6.38021,-1.91146 6.57812,-1.46875 6.57812,-0.9375 C6.57812,-0.0416667 6.11979,0.796875 5.20312,1.57812 C4.26562,2.35938 3.26042,2.75 2.1875,2.75 C1.5625,2.75 1.03646,2.58854 0.609375,2.26562 C0.203125,1.91146 0,1.46875 0,0.9375 C0,0.0416667 0.46875,-0.796875 1.40625,-1.57812 C2.32292,-2.35938 3.31771,-2.75 4.39062,-2.75" id="{d5105931-d6f8-4f64-8838-c0d3de538b4c}" stem_h="-16.122"/>
<path class="Note" transform="matrix(0.992126,0,0,0.992126,365.37,109.63)" d="M4.39062,-2.75 C5.01562,-2.75 5.54688,-2.58854 5.98438,-2.26562 C6.38021,-1.91146 6.57812,-1.46875 6.57812,-0.9375 C6.57812,-0.0416667 6.11979,0.796875 5.20312,1.57812 C4.26562,2.35938 3.26042,2.75 2.1875,2.75 C1.5625,2.75 1.03646,2.58854 0.609375,2.26562 C0.203125,1.91146 0,1.46875 0,0.9375 C0,0.0416667 0.46875,-0.796875 1.40625,-1.57812 C2.32292,-2.35938 3.31771,-2.75 4.39062,-2.75" id="{76ecf8e1-9839-4dda-8918-074acabfc14e}" stem_h="16.122"/>
<path class="Note" transform="matrix(0.992126,0,0,0.992126,342.408,112.11)" d="M4.39062,-2.75 C5.01562,-2.75 5.54688,-2.58854 5.98438,-2.26562 C6.38021,-1.91146 6.57812,-1.46875 6.57812,-0.9375 C6.57812,-0.0416667 6.11979,0.796875 5.20312,1.57812 C4.26562,2.35938 3.26042,2.75 2.1875,2.75 C1.5625,2.75 1.03646,2.58854 0.609375,2.26562 C0.203125,1.91146 0,1.46875 0,0.9375 C0,0.0416667 0.46875,-0.796875 1.40625,-1.57812 C2.32292,-2.35938 3.31771,-2.75 4.39062,-2.75" id="{c2ddb333-54a2-4b75-8e45-0952ca90a736}" stem_h="-14.8819"/>
<path class="Note" transform="matrix(0.992126,0,0,0.992126,319.266,179.079)" d="M6.3125,-1.3125 C6.3125,-1.53125 6.22917,-1.71875 6.0625,-1.875 C5.88542,-2.04167 5.6875,-2.125 5.46875,-2.125 C5.08333,-2.125 4.29688,-1.73438 3.10938,-0.953125 C1.88021,-0.161458 1.13021,0.40625 0.859375,0.75 C0.713542,0.927083 0.640625,1.11458 0.640625,1.3125 C0.640625,1.53125 0.729167,1.71875 0.90625,1.875 C1.0625,2.04167 1.25521,2.125 1.48438,2.125 C1.85938,2.125 2.65625,1.73438 3.875,0.953125 C5.07292,0.171875 5.8125,-0.395833 6.09375,-0.75 C6.23958,-0.916667 6.3125,-1.10417 6.3125,-1.3125 M5.28125,-2.75 C6.39583,-2.75 6.95312,-2.27083 6.95312,-1.3125 C6.95312,-0.84375 6.81771,-0.296875 6.54688,0.328125 C6.27604,0.942708 5.91146,1.41146 5.45312,1.73438 C4.45312,2.41146 3.19792,2.75 1.6875,2.75 C0.5625,2.75 0,2.27083 0,1.3125 C0,0.885417 0.135417,0.34375 0.40625,-0.3125 C0.666667,-0.9375 1.03125,-1.41146 1.5,-1.73438 C2.51042,-2.41146 3.77083,-2.75 5.28125,-2.75" id="{959cad5a-05c0-4b99-9344-bfa562b4e9ac}" stem_h="11.7815"/>
<path class="Note" transform="matrix(0.992126,0,0,0.992126,319.445,114.591)" d="M4.39062,-2.75 C5.01562,-2.75 5.54688,-2.58854 5.98438,-2.26562 C6.38021,-1.91146 6.57812,-1.46875 6.57812,-0.9375 C6.57812,-0.0416667 6.11979,0.796875 5.20312,1.57812 C4.26562,2.35938 3.26042,2.75 2.1875,2.75 C1.5625,2.75 1.03646,2.58854 0.609375,2.26562 C0.203125,1.91146 0,1.46875 0,0.9375 C0,0.0416667 0.46875,-0.796875 1.40625,-1.57812 C2.32292,-2.35938 3.31771,-2.75 4.39062,-2.75" id="{6358ef61-b43f-41bb-8ed5-5ad2c0e00a47}" stem_h="-16.122"/>
<path class="Note" transform="matrix(0.992126,0,0,0.992126,275.834,181.559)" d="M4.39062,-2.75 C5.01562,-2.75 5.54688,-2.58854 5.98438,-2.26562 C6.38021,-1.91146 6.57812,-1.46875 6.57812,-0.9375 C6.57812,-0.0416667 6.11979,0.796875 5.20312,1.57812 C4.26562,2.35938 3.26042,2.75 2.1875,2.75 C1.5625,2.75 1.03646,2.58854 0.609375,2.26562 C0.203125,1.91146 0,1.46875 0,0.9375 C0,0.0416667 0.46875,-0.796875 1.40625,-1.57812 C2.32292,-2.35938 3.31771,-2.75 4.39062,-2.75" id="{160ccbc9-9dbc-4442-9fc4-677703fe0d2c}" stem_h="11.1614"/>
<path class="Note" transform="matrix(0.992126,0,0,0.992126,239.148,179.079)" d="M4.39062,-2.75 C5.01562,-2.75 5.54688,-2.58854 5.98438,-2.26562 C6.38021,-1.91146 6.57812,-1.46875 6.57812,-0.9375 C6.57812,-0.0416667 6.11979,0.796875 5.20312,1.57812 C4.26562,2.35938 3.26042,2.75 2.1875,2.75 C1.5625,2.75 1.03646,2.58854 0.609375,2.26562 C0.203125,1.91146 0,1.46875 0,0.9375 C0,0.0416667 0.46875,-0.796875 1.40625,-1.57812 C2.32292,-2.35938 3.31771,-2.75 4.39062,-2.75" id="{d3a0d563-1204-4560-8baf-4c997b8b591c}" stem_h="11.7815"/>
<path class="Note" transform="matrix(0.992126,0,0,0.992126,202.462,181.559)" d="M4.39062,-2.75 C5.01562,-2.75 5.54688,-2.58854 5.98438,-2.26562 C6.38021,-1.91146 6.57812,-1.46875 6.57812,-0.9375 C6.57812,-0.0416667 6.11979,0.796875 5.20312,1.57812 C4.26562,2.35938 3.26042,2.75 2.1875,2.75 C1.5625,2.75 1.03646,2.58854 0.609375,2.26562 C0.203125,1.91146 0,1.46875 0,0.9375 C0,0.0416667 0.46875,-0.796875 1.40625,-1.57812 C2.32292,-2.35938 3.31771,-2.75 4.39062,-2.75" id="{14d3b0b8-75da-49eb-8fa2-a223a024b1c7}" stem_h="11.1614"/>
<path class="Note" transform="matrix(0.992126,0,0,0.992126,202.283,117.071)" d="M6.3125,-1.3125 C6.3125,-1.53125 6.22917,-1.71875 6.0625,-1.875 C5.88542,-2.04167 5.6875,-2.125 5.46875,-2.125 C5.08333,-2.125 4.29688,-1.73438 3.10938,-0.953125 C1.88021,-0.161458 1.13021,0.40625 0.859375,0.75 C0.713542,0.927083 0.640625,1.11458 0.640625,1.3125 C0.640625,1.53125 0.729167,1.71875 0.90625,1.875 C1.0625,2.04167 1.25521,2.125 1.48438,2.125 C1.85938,2.125 2.65625,1.73438 3.875,0.953125 C5.07292,0.171875 5.8125,-0.395833 6.09375,-0.75 C6.23958,-0.916667 6.3125,-1.10417 6.3125,-1.3125 M5.28125,-2.75 C6.39583,-2.75 6.95312,-2.27083 6.95312,-1.3125 C6.95312,-0.84375 6.81771,-0.296875 6.54688,0.328125 C6.27604,0.942708 5.91146,1.41146 5.45312,1.73438 C4.45312,2.41146 3.19792,2.75 1.6875,2.75 C0.5625,2.75 0,2.27083 0,1.3125 C0,0.885417 0.135417,0.34375 0.40625,-0.3125 C0.666667,-0.9375 1.03125,-1.41146 1.5,-1.73438 C2.51042,-2.41146 3.77083,-2.75 5.28125,-2.75" id="{cb8da6d4-c834-4f71-9537-d1482fc30254}" stem_h="-16.7421"/>
<path class="Note" transform="matrix(0.992126,0,0,0.992126,156.534,184.039)" d="M4.39062,-2.75 C5.01562,-2.75 5.54688,-2.58854 5.98438,-2.26562 C6.38021,-1.91146 6.57812,-1.46875 6.57812,-0.9375 C6.57812,-0.0416667 6.11979,0.796875 5.20312,1.57812 C4.26562,2.35938 3.26042,2.75 2.1875,2.75 C1.5625,2.75 1.03646,2.58854 0.609375,2.26562 C0.203125,1.91146 0,1.46875 0,0.9375 C0,0.0416667 0.46875,-0.796875 1.40625,-1.57812 C2.32292,-2.35938 3.31771,-2.75 4.39062,-2.75" id="{927211af-bf84-4ec6-9dba-3d53ba05870b}" stem_h="11.1614"/>
<path class="Note" transform="matrix(0.992126,0,0,0.992126,120.463,179.079)" d="M4.39062,-2.75 C5.01562,-2.75 5.54688,-2.58854 5.98438,-2.26562 C6.38021,-1.91146 6.57812,-1.46875 6.57812,-0.9375 C6.57812,-0.0416667 6.11979,0.796875 5.20312,1.57812 C4.26562,2.35938 3.26042,2.75 2.1875,2.75 C1.5625,2.75 1.03646,2.58854 0.609375,2.26562 C0.203125,1.91146 0,1.46875 0,0.9375 C0,0.0416667 0.46875,-0.796875 1.40625,-1.57812 C2.32292,-2.35938 3.31771,-2.75 4.39062,-2.75" id="{23323e49-6d97-4bd1-807f-5bf9e3b85bb0}" stem_h="11.7815"/>
<path class="Note" transform="matrix(0.992126,0,0,0.992126,84.3919,184.039)" d="M4.39062,-2.75 C5.01562,-2.75 5.54688,-2.58854 5.98438,-2.26562 C6.38021,-1.91146 6.57812,-1.46875 6.57812,-0.9375 C6.57812,-0.0416667 6.11979,0.796875 5.20312,1.57812 C4.26562,2.35938 3.26042,2.75 2.1875,2.75 C1.5625,2.75 1.03646,2.58854 0.609375,2.26562 C0.203125,1.91146 0,1.46875 0,0.9375 C0,0.0416667 0.46875,-0.796875 1.40625,-1.57812 C2.32292,-2.35938 3.31771,-2.75 4.39062,-2.75" id="{a357b812-ddbd-4798-a471-6283fd5a86c7}" stem_h="11.1614"/>
<path class="Note" transform="matrix(0.992126,0,0,0.992126,84.2129,119.551)" d="M6.3125,-1.3125 C6.3125,-1.53125 6.22917,-1.71875 6.0625,-1.875 C5.88542,-2.04167 5.6875,-2.125 5.46875,-2.125 C5.08333,-2.125 4.29688,-1.73438 3.10938,-0.953125 C1.88021,-0.161458 1.13021,0.40625 0.859375,0.75 C0.713542,0.927083 0.640625,1.11458 0.640625,1.3125 C0.640625,1.53125 0.729167,1.71875 0.90625,1.875 C1.0625,2.04167 1.25521,2.125 1.48438,2.125 C1.85938,2.125 2.65625,1.73438 3.875,0.953125 C5.07292,0.171875 5.8125,-0.395833 6.09375,-0.75 C6.23958,-0.916667 6.3125,-1.10417 6.3125,-1.3125 M5.28125,-2.75 C6.39583,-2.75 6.95312,-2.27083 6.95312,-1.3125 C6.95312,-0.84375 6.81771,-0.296875 6.54688,0.328125 C6.27604,0.942708 5.91146,1.41146 5.45312,1.73438 C4.45312,2.41146 3.19792,2.75 1.6875,2.75 C0.5625,2.75 0,2.27083 0,1.3125 C0,0.885417 0.135417,0.34375 0.40625,-0.3125 C0.666667,-0.9375 1.03125,-1.41146 1.5,-1.73438 C2.51042,-2.41146 3.77083,-2.75 5.28125,-2.75" id="{db15a0ad-5bcc-4be7-a7b4-b36862e85b70}" stem_h="-17.3622"/>
<path class="Clef" transform="matrix(0.992126,0,0,0.992126,50.0961,315.496)" d="M7.34375,-5.125 C7.34375,-5.125 7.38542,-5.125 7.46875,-5.125 C7.52083,-5.13542 7.5625,-5.14062 7.59375,-5.14062 C9.05208,-5.14062 10.25,-4.625 11.1875,-3.59375 C12.125,-2.58333 12.5938,-1.40104 12.5938,-0.046875 C12.5938,1.64062 11.901,3.01042 10.5156,4.0625 C10.151,4.35417 9.67188,4.58854 9.07812,4.76562 C9.15104,5.60938 9.1875,6.29167 9.1875,6.8125 C9.1875,6.91667 9.17188,7.29688 9.14062,7.95312 C9.08854,9.16146 8.67188,10.2083 7.89062,11.0938 C7.14062,11.9688 6.20312,12.4062 5.07812,12.4062 C4.02604,12.4062 3.13021,12.0365 2.39062,11.2969 C1.64062,10.5365 1.26562,9.625 1.26562,8.5625 C1.26562,8 1.48438,7.52083 1.92188,7.125 C2.35938,6.73958 2.86979,6.54688 3.45312,6.54688 C3.97396,6.54688 4.41146,6.75 4.76562,7.15625 C5.13021,7.53125 5.3125,8 5.3125,8.5625 C5.3125,9.0625 5.13021,9.49479 4.76562,9.85938 C4.40104,10.224 3.96354,10.4062 3.45312,10.4062 C3.24479,10.4062 3.04688,10.3698 2.85938,10.2969 C3.43229,11.1406 4.19271,11.5625 5.14062,11.5625 C6.03646,11.5625 6.77083,11.1979 7.34375,10.4688 C7.94792,9.71875 8.27604,8.83854 8.32812,7.82812 C8.34896,7.20312 8.35938,6.84896 8.35938,6.76562 C8.35938,6.03646 8.33333,5.4375 8.28125,4.96875 C7.63542,5.07292 7.05729,5.125 6.54688,5.125 C4.73438,5.125 3.19271,4.40625 1.92188,2.96875 C0.671875,1.52083 0.046875,-0.197917 0.046875,-2.1875 C0.046875,-2.60417 0.0833333,-3.02604 0.15625,-3.45312 C0.239583,-3.80729 0.338542,-4.19271 0.453125,-4.60938 C0.515625,-4.84896 0.692708,-5.22917 0.984375,-5.75 C1.08854,-5.90625 1.20573,-6.10156 1.33594,-6.33594 C1.46615,-6.57031 1.55729,-6.72396 1.60938,-6.79688 C1.73438,-7.05729 1.98438,-7.41146 2.35938,-7.85938 C2.46354,-7.97396 2.57292,-8.10156 2.6875,-8.24219 C2.80208,-8.38281 2.89844,-8.5 2.97656,-8.59375 C3.05469,-8.6875 3.11198,-8.76042 3.14844,-8.8125 C3.1849,-8.86458 3.47917,-9.20833 4.03125,-9.84375 C4.15625,-9.97917 4.28125,-10.1198 4.40625,-10.2656 C4.53125,-10.4115 4.63281,-10.5286 4.71094,-10.6172 C4.78906,-10.7057 4.84896,-10.7656 4.89062,-10.7969 C4.42188,-12.349 4.125,-13.5885 4,-14.5156 C3.91667,-15.2552 3.875,-16.2708 3.875,-17.5625 C3.875,-18.6979 4.13542,-19.7604 4.65625,-20.75 C5.15625,-21.7708 5.86458,-22.6094 6.78125,-23.2656 C6.84375,-23.3073 6.90625,-23.3281 6.96875,-23.3281 C7.0625,-23.3281 7.13021,-23.3073 7.17188,-23.2656 C7.86979,-22.4219 8.47396,-21.3229 8.98438,-19.9688 C9.50521,-18.6146 9.76562,-17.3802 9.76562,-16.2656 C9.76562,-15.0156 9.46875,-13.8438 8.875,-12.75 C8.19792,-11.5938 7.32292,-10.3958 6.25,-9.15625 C6.52083,-8.30208 6.88542,-6.95833 7.34375,-5.125 M9,3.96875 C9.67708,3.71875 10.2083,3.29688 10.5938,2.70312 C11.0104,2.13021 11.2188,1.48438 11.2188,0.765625 C11.2188,-0.161458 10.9062,-0.984375 10.2812,-1.70312 C9.63542,-2.44271 8.81771,-2.85938 7.82812,-2.95312 C8.39062,-0.203125 8.78125,2.10417 9,3.96875 M1.45312,-0.546875 C1.45312,0.744792 1.97396,1.88021 3.01562,2.85938 C4.07812,3.80729 5.27604,4.28125 6.60938,4.28125 C7.15104,4.28125 7.68229,4.23958 8.20312,4.15625 C7.99479,2.17708 7.58333,-0.192708 6.96875,-2.95312 C6.22917,-2.86979 5.64062,-2.60938 5.20312,-2.17188 C4.76562,-1.71354 4.54688,-1.19792 4.54688,-0.625 C4.54688,0.364583 5.07812,1.16667 6.14062,1.78125 C6.22396,1.875 6.26562,1.97396 6.26562,2.07812 C6.26562,2.18229 6.22396,2.27604 6.14062,2.35938 C6.05729,2.45312 5.95833,2.5 5.84375,2.5 C5.83333,2.5 5.77604,2.48958 5.67188,2.46875 C4.92188,2.0625 4.34896,1.54167 3.95312,0.90625 C3.56771,0.21875 3.375,-0.46875 3.375,-1.15625 C3.375,-2.05208 3.65625,-2.86458 4.21875,-3.59375 C4.80208,-4.32292 5.5625,-4.79167 6.5,-5 C6.13542,-6.45833 5.83854,-7.59896 5.60938,-8.42188 C5.40104,-8.18229 5.15104,-7.89844 4.85938,-7.57031 C4.56771,-7.24219 4.39583,-7.04167 4.34375,-6.96875 C3.875,-6.36458 3.51562,-5.89062 3.26562,-5.54688 C2.81771,-4.93229 2.48958,-4.40625 2.28125,-3.96875 C2.0625,-3.46875 1.86979,-2.92708 1.70312,-2.34375 C1.53646,-1.78125 1.45312,-1.18229 1.45312,-0.546875 M7.96875,-20.4062 C6.98958,-19.9271 6.22396,-19.2396 5.67188,-18.3438 C5.09896,-17.4167 4.8125,-16.4219 4.8125,-15.3594 C4.8125,-14.4219 5.04688,-13.1562 5.51562,-11.5625 C6.45312,-12.6979 7.15625,-13.7448 7.625,-14.7031 C8.11458,-15.724 8.35938,-16.7865 8.35938,-17.8906 C8.35938,-18.724 8.22917,-19.5625 7.96875,-20.4062"/>
<path class="Clef" transform="matrix(0.992126,0,0,0.992126,50.0961,263.409)" d="M7.34375,-5.125 C7.34375,-5.125 7.38542,-5.125 7.46875,-5.125 C7.52083,-5.13542 7.5625,-5.14062 7.59375,-5.14062 C9.05208,-5.14062 10.25,-4.625 11.1875,-3.59375 C12.125,-2.58333 12.5938,-1.40104 12.5938,-0.046875 C12.5938,1.64062 11.901,3.01042 10.5156,4.0625 C10.151,4.35417 9.67188,4.58854 9.07812,4.76562 C9.15104,5.60938 9.1875,6.29167 9.1875,6.8125 C9.1875,6.91667 9.17188,7.29688 9.14062,7.95312 C9.08854,9.16146 8.67188,10.2083 7.89062,11.0938 C7.14062,11.9688 6.20312,12.4062 5.07812,12.4062 C4.02604,12.4062 3.13021,12.0365 2.39062,11.2969 C1.64062,10.5365 1.26562,9.625 1.26562,8.5625 C1.26562,8 1.48438,7.52083 1.92188,7.125 C2.35938,6.73958 2.86979,6.54688 3.45312,6.54688 C3.97396,6.54688 4.41146,6.75 4.76562,7.15625 C5.13021,7.53125 5.3125,8 5.3125,8.5625 C5.3125,9.0625 5.13021,9.49479 4.76562,9.85938 C4.40104,10.224 3.96354,10.4062 3.45312,10.4062 C3.24479,10.4062 3.04688,10.3698 2.85938,10.2969 C3.43229,11.1406 4.19271,11.5625 5.14062,11.5625 C6.03646,11.5625 6.77083,11.1979 7.34375,10.4688 C7.94792,9.71875 8.27604,8.83854 8.32812,7.82812 C8.34896,7.20312 8.35938,6.84896 8.35938,6.76562 C8.35938,6.03646 8.33333,5.4375 8.28125,4.96875 C7.63542,5.07292 7.05729,5.125 6.54688,5.125 C4.73438,5.125 3.19271,4.40625 1.92188,2.96875 C0.671875,1.52083 0.046875,-0.197917 0.046875,-2.1875 C0.046875,-2.60417 0.0833333,-3.02604 0.15625,-3.45312 C0.239583,-3.80729 0.338542,-4.19271 0.453125,-4.60938 C0.515625,-4.84896 0.692708,-5.22917 0.984375,-5.75 C1.08854,-5.90625 1.20573,-6.10156 1.33594,-6.33594 C1.46615,-6.57031 1.55729,-6.72396 1.60938,-6.79688 C1.73438,-7.05729 1.98438,-7.41146 2.35938,-7.85938 C2.46354,-7.97396 2.57292,-8.10156 2.6875,-8.24219 C2.80208,-8.38281 2.89844,-8.5 2.97656,-8.59375 C3.05469,-8.6875 3.11198,-8.76042 3.14844,-8.8125 C3.1849,-8.86458 3.47917,-9.20833 4.03125,-9.84375 C4.15625,-9.97917 4.28125,-10.1198 4.40625,-10.2656 C4.53125,-10.4115 4.63281,-10.5286 4.71094,-10.6172 C4.78906,-10.7057 4.84896,-10.7656 4.89062,-10.7969 C4.42188,-12.349 4.125,-13.5885 4,-14.5156 C3.91667,-15.2552 3.875,-16.2708 3.875,-17.5625 C3.875,-18.6979 4.13542,-19.7604 4.65625,-20.75 C5.15625,-21.7708 5.86458,-22.6094 6.78125,-23.2656 C6.84375,-23.3073 6.90625,-23.3281 6.96875,-23.3281 C7.0625,-23.3281 7.13021,-23.3073 7.17188,-23.2656 C7.86979,-22.4219 8.47396,-21.3229 8.98438,-19.9688 C9.50521,-18.6146 9.76562,-17.3802 9.76562,-16.2656 C9.76562,-15.0156 9.46875,-13.8438 8.875,-12.75 C8.19792,-11.5938 7.32292,-10.3958 6.25,-9.15625 C6.52083,-8.30208 6.88542,-6.95833 7.34375,-5.125 M9,3.96875 C9.67708,3.71875 10.2083,3.29688 10.5938,2.70312 C11.0104,2.13021 11.2188,1.48438 11.2188,0.765625 C11.2188,-0.161458 10.9062,-0.984375 10.2812,-1.70312 C9.63542,-2.44271 8.81771,-2.85938 7.82812,-2.95312 C8.39062,-0.203125 8.78125,2.10417 9,3.96875 M1.45312,-0.546875 C1.45312,0.744792 1.97396,1.88021 3.01562,2.85938 C4.07812,3.80729 5.27604,4.28125 6.60938,4.28125 C7.15104,4.28125 7.68229,4.23958 8.20312,4.15625 C7.99479,2.17708 7.58333,-0.192708 6.96875,-2.95312 C6.22917,-2.86979 5.64062,-2.60938 5.20312,-2.17188 C4.76562,-1.71354 4.54688,-1.19792 4.54688,-0.625 C4.54688,0.364583 5.07812,1.16667 6.14062,1.78125 C6.22396,1.875 6.26562,1.97396 6.26562,2.07812 C6.26562,2.18229 6.22396,2.27604 6.14062,2.35938 C6.05729,2.45312 5.95833,2.5 5.84375,2.5 C5.83333,2.5 5.77604,2.48958 5.67188,2.46875 C4.92188,2.0625 4.34896,1.54167 3.95312,0.90625 C3.56771,0.21875 3.375,-0.46875 3.375,-1.15625 C3.375,-2.05208 3.65625,-2.86458 4.21875,-3.59375 C4.80208,-4.32292 5.5625,-4.79167 6.5,-5 C6.13542,-6.45833 5.83854,-7.59896 5.60938,-8.42188 C5.40104,-8.18229 5.15104,-7.89844 4.85938,-7.57031 C4.56771,-7.24219 4.39583,-7.04167 4.34375,-6.96875 C3.875,-6.36458 3.51562,-5.89062 3.26562,-5.54688 C2.81771,-4.93229 2.48958,-4.40625 2.28125,-3.96875 C2.0625,-3.46875 1.86979,-2.92708 1.70312,-2.34375 C1.53646,-1.78125 1.45312,-1.18229 1.45312,-0.546875 M7.96875,-20.4062 C6.98958,-19.9271 6.22396,-19.2396 5.67188,-18.3438 C5.09896,-17.4167 4.8125,-16.4219 4.8125,-15.3594 C4.8125,-14.4219 5.04688,-13.1562 5.51562,-11.5625 C6.45312,-12.6979 7.15625,-13.7448 7.625,-14.7031 C8.11458,-15.724 8.35938,-16.7865 8.35938,-17.8906 C8.35938,-18.724 8.22917,-19.5625 7.96875,-20.4062"/>
<path class="Clef" transform="matrix(0.992126,0,0,0.992126,50.0961,169.157)" d="M7.34375,-5.125 C7.34375,-5.125 7.38542,-5.125 7.46875,-5.125 C7.52083,-5.13542 7.5625,-5.14062 7.59375,-5.14062 C9.05208,-5.14062 10.25,-4.625 11.1875,-3.59375 C12.125,-2.58333 12.5938,-1.40104 12.5938,-0.046875 C12.5938,1.64062 11.901,3.01042 10.5156,4.0625 C10.151,4.35417 9.67188,4.58854 9.07812,4.76562 C9.15104,5.60938 9.1875,6.29167 9.1875,6.8125 C9.1875,6.91667 9.17188,7.29688 9.14062,7.95312 C9.08854,9.16146 8.67188,10.2083 7.89062,11.0938 C7.14062,11.9688 6.20312,12.4062 5.07812,12.4062 C4.02604,12.4062 3.13021,12.0365 2.39062,11.2969 C1.64062,10.5365 1.26562,9.625 1.26562,8.5625 C1.26562,8 1.48438,7.52083 1.92188,7.125 C2.35938,6.73958 2.86979,6.54688 3.45312,6.54688 C3.97396,6.54688 4.41146,6.75 4.76562,7.15625 C5.13021,7.53125 5.3125,8 5.3125,8.5625 C5.3125,9.0625 5.13021,9.49479 4.76562,9.85938 C4.40104,10.224 3.96354,10.4062 3.45312,10.4062 C3.24479,10.4062 3.04688,10.3698 2.85938,10.2969 C3.43229,11.1406 4.19271,11.5625 5.14062,11.5625 C6.03646,11.5625 6.77083,11.1979 7.34375,10.4688 C7.94792,9.71875 8.27604,8.83854 8.32812,7.82812 C8.34896,7.20312 8.35938,6.84896 8.35938,6.76562 C8.35938,6.03646 8.33333,5.4375 8.28125,4.96875 C7.63542,5.07292 7.05729,5.125 6.54688,5.125 C4.73438,5.125 3.19271,4.40625 1.92188,2.96875 C0.671875,1.52083 0.046875,-0.197917 0.046875,-2.1875 C0.046875,-2.60417 0.0833333,-3.02604 0.15625,-3.45312 C0.239583,-3.80729 0.338542,-4.19271 0.453125,-4.60938 C0.515625,-4.84896 0.692708,-5.22917 0.984375,-5.75 C1.08854,-5.90625 1.20573,-6.10156 1.33594,-6.33594 C1.46615,-6.57031 1.55729,-6.72396 1.60938,-6.79688 C1.73438,-7.05729 1.98438,-7.41146 2.35938,-7.85938 C2.46354,-7.97396 2.57292,-8.10156 2.6875,-8.24219 C2.80208,-8.38281 2.89844,-8.5 2.97656,-8.59375 C3.05469,-8.6875 3.11198,-8.76042 3.14844,-8.8125 C3.1849,-8.86458 3.47917,-9.20833 4.03125,-9.84375 C4.15625,-9.97917 4.28125,-10.1198 4.40625,-10.2656 C4.53125,-10.4115 4.63281,-10.5286 4.71094,-10.6172 C4.78906,-10.7057 4.84896,-10.7656 4.89062,-10.7969 C4.42188,-12.349 4.125,-13.5885 4,-14.5156 C3.91667,-15.2552 3.875,-16.2708 3.875,-17.5625 C3.875,-18.6979 4.13542,-19.7604 4.65625,-20.75 C5.15625,-21.7708 5.86458,-22.6094 6.78125,-23.2656 C6.84375,-23.3073 6.90625,-23.3281 6.96875,-23.3281 C7.0625,-23.3281 7.13021,-23.3073 7.17188,-23.2656 C7.86979,-22.4219 8.47396,-21.3229 8.98438,-19.9688 C9.50521,-18.6146 9.76562,-17.3802 9.76562,-16.2656 C9.76562,-15.0156 9.46875,-13.8438 8.875,-12.75 C8.19792,-11.5938 7.32292,-10.3958 6.25,-9.15625 C6.52083,-8.30208 6.88542,-6.95833 7.34375,-5.125 M9,3.96875 C9.67708,3.71875 10.2083,3.29688 10.5938,2.70312 C11.0104,2.13021 11.2188,1.48438 11.2188,0.765625 C11.2188,-0.161458 10.9062,-0.984375 10.2812,-1.70312 C9.63542,-2.44271 8.81771,-2.85938 7.82812,-2.95312 C8.39062,-0.203125 8.78125,2.10417 9,3.96875 M1.45312,-0.546875 C1.45312,0.744792 1.97396,1.88021 3.01562,2.85938 C4.07812,3.80729 5.27604,4.28125 6.60938,4.28125 C7.15104,4.28125 7.68229,4.23958 8.20312,4.15625 C7.99479,2.17708 7.58333,-0.192708 6.96875,-2.95312 C6.22917,-2.86979 5.64062,-2.60938 5.20312,-2.17188 C4.76562,-1.71354 4.54688,-1.19792 4.54688,-0.625 C4.54688,0.364583 5.07812,1.16667 6.14062,1.78125 C6.22396,1.875 6.26562,1.97396 6.26562,2.07812 C6.26562,2.18229 6.22396,2.27604 6.14062,2.35938 C6.05729,2.45312 5.95833,2.5 5.84375,2.5 C5.83333,2.5 5.77604,2.48958 5.67188,2.46875 C4.92188,2.0625 4.34896,1.54167 3.95312,0.90625 C3.56771,0.21875 3.375,-0.46875 3.375,-1.15625 C3.375,-2.05208 3.65625,-2.86458 4.21875,-3.59375 C4.80208,-4.32292 5.5625,-4.79167 6.5,-5 C6.13542,-6.45833 5.83854,-7.59896 5.60938,-8.42188 C5.40104,-8.18229 5.15104,-7.89844 4.85938,-7.57031 C4.56771,-7.24219 4.39583,-7.04167 4.34375,-6.96875 C3.875,-6.36458 3.51562,-5.89062 3.26562,-5.54688 C2.81771,-4.93229 2.48958,-4.40625 2.28125,-3.96875 C2.0625,-3.46875 1.86979,-2.92708 1.70312,-2.34375 C1.53646,-1.78125 1.45312,-1.18229 1.45312,-0.546875 M7.96875,-20.4062 C6.98958,-19.9271 6.22396,-19.2396 5.67188,-18.3438 C5.09896,-17.4167 4.8125,-16.4219 4.8125,-15.3594 C4.8125,-14.4219 5.04688,-13.1562 5.51562,-11.5625 C6.45312,-12.6979 7.15625,-13.7448 7.625,-14.7031 C8.11458,-15.724 8.35938,-16.7865 8.35938,-17.8906 C8.35938,-18.724 8.22917,-19.5625 7.96875,-20.4062"/>
<path class="Clef" transform="matrix(0.992126,0,0,0.992126,50.0961,117.071)" d="M7.34375,-5.125 C7.34375,-5.125 7.38542,-5.125 7.46875,-5.125 C7.52083,-5.13542 7.5625,-5.14062 7.59375,-5.14062 C9.05208,-5.14062 10.25,-4.625 11.1875,-3.59375 C12.125,-2.58333 12.5938,-1.40104 12.5938,-0.046875 C12.5938,1.64062 11.901,3.01042 10.5156,4.0625 C10.151,4.35417 9.67188,4.58854 9.07812,4.76562 C9.15104,5.60938 9.1875,6.29167 9.1875,6.8125 C9.1875,6.91667 9.17188,7.29688 9.14062,7.95312 C9.08854,9.16146 8.67188,10.2083 7.89062,11.0938 C7.14062,11.9688 6.20312,12.4062 5.07812,12.4062 C4.02604,12.4062 3.13021,12.0365 2.39062,11.2969 C1.64062,10.5365 1.26562,9.625 1.26562,8.5625 C1.26562,8 1.48438,7.52083 1.92188,7.125 C2.35938,6.73958 2.86979,6.54688 3.45312,6.54688 C3.97396,6.54688 4.41146,6.75 4.76562,7.15625 C5.13021,7.53125 5.3125,8 5.3125,8.5625 C5.3125,9.0625 5.13021,9.49479 4.76562,9.85938 C4.40104,10.224 3.96354,10.4062 3.45312,10.4062 C3.24479,10.4062 3.04688,10.3698 2.85938,10.2969 C3.43229,11.1406 4.19271,11.5625 5.14062,11.5625 C6.03646,11.5625 6.77083,11.1979 7.34375,10.4688 C7.94792,9.71875 8.27604,8.83854 8.32812,7.82812 C8.34896,7.20312 8.35938,6.84896 8.35938,6.76562 C8.35938,6.03646 8.33333,5.4375 8.28125,4.96875 C7.63542,5.07292 7.05729,5.125 6.54688,5.125 C4.73438,5.125 3.19271,4.40625 1.92188,2.96875 C0.671875,1.52083 0.046875,-0.197917 0.046875,-2.1875 C0.046875,-2.60417 0.0833333,-3.02604 0.15625,-3.45312 C0.239583,-3.80729 0.338542,-4.19271 0.453125,-4.60938 C0.515625,-4.84896 0.692708,-5.22917 0.984375,-5.75 C1.08854,-5.90625 1.20573,-6.10156 1.33594,-6.33594 C1.46615,-6.57031 1.55729,-6.72396 1.60938,-6.79688 C1.73438,-7.05729 1.98438,-7.41146 2.35938,-7.85938 C2.46354,-7.97396 2.57292,-8.10156 2.6875,-8.24219 C2.80208,-8.38281 2.89844,-8.5 2.97656,-8.59375 C3.05469,-8.6875 3.11198,-8.76042 3.14844,-8.8125 C3.1849,-8.86458 3.47917,-9.20833 4.03125,-9.84375 C4.15625,-9.97917 4.28125,-10.1198 4.40625,-10.2656 C4.53125,-10.4115 4.63281,-10.5286 4.71094,-10.6172 C4.78906,-10.7057 4.84896,-10.7656 4.89062,-10.7969 C4.42188,-12.349 4.125,-13.5885 4,-14.5156 C3.91667,-15.2552 3.875,-16.2708 3.875,-17.5625 C3.875,-18.6979 4.13542,-19.7604 4.65625,-20.75 C5.15625,-21.7708 5.86458,-22.6094 6.78125,-23.2656 C6.84375,-23.3073 6.90625,-23.3281 6.96875,-23.3281 C7.0625,-23.3281 7.13021,-23.3073 7.17188,-23.2656 C7.86979,-22.4219 8.47396,-21.3229 8.98438,-19.9688 C9.50521,-18.6146 9.76562,-17.3802 9.76562,-16.2656 C9.76562,-15.0156 9.46875,-13.8438 8.875,-12.75 C8.19792,-11.5938 7.32292,-10.3958 6.25,-9.15625 C6.52083,-8.30208 6.88542,-6.95833 7.34375,-5.125 M9,3.96875 C9.67708,3.71875 10.2083,3.29688 10.5938,2.70312 C11.0104,2.13021 11.2188,1.48438 11.2188,0.765625 C11.2188,-0.161458 10.9062,-0.984375 10.2812,-1.70312 C9.63542,-2.44271 8.81771,-2.85938 7.82812,-2.95312 C8.39062,-0.203125 8.78125,2.10417 9,3.96875 M1.45312,-0.546875 C1.45312,0.744792 1.97396,1.88021 3.01562,2.85938 C4.07812,3.80729 5.27604,4.28125 6.60938,4.28125 C7.15104,4.28125 7.68229,4.23958 8.20312,4.15625 C7.99479,2.17708 7.58333,-0.192708 6.96875,-2.95312 C6.22917,-2.86979 5.64062,-2.60938 5.20312,-2.17188 C4.76562,-1.71354 4.54688,-1.19792 4.54688,-0.625 C4.54688,0.364583 5.07812,1.16667 6.14062,1.78125 C6.22396,1.875 6.26562,1.97396 6.26562,2.07812 C6.26562,2.18229 6.22396,2.27604 6.14062,2.35938 C6.05729,2.45312 5.95833,2.5 5.84375,2.5 C5.83333,2.5 5.77604,2.48958 5.67188,2.46875 C4.92188,2.0625 4.34896,1.54167 3.95312,0.90625 C3.56771,0.21875 3.375,-0.46875 3.375,-1.15625 C3.375,-2.05208 3.65625,-2.86458 4.21875,-3.59375 C4.80208,-4.32292 5.5625,-4.79167 6.5,-5 C6.13542,-6.45833 5.83854,-7.59896 5.60938,-8.42188 C5.40104,-8.18229 5.15104,-7.89844 4.85938,-7.57031 C4.56771,-7.24219 4.39583,-7.04167 4.34375,-6.96875 C3.875,-6.36458 3.51562,-5.89062 3.26562,-5.54688 C2.81771,-4.93229 2.48958,-4.40625 2.28125,-3.96875 C2.0625,-3.46875 1.86979,-2.92708 1.70312,-2.34375 C1.53646,-1.78125 1.45312,-1.18229 1.45312,-0.546875 M7.96875,-20.4062 C6.98958,-19.9271 6.22396,-19.2396 5.67188,-18.3438 C5.09896,-17.4167 4.8125,-16.4219 4.8125,-15.3594 C4.8125,-14.4219 5.04688,-13.1562 5.51562,-11.5625 C6.45312,-12.6979 7.15625,-13.7448 7.625,-14.7031 C8.11458,-15.724 8.35938,-16.7865 8.35938,-17.8906 C8.35938,-18.724 8.22917,-19.5625 7.96875,-20.4062"/>
<path class="TimeSig" transform="matrix(0.992126,0,0,0.992126,68.2923,159.236)" d="M5.25,-0.296875 C5.25,-0.161458 5.32292,-0.0364583 5.46875,0.078125 C5.67708,0.234375 5.83854,0.354167 5.95312,0.4375 C6.10938,0.520833 6.27604,0.729167 6.45312,1.0625 C6.58854,1.375 6.65625,1.75521 6.65625,2.20312 C6.65625,3.10938 6.32812,3.80208 5.67188,4.28125 C4.99479,4.76042 4.13542,5 3.09375,5 C2.23958,5 1.52083,4.79167 0.9375,4.375 C0.3125,3.98958 0,3.44271 0,2.73438 C0,2.40104 0.130208,2.08854 0.390625,1.79688 C0.661458,1.54688 0.973958,1.42188 1.32812,1.42188 C1.69271,1.42188 1.99479,1.55208 2.23438,1.8125 C2.49479,2.0625 2.625,2.36979 2.625,2.73438 C2.625,2.90104 2.49479,3.08333 2.23438,3.28125 C1.95312,3.46875 1.8125,3.64583 1.8125,3.8125 C1.8125,4.0625 1.9375,4.24479 2.1875,4.35938 C2.44792,4.47396 2.75,4.53125 3.09375,4.53125 C3.54167,4.53125 3.86458,4.3125 4.0625,3.875 C4.25,3.38542 4.34375,2.82812 4.34375,2.20312 L4.34375,1.875 C4.34375,1.5 4.32812,1.16667 4.29688,0.875 C4.27604,0.65625 4.1875,0.458333 4.03125,0.28125 C3.88542,0.09375 3.65625,0 3.34375,0 L1.73438,0 C1.55729,0 1.46875,-0.0989583 1.46875,-0.296875 C1.46875,-0.463542 1.55729,-0.5625 1.73438,-0.59375 L3.34375,-0.59375 C3.70833,-0.59375 3.96875,-0.708333 4.125,-0.9375 C4.25,-1.125 4.3125,-1.45312 4.3125,-1.92188 L4.3125,-2.5625 L4.3125,-2.71875 C4.3125,-3.92708 3.86979,-4.53125 2.98438,-4.53125 C2.20312,-4.53125 1.8125,-4.31771 1.8125,-3.89062 C1.8125,-3.74479 1.9375,-3.58854 2.1875,-3.42188 C2.42708,-3.25521 2.54688,-3.09896 2.54688,-2.95312 C2.54688,-2.63021 2.42708,-2.34896 2.1875,-2.10938 C1.96875,-1.89062 1.69792,-1.78125 1.375,-1.78125 C1.0625,-1.78125 0.791667,-1.89062 0.5625,-2.10938 C0.34375,-2.35938 0.234375,-2.64062 0.234375,-2.95312 C0.234375,-3.56771 0.510417,-4.06771 1.0625,-4.45312 C1.63542,-4.81771 2.28646,-5 3.01562,-5 C3.98438,-5 4.79167,-4.8125 5.4375,-4.4375 C6.07292,-4.07292 6.39062,-3.5 6.39062,-2.71875 C6.39062,-2.15625 6.33333,-1.73438 6.21875,-1.45312 C6.09375,-1.15104 5.96354,-0.96875 5.82812,-0.90625 C5.67188,-0.833333 5.54167,-0.755208 5.4375,-0.671875 C5.3125,-0.567708 5.25,-0.442708 5.25,-0.296875"/>
<path class="TimeSig" transform="matrix(0.992126,0,0,0.992126,67.5947,169.157)" d="M4.5,-4.75 C4.88542,-4.75 5.21615,-4.79427 5.49219,-4.88281 C5.76823,-4.97135 5.94271,-5.01562 6.01562,-5.01562 C6.10938,-5.01562 6.18229,-4.98958 6.23438,-4.9375 C6.27604,-4.90625 6.30208,-4.86458 6.3125,-4.8125 C6.3125,-4.78125 6.29688,-4.73958 6.26562,-4.6875 L0.59375,1.92188 L3.92188,1.92188 L3.92188,-0.703125 C3.92188,-0.869792 3.96875,-1.01562 4.0625,-1.14062 C4.21875,-1.26562 4.34896,-1.34375 4.45312,-1.375 C4.61979,-1.44792 4.82812,-1.63021 5.07812,-1.92188 C5.28646,-2.15104 5.53646,-2.55729 5.82812,-3.14062 C5.85938,-3.22396 5.91667,-3.26562 6,-3.26562 C6.15625,-3.26562 6.24479,-3.17188 6.26562,-2.98438 L6.26562,1.92188 L7.70312,1.92188 C7.88021,1.92188 7.98438,2.01562 8.01562,2.20312 C8.01562,2.40104 7.91146,2.5 7.70312,2.5 L6.26562,2.5 L6.26562,2.65625 C6.26562,3.17708 6.39583,3.61979 6.65625,3.98438 C6.95833,4.34896 7.3125,4.53125 7.71875,4.53125 C7.875,4.53125 7.95312,4.60938 7.95312,4.76562 C7.95312,4.92188 7.875,5 7.71875,5 C7.44792,5 7.00521,4.96354 6.39062,4.89062 C5.82812,4.79688 5.39062,4.75 5.07812,4.75 C4.75521,4.75 4.31771,4.79688 3.76562,4.89062 C3.18229,4.96354 2.75,5 2.46875,5 C2.3125,5 2.23438,4.92188 2.23438,4.76562 C2.23438,4.60938 2.3125,4.53125 2.46875,4.53125 C2.86458,4.53125 3.21354,4.34375 3.51562,3.96875 C3.78646,3.58333 3.92188,3.11979 3.92188,2.57812 L0.59375,2.57812 C0.364583,2.57812 0.208333,2.51562 0.125,2.39062 C0.0104167,2.30729 -0.046875,2.1875 -0.046875,2.03125 C-0.046875,1.98958 0.0520833,1.85417 0.25,1.625 C0.479167,1.36458 0.713542,1.04688 0.953125,0.671875 C1.24479,0.223958 1.52083,-0.234375 1.78125,-0.703125 C2.0625,-1.23438 2.29167,-1.84896 2.46875,-2.54688 C2.65625,-3.24479 2.75,-3.95833 2.75,-4.6875 C2.75,-4.89583 2.84375,-5 3.03125,-5 C3.07292,-5 3.15625,-4.97917 3.28125,-4.9375 C3.32292,-4.92708 3.40625,-4.90885 3.53125,-4.88281 C3.65625,-4.85677 3.75521,-4.83333 3.82812,-4.8125 C4.06771,-4.77083 4.29167,-4.75 4.5,-4.75"/>
<path class="TimeSig" transform="matrix(0.992126,0,0,0.992126,68.2923,107.15)" d="M5.25,-0.296875 C5.25,-0.161458 5.32292,-0.0364583 5.46875,0.078125 C5.67708,0.234375 5.83854,0.354167 5.95312,0.4375 C6.10938,0.520833 6.27604,0.729167 6.45312,1.0625 C6.58854,1.375 6.65625,1.75521 6.65625,2.20312 C6.65625,3.10938 6.32812,3.80208 5.67188,4.28125 C4.99479,4.76042 4.13542,5 3.09375,5 C2.23958,5 1.52083,4.79167 0.9375,4.375 C0.3125,3.98958 0,3.44271 0,2.73438 C0,2.40104 0.130208,2.08854 0.390625,1.79688 C0.661458,1.54688 0.973958,1.42188 1.32812,1.42188 C1.69271,1.42188 1.99479,1.55208 2.23438,1.8125 C2.49479,2.0625 2.625,2.36979 2.625,2.73438 C2.625,2.90104 2.49479,3.08333 2.23438,3.28125 C1.95312,3.46875 1.8125,3.64583 1.8125,3.8125 C1.8125,4.0625 1.9375,4.24479 2.1875,4.35938 C2.44792,4.47396 2.75,4.53125 3.09375,4.53125 C3.54167,4.53125 3.86458,4.3125 4.0625,3.875 C4.25,3.38542 4.34375,2.82812 4.34375,2.20312 L4.34375,1.875 C4.34375,1.5 4.32812,1.16667 4.29688,0.875 C4.27604,0.65625 4.1875,0.458333 4.03125,0.28125 C3.88542,0.09375 3.65625,0 3.34375,0 L1.73438,0 C1.55729,0 1.46875,-0.0989583 1.46875,-0.296875 C1.46875,-0.463542 1.55729,-0.5625 1.73438,-0.59375 L3.34375,-0.59375 C3.70833,-0.59375 3.96875,-0.708333 4.125,-0.9375 C4.25,-1.125 4.3125,-1.45312 4.3125,-1.92188 L4.3125,-2.5625 L4.3125,-2.71875 C4.3125,-3.92708 3.86979,-4.53125 2.98438,-4.53125 C2.20312,-4.53125 1.8125,-4.31771 1.8125,-3.89062 C1.8125,-3.74479 1.9375,-3.58854 2.1875,-3.42188 C2.42708,-3.25521 2.54688,-3.09896 2.54688,-2.95312 C2.54688,-2.63021 2.42708,-2.34896 2.1875,-2.10938 C1.96875,-1.89062 1.69792,-1.78125 1.375,-1.78125 C1.0625,-1.78125 0.791667,-1.89062 0.5625,-2.10938 C0.34375,-2.35938 0.234375,-2.64062 0.234375,-2.95312 C0.234375,-3.56771 0.510417,-4.06771 1.0625,-4.45312 C1.63542,-4.81771 2.28646,-5 3.01562,-5 C3.98438,-5 4.79167,-4.8125 5.4375,-4.4375 C6.07292,-4.07292 6.39062,-3.5 6.39062,-2.71875 C6.39062,-2.15625 6.33333,-1.73438 6.21875,-1.45312 C6.09375,-1.15104 5.96354,-0.96875 5.82812,-0.90625 C5.67188,-0.833333 5.54167,-0.755208 5.4375,-0.671875 C5.3125,-0.567708 5.25,-0.442708 5.25,-0.296875"/>
<path class="TimeSig" transform="matrix(0.992126,0,0,0.992126,67.5947,117.071)" d="M4.5,-4.75 C4.88542,-4.75 5.21615,-4.79427 5.49219,-4.88281 C5.76823,-4.97135 5.94271,-5.01562 6.01562,-5.01562 C6.10938,-5.01562 6.18229,-4.98958 6.23438,-4.9375 C6.27604,-4.90625 6.30208,-4.86458 6.3125,-4.8125 C6.3125,-4.78125 6.29688,-4.73958 6.26562,-4.6875 L0.59375,1.92188 L3.92188,1.92188 L3.92188,-0.703125 C3.92188,-0.869792 3.96875,-1.01562 4.0625,-1.14062 C4.21875,-1.26562 4.34896,-1.34375 4.45312,-1.375 C4.61979,-1.44792 4.82812,-1.63021 5.07812,-1.92188 C5.28646,-2.15104 5.53646,-2.55729 5.82812,-3.14062 C5.85938,-3.22396 5.91667,-3.26562 6,-3.26562 C6.15625,-3.26562 6.24479,-3.17188 6.26562,-2.98438 L6.26562,1.92188 L7.70312,1.92188 C7.88021,1.92188 7.98438,2.01562 8.01562,2.20312 C8.01562,2.40104 7.91146,2.5 7.70312,2.5 L6.26562,2.5 L6.26562,2.65625 C6.26562,3.17708 6.39583,3.61979 6.65625,3.98438 C6.95833,4.34896 7.3125,4.53125 7.71875,4.53125 C7.875,4.53125 7.95312,4.60938 7.95312,4.76562 C7.95312,4.92188 7.875,5 7.71875,5 C7.44792,5 7.00521,4.96354 6.39062,4.89062 C5.82812,4.79688 5.39062,4.75 5.07812,4.75 C4.75521,4.75 4.31771,4.79688 3.76562,4.89062 C3.18229,4.96354 2.75,5 2.46875,5 C2.3125,5 2.23438,4.92188 2.23438,4.76562 C2.23438,4.60938 2.3125,4.53125 2.46875,4.53125 C2.86458,4.53125 3.21354,4.34375 3.51562,3.96875 C3.78646,3.58333 3.92188,3.11979 3.92188,2.57812 L0.59375,2.57812 C0.364583,2.57812 0.208333,2.51562 0.125,2.39062 C0.0104167,2.30729 -0.046875,2.1875 -0.046875,2.03125 C-0.046875,1.98958 0.0520833,1.85417 0.25,1.625 C0.479167,1.36458 0.713542,1.04688 0.953125,0.671875 C1.24479,0.223958 1.52083,-0.234375 1.78125,-0.703125 C2.0625,-1.23438 2.29167,-1.84896 2.46875,-2.54688 C2.65625,-3.24479 2.75,-3.95833 2.75,-4.6875 C2.75,-4.89583 2.84375,-5 3.03125,-5 C3.07292,-5 3.15625,-4.97917 3.28125,-4.9375 C3.32292,-4.92708 3.40625,-4.90885 3.53125,-4.88281 C3.65625,-4.85677 3.75521,-4.83333 3.82812,-4.8125 C4.06771,-4.77083 4.29167,-4.75 4.5,-4.75"/>
<path class="Rest" transform="matrix(0.992126,0,0,0.992126,265.986,258.449)" d="M-0.125,-1.5625 C-0.125,-1.80208 0.0104167,-2.0625 0.28125,-2.34375 C0.46875,-2.55208 0.755208,-2.80208 1.14062,-3.09375 C1.42188,-3.28125 1.69792,-3.57292 1.96875,-3.96875 C2.22917,-4.34375 2.35938,-4.75521 2.35938,-5.20312 C2.35938,-5.72396 2.19271,-6.18229 1.85938,-6.57812 L1.15625,-7.42188 C1.10417,-7.47396 1.07812,-7.53906 1.07812,-7.61719 C1.07812,-7.69531 1.11458,-7.76562 1.1875,-7.82812 C1.28125,-7.90104 1.35938,-7.9375 1.42188,-7.9375 C1.51562,-7.9375 1.58854,-7.89583 1.64062,-7.8125 L4.67188,-4.21875 C4.79688,-4.05208 4.85938,-3.88542 4.85938,-3.71875 C4.85938,-3.47917 4.72917,-3.21875 4.46875,-2.9375 C4.30208,-2.75 4.02604,-2.5 3.64062,-2.1875 C3.33854,-2.01042 3.05208,-1.71875 2.78125,-1.3125 C2.52083,-0.9375 2.39062,-0.526042 2.39062,-0.078125 C2.39062,0.473958 2.54688,0.9375 2.85938,1.3125 L4.53125,3.28125 C4.57292,3.32292 4.60417,3.39062 4.625,3.48438 C4.625,3.56771 4.59375,3.64583 4.53125,3.71875 C4.4375,3.78125 4.35938,3.8125 4.29688,3.8125 C4.27604,3.8125 4.17188,3.73958 3.98438,3.59375 C3.78646,3.4375 3.52604,3.28646 3.20312,3.14062 C2.83854,3.00521 2.47917,2.9375 2.125,2.9375 C1.80208,2.9375 1.53646,3.02604 1.32812,3.20312 C1.15104,3.39062 1.0625,3.74479 1.0625,4.26562 C1.0625,5.05729 1.25,5.68229 1.625,6.14062 C1.66667,6.19271 1.67188,6.25521 1.64062,6.32812 C1.61979,6.38021 1.57292,6.40625 1.5,6.40625 C1.41667,6.40625 1.21875,6.17188 0.90625,5.70312 C0.572917,5.21354 0.265625,4.64583 -0.015625,4 C-0.317708,3.32292 -0.46875,2.76562 -0.46875,2.32812 C-0.46875,1.76562 -0.203125,1.48438 0.328125,1.48438 C0.942708,1.48438 1.73958,1.69271 2.71875,2.10938 L0.078125,-1.0625 C-0.0572917,-1.22917 -0.125,-1.39583 -0.125,-1.5625"/>
<path class="Rest" transform="matrix(0.992126,0,0,0.992126,522.079,112.11)" d="M-0.125,-1.5625 C-0.125,-1.80208 0.0104167,-2.0625 0.28125,-2.34375 C0.46875,-2.55208 0.755208,-2.80208 1.14062,-3.09375 C1.42188,-3.28125 1.69792,-3.57292 1.96875,-3.96875 C2.22917,-4.34375 2.35938,-4.75521 2.35938,-5.20312 C2.35938,-5.72396 2.19271,-6.18229 1.85938,-6.57812 L1.15625,-7.42188 C1.10417,-7.47396 1.07812,-7.53906 1.07812,-7.61719 C1.07812,-7.69531 1.11458,-7.76562 1.1875,-7.82812 C1.28125,-7.90104 1.35938,-7.9375 1.42188,-7.9375 C1.51562,-7.9375 1.58854,-7.89583 1.64062,-7.8125 L4.67188,-4.21875 C4.79688,-4.05208 4.85938,-3.88542 4.85938,-3.71875 C4.85938,-3.47917 4.72917,-3.21875 4.46875,-2.9375 C4.30208,-2.75 4.02604,-2.5 3.64062,-2.1875 C3.33854,-2.01042 3.05208,-1.71875 2.78125,-1.3125 C2.52083,-0.9375 2.39062,-0.526042 2.39062,-0.078125 C2.39062,0.473958 2.54688,0.9375 2.85938,1.3125 L4.53125,3.28125 C4.57292,3.32292 4.60417,3.39062 4.625,3.48438 C4.625,3.56771 4.59375,3.64583 4.53125,3.71875 C4.4375,3.78125 4.35938,3.8125 4.29688,3.8125 C4.27604,3.8125 4.17188,3.73958 3.98438,3.59375 C3.78646,3.4375 3.52604,3.28646 3.20312,3.14062 C2.83854,3.00521 2.47917,2.9375 2.125,2.9375 C1.80208,2.9375 1.53646,3.02604 1.32812,3.20312 C1.15104,3.39062 1.0625,3.74479 1.0625,4.26562 C1.0625,5.05729 1.25,5.68229 1.625,6.14062 C1.66667,6.19271 1.67188,6.25521 1.64062,6.32812 C1.61979,6.38021 1.57292,6.40625 1.5,6.40625 C1.41667,6.40625 1.21875,6.17188 0.90625,5.70312 C0.572917,5.21354 0.265625,4.64583 -0.015625,4 C-0.317708,3.32292 -0.46875,2.76562 -0.46875,2.32812 C-0.46875,1.76562 -0.203125,1.48438 0.328125,1.48438 C0.942708,1.48438 1.73958,1.69271 2.71875,2.10938 L0.078125,-1.0625 C-0.0572917,-1.22917 -0.125,-1.39583 -0.125,-1.5625"/>
<path class="Beam" fill-rule="evenodd" d="M316.104,243.601 L340.27,242.327 L340.27,244.807 L316.104,246.081 L316.104,243.601 "/>
<path class="Beam" fill-rule="evenodd" d="M325.331,97.2632 L348.939,95.9882 L348.939,98.4685 L325.331,99.7435 L325.331,97.2632 "/>
<path class="NoteDot" transform="matrix(0.992126,0,0,0.992126,447.898,265.89)" d="M0.335938,0.804688 C0.111979,0.580729 0,0.3125 0,0 C0,-0.3125 0.111979,-0.580729 0.335938,-0.804688 C0.559896,-1.02865 0.828125,-1.14062 1.14062,-1.14062 C1.45312,-1.14062 1.71875,-1.02865 1.9375,-0.804688 C2.15625,-0.580729 2.26562,-0.3125 2.26562,0 C2.26562,0.3125 2.15625,0.580729 1.9375,0.804688 C1.71875,1.02865 1.45312,1.14062 1.14062,1.14062 C0.828125,1.14062 0.559896,1.02865 0.335938,0.804688"/>
<path class="NoteDot" transform="matrix(0.992126,0,0,0.992126,79.8909,265.89)" d="M0.335938,0.804688 C0.111979,0.580729 0,0.3125 0,0 C0,-0.3125 0.111979,-0.580729 0.335938,-0.804688 C0.559896,-1.02865 0.828125,-1.14062 1.14062,-1.14062 C1.45312,-1.14062 1.71875,-1.02865 1.9375,-0.804688 C2.15625,-0.580729 2.26562,-0.3125 2.26562,0 C2.26562,0.3125 2.15625,0.580729 1.9375,0.804688 C1.71875,1.02865 1.45312,1.14062 1.14062,1.14062 C0.828125,1.14062 0.559896,1.02865 0.335938,0.804688"/>
<path class="NoteDot" transform="matrix(0.992126,0,0,0.992126,327.892,176.598)" d="M0.335938,0.804688 C0.111979,0.580729 0,0.3125 0,0 C0,-0.3125 0.111979,-0.580729 0.335938,-0.804688 C0.559896,-1.02865 0.828125,-1.14062 1.14062,-1.14062 C1.45312,-1.14062 1.71875,-1.02865 1.9375,-0.804688 C2.15625,-0.580729 2.26562,-0.3125 2.26562,0 C2.26562,0.3125 2.15625,0.580729 1.9375,0.804688 C1.71875,1.02865 1.45312,1.14062 1.14062,1.14062 C0.828125,1.14062 0.559896,1.02865 0.335938,0.804688"/>
<path class="NoteDot" transform="matrix(0.992126,0,0,0.992126,210.908,114.591)" d="M0.335938,0.804688 C0.111979,0.580729 0,0.3125 0,0 C0,-0.3125 0.111979,-0.580729 0.335938,-0.804688 C0.559896,-1.02865 0.828125,-1.14062 1.14062,-1.14062 C1.45312,-1.14062 1.71875,-1.02865 1.9375,-0.804688 C2.15625,-0.580729 2.26562,-0.3125 2.26562,0 C2.26562,0.3125 2.15625,0.580729 1.9375,0.804688 C1.71875,1.02865 1.45312,1.14062 1.14062,1.14062 C0.828125,1.14062 0.559896,1.02865 0.335938,0.804688"/>
<path class="NoteDot" transform="matrix(0.992126,0,0,0.992126,92.8382,119.551)" d="M0.335938,0.804688 C0.111979,0.580729 0,0.3125 0,0 C0,-0.3125 0.111979,-0.580729 0.335938,-0.804688 C0.559896,-1.02865 0.828125,-1.14062 1.14062,-1.14062 C1.45312,-1.14062 1.71875,-1.02865 1.9375,-0.804688 C2.15625,-0.580729 2.26562,-0.3125 2.26562,0 C2.26562,0.3125 2.15625,0.580729 1.9375,0.804688 C1.71875,1.02865 1.45312,1.14062 1.14062,1.14062 C0.828125,1.14062 0.559896,1.02865 0.335938,0.804688"/>
<path class="Bracket" fill-rule="evenodd" d="M44.0589,274.118 C44.0589,268.323 40.0677,262.691 40.0677,257.139 C40.0677,254.343 41.1562,251.628 44.5125,249.196 C44.5578,249.166 44.5805,249.115 44.5805,249.085 C44.5805,248.994 44.331,248.913 44.1496,248.913 C44.0589,248.913 43.9002,248.923 43.7868,248.994 C39.4328,252.114 37.9814,255.72 37.9814,259.368 C37.9814,265.243 42.2447,270.917 42.2447,276.55 C42.2447,279.346 41.1562,281.98 37.8,284.411 L37.8,284.492 L37.8,284.573 C41.1562,287.005 42.2447,289.639 42.2447,292.435 C42.2447,298.067 37.9814,303.741 37.9814,309.617 C37.9814,313.264 39.4328,316.87 43.7868,319.991 C43.9002,320.062 44.0589,320.072 44.1496,320.072 C44.331,320.072 44.5805,319.991 44.5805,319.9 C44.5805,319.869 44.5578,319.818 44.5125,319.788 C41.1562,317.357 40.0677,314.642 40.0677,311.845 C40.0677,306.294 44.0589,300.661 44.0589,294.866 C44.0589,291.179 42.6076,287.653 38.3443,284.492 C42.6076,281.331 44.0589,277.806 44.0589,274.118" id="36.2126,266.386 71.1592"/>
<path class="Bracket" fill-rule="evenodd" d="M44.0589,127.78 C44.0589,121.985 40.0677,116.352 40.0677,110.8 C40.0677,108.004 41.1562,105.289 44.5125,102.858 C44.5578,102.827 44.5805,102.777 44.5805,102.746 C44.5805,102.655 44.331,102.574 44.1496,102.574 C44.0589,102.574 43.9002,102.584 43.7868,102.655 C39.4328,105.775 37.9814,109.382 37.9814,113.029 C37.9814,118.905 42.2447,124.578 42.2447,130.211 C42.2447,133.007 41.1562,135.641 37.8,138.073 L37.8,138.154 L37.8,138.235 C41.1562,140.666 42.2447,143.3 42.2447,146.096 C42.2447,151.729 37.9814,157.402 37.9814,163.278 C37.9814,166.925 39.4328,170.532 43.7868,173.652 C43.9002,173.723 44.0589,173.733 44.1496,173.733 C44.331,173.733 44.5805,173.652 44.5805,173.561 C44.5805,173.531 44.5578,173.48 44.5125,173.449 C41.1562,171.018 40.0677,168.303 40.0677,165.507 C40.0677,159.955 44.0589,154.322 44.0589,148.528 C44.0589,144.84 42.6076,141.314 38.3443,138.154 C42.6076,134.993 44.0589,131.467 44.0589,127.78" id="36.2126,120.047 71.1592"/>
</svg>
