<?xml version="1.0" encoding="UTF-8" standalone="no"?>
<svg width="1011.97px" height="583.1px" viewBox="0 0 595.275 343"
 xmlns="http://www.w3.org/2000/svg" xmlns:xlink="http://www.w3.org/1999/xlink" version="1.2" baseProfile="tiny">
<title>49.请求</title>
<desc>Generated by MuseScore 2.0.3</desc>
<polyline class="StaffLines" fill="none" stroke="#000000" stroke-width="0.40" stroke-linejoin="bevel" points="46.1339,102.189 559.558,102.189" x="46.1339" y="102.189" bx="46.1339" by="137.769" measure_no="0" elid="0" sysno="1" spatium="4.96063"/>
<polyline class="StaffLines" fill="none" stroke="#000000" stroke-width="0.40" stroke-linejoin="bevel" points="46.1339,107.15 559.558,107.15"/>
<polyline class="StaffLines" fill="none" stroke="#000000" stroke-width="0.40" stroke-linejoin="bevel" points="46.1339,112.11 559.558,112.11"/>
<polyline class="StaffLines" fill="none" stroke="#000000" stroke-width="0.40" stroke-linejoin="bevel" points="46.1339,117.071 559.558,117.071"/>
<polyline class="StaffLines" fill="none" stroke="#000000" stroke-width="0.40" stroke-linejoin="bevel" points="46.1339,122.032 559.558,122.032"/>
<polyline class="StaffLines" fill="none" stroke="#000000" stroke-width="0.40" stroke-linejoin="bevel" points="46.1339,154.276 559.558,154.276"/>
<polyline class="StaffLines" fill="none" stroke="#000000" stroke-width="0.40" stroke-linejoin="bevel" points="46.1339,159.236 559.558,159.236"/>
<polyline class="StaffLines" fill="none" stroke="#000000" stroke-width="0.40" stroke-linejoin="bevel" points="46.1339,164.197 559.558,164.197"/>
<polyline class="StaffLines" fill="none" stroke="#000000" stroke-width="0.40" stroke-linejoin="bevel" points="46.1339,169.157 559.558,169.157"/>
<polyline class="StaffLines" fill="none" stroke="#000000" stroke-width="0.40" stroke-linejoin="bevel" points="46.1339,174.118 559.558,174.118"/>
<polyline class="StaffLines" fill="none" stroke="#000000" stroke-width="0.40" stroke-linejoin="bevel" points="46.1339,248.528 559.558,248.528" x="46.1339" y="248.528" bx="46.1339" by="284.107" measure_no="4" elid="16" sysno="2" spatium="4.96063"/>
<polyline class="StaffLines" fill="none" stroke="#000000" stroke-width="0.40" stroke-linejoin="bevel" points="46.1339,253.488 559.558,253.488"/>
<polyline class="StaffLines" fill="none" stroke="#000000" stroke-width="0.40" stroke-linejoin="bevel" points="46.1339,258.449 559.558,258.449"/>
<polyline class="StaffLines" fill="none" stroke="#000000" stroke-width="0.40" stroke-linejoin="bevel" points="46.1339,263.409 559.558,263.409"/>
<polyline class="StaffLines" fill="none" stroke="#000000" stroke-width="0.40" stroke-linejoin="bevel" points="46.1339,268.37 559.558,268.37"/>
<polyline class="StaffLines" fill="none" stroke="#000000" stroke-width="0.40" stroke-linejoin="bevel" points="46.1339,300.614 559.558,300.614"/>
<polyline class="StaffLines" fill="none" stroke="#000000" stroke-width="0.40" stroke-linejoin="bevel" points="46.1339,305.575 559.558,305.575"/>
<polyline class="StaffLines" fill="none" stroke="#000000" stroke-width="0.40" stroke-linejoin="bevel" points="46.1339,310.535 559.558,310.535"/>
<polyline class="StaffLines" fill="none" stroke="#000000" stroke-width="0.40" stroke-linejoin="bevel" points="46.1339,315.496 559.558,315.496"/>
<polyline class="StaffLines" fill="none" stroke="#000000" stroke-width="0.40" stroke-linejoin="bevel" points="46.1339,320.457 559.558,320.457"/>
<path class="Text" d="M47.0089,235.028 C47.0089,234.747 46.9464,234.497 46.8214,234.278 C46.6964,234.059 46.5427,233.888 46.3604,233.763 C46.1781,233.638 45.9776,233.539 45.7589,233.466 C45.5401,233.393 45.35,233.343 45.1886,233.317 C45.0271,233.291 44.8839,233.278 44.7589,233.278 C44.6964,233.278 44.6651,233.257 44.6651,233.216 C44.6651,233.195 44.6651,233.179 44.6651,233.169 L45.5401,231.309 L47.212,231.309 C47.2953,231.309 47.363,231.296 47.4151,231.27 C47.4672,231.244 47.5245,231.19 47.587,231.106 L47.6495,231.169 L47.3526,231.825 C47.3318,231.877 47.2693,231.903 47.1651,231.903 L45.6026,231.903 L45.2589,232.575 C46.0401,232.721 46.6209,232.95 47.0011,233.263 C47.3813,233.575 47.5714,234.039 47.5714,234.653 C47.5714,234.966 47.5219,235.247 47.4229,235.497 C47.324,235.747 47.1964,235.947 47.0401,236.098 C46.8839,236.25 46.7068,236.372 46.5089,236.466 C46.311,236.559 46.1209,236.625 45.9386,236.661 C45.7563,236.697 45.5714,236.716 45.3839,236.716 C45.0818,236.716 44.8422,236.671 44.6651,236.583 C44.488,236.494 44.3995,236.372 44.3995,236.216 C44.3995,236.018 44.5141,235.919 44.7432,235.919 C44.8995,235.919 45.0948,236.002 45.3292,236.169 C45.5636,236.335 45.7537,236.419 45.8995,236.419 C46.212,236.419 46.475,236.286 46.6886,236.02 C46.9021,235.755 47.0089,235.424 47.0089,235.028"/>
<path class="Text" d="M265.998,33.077 L259.388,33.077 L259.388,31.6083 L266.342,21.5614 L267.638,21.5614 L267.638,31.6083 L269.701,31.6083 L269.701,33.077 L267.638,33.077 L267.638,36.3427 L265.998,36.3427 L265.998,33.077 M265.998,31.6083 L265.998,24.827 L261.185,31.6083 L265.998,31.6083 M272.873,36.5927 C274.133,34.4781 275.164,32.5614 275.967,30.8427 C274.539,31.0718 273.352,30.8843 272.404,30.2802 C271.456,29.676 270.883,28.8583 270.685,27.827 C270.487,26.7958 270.503,25.8661 270.732,25.038 C270.961,24.2098 271.318,23.5223 271.802,22.9755 C272.287,22.4286 272.873,22.0406 273.56,21.8114 C274.248,21.5822 274.865,21.4677 275.412,21.4677 C275.959,21.4677 276.519,21.5822 277.092,21.8114 C277.664,22.0406 278.18,22.3843 278.638,22.8427 C279.097,23.301 279.412,23.7749 279.584,24.2645 C279.756,24.7541 279.842,25.3843 279.842,26.1552 C279.842,26.926 279.555,27.913 278.982,29.1161 C278.409,30.3192 277.003,32.8114 274.763,36.5927 L272.873,36.5927 M272.404,26.9755 C272.487,27.7203 272.802,28.3348 273.349,28.8192 C273.896,29.3036 274.485,29.5171 275.115,29.4598 C275.745,29.4025 276.245,29.2307 276.615,28.9442 C276.985,28.6578 277.342,28.1708 277.685,27.4833 C277.914,26.6291 277.972,25.8999 277.857,25.2958 C277.743,24.6916 277.443,24.189 276.959,23.788 C276.474,23.3869 275.946,23.1864 275.373,23.1864 C275.029,23.1343 274.584,23.2229 274.037,23.452 C273.49,23.6812 273.06,24.1395 272.748,24.827 C272.435,25.5145 272.321,26.2307 272.404,26.9755 M284.826,36.4208 L282.842,36.4208 L282.842,34.5302 L284.826,34.5302 L284.826,36.4208 M301.326,31.8739 C301.326,30.8947 301.295,29.7489 301.232,28.4364 L311.201,28.4364 C311.149,29.4052 311.123,30.3791 311.123,31.3583 L311.123,37.5458 C311.123,38.0666 310.935,38.3973 310.56,38.538 C310.185,38.6786 309.539,38.8374 308.623,39.0145 C308.508,38.4937 308.279,37.9781 307.935,37.4677 C308.967,37.4677 309.482,37.2958 309.482,36.952 L309.482,35.2177 L302.951,35.2177 L302.951,38.8427 L301.232,38.8427 C301.295,37.6968 301.326,36.577 301.326,35.4833 L301.326,31.8739 M299.513,26.0302 C300.43,26.0822 302.378,26.1083 305.357,26.1083 L305.357,24.4833 C303.18,24.4833 301.633,24.5093 300.717,24.5614 L300.717,23.2802 C301.633,23.3322 303.18,23.3583 305.357,23.3583 L305.357,22.077 C302.899,22.077 301.18,22.1031 300.201,22.1552 L300.201,20.7802 C301.232,20.8427 302.951,20.8739 305.357,20.8739 C305.357,20.2385 305.331,19.6343 305.279,19.0614 L307.076,19.0614 C307.024,19.6968 306.998,20.301 306.998,20.8739 C309.685,20.8739 311.487,20.8427 312.404,20.7802 L312.404,22.1552 C311.487,22.1031 309.685,22.077 306.998,22.077 L306.998,23.3583 C309.519,23.3583 311.149,23.3322 311.888,23.2802 L311.888,24.5614 C311.034,24.5093 309.404,24.4833 306.998,24.4833 L306.998,26.1083 C310.258,26.1083 312.321,26.0822 313.185,26.0302 L313.185,27.4052 C312.435,27.3427 310.201,27.3114 306.482,27.3114 C302.816,27.3114 300.493,27.3427 299.513,27.4052 L299.513,26.0302 M300.373,34.0145 C299.633,34.5874 298.862,35.2333 298.06,35.952 C297.258,36.6708 296.597,37.3166 296.076,37.8895 C295.68,37.2645 295.279,36.7489 294.873,36.3427 C295.446,35.9364 295.732,35.3895 295.732,34.702 L295.732,27.4052 C294.878,27.4052 293.993,27.4312 293.076,27.4833 L293.076,25.9364 C293.816,25.9989 294.414,26.0302 294.873,26.0302 L297.373,26.0302 C297.31,26.9468 297.279,27.9781 297.279,29.1239 L297.279,34.702 C298.196,33.8999 298.914,33.1864 299.435,32.5614 C299.664,33.1343 299.977,33.6187 300.373,34.0145 M309.482,34.0145 L309.482,32.3895 L302.951,32.3895 L302.951,34.0145 L309.482,34.0145 M309.482,31.1864 L309.482,29.7177 L302.951,29.7177 L302.951,31.1864 L309.482,31.1864 M297.545,23.9677 C296.68,22.7072 295.706,21.5874 294.623,20.6083 C295.019,20.327 295.388,20.0145 295.732,19.6708 C297.055,20.8166 298.086,21.8739 298.826,22.8427 C298.316,23.301 297.888,23.676 297.545,23.9677 M315.763,23.0145 C316.68,23.077 317.654,23.1083 318.685,23.1083 L324.013,23.1083 C324.013,21.4416 323.982,20.1499 323.92,19.2333 L325.81,19.2333 C325.758,20.1499 325.732,21.4416 325.732,23.1083 L331.826,23.1083 C332.628,23.1083 333.519,23.077 334.498,23.0145 L334.498,24.5614 C333.467,24.5093 332.576,24.4833 331.826,24.4833 L325.732,24.4833 C325.784,25.3999 326.055,26.3739 326.545,27.4052 C327.034,28.4364 327.534,29.2958 328.045,29.9833 C329.305,28.952 330.482,27.6343 331.576,26.0302 C331.972,26.4885 332.545,26.9468 333.295,27.4052 C332.607,27.7489 331.086,29.0093 328.732,31.1864 C329.482,32.1552 330.386,33.0692 331.443,33.9286 C332.5,34.788 333.659,35.3895 334.92,35.7333 C334.118,36.1916 333.545,36.7385 333.201,37.3739 C331.941,36.6864 330.667,35.7255 329.381,34.4911 C328.094,33.2567 326.878,31.3218 325.732,28.6864 L325.732,36.3427 C325.784,37.2072 325.511,37.7828 324.912,38.0692 C324.313,38.3557 323.441,38.5562 322.295,38.6708 C322.18,38.0979 321.92,37.4624 321.513,36.7645 C322.493,36.827 323.167,36.814 323.537,36.7255 C323.907,36.6369 324.066,36.3374 324.013,35.827 L324.013,31.0927 C321.722,32.8739 320.073,34.1656 319.068,34.9677 C318.063,35.7697 317.248,36.4572 316.623,37.0302 C316.102,36.4572 315.612,35.9416 315.154,35.4833 C315.956,35.077 316.987,34.4598 318.248,33.6317 C319.508,32.8036 321.43,31.301 324.013,29.1239 L324.013,24.4833 L318.685,24.4833 C317.654,24.4833 316.68,24.5093 315.763,24.5614 L315.763,23.0145 M318.342,25.9364 C319.602,26.9677 320.774,27.9416 321.857,28.8583 L320.404,30.1552 C319.539,29.176 318.394,28.1708 316.967,27.1395 L318.342,25.9364 M329.592,19.327 C330.508,19.952 331.425,20.7229 332.342,21.6395 C331.946,21.9312 331.519,22.3062 331.06,22.7645 C330.425,22.077 329.508,21.2437 328.31,20.2645 C328.654,19.9833 329.081,19.6708 329.592,19.327"/>
<path class="SlurSegment" stroke="#000000" stroke-width="0.35" stroke-linecap="round" stroke-linejoin="round" fill-rule="evenodd" d="M332.568,275.315 C347.431,285.894 412.417,280.685 425.405,267.874 C412.48,281.476 347.494,286.685 332.568,275.315"/>
<path class="SlurSegment" stroke="#000000" stroke-width="0.35" stroke-linecap="round" stroke-linejoin="round" fill-rule="evenodd" d="M76.465,272.835 C93.6473,285.358 147.12,288.334 165.586,277.795 C147.076,289.127 93.6032,286.151 76.465,272.835"/>
<path class="SlurSegment" stroke="#000000" stroke-width="0.35" stroke-linecap="round" stroke-linejoin="round" fill-rule="evenodd" d="M329.617,128.976 C347.116,140.439 399.611,140.439 417.11,128.976 C399.611,141.233 347.116,141.233 329.617,128.976"/>
<path class="SlurSegment" stroke="#000000" stroke-width="0.35" stroke-linecap="round" stroke-linejoin="round" fill-rule="evenodd" d="M87.7651,126.496 C103.854,138.752 154.12,141.728 171.542,131.457 C154.073,142.521 103.807,139.544 87.7651,126.496"/>
<polyline class="BarLine" stroke="#000000" stroke-width="0.79" stroke-linejoin="bevel" points="46.5307,248.528 46.5307,320.457"/>
<polyline class="BarLine" stroke="#000000" stroke-width="0.79" stroke-linejoin="bevel" points="46.5307,102.189 46.5307,174.118"/>
<polyline class="BarLine" stroke="#000000" stroke-width="0.79" stroke-linejoin="bevel" points="554.697,300.614 554.697,320.457"/>
<polyline class="BarLine" stroke="#000000" stroke-width="2.48" stroke-linejoin="bevel" points="558.318,300.614 558.318,320.457"/>
<polyline class="BarLine" stroke="#000000" stroke-width="0.79" stroke-linejoin="bevel" points="554.697,248.528 554.697,268.37"/>
<polyline class="BarLine" stroke="#000000" stroke-width="2.48" stroke-linejoin="bevel" points="558.318,248.528 558.318,268.37"/>
<polyline class="BarLine" stroke="#000000" stroke-width="0.79" stroke-linejoin="bevel" points="453.482,300.614 453.482,320.457"/>
<polyline class="BarLine" stroke="#000000" stroke-width="0.79" stroke-linejoin="bevel" points="453.482,248.528 453.482,268.37"/>
<polyline class="BarLine" stroke="#000000" stroke-width="0.79" stroke-linejoin="bevel" points="322.953,300.614 322.953,320.457"/>
<polyline class="BarLine" stroke="#000000" stroke-width="0.79" stroke-linejoin="bevel" points="322.953,248.528 322.953,268.37"/>
<polyline class="BarLine" stroke="#000000" stroke-width="0.79" stroke-linejoin="bevel" points="192.424,300.614 192.424,320.457"/>
<polyline class="BarLine" stroke="#000000" stroke-width="0.79" stroke-linejoin="bevel" points="192.424,248.528 192.424,268.37"/>
<polyline class="BarLine" stroke="#000000" stroke-width="0.79" stroke-linejoin="bevel" points="559.162,154.276 559.162,174.118"/>
<polyline class="BarLine" stroke="#000000" stroke-width="0.79" stroke-linejoin="bevel" points="559.162,102.189 559.162,122.032"/>
<polyline class="BarLine" stroke="#000000" stroke-width="0.79" stroke-linejoin="bevel" points="443.405,154.276 443.405,174.118"/>
<polyline class="BarLine" stroke="#000000" stroke-width="0.79" stroke-linejoin="bevel" points="443.405,102.189 443.405,122.032"/>
<polyline class="BarLine" stroke="#000000" stroke-width="0.79" stroke-linejoin="bevel" points="320.002,154.276 320.002,174.118"/>
<polyline class="BarLine" stroke="#000000" stroke-width="0.79" stroke-linejoin="bevel" points="320.002,102.189 320.002,122.032"/>
<polyline class="BarLine" stroke="#000000" stroke-width="0.79" stroke-linejoin="bevel" points="196.599,154.276 196.599,174.118"/>
<polyline class="BarLine" stroke="#000000" stroke-width="0.79" stroke-linejoin="bevel" points="196.599,102.189 196.599,122.032"/>
<path class="Accidental" transform="matrix(0.992126,0,0,0.992126,384.638,305.575)" d="M4.3125,6.23438 C4.3125,6.48438 4.1901,6.60938 3.94531,6.60938 C3.70052,6.60938 3.57812,6.48438 3.57812,6.23438 L3.57812,3.34375 L1.92188,3.96875 L1.92188,7.125 C1.92188,7.375 1.79688,7.5 1.54688,7.5 C1.29688,7.5 1.17188,7.375 1.17188,7.125 L1.17188,4.21875 L0.546875,4.45312 C0.536458,4.46354 0.484375,4.46875 0.390625,4.46875 C0.286458,4.46875 0.195312,4.42969 0.117188,4.35156 C0.0390625,4.27344 0,4.18229 0,4.07812 L0,2.875 C0,2.67708 0.0833333,2.55208 0.25,2.5 L1.17188,2.1875 L1.17188,-1.01562 L0.546875,-0.796875 C0.536458,-0.786458 0.484375,-0.78125 0.390625,-0.78125 C0.286458,-0.78125 0.195312,-0.820312 0.117188,-0.898438 C0.0390625,-0.976562 0,-1.06771 0,-1.17188 L0,-2.39062 C0,-2.56771 0.0833333,-2.68229 0.25,-2.73438 L1.17188,-3.09375 L1.17188,-6.23438 C1.17188,-6.48438 1.29688,-6.60938 1.54688,-6.60938 C1.79688,-6.60938 1.92188,-6.48438 1.92188,-6.23438 L1.92188,-3.34375 L3.57812,-3.96875 L3.57812,-7.125 C3.57812,-7.375 3.70052,-7.5 3.94531,-7.5 C4.1901,-7.5 4.3125,-7.375 4.3125,-7.125 L4.3125,-4.21875 L4.96875,-4.45312 C4.97917,-4.46354 5.02083,-4.46875 5.09375,-4.46875 C5.1875,-4.46875 5.28646,-4.43229 5.39062,-4.35938 C5.47396,-4.27604 5.51562,-4.18229 5.51562,-4.07812 L5.51562,-2.875 C5.51562,-2.6875 5.42188,-2.5625 5.23438,-2.5 L4.3125,-2.1875 L4.3125,1.01562 L4.96875,0.796875 C4.97917,0.786458 5.02083,0.78125 5.09375,0.78125 C5.1875,0.78125 5.28646,0.822917 5.39062,0.90625 C5.47396,0.979167 5.51562,1.06771 5.51562,1.17188 L5.51562,2.39062 C5.51562,2.55729 5.42188,2.67188 5.23438,2.73438 L4.3125,3.09375 L4.3125,6.23438 M3.57812,-1.89062 L1.92188,-1.3125 L1.92188,1.89062 L3.57812,1.3125 L3.57812,-1.89062 "/>
<path class="Accidental" transform="matrix(0.992126,0,0,0.992126,384.638,265.89)" d="M4.3125,6.23438 C4.3125,6.48438 4.1901,6.60938 3.94531,6.60938 C3.70052,6.60938 3.57812,6.48438 3.57812,6.23438 L3.57812,3.34375 L1.92188,3.96875 L1.92188,7.125 C1.92188,7.375 1.79688,7.5 1.54688,7.5 C1.29688,7.5 1.17188,7.375 1.17188,7.125 L1.17188,4.21875 L0.546875,4.45312 C0.536458,4.46354 0.484375,4.46875 0.390625,4.46875 C0.286458,4.46875 0.195312,4.42969 0.117188,4.35156 C0.0390625,4.27344 0,4.18229 0,4.07812 L0,2.875 C0,2.67708 0.0833333,2.55208 0.25,2.5 L1.17188,2.1875 L1.17188,-1.01562 L0.546875,-0.796875 C0.536458,-0.786458 0.484375,-0.78125 0.390625,-0.78125 C0.286458,-0.78125 0.195312,-0.820312 0.117188,-0.898438 C0.0390625,-0.976562 0,-1.06771 0,-1.17188 L0,-2.39062 C0,-2.56771 0.0833333,-2.68229 0.25,-2.73438 L1.17188,-3.09375 L1.17188,-6.23438 C1.17188,-6.48438 1.29688,-6.60938 1.54688,-6.60938 C1.79688,-6.60938 1.92188,-6.48438 1.92188,-6.23438 L1.92188,-3.34375 L3.57812,-3.96875 L3.57812,-7.125 C3.57812,-7.375 3.70052,-7.5 3.94531,-7.5 C4.1901,-7.5 4.3125,-7.375 4.3125,-7.125 L4.3125,-4.21875 L4.96875,-4.45312 C4.97917,-4.46354 5.02083,-4.46875 5.09375,-4.46875 C5.1875,-4.46875 5.28646,-4.43229 5.39062,-4.35938 C5.47396,-4.27604 5.51562,-4.18229 5.51562,-4.07812 L5.51562,-2.875 C5.51562,-2.6875 5.42188,-2.5625 5.23438,-2.5 L4.3125,-2.1875 L4.3125,1.01562 L4.96875,0.796875 C4.97917,0.786458 5.02083,0.78125 5.09375,0.78125 C5.1875,0.78125 5.28646,0.822917 5.39062,0.90625 C5.47396,0.979167 5.51562,1.06771 5.51562,1.17188 L5.51562,2.39062 C5.51562,2.55729 5.42188,2.67188 5.23438,2.73438 L4.3125,3.09375 L4.3125,6.23438 M3.57812,-1.89062 L1.92188,-1.3125 L1.92188,1.89062 L3.57812,1.3125 L3.57812,-1.89062 "/>
<path class="Accidental" transform="matrix(0.992126,0,0,0.992126,223.164,305.575)" d="M4.3125,6.23438 C4.3125,6.48438 4.1901,6.60938 3.94531,6.60938 C3.70052,6.60938 3.57812,6.48438 3.57812,6.23438 L3.57812,3.34375 L1.92188,3.96875 L1.92188,7.125 C1.92188,7.375 1.79688,7.5 1.54688,7.5 C1.29688,7.5 1.17188,7.375 1.17188,7.125 L1.17188,4.21875 L0.546875,4.45312 C0.536458,4.46354 0.484375,4.46875 0.390625,4.46875 C0.286458,4.46875 0.195312,4.42969 0.117188,4.35156 C0.0390625,4.27344 0,4.18229 0,4.07812 L0,2.875 C0,2.67708 0.0833333,2.55208 0.25,2.5 L1.17188,2.1875 L1.17188,-1.01562 L0.546875,-0.796875 C0.536458,-0.786458 0.484375,-0.78125 0.390625,-0.78125 C0.286458,-0.78125 0.195312,-0.820312 0.117188,-0.898438 C0.0390625,-0.976562 0,-1.06771 0,-1.17188 L0,-2.39062 C0,-2.56771 0.0833333,-2.68229 0.25,-2.73438 L1.17188,-3.09375 L1.17188,-6.23438 C1.17188,-6.48438 1.29688,-6.60938 1.54688,-6.60938 C1.79688,-6.60938 1.92188,-6.48438 1.92188,-6.23438 L1.92188,-3.34375 L3.57812,-3.96875 L3.57812,-7.125 C3.57812,-7.375 3.70052,-7.5 3.94531,-7.5 C4.1901,-7.5 4.3125,-7.375 4.3125,-7.125 L4.3125,-4.21875 L4.96875,-4.45312 C4.97917,-4.46354 5.02083,-4.46875 5.09375,-4.46875 C5.1875,-4.46875 5.28646,-4.43229 5.39062,-4.35938 C5.47396,-4.27604 5.51562,-4.18229 5.51562,-4.07812 L5.51562,-2.875 C5.51562,-2.6875 5.42188,-2.5625 5.23438,-2.5 L4.3125,-2.1875 L4.3125,1.01562 L4.96875,0.796875 C4.97917,0.786458 5.02083,0.78125 5.09375,0.78125 C5.1875,0.78125 5.28646,0.822917 5.39062,0.90625 C5.47396,0.979167 5.51562,1.06771 5.51562,1.17188 L5.51562,2.39062 C5.51562,2.55729 5.42188,2.67188 5.23438,2.73438 L4.3125,3.09375 L4.3125,6.23438 M3.57812,-1.89062 L1.92188,-1.3125 L1.92188,1.89062 L3.57812,1.3125 L3.57812,-1.89062 "/>
<path class="Accidental" transform="matrix(0.992126,0,0,0.992126,96.3507,270.85)" d="M4.3125,6.23438 C4.3125,6.48438 4.1901,6.60938 3.94531,6.60938 C3.70052,6.60938 3.57812,6.48438 3.57812,6.23438 L3.57812,3.34375 L1.92188,3.96875 L1.92188,7.125 C1.92188,7.375 1.79688,7.5 1.54688,7.5 C1.29688,7.5 1.17188,7.375 1.17188,7.125 L1.17188,4.21875 L0.546875,4.45312 C0.536458,4.46354 0.484375,4.46875 0.390625,4.46875 C0.286458,4.46875 0.195312,4.42969 0.117188,4.35156 C0.0390625,4.27344 0,4.18229 0,4.07812 L0,2.875 C0,2.67708 0.0833333,2.55208 0.25,2.5 L1.17188,2.1875 L1.17188,-1.01562 L0.546875,-0.796875 C0.536458,-0.786458 0.484375,-0.78125 0.390625,-0.78125 C0.286458,-0.78125 0.195312,-0.820312 0.117188,-0.898438 C0.0390625,-0.976562 0,-1.06771 0,-1.17188 L0,-2.39062 C0,-2.56771 0.0833333,-2.68229 0.25,-2.73438 L1.17188,-3.09375 L1.17188,-6.23438 C1.17188,-6.48438 1.29688,-6.60938 1.54688,-6.60938 C1.79688,-6.60938 1.92188,-6.48438 1.92188,-6.23438 L1.92188,-3.34375 L3.57812,-3.96875 L3.57812,-7.125 C3.57812,-7.375 3.70052,-7.5 3.94531,-7.5 C4.1901,-7.5 4.3125,-7.375 4.3125,-7.125 L4.3125,-4.21875 L4.96875,-4.45312 C4.97917,-4.46354 5.02083,-4.46875 5.09375,-4.46875 C5.1875,-4.46875 5.28646,-4.43229 5.39062,-4.35938 C5.47396,-4.27604 5.51562,-4.18229 5.51562,-4.07812 L5.51562,-2.875 C5.51562,-2.6875 5.42188,-2.5625 5.23438,-2.5 L4.3125,-2.1875 L4.3125,1.01562 L4.96875,0.796875 C4.97917,0.786458 5.02083,0.78125 5.09375,0.78125 C5.1875,0.78125 5.28646,0.822917 5.39062,0.90625 C5.47396,0.979167 5.51562,1.06771 5.51562,1.17188 L5.51562,2.39062 C5.51562,2.55729 5.42188,2.67188 5.23438,2.73438 L4.3125,3.09375 L4.3125,6.23438 M3.57812,-1.89062 L1.92188,-1.3125 L1.92188,1.89062 L3.57812,1.3125 L3.57812,-1.89062 "/>
<path class="Accidental" transform="matrix(0.992126,0,0,0.992126,378.124,119.551)" d="M4.3125,6.23438 C4.3125,6.48438 4.1901,6.60938 3.94531,6.60938 C3.70052,6.60938 3.57812,6.48438 3.57812,6.23438 L3.57812,3.34375 L1.92188,3.96875 L1.92188,7.125 C1.92188,7.375 1.79688,7.5 1.54688,7.5 C1.29688,7.5 1.17188,7.375 1.17188,7.125 L1.17188,4.21875 L0.546875,4.45312 C0.536458,4.46354 0.484375,4.46875 0.390625,4.46875 C0.286458,4.46875 0.195312,4.42969 0.117188,4.35156 C0.0390625,4.27344 0,4.18229 0,4.07812 L0,2.875 C0,2.67708 0.0833333,2.55208 0.25,2.5 L1.17188,2.1875 L1.17188,-1.01562 L0.546875,-0.796875 C0.536458,-0.786458 0.484375,-0.78125 0.390625,-0.78125 C0.286458,-0.78125 0.195312,-0.820312 0.117188,-0.898438 C0.0390625,-0.976562 0,-1.06771 0,-1.17188 L0,-2.39062 C0,-2.56771 0.0833333,-2.68229 0.25,-2.73438 L1.17188,-3.09375 L1.17188,-6.23438 C1.17188,-6.48438 1.29688,-6.60938 1.54688,-6.60938 C1.79688,-6.60938 1.92188,-6.48438 1.92188,-6.23438 L1.92188,-3.34375 L3.57812,-3.96875 L3.57812,-7.125 C3.57812,-7.375 3.70052,-7.5 3.94531,-7.5 C4.1901,-7.5 4.3125,-7.375 4.3125,-7.125 L4.3125,-4.21875 L4.96875,-4.45312 C4.97917,-4.46354 5.02083,-4.46875 5.09375,-4.46875 C5.1875,-4.46875 5.28646,-4.43229 5.39062,-4.35938 C5.47396,-4.27604 5.51562,-4.18229 5.51562,-4.07812 L5.51562,-2.875 C5.51562,-2.6875 5.42188,-2.5625 5.23438,-2.5 L4.3125,-2.1875 L4.3125,1.01562 L4.96875,0.796875 C4.97917,0.786458 5.02083,0.78125 5.09375,0.78125 C5.1875,0.78125 5.28646,0.822917 5.39062,0.90625 C5.47396,0.979167 5.51562,1.06771 5.51562,1.17188 L5.51562,2.39062 C5.51562,2.55729 5.42188,2.67188 5.23438,2.73438 L4.3125,3.09375 L4.3125,6.23438 M3.57812,-1.89062 L1.92188,-1.3125 L1.92188,1.89062 L3.57812,1.3125 L3.57812,-1.89062 "/>
<path class="Accidental" transform="matrix(0.992126,0,0,0.992126,225.557,159.236)" d="M4.3125,6.23438 C4.3125,6.48438 4.1901,6.60938 3.94531,6.60938 C3.70052,6.60938 3.57812,6.48438 3.57812,6.23438 L3.57812,3.34375 L1.92188,3.96875 L1.92188,7.125 C1.92188,7.375 1.79688,7.5 1.54688,7.5 C1.29688,7.5 1.17188,7.375 1.17188,7.125 L1.17188,4.21875 L0.546875,4.45312 C0.536458,4.46354 0.484375,4.46875 0.390625,4.46875 C0.286458,4.46875 0.195312,4.42969 0.117188,4.35156 C0.0390625,4.27344 0,4.18229 0,4.07812 L0,2.875 C0,2.67708 0.0833333,2.55208 0.25,2.5 L1.17188,2.1875 L1.17188,-1.01562 L0.546875,-0.796875 C0.536458,-0.786458 0.484375,-0.78125 0.390625,-0.78125 C0.286458,-0.78125 0.195312,-0.820312 0.117188,-0.898438 C0.0390625,-0.976562 0,-1.06771 0,-1.17188 L0,-2.39062 C0,-2.56771 0.0833333,-2.68229 0.25,-2.73438 L1.17188,-3.09375 L1.17188,-6.23438 C1.17188,-6.48438 1.29688,-6.60938 1.54688,-6.60938 C1.79688,-6.60938 1.92188,-6.48438 1.92188,-6.23438 L1.92188,-3.34375 L3.57812,-3.96875 L3.57812,-7.125 C3.57812,-7.375 3.70052,-7.5 3.94531,-7.5 C4.1901,-7.5 4.3125,-7.375 4.3125,-7.125 L4.3125,-4.21875 L4.96875,-4.45312 C4.97917,-4.46354 5.02083,-4.46875 5.09375,-4.46875 C5.1875,-4.46875 5.28646,-4.43229 5.39062,-4.35938 C5.47396,-4.27604 5.51562,-4.18229 5.51562,-4.07812 L5.51562,-2.875 C5.51562,-2.6875 5.42188,-2.5625 5.23438,-2.5 L4.3125,-2.1875 L4.3125,1.01562 L4.96875,0.796875 C4.97917,0.786458 5.02083,0.78125 5.09375,0.78125 C5.1875,0.78125 5.28646,0.822917 5.39062,0.90625 C5.47396,0.979167 5.51562,1.06771 5.51562,1.17188 L5.51562,2.39062 C5.51562,2.55729 5.42188,2.67188 5.23438,2.73438 L4.3125,3.09375 L4.3125,6.23438 M3.57812,-1.89062 L1.92188,-1.3125 L1.92188,1.89062 L3.57812,1.3125 L3.57812,-1.89062 "/>
<path class="Accidental" transform="matrix(0.992126,0,0,0.992126,105.869,124.512)" d="M4.3125,6.23438 C4.3125,6.48438 4.1901,6.60938 3.94531,6.60938 C3.70052,6.60938 3.57812,6.48438 3.57812,6.23438 L3.57812,3.34375 L1.92188,3.96875 L1.92188,7.125 C1.92188,7.375 1.79688,7.5 1.54688,7.5 C1.29688,7.5 1.17188,7.375 1.17188,7.125 L1.17188,4.21875 L0.546875,4.45312 C0.536458,4.46354 0.484375,4.46875 0.390625,4.46875 C0.286458,4.46875 0.195312,4.42969 0.117188,4.35156 C0.0390625,4.27344 0,4.18229 0,4.07812 L0,2.875 C0,2.67708 0.0833333,2.55208 0.25,2.5 L1.17188,2.1875 L1.17188,-1.01562 L0.546875,-0.796875 C0.536458,-0.786458 0.484375,-0.78125 0.390625,-0.78125 C0.286458,-0.78125 0.195312,-0.820312 0.117188,-0.898438 C0.0390625,-0.976562 0,-1.06771 0,-1.17188 L0,-2.39062 C0,-2.56771 0.0833333,-2.68229 0.25,-2.73438 L1.17188,-3.09375 L1.17188,-6.23438 C1.17188,-6.48438 1.29688,-6.60938 1.54688,-6.60938 C1.79688,-6.60938 1.92188,-6.48438 1.92188,-6.23438 L1.92188,-3.34375 L3.57812,-3.96875 L3.57812,-7.125 C3.57812,-7.375 3.70052,-7.5 3.94531,-7.5 C4.1901,-7.5 4.3125,-7.375 4.3125,-7.125 L4.3125,-4.21875 L4.96875,-4.45312 C4.97917,-4.46354 5.02083,-4.46875 5.09375,-4.46875 C5.1875,-4.46875 5.28646,-4.43229 5.39062,-4.35938 C5.47396,-4.27604 5.51562,-4.18229 5.51562,-4.07812 L5.51562,-2.875 C5.51562,-2.6875 5.42188,-2.5625 5.23438,-2.5 L4.3125,-2.1875 L4.3125,1.01562 L4.96875,0.796875 C4.97917,0.786458 5.02083,0.78125 5.09375,0.78125 C5.1875,0.78125 5.28646,0.822917 5.39062,0.90625 C5.47396,0.979167 5.51562,1.06771 5.51562,1.17188 L5.51562,2.39062 C5.51562,2.55729 5.42188,2.67188 5.23438,2.73438 L4.3125,3.09375 L4.3125,6.23438 M3.57812,-1.89062 L1.92188,-1.3125 L1.92188,1.89062 L3.57812,1.3125 L3.57812,-1.89062 "/>
<polyline class="Stem" stroke="#000000" stroke-width="0.64" stroke-linecap="round" stroke-linejoin="bevel" points="422.462,304.026 422.462,320.457" notes="{2c1dc323-fa32-42f4-ad94-38b65068a6a9}" x1="422.462" y1="304.026" x2="422.462" y2="320.457" height="17.3622"/>
<polyline class="Stem" stroke="#000000" stroke-width="0.64" stroke-linecap="round" stroke-linejoin="bevel" points="428.348,262.478 428.348,246.667" notes="{1a30c027-5c33-40ea-8829-34b187fa62d0}" x1="428.348" y1="262.478" x2="428.348" y2="246.667" height="-16.7421"/>
<polyline class="Stem" stroke="#000000" stroke-width="0.64" stroke-linecap="round" stroke-linejoin="bevel" points="391.516,306.506 391.516,322.317" notes="{dd65617c-fceb-43a8-a0f8-8dc376f12d88}" x1="391.516" y1="306.506" x2="391.516" y2="322.317" height="16.7421"/>
<polyline class="Stem" stroke="#000000" stroke-width="0.64" stroke-linecap="round" stroke-linejoin="bevel" points="397.402,264.958 397.402,248.528" notes="{6a783dd3-4ca9-4193-a2a8-926348f9014f}" x1="397.402" y1="264.958" x2="397.402" y2="248.528" height="-17.3622"/>
<polyline class="Stem" stroke="#000000" stroke-width="0.64" stroke-linecap="round" stroke-linejoin="bevel" points="360.571,304.026 360.571,320.457" notes="{0e878569-15fb-4590-8a5f-b96c0bdd508e}" x1="360.571" y1="304.026" x2="360.571" y2="320.457" height="17.3622"/>
<polyline class="Stem" stroke="#000000" stroke-width="0.64" stroke-linecap="round" stroke-linejoin="bevel" points="366.457,262.478 366.457,246.667" notes="{03d7f49b-15fb-44b6-a966-49f27f9eb13c}" x1="366.457" y1="262.478" x2="366.457" y2="246.667" height="-16.7421"/>
<polyline class="Stem" stroke="#000000" stroke-width="0.64" stroke-linecap="round" stroke-linejoin="bevel" points="329.625,311.467 329.625,326.037" notes="{b37bfb5e-8d24-42e4-b980-4164a52b6a91}" x1="329.625" y1="311.467" x2="329.625" y2="326.037" height="15.502"/>
<polyline class="Stem" stroke="#000000" stroke-width="0.64" stroke-linecap="round" stroke-linejoin="bevel" points="335.511,269.919 335.511,253.488" notes="{7382b173-fcc2-4761-a4fe-073f337c2a6b}" x1="335.511" y1="269.919" x2="335.511" y2="253.488" height="-17.3622"/>
<polyline class="Stem" stroke="#000000" stroke-width="0.64" stroke-linecap="round" stroke-linejoin="bevel" points="291.933,308.987 291.933,324.177" notes="{f62a9d87-56ae-42e3-bda7-a29d71385b29}" x1="291.933" y1="308.987" x2="291.933" y2="324.177" height="16.122"/>
<polyline class="Stem" stroke="#000000" stroke-width="0.64" stroke-linecap="round" stroke-linejoin="bevel" points="260.987,304.026 260.987,320.457" notes="{fba307dc-18bd-4f8d-ac7b-b28a60339f20}" x1="260.987" y1="304.026" x2="260.987" y2="320.457" height="17.3622"/>
<polyline class="Stem" stroke="#000000" stroke-width="0.64" stroke-linecap="round" stroke-linejoin="bevel" points="230.042,306.506 230.042,322.317" notes="{3a115ac6-3ada-45b9-a8f5-54421651cc4a}" x1="230.042" y1="306.506" x2="230.042" y2="322.317" height="16.7421"/>
<polyline class="Stem" stroke="#000000" stroke-width="0.64" stroke-linecap="round" stroke-linejoin="bevel" points="199.096,304.026 199.096,320.457" notes="{3cef2f79-89ed-4c46-8923-7f34e299b043}" x1="199.096" y1="304.026" x2="199.096" y2="320.457" height="17.3622"/>
<polyline class="Stem" stroke="#000000" stroke-width="0.64" stroke-linecap="round" stroke-linejoin="bevel" points="168.529,272.399 168.529,255.969" notes="{e6973efa-2b70-4f02-adf7-f9b87115b531}" x1="168.529" y1="272.399" x2="168.529" y2="255.969" height="-17.3622"/>
<polyline class="Stem" stroke="#000000" stroke-width="0.64" stroke-linecap="round" stroke-linejoin="bevel" points="138.822,267.438 138.822,251.008" notes="{f9a2b041-1720-415a-9ebf-34cdd9dc1cb7}" x1="138.822" y1="267.438" x2="138.822" y2="251.008" height="-17.3622"/>
<polyline class="Stem" stroke="#000000" stroke-width="0.64" stroke-linecap="round" stroke-linejoin="bevel" points="109.115,269.919 109.115,253.488" notes="{7fcb32c2-9fe7-4f0d-9d8d-759b3ef43d3b}" x1="109.115" y1="269.919" x2="109.115" y2="253.488" height="-17.3622"/>
<polyline class="Stem" stroke="#000000" stroke-width="0.64" stroke-linecap="round" stroke-linejoin="bevel" points="79.408,267.438 79.408,251.008" notes="{4f9c69cc-7e52-48b0-ab84-1233955b618c}" x1="79.408" y1="267.438" x2="79.408" y2="251.008" height="-17.3622"/>
<polyline class="Stem" stroke="#000000" stroke-width="0.64" stroke-linecap="round" stroke-linejoin="bevel" points="531.88,165.129 531.88,179.699" notes="{adf93f23-ff5b-4f4b-8ef9-7ed714062cd2}" x1="531.88" y1="165.129" x2="531.88" y2="179.699" height="15.502"/>
<polyline class="Stem" stroke="#000000" stroke-width="0.64" stroke-linecap="round" stroke-linejoin="bevel" points="504.672,162.648 504.672,177.839" notes="{3e9e8f5f-e17e-44d3-b89c-74f8699671bf}" x1="504.672" y1="162.648" x2="504.672" y2="177.839" height="16.122"/>
<polyline class="Stem" stroke="#000000" stroke-width="0.64" stroke-linecap="round" stroke-linejoin="bevel" points="477.464,160.168 477.464,175.978" notes="{5c79f278-62ef-4f56-ba91-d49b9e82f016}" x1="477.464" y1="160.168" x2="477.464" y2="175.978" height="16.7421"/>
<polyline class="Stem" stroke="#000000" stroke-width="0.64" stroke-linecap="round" stroke-linejoin="bevel" points="450.257,157.688 450.257,174.118" notes="{6eaa7a61-0060-4daf-88da-092859703c24}" x1="450.257" y1="157.688" x2="450.257" y2="174.118" height="17.3622"/>
<polyline class="Stem" stroke="#000000" stroke-width="0.64" stroke-linecap="round" stroke-linejoin="bevel" points="456.322,116.309 456.322,100.329" notes="{f382e049-7636-4522-beef-26456923bca8}" x1="456.322" y1="116.309" x2="456.322" y2="100.329" height="-16.7421"/>
<polyline class="Stem" stroke="#000000" stroke-width="0.64" stroke-linecap="round" stroke-linejoin="bevel" points="420.053,123.58 420.053,107.15" notes="{75958c1c-1df9-4290-8f74-bc72f47cbd07}" x1="420.053" y1="123.58" x2="420.053" y2="107.15" height="-17.3622"/>
<polyline class="Stem" stroke="#000000" stroke-width="0.64" stroke-linecap="round" stroke-linejoin="bevel" points="390.889,118.62 390.889,102.189" notes="{2dbdcf8d-4d31-40a8-8220-cfd668590824}" x1="390.889" y1="118.62" x2="390.889" y2="102.189" height="-17.3622"/>
<polyline class="Stem" stroke="#000000" stroke-width="0.64" stroke-linecap="round" stroke-linejoin="bevel" points="361.725,121.1 361.725,104.669" notes="{c5e94fce-b32d-4578-a3a1-714ff1314da9}" x1="361.725" y1="121.1" x2="361.725" y2="104.669" height="-17.3622"/>
<polyline class="Stem" stroke="#000000" stroke-width="0.64" stroke-linecap="round" stroke-linejoin="bevel" points="332.56,123.58 332.56,107.15" notes="{48c6e0ef-34bc-4169-83e8-0adc58fc6171}" x1="332.56" y1="123.58" x2="332.56" y2="107.15" height="-17.3622"/>
<polyline class="Stem" stroke="#000000" stroke-width="0.64" stroke-linecap="round" stroke-linejoin="bevel" points="290.764,162.648 290.764,177.839" notes="{d6d8e849-5204-4953-b150-74cb401ef72c}" x1="290.764" y1="162.648" x2="290.764" y2="177.839" height="16.122"/>
<polyline class="Stem" stroke="#000000" stroke-width="0.64" stroke-linecap="round" stroke-linejoin="bevel" points="261.599,157.688 261.599,174.118" notes="{04fc42d0-8e76-41da-9f09-228b17e47203}" x1="261.599" y1="157.688" x2="261.599" y2="174.118" height="17.3622"/>
<polyline class="Stem" stroke="#000000" stroke-width="0.64" stroke-linecap="round" stroke-linejoin="bevel" points="232.435,160.168 232.435,175.978" notes="{36d52c04-3270-4325-97a2-93240fb0a37c}" x1="232.435" y1="160.168" x2="232.435" y2="175.978" height="16.7421"/>
<polyline class="Stem" stroke="#000000" stroke-width="0.64" stroke-linecap="round" stroke-linejoin="bevel" points="203.271,157.688 203.271,174.118" notes="{19ea471e-843e-4b7c-8e71-e36120038fef}" x1="203.271" y1="157.688" x2="203.271" y2="174.118" height="17.3622"/>
<polyline class="Stem" stroke="#000000" stroke-width="0.64" stroke-linecap="round" stroke-linejoin="bevel" points="174.485,126.06 174.485,109.63" notes="{10cddfcb-4ee0-40cc-8af7-6a3ce5bfbfb8}" x1="174.485" y1="126.06" x2="174.485" y2="109.63" height="-17.3622"/>
<polyline class="Stem" stroke="#000000" stroke-width="0.64" stroke-linecap="round" stroke-linejoin="bevel" points="146.559,121.1 146.559,104.669" notes="{7a2b0dfc-f340-4268-9b88-d03e9564cfd2}" x1="146.559" y1="121.1" x2="146.559" y2="104.669" height="-17.3622"/>
<polyline class="Stem" stroke="#000000" stroke-width="0.64" stroke-linecap="round" stroke-linejoin="bevel" points="118.634,123.58 118.634,107.15" notes="{8e2bef9a-3c22-4716-8a62-6ec8273e0ee7}" x1="118.634" y1="123.58" x2="118.634" y2="107.15" height="-17.3622"/>
<polyline class="Stem" stroke="#000000" stroke-width="0.64" stroke-linecap="round" stroke-linejoin="bevel" points="90.7082,121.1 90.7082,104.669" notes="{31892b54-a621-4436-843f-5f41d43f1faa}" x1="90.7082" y1="121.1" x2="90.7082" y2="104.669" height="-17.3622"/>
<polyline class="LedgerLine" stroke="#000000" stroke-width="0.79" stroke-linecap="square" stroke-linejoin="bevel" points="458.343,273.331 471.145,273.331"/>
<polyline class="LedgerLine" stroke="#000000" stroke-width="0.79" stroke-linecap="square" stroke-linejoin="bevel" points="160.832,273.331 170.34,273.331"/>
<polyline class="LedgerLine" stroke="#000000" stroke-width="0.79" stroke-linecap="square" stroke-linejoin="bevel" points="166.788,126.992 176.296,126.992"/>
<path class="Note" transform="matrix(0.992126,0,0,0.992126,459.831,313.016)" d="M4.29688,-2.25 C3.82812,-2.25 3.48958,-2.08854 3.28125,-1.76562 C3.05208,-1.45312 2.9375,-1.02604 2.9375,-0.484375 C2.9375,0.130208 3.09896,0.65625 3.42188,1.09375 C3.74479,1.52083 4.10417,1.82292 4.5,2 C4.84375,2.16667 5.21354,2.25 5.60938,2.25 C6.06771,2.25 6.41146,2.08854 6.64062,1.76562 C6.85938,1.43229 6.96875,1.00521 6.96875,0.484375 C6.96875,-0.130208 6.80729,-0.65625 6.48438,-1.09375 C6.16146,-1.51042 5.8125,-1.8125 5.4375,-2 C5.05208,-2.16667 4.67188,-2.25 4.29688,-2.25 M4.96875,-2.75 C6.375,-2.75 7.54688,-2.47917 8.48438,-1.9375 C9.43229,-1.38542 9.90625,-0.739583 9.90625,0 C9.90625,0.791667 9.41667,1.44271 8.4375,1.95312 C7.45833,2.48438 6.30208,2.75 4.96875,2.75 C3.58333,2.75 2.41146,2.47917 1.45312,1.9375 C0.484375,1.38542 0,0.739583 0,0 C0,-0.791667 0.494792,-1.44271 1.48438,-1.95312 C2.46354,-2.48438 3.625,-2.75 4.96875,-2.75" id="{2b6475a7-54d8-49de-be00-845478ef74a1}"/>
<path class="Note" transform="matrix(0.992126,0,0,0.992126,459.831,273.331)" d="M4.29688,-2.25 C3.82812,-2.25 3.48958,-2.08854 3.28125,-1.76562 C3.05208,-1.45312 2.9375,-1.02604 2.9375,-0.484375 C2.9375,0.130208 3.09896,0.65625 3.42188,1.09375 C3.74479,1.52083 4.10417,1.82292 4.5,2 C4.84375,2.16667 5.21354,2.25 5.60938,2.25 C6.06771,2.25 6.41146,2.08854 6.64062,1.76562 C6.85938,1.43229 6.96875,1.00521 6.96875,0.484375 C6.96875,-0.130208 6.80729,-0.65625 6.48438,-1.09375 C6.16146,-1.51042 5.8125,-1.8125 5.4375,-2 C5.05208,-2.16667 4.67188,-2.25 4.29688,-2.25 M4.96875,-2.75 C6.375,-2.75 7.54688,-2.47917 8.48438,-1.9375 C9.43229,-1.38542 9.90625,-0.739583 9.90625,0 C9.90625,0.791667 9.41667,1.44271 8.4375,1.95312 C7.45833,2.48438 6.30208,2.75 4.96875,2.75 C3.58333,2.75 2.41146,2.47917 1.45312,1.9375 C0.484375,1.38542 0,0.739583 0,0 C0,-0.791667 0.494792,-1.44271 1.48438,-1.95312 C2.46354,-2.48438 3.625,-2.75 4.96875,-2.75" id="{b6dcd4c2-1ac9-42d3-8912-cc3f5dc3edc0}"/>
<path class="Note" transform="matrix(0.992126,0,0,0.992126,422.139,303.094)" d="M4.39062,-2.75 C5.01562,-2.75 5.54688,-2.58854 5.98438,-2.26562 C6.38021,-1.91146 6.57812,-1.46875 6.57812,-0.9375 C6.57812,-0.0416667 6.11979,0.796875 5.20312,1.57812 C4.26562,2.35938 3.26042,2.75 2.1875,2.75 C1.5625,2.75 1.03646,2.58854 0.609375,2.26562 C0.203125,1.91146 0,1.46875 0,0.9375 C0,0.0416667 0.46875,-0.796875 1.40625,-1.57812 C2.32292,-2.35938 3.31771,-2.75 4.39062,-2.75" id="{2c1dc323-fa32-42f4-ad94-38b65068a6a9}" stem_h="17.3622"/>
<path class="Note" transform="matrix(0.992126,0,0,0.992126,422.139,263.409)" d="M4.39062,-2.75 C5.01562,-2.75 5.54688,-2.58854 5.98438,-2.26562 C6.38021,-1.91146 6.57812,-1.46875 6.57812,-0.9375 C6.57812,-0.0416667 6.11979,0.796875 5.20312,1.57812 C4.26562,2.35938 3.26042,2.75 2.1875,2.75 C1.5625,2.75 1.03646,2.58854 0.609375,2.26562 C0.203125,1.91146 0,1.46875 0,0.9375 C0,0.0416667 0.46875,-0.796875 1.40625,-1.57812 C2.32292,-2.35938 3.31771,-2.75 4.39062,-2.75" id="{1a30c027-5c33-40ea-8829-34b187fa62d0}" stem_h="-16.7421"/>
<path class="Note" transform="matrix(0.992126,0,0,0.992126,391.194,305.575)" d="M4.39062,-2.75 C5.01562,-2.75 5.54688,-2.58854 5.98438,-2.26562 C6.38021,-1.91146 6.57812,-1.46875 6.57812,-0.9375 C6.57812,-0.0416667 6.11979,0.796875 5.20312,1.57812 C4.26562,2.35938 3.26042,2.75 2.1875,2.75 C1.5625,2.75 1.03646,2.58854 0.609375,2.26562 C0.203125,1.91146 0,1.46875 0,0.9375 C0,0.0416667 0.46875,-0.796875 1.40625,-1.57812 C2.32292,-2.35938 3.31771,-2.75 4.39062,-2.75" id="{dd65617c-fceb-43a8-a0f8-8dc376f12d88}" stem_h="16.7421"/>
<path class="Note" transform="matrix(0.992126,0,0,0.992126,391.194,265.89)" d="M4.39062,-2.75 C5.01562,-2.75 5.54688,-2.58854 5.98438,-2.26562 C6.38021,-1.91146 6.57812,-1.46875 6.57812,-0.9375 C6.57812,-0.0416667 6.11979,0.796875 5.20312,1.57812 C4.26562,2.35938 3.26042,2.75 2.1875,2.75 C1.5625,2.75 1.03646,2.58854 0.609375,2.26562 C0.203125,1.91146 0,1.46875 0,0.9375 C0,0.0416667 0.46875,-0.796875 1.40625,-1.57812 C2.32292,-2.35938 3.31771,-2.75 4.39062,-2.75" id="{6a783dd3-4ca9-4193-a2a8-926348f9014f}" stem_h="-17.3622"/>
<path class="Note" transform="matrix(0.992126,0,0,0.992126,360.248,303.094)" d="M4.39062,-2.75 C5.01562,-2.75 5.54688,-2.58854 5.98438,-2.26562 C6.38021,-1.91146 6.57812,-1.46875 6.57812,-0.9375 C6.57812,-0.0416667 6.11979,0.796875 5.20312,1.57812 C4.26562,2.35938 3.26042,2.75 2.1875,2.75 C1.5625,2.75 1.03646,2.58854 0.609375,2.26562 C0.203125,1.91146 0,1.46875 0,0.9375 C0,0.0416667 0.46875,-0.796875 1.40625,-1.57812 C2.32292,-2.35938 3.31771,-2.75 4.39062,-2.75" id="{0e878569-15fb-4590-8a5f-b96c0bdd508e}" stem_h="17.3622"/>
<path class="Note" transform="matrix(0.992126,0,0,0.992126,360.248,263.409)" d="M4.39062,-2.75 C5.01562,-2.75 5.54688,-2.58854 5.98438,-2.26562 C6.38021,-1.91146 6.57812,-1.46875 6.57812,-0.9375 C6.57812,-0.0416667 6.11979,0.796875 5.20312,1.57812 C4.26562,2.35938 3.26042,2.75 2.1875,2.75 C1.5625,2.75 1.03646,2.58854 0.609375,2.26562 C0.203125,1.91146 0,1.46875 0,0.9375 C0,0.0416667 0.46875,-0.796875 1.40625,-1.57812 C2.32292,-2.35938 3.31771,-2.75 4.39062,-2.75" id="{03d7f49b-15fb-44b6-a966-49f27f9eb13c}" stem_h="-16.7421"/>
<path class="Note" transform="matrix(0.992126,0,0,0.992126,329.303,310.535)" d="M4.39062,-2.75 C5.01562,-2.75 5.54688,-2.58854 5.98438,-2.26562 C6.38021,-1.91146 6.57812,-1.46875 6.57812,-0.9375 C6.57812,-0.0416667 6.11979,0.796875 5.20312,1.57812 C4.26562,2.35938 3.26042,2.75 2.1875,2.75 C1.5625,2.75 1.03646,2.58854 0.609375,2.26562 C0.203125,1.91146 0,1.46875 0,0.9375 C0,0.0416667 0.46875,-0.796875 1.40625,-1.57812 C2.32292,-2.35938 3.31771,-2.75 4.39062,-2.75" id="{b37bfb5e-8d24-42e4-b980-4164a52b6a91}" stem_h="15.502"/>
<path class="Note" transform="matrix(0.992126,0,0,0.992126,329.303,270.85)" d="M4.39062,-2.75 C5.01562,-2.75 5.54688,-2.58854 5.98438,-2.26562 C6.38021,-1.91146 6.57812,-1.46875 6.57812,-0.9375 C6.57812,-0.0416667 6.11979,0.796875 5.20312,1.57812 C4.26562,2.35938 3.26042,2.75 2.1875,2.75 C1.5625,2.75 1.03646,2.58854 0.609375,2.26562 C0.203125,1.91146 0,1.46875 0,0.9375 C0,0.0416667 0.46875,-0.796875 1.40625,-1.57812 C2.32292,-2.35938 3.31771,-2.75 4.39062,-2.75" id="{7382b173-fcc2-4761-a4fe-073f337c2a6b}" stem_h="-17.3622"/>
<path class="Note" transform="matrix(0.992126,0,0,0.992126,291.611,308.055)" d="M4.39062,-2.75 C5.01562,-2.75 5.54688,-2.58854 5.98438,-2.26562 C6.38021,-1.91146 6.57812,-1.46875 6.57812,-0.9375 C6.57812,-0.0416667 6.11979,0.796875 5.20312,1.57812 C4.26562,2.35938 3.26042,2.75 2.1875,2.75 C1.5625,2.75 1.03646,2.58854 0.609375,2.26562 C0.203125,1.91146 0,1.46875 0,0.9375 C0,0.0416667 0.46875,-0.796875 1.40625,-1.57812 C2.32292,-2.35938 3.31771,-2.75 4.39062,-2.75" id="{f62a9d87-56ae-42e3-bda7-a29d71385b29}" stem_h="16.122"/>
<path class="Note" transform="matrix(0.992126,0,0,0.992126,260.665,303.094)" d="M4.39062,-2.75 C5.01562,-2.75 5.54688,-2.58854 5.98438,-2.26562 C6.38021,-1.91146 6.57812,-1.46875 6.57812,-0.9375 C6.57812,-0.0416667 6.11979,0.796875 5.20312,1.57812 C4.26562,2.35938 3.26042,2.75 2.1875,2.75 C1.5625,2.75 1.03646,2.58854 0.609375,2.26562 C0.203125,1.91146 0,1.46875 0,0.9375 C0,0.0416667 0.46875,-0.796875 1.40625,-1.57812 C2.32292,-2.35938 3.31771,-2.75 4.39062,-2.75" id="{fba307dc-18bd-4f8d-ac7b-b28a60339f20}" stem_h="17.3622"/>
<path class="Note" transform="matrix(0.992126,0,0,0.992126,229.719,305.575)" d="M4.39062,-2.75 C5.01562,-2.75 5.54688,-2.58854 5.98438,-2.26562 C6.38021,-1.91146 6.57812,-1.46875 6.57812,-0.9375 C6.57812,-0.0416667 6.11979,0.796875 5.20312,1.57812 C4.26562,2.35938 3.26042,2.75 2.1875,2.75 C1.5625,2.75 1.03646,2.58854 0.609375,2.26562 C0.203125,1.91146 0,1.46875 0,0.9375 C0,0.0416667 0.46875,-0.796875 1.40625,-1.57812 C2.32292,-2.35938 3.31771,-2.75 4.39062,-2.75" id="{3a115ac6-3ada-45b9-a8f5-54421651cc4a}" stem_h="16.7421"/>
<path class="Note" transform="matrix(0.992126,0,0,0.992126,198.774,303.094)" d="M4.39062,-2.75 C5.01562,-2.75 5.54688,-2.58854 5.98438,-2.26562 C6.38021,-1.91146 6.57812,-1.46875 6.57812,-0.9375 C6.57812,-0.0416667 6.11979,0.796875 5.20312,1.57812 C4.26562,2.35938 3.26042,2.75 2.1875,2.75 C1.5625,2.75 1.03646,2.58854 0.609375,2.26562 C0.203125,1.91146 0,1.46875 0,0.9375 C0,0.0416667 0.46875,-0.796875 1.40625,-1.57812 C2.32292,-2.35938 3.31771,-2.75 4.39062,-2.75" id="{3cef2f79-89ed-4c46-8923-7f34e299b043}" stem_h="17.3622"/>
<path class="Note" transform="matrix(0.992126,0,0,0.992126,162.32,273.331)" d="M4.39062,-2.75 C5.01562,-2.75 5.54688,-2.58854 5.98438,-2.26562 C6.38021,-1.91146 6.57812,-1.46875 6.57812,-0.9375 C6.57812,-0.0416667 6.11979,0.796875 5.20312,1.57812 C4.26562,2.35938 3.26042,2.75 2.1875,2.75 C1.5625,2.75 1.03646,2.58854 0.609375,2.26562 C0.203125,1.91146 0,1.46875 0,0.9375 C0,0.0416667 0.46875,-0.796875 1.40625,-1.57812 C2.32292,-2.35938 3.31771,-2.75 4.39062,-2.75" id="{e6973efa-2b70-4f02-adf7-f9b87115b531}" stem_h="-17.3622"/>
<path class="Note" transform="matrix(0.992126,0,0,0.992126,132.613,268.37)" d="M4.39062,-2.75 C5.01562,-2.75 5.54688,-2.58854 5.98438,-2.26562 C6.38021,-1.91146 6.57812,-1.46875 6.57812,-0.9375 C6.57812,-0.0416667 6.11979,0.796875 5.20312,1.57812 C4.26562,2.35938 3.26042,2.75 2.1875,2.75 C1.5625,2.75 1.03646,2.58854 0.609375,2.26562 C0.203125,1.91146 0,1.46875 0,0.9375 C0,0.0416667 0.46875,-0.796875 1.40625,-1.57812 C2.32292,-2.35938 3.31771,-2.75 4.39062,-2.75" id="{f9a2b041-1720-415a-9ebf-34cdd9dc1cb7}" stem_h="-17.3622"/>
<path class="Note" transform="matrix(0.992126,0,0,0.992126,102.906,270.85)" d="M4.39062,-2.75 C5.01562,-2.75 5.54688,-2.58854 5.98438,-2.26562 C6.38021,-1.91146 6.57812,-1.46875 6.57812,-0.9375 C6.57812,-0.0416667 6.11979,0.796875 5.20312,1.57812 C4.26562,2.35938 3.26042,2.75 2.1875,2.75 C1.5625,2.75 1.03646,2.58854 0.609375,2.26562 C0.203125,1.91146 0,1.46875 0,0.9375 C0,0.0416667 0.46875,-0.796875 1.40625,-1.57812 C2.32292,-2.35938 3.31771,-2.75 4.39062,-2.75" id="{7fcb32c2-9fe7-4f0d-9d8d-759b3ef43d3b}" stem_h="-17.3622"/>
<path class="Note" transform="matrix(0.992126,0,0,0.992126,71.5524,313.016)" d="M4.29688,-2.25 C3.82812,-2.25 3.48958,-2.08854 3.28125,-1.76562 C3.05208,-1.45312 2.9375,-1.02604 2.9375,-0.484375 C2.9375,0.130208 3.09896,0.65625 3.42188,1.09375 C3.74479,1.52083 4.10417,1.82292 4.5,2 C4.84375,2.16667 5.21354,2.25 5.60938,2.25 C6.06771,2.25 6.41146,2.08854 6.64062,1.76562 C6.85938,1.43229 6.96875,1.00521 6.96875,0.484375 C6.96875,-0.130208 6.80729,-0.65625 6.48438,-1.09375 C6.16146,-1.51042 5.8125,-1.8125 5.4375,-2 C5.05208,-2.16667 4.67188,-2.25 4.29688,-2.25 M4.96875,-2.75 C6.375,-2.75 7.54688,-2.47917 8.48438,-1.9375 C9.43229,-1.38542 9.90625,-0.739583 9.90625,0 C9.90625,0.791667 9.41667,1.44271 8.4375,1.95312 C7.45833,2.48438 6.30208,2.75 4.96875,2.75 C3.58333,2.75 2.41146,2.47917 1.45312,1.9375 C0.484375,1.38542 0,0.739583 0,0 C0,-0.791667 0.494792,-1.44271 1.48438,-1.95312 C2.46354,-2.48438 3.625,-2.75 4.96875,-2.75" id="{a9fbb939-e9c7-4899-8507-332819aadb49}"/>
<path class="Note" transform="matrix(0.992126,0,0,0.992126,73.1995,268.37)" d="M4.39062,-2.75 C5.01562,-2.75 5.54688,-2.58854 5.98438,-2.26562 C6.38021,-1.91146 6.57812,-1.46875 6.57812,-0.9375 C6.57812,-0.0416667 6.11979,0.796875 5.20312,1.57812 C4.26562,2.35938 3.26042,2.75 2.1875,2.75 C1.5625,2.75 1.03646,2.58854 0.609375,2.26562 C0.203125,1.91146 0,1.46875 0,0.9375 C0,0.0416667 0.46875,-0.796875 1.40625,-1.57812 C2.32292,-2.35938 3.31771,-2.75 4.39062,-2.75" id="{4f9c69cc-7e52-48b0-ab84-1233955b618c}" stem_h="-17.3622"/>
<path class="Note" transform="matrix(0.992126,0,0,0.992126,531.557,164.197)" d="M4.39062,-2.75 C5.01562,-2.75 5.54688,-2.58854 5.98438,-2.26562 C6.38021,-1.91146 6.57812,-1.46875 6.57812,-0.9375 C6.57812,-0.0416667 6.11979,0.796875 5.20312,1.57812 C4.26562,2.35938 3.26042,2.75 2.1875,2.75 C1.5625,2.75 1.03646,2.58854 0.609375,2.26562 C0.203125,1.91146 0,1.46875 0,0.9375 C0,0.0416667 0.46875,-0.796875 1.40625,-1.57812 C2.32292,-2.35938 3.31771,-2.75 4.39062,-2.75" id="{adf93f23-ff5b-4f4b-8ef9-7ed714062cd2}" stem_h="15.502"/>
<path class="Note" transform="matrix(0.992126,0,0,0.992126,504.349,161.717)" d="M4.39062,-2.75 C5.01562,-2.75 5.54688,-2.58854 5.98438,-2.26562 C6.38021,-1.91146 6.57812,-1.46875 6.57812,-0.9375 C6.57812,-0.0416667 6.11979,0.796875 5.20312,1.57812 C4.26562,2.35938 3.26042,2.75 2.1875,2.75 C1.5625,2.75 1.03646,2.58854 0.609375,2.26562 C0.203125,1.91146 0,1.46875 0,0.9375 C0,0.0416667 0.46875,-0.796875 1.40625,-1.57812 C2.32292,-2.35938 3.31771,-2.75 4.39062,-2.75" id="{3e9e8f5f-e17e-44d3-b89c-74f8699671bf}" stem_h="16.122"/>
<path class="Note" transform="matrix(0.992126,0,0,0.992126,477.142,159.236)" d="M4.39062,-2.75 C5.01562,-2.75 5.54688,-2.58854 5.98438,-2.26562 C6.38021,-1.91146 6.57812,-1.46875 6.57812,-0.9375 C6.57812,-0.0416667 6.11979,0.796875 5.20312,1.57812 C4.26562,2.35938 3.26042,2.75 2.1875,2.75 C1.5625,2.75 1.03646,2.58854 0.609375,2.26562 C0.203125,1.91146 0,1.46875 0,0.9375 C0,0.0416667 0.46875,-0.796875 1.40625,-1.57812 C2.32292,-2.35938 3.31771,-2.75 4.39062,-2.75" id="{5c79f278-62ef-4f56-ba91-d49b9e82f016}" stem_h="16.7421"/>
<path class="Note" transform="matrix(0.992126,0,0,0.992126,449.934,156.756)" d="M4.39062,-2.75 C5.01562,-2.75 5.54688,-2.58854 5.98438,-2.26562 C6.38021,-1.91146 6.57812,-1.46875 6.57812,-0.9375 C6.57812,-0.0416667 6.11979,0.796875 5.20312,1.57812 C4.26562,2.35938 3.26042,2.75 2.1875,2.75 C1.5625,2.75 1.03646,2.58854 0.609375,2.26562 C0.203125,1.91146 0,1.46875 0,0.9375 C0,0.0416667 0.46875,-0.796875 1.40625,-1.57812 C2.32292,-2.35938 3.31771,-2.75 4.39062,-2.75" id="{6eaa7a61-0060-4daf-88da-092859703c24}" stem_h="17.3622"/>
<path class="Note" transform="matrix(0.992126,0,0,0.992126,449.755,117.071)" d="M6.3125,-1.3125 C6.3125,-1.53125 6.22917,-1.71875 6.0625,-1.875 C5.88542,-2.04167 5.6875,-2.125 5.46875,-2.125 C5.08333,-2.125 4.29688,-1.73438 3.10938,-0.953125 C1.88021,-0.161458 1.13021,0.40625 0.859375,0.75 C0.713542,0.927083 0.640625,1.11458 0.640625,1.3125 C0.640625,1.53125 0.729167,1.71875 0.90625,1.875 C1.0625,2.04167 1.25521,2.125 1.48438,2.125 C1.85938,2.125 2.65625,1.73438 3.875,0.953125 C5.07292,0.171875 5.8125,-0.395833 6.09375,-0.75 C6.23958,-0.916667 6.3125,-1.10417 6.3125,-1.3125 M5.28125,-2.75 C6.39583,-2.75 6.95312,-2.27083 6.95312,-1.3125 C6.95312,-0.84375 6.81771,-0.296875 6.54688,0.328125 C6.27604,0.942708 5.91146,1.41146 5.45312,1.73438 C4.45312,2.41146 3.19792,2.75 1.6875,2.75 C0.5625,2.75 0,2.27083 0,1.3125 C0,0.885417 0.135417,0.34375 0.40625,-0.3125 C0.666667,-0.9375 1.03125,-1.41146 1.5,-1.73438 C2.51042,-2.41146 3.77083,-2.75 5.28125,-2.75" id="{f382e049-7636-4522-beef-26456923bca8}" stem_h="-16.7421"/>
<path class="Note" transform="matrix(0.992126,0,0,0.992126,413.844,124.512)" d="M4.39062,-2.75 C5.01562,-2.75 5.54688,-2.58854 5.98438,-2.26562 C6.38021,-1.91146 6.57812,-1.46875 6.57812,-0.9375 C6.57812,-0.0416667 6.11979,0.796875 5.20312,1.57812 C4.26562,2.35938 3.26042,2.75 2.1875,2.75 C1.5625,2.75 1.03646,2.58854 0.609375,2.26562 C0.203125,1.91146 0,1.46875 0,0.9375 C0,0.0416667 0.46875,-0.796875 1.40625,-1.57812 C2.32292,-2.35938 3.31771,-2.75 4.39062,-2.75" id="{75958c1c-1df9-4290-8f74-bc72f47cbd07}" stem_h="-17.3622"/>
<path class="Note" transform="matrix(0.992126,0,0,0.992126,384.68,119.551)" d="M4.39062,-2.75 C5.01562,-2.75 5.54688,-2.58854 5.98438,-2.26562 C6.38021,-1.91146 6.57812,-1.46875 6.57812,-0.9375 C6.57812,-0.0416667 6.11979,0.796875 5.20312,1.57812 C4.26562,2.35938 3.26042,2.75 2.1875,2.75 C1.5625,2.75 1.03646,2.58854 0.609375,2.26562 C0.203125,1.91146 0,1.46875 0,0.9375 C0,0.0416667 0.46875,-0.796875 1.40625,-1.57812 C2.32292,-2.35938 3.31771,-2.75 4.39062,-2.75" id="{2dbdcf8d-4d31-40a8-8220-cfd668590824}" stem_h="-17.3622"/>
<path class="Note" transform="matrix(0.992126,0,0,0.992126,355.516,122.032)" d="M4.39062,-2.75 C5.01562,-2.75 5.54688,-2.58854 5.98438,-2.26562 C6.38021,-1.91146 6.57812,-1.46875 6.57812,-0.9375 C6.57812,-0.0416667 6.11979,0.796875 5.20312,1.57812 C4.26562,2.35938 3.26042,2.75 2.1875,2.75 C1.5625,2.75 1.03646,2.58854 0.609375,2.26562 C0.203125,1.91146 0,1.46875 0,0.9375 C0,0.0416667 0.46875,-0.796875 1.40625,-1.57812 C2.32292,-2.35938 3.31771,-2.75 4.39062,-2.75" id="{c5e94fce-b32d-4578-a3a1-714ff1314da9}" stem_h="-17.3622"/>
<path class="Note" transform="matrix(0.992126,0,0,0.992126,326.352,124.512)" d="M4.39062,-2.75 C5.01562,-2.75 5.54688,-2.58854 5.98438,-2.26562 C6.38021,-1.91146 6.57812,-1.46875 6.57812,-0.9375 C6.57812,-0.0416667 6.11979,0.796875 5.20312,1.57812 C4.26562,2.35938 3.26042,2.75 2.1875,2.75 C1.5625,2.75 1.03646,2.58854 0.609375,2.26562 C0.203125,1.91146 0,1.46875 0,0.9375 C0,0.0416667 0.46875,-0.796875 1.40625,-1.57812 C2.32292,-2.35938 3.31771,-2.75 4.39062,-2.75" id="{48c6e0ef-34bc-4169-83e8-0adc58fc6171}" stem_h="-17.3622"/>
<path class="Note" transform="matrix(0.992126,0,0,0.992126,290.441,161.717)" d="M4.39062,-2.75 C5.01562,-2.75 5.54688,-2.58854 5.98438,-2.26562 C6.38021,-1.91146 6.57812,-1.46875 6.57812,-0.9375 C6.57812,-0.0416667 6.11979,0.796875 5.20312,1.57812 C4.26562,2.35938 3.26042,2.75 2.1875,2.75 C1.5625,2.75 1.03646,2.58854 0.609375,2.26562 C0.203125,1.91146 0,1.46875 0,0.9375 C0,0.0416667 0.46875,-0.796875 1.40625,-1.57812 C2.32292,-2.35938 3.31771,-2.75 4.39062,-2.75" id="{d6d8e849-5204-4953-b150-74cb401ef72c}" stem_h="16.122"/>
<path class="Note" transform="matrix(0.992126,0,0,0.992126,261.277,156.756)" d="M4.39062,-2.75 C5.01562,-2.75 5.54688,-2.58854 5.98438,-2.26562 C6.38021,-1.91146 6.57812,-1.46875 6.57812,-0.9375 C6.57812,-0.0416667 6.11979,0.796875 5.20312,1.57812 C4.26562,2.35938 3.26042,2.75 2.1875,2.75 C1.5625,2.75 1.03646,2.58854 0.609375,2.26562 C0.203125,1.91146 0,1.46875 0,0.9375 C0,0.0416667 0.46875,-0.796875 1.40625,-1.57812 C2.32292,-2.35938 3.31771,-2.75 4.39062,-2.75" id="{04fc42d0-8e76-41da-9f09-228b17e47203}" stem_h="17.3622"/>
<path class="Note" transform="matrix(0.992126,0,0,0.992126,232.113,159.236)" d="M4.39062,-2.75 C5.01562,-2.75 5.54688,-2.58854 5.98438,-2.26562 C6.38021,-1.91146 6.57812,-1.46875 6.57812,-0.9375 C6.57812,-0.0416667 6.11979,0.796875 5.20312,1.57812 C4.26562,2.35938 3.26042,2.75 2.1875,2.75 C1.5625,2.75 1.03646,2.58854 0.609375,2.26562 C0.203125,1.91146 0,1.46875 0,0.9375 C0,0.0416667 0.46875,-0.796875 1.40625,-1.57812 C2.32292,-2.35938 3.31771,-2.75 4.39062,-2.75" id="{36d52c04-3270-4325-97a2-93240fb0a37c}" stem_h="16.7421"/>
<path class="Note" transform="matrix(0.992126,0,0,0.992126,202.949,156.756)" d="M4.39062,-2.75 C5.01562,-2.75 5.54688,-2.58854 5.98438,-2.26562 C6.38021,-1.91146 6.57812,-1.46875 6.57812,-0.9375 C6.57812,-0.0416667 6.11979,0.796875 5.20312,1.57812 C4.26562,2.35938 3.26042,2.75 2.1875,2.75 C1.5625,2.75 1.03646,2.58854 0.609375,2.26562 C0.203125,1.91146 0,1.46875 0,0.9375 C0,0.0416667 0.46875,-0.796875 1.40625,-1.57812 C2.32292,-2.35938 3.31771,-2.75 4.39062,-2.75" id="{19ea471e-843e-4b7c-8e71-e36120038fef}" stem_h="17.3622"/>
<path class="Note" transform="matrix(0.992126,0,0,0.992126,168.276,126.992)" d="M4.39062,-2.75 C5.01562,-2.75 5.54688,-2.58854 5.98438,-2.26562 C6.38021,-1.91146 6.57812,-1.46875 6.57812,-0.9375 C6.57812,-0.0416667 6.11979,0.796875 5.20312,1.57812 C4.26562,2.35938 3.26042,2.75 2.1875,2.75 C1.5625,2.75 1.03646,2.58854 0.609375,2.26562 C0.203125,1.91146 0,1.46875 0,0.9375 C0,0.0416667 0.46875,-0.796875 1.40625,-1.57812 C2.32292,-2.35938 3.31771,-2.75 4.39062,-2.75" id="{10cddfcb-4ee0-40cc-8af7-6a3ce5bfbfb8}" stem_h="-17.3622"/>
<path class="Note" transform="matrix(0.992126,0,0,0.992126,140.351,122.032)" d="M4.39062,-2.75 C5.01562,-2.75 5.54688,-2.58854 5.98438,-2.26562 C6.38021,-1.91146 6.57812,-1.46875 6.57812,-0.9375 C6.57812,-0.0416667 6.11979,0.796875 5.20312,1.57812 C4.26562,2.35938 3.26042,2.75 2.1875,2.75 C1.5625,2.75 1.03646,2.58854 0.609375,2.26562 C0.203125,1.91146 0,1.46875 0,0.9375 C0,0.0416667 0.46875,-0.796875 1.40625,-1.57812 C2.32292,-2.35938 3.31771,-2.75 4.39062,-2.75" id="{7a2b0dfc-f340-4268-9b88-d03e9564cfd2}" stem_h="-17.3622"/>
<path class="Note" transform="matrix(0.992126,0,0,0.992126,112.425,124.512)" d="M4.39062,-2.75 C5.01562,-2.75 5.54688,-2.58854 5.98438,-2.26562 C6.38021,-1.91146 6.57812,-1.46875 6.57812,-0.9375 C6.57812,-0.0416667 6.11979,0.796875 5.20312,1.57812 C4.26562,2.35938 3.26042,2.75 2.1875,2.75 C1.5625,2.75 1.03646,2.58854 0.609375,2.26562 C0.203125,1.91146 0,1.46875 0,0.9375 C0,0.0416667 0.46875,-0.796875 1.40625,-1.57812 C2.32292,-2.35938 3.31771,-2.75 4.39062,-2.75" id="{8e2bef9a-3c22-4716-8a62-6ec8273e0ee7}" stem_h="-17.3622"/>
<path class="Note" transform="matrix(0.992126,0,0,0.992126,84.4996,122.032)" d="M4.39062,-2.75 C5.01562,-2.75 5.54688,-2.58854 5.98438,-2.26562 C6.38021,-1.91146 6.57812,-1.46875 6.57812,-0.9375 C6.57812,-0.0416667 6.11979,0.796875 5.20312,1.57812 C4.26562,2.35938 3.26042,2.75 2.1875,2.75 C1.5625,2.75 1.03646,2.58854 0.609375,2.26562 C0.203125,1.91146 0,1.46875 0,0.9375 C0,0.0416667 0.46875,-0.796875 1.40625,-1.57812 C2.32292,-2.35938 3.31771,-2.75 4.39062,-2.75" id="{31892b54-a621-4436-843f-5f41d43f1faa}" stem_h="-17.3622"/>
<path class="Clef" transform="matrix(0.992126,0,0,0.992126,50.0961,305.575)" d="M11.4297,-1.78125 C11.237,-1.97917 11.1406,-2.22135 11.1406,-2.50781 C11.1406,-2.79427 11.237,-3.03385 11.4297,-3.22656 C11.6224,-3.41927 11.862,-3.51562 12.1484,-3.51562 C12.4349,-3.51562 12.6771,-3.41927 12.875,-3.22656 C13.0729,-3.03385 13.1719,-2.79427 13.1719,-2.50781 C13.1719,-2.22135 13.0729,-1.97917 12.875,-1.78125 C12.6771,-1.58333 12.4349,-1.48438 12.1484,-1.48438 C11.862,-1.48438 11.6224,-1.58333 11.4297,-1.78125 M11.4297,3.22656 C11.237,3.03385 11.1406,2.79427 11.1406,2.50781 C11.1406,2.22135 11.237,1.97917 11.4297,1.78125 C11.6224,1.58333 11.862,1.48438 12.1484,1.48438 C12.4349,1.48438 12.6771,1.58333 12.875,1.78125 C13.0729,1.97917 13.1719,2.22135 13.1719,2.50781 C13.1719,2.79427 13.0729,3.03385 12.875,3.22656 C12.6771,3.41927 12.4349,3.51562 12.1484,3.51562 C11.862,3.51562 11.6224,3.41927 11.4297,3.22656 M4.65625,-5.25 C6.38542,-5.25 7.80208,-4.81771 8.90625,-3.95312 C9.97917,-3.03646 10.5156,-1.79688 10.5156,-0.234375 C10.5156,0.817708 10.3073,1.78125 9.89062,2.65625 C9.49479,3.57292 8.97917,4.38021 8.34375,5.07812 C7.6875,5.79688 6.90104,6.47396 5.98438,7.10938 C5.07812,7.73438 4.15104,8.29688 3.20312,8.79688 C1.27604,9.76562 0.208333,10.25 0,10.25 C-0.166667,10.25 -0.25,10.1667 -0.25,10 C-0.25,9.9375 -0.223958,9.88021 -0.171875,9.82812 C0.494792,9.43229 1.30729,8.93229 2.26562,8.32812 C2.89062,7.92188 3.61979,7.35938 4.45312,6.64062 C5.26562,5.96354 5.89062,5.32812 6.32812,4.73438 C6.78646,4.14062 7.20312,3.41146 7.57812,2.54688 C7.90104,1.67188 8.0625,0.807292 8.0625,-0.046875 C8.0625,-1.30729 7.75,-2.40625 7.125,-3.34375 C6.5,-4.28125 5.67708,-4.75 4.65625,-4.75 C3.92708,-4.75 3.30208,-4.51562 2.78125,-4.04688 C2.21875,-3.56771 1.8125,-2.96354 1.5625,-2.23438 C1.8125,-2.33854 2.04167,-2.39062 2.25,-2.39062 C2.79167,-2.39062 3.26042,-2.19271 3.65625,-1.79688 C4.04167,-1.38021 4.23438,-0.90625 4.23438,-0.375 C4.23438,0.1875 4.04688,0.692708 3.67188,1.14062 C3.26562,1.53646 2.79167,1.73438 2.25,1.73438 C1.66667,1.73438 1.14062,1.53646 0.671875,1.14062 C0.223958,0.692708 0,0.1875 0,-0.375 C0,-1.71875 0.458333,-2.86458 1.375,-3.8125 C2.27083,-4.77083 3.36458,-5.25 4.65625,-5.25"/>
<path class="Clef" transform="matrix(0.992126,0,0,0.992126,50.0961,263.409)" d="M7.34375,-5.125 C7.34375,-5.125 7.38542,-5.125 7.46875,-5.125 C7.52083,-5.13542 7.5625,-5.14062 7.59375,-5.14062 C9.05208,-5.14062 10.25,-4.625 11.1875,-3.59375 C12.125,-2.58333 12.5938,-1.40104 12.5938,-0.046875 C12.5938,1.64062 11.901,3.01042 10.5156,4.0625 C10.151,4.35417 9.67188,4.58854 9.07812,4.76562 C9.15104,5.60938 9.1875,6.29167 9.1875,6.8125 C9.1875,6.91667 9.17188,7.29688 9.14062,7.95312 C9.08854,9.16146 8.67188,10.2083 7.89062,11.0938 C7.14062,11.9688 6.20312,12.4062 5.07812,12.4062 C4.02604,12.4062 3.13021,12.0365 2.39062,11.2969 C1.64062,10.5365 1.26562,9.625 1.26562,8.5625 C1.26562,8 1.48438,7.52083 1.92188,7.125 C2.35938,6.73958 2.86979,6.54688 3.45312,6.54688 C3.97396,6.54688 4.41146,6.75 4.76562,7.15625 C5.13021,7.53125 5.3125,8 5.3125,8.5625 C5.3125,9.0625 5.13021,9.49479 4.76562,9.85938 C4.40104,10.224 3.96354,10.4062 3.45312,10.4062 C3.24479,10.4062 3.04688,10.3698 2.85938,10.2969 C3.43229,11.1406 4.19271,11.5625 5.14062,11.5625 C6.03646,11.5625 6.77083,11.1979 7.34375,10.4688 C7.94792,9.71875 8.27604,8.83854 8.32812,7.82812 C8.34896,7.20312 8.35938,6.84896 8.35938,6.76562 C8.35938,6.03646 8.33333,5.4375 8.28125,4.96875 C7.63542,5.07292 7.05729,5.125 6.54688,5.125 C4.73438,5.125 3.19271,4.40625 1.92188,2.96875 C0.671875,1.52083 0.046875,-0.197917 0.046875,-2.1875 C0.046875,-2.60417 0.0833333,-3.02604 0.15625,-3.45312 C0.239583,-3.80729 0.338542,-4.19271 0.453125,-4.60938 C0.515625,-4.84896 0.692708,-5.22917 0.984375,-5.75 C1.08854,-5.90625 1.20573,-6.10156 1.33594,-6.33594 C1.46615,-6.57031 1.55729,-6.72396 1.60938,-6.79688 C1.73438,-7.05729 1.98438,-7.41146 2.35938,-7.85938 C2.46354,-7.97396 2.57292,-8.10156 2.6875,-8.24219 C2.80208,-8.38281 2.89844,-8.5 2.97656,-8.59375 C3.05469,-8.6875 3.11198,-8.76042 3.14844,-8.8125 C3.1849,-8.86458 3.47917,-9.20833 4.03125,-9.84375 C4.15625,-9.97917 4.28125,-10.1198 4.40625,-10.2656 C4.53125,-10.4115 4.63281,-10.5286 4.71094,-10.6172 C4.78906,-10.7057 4.84896,-10.7656 4.89062,-10.7969 C4.42188,-12.349 4.125,-13.5885 4,-14.5156 C3.91667,-15.2552 3.875,-16.2708 3.875,-17.5625 C3.875,-18.6979 4.13542,-19.7604 4.65625,-20.75 C5.15625,-21.7708 5.86458,-22.6094 6.78125,-23.2656 C6.84375,-23.3073 6.90625,-23.3281 6.96875,-23.3281 C7.0625,-23.3281 7.13021,-23.3073 7.17188,-23.2656 C7.86979,-22.4219 8.47396,-21.3229 8.98438,-19.9688 C9.50521,-18.6146 9.76562,-17.3802 9.76562,-16.2656 C9.76562,-15.0156 9.46875,-13.8438 8.875,-12.75 C8.19792,-11.5938 7.32292,-10.3958 6.25,-9.15625 C6.52083,-8.30208 6.88542,-6.95833 7.34375,-5.125 M9,3.96875 C9.67708,3.71875 10.2083,3.29688 10.5938,2.70312 C11.0104,2.13021 11.2188,1.48438 11.2188,0.765625 C11.2188,-0.161458 10.9062,-0.984375 10.2812,-1.70312 C9.63542,-2.44271 8.81771,-2.85938 7.82812,-2.95312 C8.39062,-0.203125 8.78125,2.10417 9,3.96875 M1.45312,-0.546875 C1.45312,0.744792 1.97396,1.88021 3.01562,2.85938 C4.07812,3.80729 5.27604,4.28125 6.60938,4.28125 C7.15104,4.28125 7.68229,4.23958 8.20312,4.15625 C7.99479,2.17708 7.58333,-0.192708 6.96875,-2.95312 C6.22917,-2.86979 5.64062,-2.60938 5.20312,-2.17188 C4.76562,-1.71354 4.54688,-1.19792 4.54688,-0.625 C4.54688,0.364583 5.07812,1.16667 6.14062,1.78125 C6.22396,1.875 6.26562,1.97396 6.26562,2.07812 C6.26562,2.18229 6.22396,2.27604 6.14062,2.35938 C6.05729,2.45312 5.95833,2.5 5.84375,2.5 C5.83333,2.5 5.77604,2.48958 5.67188,2.46875 C4.92188,2.0625 4.34896,1.54167 3.95312,0.90625 C3.56771,0.21875 3.375,-0.46875 3.375,-1.15625 C3.375,-2.05208 3.65625,-2.86458 4.21875,-3.59375 C4.80208,-4.32292 5.5625,-4.79167 6.5,-5 C6.13542,-6.45833 5.83854,-7.59896 5.60938,-8.42188 C5.40104,-8.18229 5.15104,-7.89844 4.85938,-7.57031 C4.56771,-7.24219 4.39583,-7.04167 4.34375,-6.96875 C3.875,-6.36458 3.51562,-5.89062 3.26562,-5.54688 C2.81771,-4.93229 2.48958,-4.40625 2.28125,-3.96875 C2.0625,-3.46875 1.86979,-2.92708 1.70312,-2.34375 C1.53646,-1.78125 1.45312,-1.18229 1.45312,-0.546875 M7.96875,-20.4062 C6.98958,-19.9271 6.22396,-19.2396 5.67188,-18.3438 C5.09896,-17.4167 4.8125,-16.4219 4.8125,-15.3594 C4.8125,-14.4219 5.04688,-13.1562 5.51562,-11.5625 C6.45312,-12.6979 7.15625,-13.7448 7.625,-14.7031 C8.11458,-15.724 8.35938,-16.7865 8.35938,-17.8906 C8.35938,-18.724 8.22917,-19.5625 7.96875,-20.4062"/>
<path class="Clef" transform="matrix(0.992126,0,0,0.992126,50.0961,159.236)" d="M11.4297,-1.78125 C11.237,-1.97917 11.1406,-2.22135 11.1406,-2.50781 C11.1406,-2.79427 11.237,-3.03385 11.4297,-3.22656 C11.6224,-3.41927 11.862,-3.51562 12.1484,-3.51562 C12.4349,-3.51562 12.6771,-3.41927 12.875,-3.22656 C13.0729,-3.03385 13.1719,-2.79427 13.1719,-2.50781 C13.1719,-2.22135 13.0729,-1.97917 12.875,-1.78125 C12.6771,-1.58333 12.4349,-1.48438 12.1484,-1.48438 C11.862,-1.48438 11.6224,-1.58333 11.4297,-1.78125 M11.4297,3.22656 C11.237,3.03385 11.1406,2.79427 11.1406,2.50781 C11.1406,2.22135 11.237,1.97917 11.4297,1.78125 C11.6224,1.58333 11.862,1.48438 12.1484,1.48438 C12.4349,1.48438 12.6771,1.58333 12.875,1.78125 C13.0729,1.97917 13.1719,2.22135 13.1719,2.50781 C13.1719,2.79427 13.0729,3.03385 12.875,3.22656 C12.6771,3.41927 12.4349,3.51562 12.1484,3.51562 C11.862,3.51562 11.6224,3.41927 11.4297,3.22656 M4.65625,-5.25 C6.38542,-5.25 7.80208,-4.81771 8.90625,-3.95312 C9.97917,-3.03646 10.5156,-1.79688 10.5156,-0.234375 C10.5156,0.817708 10.3073,1.78125 9.89062,2.65625 C9.49479,3.57292 8.97917,4.38021 8.34375,5.07812 C7.6875,5.79688 6.90104,6.47396 5.98438,7.10938 C5.07812,7.73438 4.15104,8.29688 3.20312,8.79688 C1.27604,9.76562 0.208333,10.25 0,10.25 C-0.166667,10.25 -0.25,10.1667 -0.25,10 C-0.25,9.9375 -0.223958,9.88021 -0.171875,9.82812 C0.494792,9.43229 1.30729,8.93229 2.26562,8.32812 C2.89062,7.92188 3.61979,7.35938 4.45312,6.64062 C5.26562,5.96354 5.89062,5.32812 6.32812,4.73438 C6.78646,4.14062 7.20312,3.41146 7.57812,2.54688 C7.90104,1.67188 8.0625,0.807292 8.0625,-0.046875 C8.0625,-1.30729 7.75,-2.40625 7.125,-3.34375 C6.5,-4.28125 5.67708,-4.75 4.65625,-4.75 C3.92708,-4.75 3.30208,-4.51562 2.78125,-4.04688 C2.21875,-3.56771 1.8125,-2.96354 1.5625,-2.23438 C1.8125,-2.33854 2.04167,-2.39062 2.25,-2.39062 C2.79167,-2.39062 3.26042,-2.19271 3.65625,-1.79688 C4.04167,-1.38021 4.23438,-0.90625 4.23438,-0.375 C4.23438,0.1875 4.04688,0.692708 3.67188,1.14062 C3.26562,1.53646 2.79167,1.73438 2.25,1.73438 C1.66667,1.73438 1.14062,1.53646 0.671875,1.14062 C0.223958,0.692708 0,0.1875 0,-0.375 C0,-1.71875 0.458333,-2.86458 1.375,-3.8125 C2.27083,-4.77083 3.36458,-5.25 4.65625,-5.25"/>
<path class="Clef" transform="matrix(0.992126,0,0,0.992126,50.0961,117.071)" d="M7.34375,-5.125 C7.34375,-5.125 7.38542,-5.125 7.46875,-5.125 C7.52083,-5.13542 7.5625,-5.14062 7.59375,-5.14062 C9.05208,-5.14062 10.25,-4.625 11.1875,-3.59375 C12.125,-2.58333 12.5938,-1.40104 12.5938,-0.046875 C12.5938,1.64062 11.901,3.01042 10.5156,4.0625 C10.151,4.35417 9.67188,4.58854 9.07812,4.76562 C9.15104,5.60938 9.1875,6.29167 9.1875,6.8125 C9.1875,6.91667 9.17188,7.29688 9.14062,7.95312 C9.08854,9.16146 8.67188,10.2083 7.89062,11.0938 C7.14062,11.9688 6.20312,12.4062 5.07812,12.4062 C4.02604,12.4062 3.13021,12.0365 2.39062,11.2969 C1.64062,10.5365 1.26562,9.625 1.26562,8.5625 C1.26562,8 1.48438,7.52083 1.92188,7.125 C2.35938,6.73958 2.86979,6.54688 3.45312,6.54688 C3.97396,6.54688 4.41146,6.75 4.76562,7.15625 C5.13021,7.53125 5.3125,8 5.3125,8.5625 C5.3125,9.0625 5.13021,9.49479 4.76562,9.85938 C4.40104,10.224 3.96354,10.4062 3.45312,10.4062 C3.24479,10.4062 3.04688,10.3698 2.85938,10.2969 C3.43229,11.1406 4.19271,11.5625 5.14062,11.5625 C6.03646,11.5625 6.77083,11.1979 7.34375,10.4688 C7.94792,9.71875 8.27604,8.83854 8.32812,7.82812 C8.34896,7.20312 8.35938,6.84896 8.35938,6.76562 C8.35938,6.03646 8.33333,5.4375 8.28125,4.96875 C7.63542,5.07292 7.05729,5.125 6.54688,5.125 C4.73438,5.125 3.19271,4.40625 1.92188,2.96875 C0.671875,1.52083 0.046875,-0.197917 0.046875,-2.1875 C0.046875,-2.60417 0.0833333,-3.02604 0.15625,-3.45312 C0.239583,-3.80729 0.338542,-4.19271 0.453125,-4.60938 C0.515625,-4.84896 0.692708,-5.22917 0.984375,-5.75 C1.08854,-5.90625 1.20573,-6.10156 1.33594,-6.33594 C1.46615,-6.57031 1.55729,-6.72396 1.60938,-6.79688 C1.73438,-7.05729 1.98438,-7.41146 2.35938,-7.85938 C2.46354,-7.97396 2.57292,-8.10156 2.6875,-8.24219 C2.80208,-8.38281 2.89844,-8.5 2.97656,-8.59375 C3.05469,-8.6875 3.11198,-8.76042 3.14844,-8.8125 C3.1849,-8.86458 3.47917,-9.20833 4.03125,-9.84375 C4.15625,-9.97917 4.28125,-10.1198 4.40625,-10.2656 C4.53125,-10.4115 4.63281,-10.5286 4.71094,-10.6172 C4.78906,-10.7057 4.84896,-10.7656 4.89062,-10.7969 C4.42188,-12.349 4.125,-13.5885 4,-14.5156 C3.91667,-15.2552 3.875,-16.2708 3.875,-17.5625 C3.875,-18.6979 4.13542,-19.7604 4.65625,-20.75 C5.15625,-21.7708 5.86458,-22.6094 6.78125,-23.2656 C6.84375,-23.3073 6.90625,-23.3281 6.96875,-23.3281 C7.0625,-23.3281 7.13021,-23.3073 7.17188,-23.2656 C7.86979,-22.4219 8.47396,-21.3229 8.98438,-19.9688 C9.50521,-18.6146 9.76562,-17.3802 9.76562,-16.2656 C9.76562,-15.0156 9.46875,-13.8438 8.875,-12.75 C8.19792,-11.5938 7.32292,-10.3958 6.25,-9.15625 C6.52083,-8.30208 6.88542,-6.95833 7.34375,-5.125 M9,3.96875 C9.67708,3.71875 10.2083,3.29688 10.5938,2.70312 C11.0104,2.13021 11.2188,1.48438 11.2188,0.765625 C11.2188,-0.161458 10.9062,-0.984375 10.2812,-1.70312 C9.63542,-2.44271 8.81771,-2.85938 7.82812,-2.95312 C8.39062,-0.203125 8.78125,2.10417 9,3.96875 M1.45312,-0.546875 C1.45312,0.744792 1.97396,1.88021 3.01562,2.85938 C4.07812,3.80729 5.27604,4.28125 6.60938,4.28125 C7.15104,4.28125 7.68229,4.23958 8.20312,4.15625 C7.99479,2.17708 7.58333,-0.192708 6.96875,-2.95312 C6.22917,-2.86979 5.64062,-2.60938 5.20312,-2.17188 C4.76562,-1.71354 4.54688,-1.19792 4.54688,-0.625 C4.54688,0.364583 5.07812,1.16667 6.14062,1.78125 C6.22396,1.875 6.26562,1.97396 6.26562,2.07812 C6.26562,2.18229 6.22396,2.27604 6.14062,2.35938 C6.05729,2.45312 5.95833,2.5 5.84375,2.5 C5.83333,2.5 5.77604,2.48958 5.67188,2.46875 C4.92188,2.0625 4.34896,1.54167 3.95312,0.90625 C3.56771,0.21875 3.375,-0.46875 3.375,-1.15625 C3.375,-2.05208 3.65625,-2.86458 4.21875,-3.59375 C4.80208,-4.32292 5.5625,-4.79167 6.5,-5 C6.13542,-6.45833 5.83854,-7.59896 5.60938,-8.42188 C5.40104,-8.18229 5.15104,-7.89844 4.85938,-7.57031 C4.56771,-7.24219 4.39583,-7.04167 4.34375,-6.96875 C3.875,-6.36458 3.51562,-5.89062 3.26562,-5.54688 C2.81771,-4.93229 2.48958,-4.40625 2.28125,-3.96875 C2.0625,-3.46875 1.86979,-2.92708 1.70312,-2.34375 C1.53646,-1.78125 1.45312,-1.18229 1.45312,-0.546875 M7.96875,-20.4062 C6.98958,-19.9271 6.22396,-19.2396 5.67188,-18.3438 C5.09896,-17.4167 4.8125,-16.4219 4.8125,-15.3594 C4.8125,-14.4219 5.04688,-13.1562 5.51562,-11.5625 C6.45312,-12.6979 7.15625,-13.7448 7.625,-14.7031 C8.11458,-15.724 8.35938,-16.7865 8.35938,-17.8906 C8.35938,-18.724 8.22917,-19.5625 7.96875,-20.4062"/>
<path class="TimeSig" transform="matrix(0.992126,0,0,0.992126,67.8815,159.236)" d="M4.5,-4.75 C4.88542,-4.75 5.21615,-4.79427 5.49219,-4.88281 C5.76823,-4.97135 5.94271,-5.01562 6.01562,-5.01562 C6.10938,-5.01562 6.18229,-4.98958 6.23438,-4.9375 C6.27604,-4.90625 6.30208,-4.86458 6.3125,-4.8125 C6.3125,-4.78125 6.29688,-4.73958 6.26562,-4.6875 L0.59375,1.92188 L3.92188,1.92188 L3.92188,-0.703125 C3.92188,-0.869792 3.96875,-1.01562 4.0625,-1.14062 C4.21875,-1.26562 4.34896,-1.34375 4.45312,-1.375 C4.61979,-1.44792 4.82812,-1.63021 5.07812,-1.92188 C5.28646,-2.15104 5.53646,-2.55729 5.82812,-3.14062 C5.85938,-3.22396 5.91667,-3.26562 6,-3.26562 C6.15625,-3.26562 6.24479,-3.17188 6.26562,-2.98438 L6.26562,1.92188 L7.70312,1.92188 C7.88021,1.92188 7.98438,2.01562 8.01562,2.20312 C8.01562,2.40104 7.91146,2.5 7.70312,2.5 L6.26562,2.5 L6.26562,2.65625 C6.26562,3.17708 6.39583,3.61979 6.65625,3.98438 C6.95833,4.34896 7.3125,4.53125 7.71875,4.53125 C7.875,4.53125 7.95312,4.60938 7.95312,4.76562 C7.95312,4.92188 7.875,5 7.71875,5 C7.44792,5 7.00521,4.96354 6.39062,4.89062 C5.82812,4.79688 5.39062,4.75 5.07812,4.75 C4.75521,4.75 4.31771,4.79688 3.76562,4.89062 C3.18229,4.96354 2.75,5 2.46875,5 C2.3125,5 2.23438,4.92188 2.23438,4.76562 C2.23438,4.60938 2.3125,4.53125 2.46875,4.53125 C2.86458,4.53125 3.21354,4.34375 3.51562,3.96875 C3.78646,3.58333 3.92188,3.11979 3.92188,2.57812 L0.59375,2.57812 C0.364583,2.57812 0.208333,2.51562 0.125,2.39062 C0.0104167,2.30729 -0.046875,2.1875 -0.046875,2.03125 C-0.046875,1.98958 0.0520833,1.85417 0.25,1.625 C0.479167,1.36458 0.713542,1.04688 0.953125,0.671875 C1.24479,0.223958 1.52083,-0.234375 1.78125,-0.703125 C2.0625,-1.23438 2.29167,-1.84896 2.46875,-2.54688 C2.65625,-3.24479 2.75,-3.95833 2.75,-4.6875 C2.75,-4.89583 2.84375,-5 3.03125,-5 C3.07292,-5 3.15625,-4.97917 3.28125,-4.9375 C3.32292,-4.92708 3.40625,-4.90885 3.53125,-4.88281 C3.65625,-4.85677 3.75521,-4.83333 3.82812,-4.8125 C4.06771,-4.77083 4.29167,-4.75 4.5,-4.75"/>
<path class="TimeSig" transform="matrix(0.992126,0,0,0.992126,67.8815,169.157)" d="M4.5,-4.75 C4.88542,-4.75 5.21615,-4.79427 5.49219,-4.88281 C5.76823,-4.97135 5.94271,-5.01562 6.01562,-5.01562 C6.10938,-5.01562 6.18229,-4.98958 6.23438,-4.9375 C6.27604,-4.90625 6.30208,-4.86458 6.3125,-4.8125 C6.3125,-4.78125 6.29688,-4.73958 6.26562,-4.6875 L0.59375,1.92188 L3.92188,1.92188 L3.92188,-0.703125 C3.92188,-0.869792 3.96875,-1.01562 4.0625,-1.14062 C4.21875,-1.26562 4.34896,-1.34375 4.45312,-1.375 C4.61979,-1.44792 4.82812,-1.63021 5.07812,-1.92188 C5.28646,-2.15104 5.53646,-2.55729 5.82812,-3.14062 C5.85938,-3.22396 5.91667,-3.26562 6,-3.26562 C6.15625,-3.26562 6.24479,-3.17188 6.26562,-2.98438 L6.26562,1.92188 L7.70312,1.92188 C7.88021,1.92188 7.98438,2.01562 8.01562,2.20312 C8.01562,2.40104 7.91146,2.5 7.70312,2.5 L6.26562,2.5 L6.26562,2.65625 C6.26562,3.17708 6.39583,3.61979 6.65625,3.98438 C6.95833,4.34896 7.3125,4.53125 7.71875,4.53125 C7.875,4.53125 7.95312,4.60938 7.95312,4.76562 C7.95312,4.92188 7.875,5 7.71875,5 C7.44792,5 7.00521,4.96354 6.39062,4.89062 C5.82812,4.79688 5.39062,4.75 5.07812,4.75 C4.75521,4.75 4.31771,4.79688 3.76562,4.89062 C3.18229,4.96354 2.75,5 2.46875,5 C2.3125,5 2.23438,4.92188 2.23438,4.76562 C2.23438,4.60938 2.3125,4.53125 2.46875,4.53125 C2.86458,4.53125 3.21354,4.34375 3.51562,3.96875 C3.78646,3.58333 3.92188,3.11979 3.92188,2.57812 L0.59375,2.57812 C0.364583,2.57812 0.208333,2.51562 0.125,2.39062 C0.0104167,2.30729 -0.046875,2.1875 -0.046875,2.03125 C-0.046875,1.98958 0.0520833,1.85417 0.25,1.625 C0.479167,1.36458 0.713542,1.04688 0.953125,0.671875 C1.24479,0.223958 1.52083,-0.234375 1.78125,-0.703125 C2.0625,-1.23438 2.29167,-1.84896 2.46875,-2.54688 C2.65625,-3.24479 2.75,-3.95833 2.75,-4.6875 C2.75,-4.89583 2.84375,-5 3.03125,-5 C3.07292,-5 3.15625,-4.97917 3.28125,-4.9375 C3.32292,-4.92708 3.40625,-4.90885 3.53125,-4.88281 C3.65625,-4.85677 3.75521,-4.83333 3.82812,-4.8125 C4.06771,-4.77083 4.29167,-4.75 4.5,-4.75"/>
<path class="TimeSig" transform="matrix(0.992126,0,0,0.992126,67.8815,107.15)" d="M4.5,-4.75 C4.88542,-4.75 5.21615,-4.79427 5.49219,-4.88281 C5.76823,-4.97135 5.94271,-5.01562 6.01562,-5.01562 C6.10938,-5.01562 6.18229,-4.98958 6.23438,-4.9375 C6.27604,-4.90625 6.30208,-4.86458 6.3125,-4.8125 C6.3125,-4.78125 6.29688,-4.73958 6.26562,-4.6875 L0.59375,1.92188 L3.92188,1.92188 L3.92188,-0.703125 C3.92188,-0.869792 3.96875,-1.01562 4.0625,-1.14062 C4.21875,-1.26562 4.34896,-1.34375 4.45312,-1.375 C4.61979,-1.44792 4.82812,-1.63021 5.07812,-1.92188 C5.28646,-2.15104 5.53646,-2.55729 5.82812,-3.14062 C5.85938,-3.22396 5.91667,-3.26562 6,-3.26562 C6.15625,-3.26562 6.24479,-3.17188 6.26562,-2.98438 L6.26562,1.92188 L7.70312,1.92188 C7.88021,1.92188 7.98438,2.01562 8.01562,2.20312 C8.01562,2.40104 7.91146,2.5 7.70312,2.5 L6.26562,2.5 L6.26562,2.65625 C6.26562,3.17708 6.39583,3.61979 6.65625,3.98438 C6.95833,4.34896 7.3125,4.53125 7.71875,4.53125 C7.875,4.53125 7.95312,4.60938 7.95312,4.76562 C7.95312,4.92188 7.875,5 7.71875,5 C7.44792,5 7.00521,4.96354 6.39062,4.89062 C5.82812,4.79688 5.39062,4.75 5.07812,4.75 C4.75521,4.75 4.31771,4.79688 3.76562,4.89062 C3.18229,4.96354 2.75,5 2.46875,5 C2.3125,5 2.23438,4.92188 2.23438,4.76562 C2.23438,4.60938 2.3125,4.53125 2.46875,4.53125 C2.86458,4.53125 3.21354,4.34375 3.51562,3.96875 C3.78646,3.58333 3.92188,3.11979 3.92188,2.57812 L0.59375,2.57812 C0.364583,2.57812 0.208333,2.51562 0.125,2.39062 C0.0104167,2.30729 -0.046875,2.1875 -0.046875,2.03125 C-0.046875,1.98958 0.0520833,1.85417 0.25,1.625 C0.479167,1.36458 0.713542,1.04688 0.953125,0.671875 C1.24479,0.223958 1.52083,-0.234375 1.78125,-0.703125 C2.0625,-1.23438 2.29167,-1.84896 2.46875,-2.54688 C2.65625,-3.24479 2.75,-3.95833 2.75,-4.6875 C2.75,-4.89583 2.84375,-5 3.03125,-5 C3.07292,-5 3.15625,-4.97917 3.28125,-4.9375 C3.32292,-4.92708 3.40625,-4.90885 3.53125,-4.88281 C3.65625,-4.85677 3.75521,-4.83333 3.82812,-4.8125 C4.06771,-4.77083 4.29167,-4.75 4.5,-4.75"/>
<path class="TimeSig" transform="matrix(0.992126,0,0,0.992126,67.8815,117.071)" d="M4.5,-4.75 C4.88542,-4.75 5.21615,-4.79427 5.49219,-4.88281 C5.76823,-4.97135 5.94271,-5.01562 6.01562,-5.01562 C6.10938,-5.01562 6.18229,-4.98958 6.23438,-4.9375 C6.27604,-4.90625 6.30208,-4.86458 6.3125,-4.8125 C6.3125,-4.78125 6.29688,-4.73958 6.26562,-4.6875 L0.59375,1.92188 L3.92188,1.92188 L3.92188,-0.703125 C3.92188,-0.869792 3.96875,-1.01562 4.0625,-1.14062 C4.21875,-1.26562 4.34896,-1.34375 4.45312,-1.375 C4.61979,-1.44792 4.82812,-1.63021 5.07812,-1.92188 C5.28646,-2.15104 5.53646,-2.55729 5.82812,-3.14062 C5.85938,-3.22396 5.91667,-3.26562 6,-3.26562 C6.15625,-3.26562 6.24479,-3.17188 6.26562,-2.98438 L6.26562,1.92188 L7.70312,1.92188 C7.88021,1.92188 7.98438,2.01562 8.01562,2.20312 C8.01562,2.40104 7.91146,2.5 7.70312,2.5 L6.26562,2.5 L6.26562,2.65625 C6.26562,3.17708 6.39583,3.61979 6.65625,3.98438 C6.95833,4.34896 7.3125,4.53125 7.71875,4.53125 C7.875,4.53125 7.95312,4.60938 7.95312,4.76562 C7.95312,4.92188 7.875,5 7.71875,5 C7.44792,5 7.00521,4.96354 6.39062,4.89062 C5.82812,4.79688 5.39062,4.75 5.07812,4.75 C4.75521,4.75 4.31771,4.79688 3.76562,4.89062 C3.18229,4.96354 2.75,5 2.46875,5 C2.3125,5 2.23438,4.92188 2.23438,4.76562 C2.23438,4.60938 2.3125,4.53125 2.46875,4.53125 C2.86458,4.53125 3.21354,4.34375 3.51562,3.96875 C3.78646,3.58333 3.92188,3.11979 3.92188,2.57812 L0.59375,2.57812 C0.364583,2.57812 0.208333,2.51562 0.125,2.39062 C0.0104167,2.30729 -0.046875,2.1875 -0.046875,2.03125 C-0.046875,1.98958 0.0520833,1.85417 0.25,1.625 C0.479167,1.36458 0.713542,1.04688 0.953125,0.671875 C1.24479,0.223958 1.52083,-0.234375 1.78125,-0.703125 C2.0625,-1.23438 2.29167,-1.84896 2.46875,-2.54688 C2.65625,-3.24479 2.75,-3.95833 2.75,-4.6875 C2.75,-4.89583 2.84375,-5 3.03125,-5 C3.07292,-5 3.15625,-4.97917 3.28125,-4.9375 C3.32292,-4.92708 3.40625,-4.90885 3.53125,-4.88281 C3.65625,-4.85677 3.75521,-4.83333 3.82812,-4.8125 C4.06771,-4.77083 4.29167,-4.75 4.5,-4.75"/>
<path class="Rest" transform="matrix(0.992126,0,0,0.992126,198.774,253.488)" d="M7.3125,3.125 L0.203125,3.125 C0.0677083,3.125 0,3.0625 0,2.9375 L0,0.203125 C0,0.0677083 0.0677083,0 0.203125,0 L7.3125,0 C7.4375,0 7.5,0.0677083 7.5,0.203125 L7.5,2.9375 C7.5,3.0625 7.4375,3.125 7.3125,3.125"/>
<path class="Rest" transform="matrix(0.992126,0,0,0.992126,504.349,112.11)" d="M7.3125,0 L0.203125,0 C0.0677083,0 0,-0.0677083 0,-0.203125 L0,-2.9375 C0,-3.0625 0.0677083,-3.125 0.203125,-3.125 L7.3125,-3.125 C7.4375,-3.125 7.5,-3.0625 7.5,-2.9375 L7.5,-0.203125 C7.5,-0.0677083 7.4375,0 7.3125,0"/>
<path class="Rest" transform="matrix(0.992126,0,0,0.992126,326.352,159.236)" d="M7.3125,3.125 L0.203125,3.125 C0.0677083,3.125 0,3.0625 0,2.9375 L0,0.203125 C0,0.0677083 0.0677083,0 0.203125,0 L7.3125,0 C7.4375,0 7.5,0.0677083 7.5,0.203125 L7.5,2.9375 C7.5,3.0625 7.4375,3.125 7.3125,3.125"/>
<path class="Rest" transform="matrix(0.992126,0,0,0.992126,202.949,107.15)" d="M7.3125,3.125 L0.203125,3.125 C0.0677083,3.125 0,3.0625 0,2.9375 L0,0.203125 C0,0.0677083 0.0677083,0 0.203125,0 L7.3125,0 C7.4375,0 7.5,0.0677083 7.5,0.203125 L7.5,2.9375 C7.5,3.0625 7.4375,3.125 7.3125,3.125"/>
<path class="Rest" transform="matrix(0.992126,0,0,0.992126,84.4996,159.236)" d="M7.3125,3.125 L0.203125,3.125 C0.0677083,3.125 0,3.0625 0,2.9375 L0,0.203125 C0,0.0677083 0.0677083,0 0.203125,0 L7.3125,0 C7.4375,0 7.5,0.0677083 7.5,0.203125 L7.5,2.9375 C7.5,3.0625 7.4375,3.125 7.3125,3.125"/>
<path class="StaffText" d="M95.2809,84.4402 C95.2496,85.2215 95.234,86.0496 95.234,86.9246 L95.234,91.5652 C95.234,92.3777 95.2496,93.2527 95.2809,94.1902 L94.2965,94.1902 L94.2965,93.2996 L86.6559,93.2996 L86.6559,94.284 L85.6715,94.284 C85.7028,93.284 85.7184,92.3465 85.7184,91.4715 L85.7184,86.9246 C85.7184,86.1433 85.7028,85.3152 85.6715,84.4402 L95.2809,84.4402 M94.2965,92.5027 L94.2965,85.1902 L91.9528,85.1902 L91.9528,89.1746 C91.9528,89.5183 92.109,89.6902 92.4215,89.6902 C92.734,89.6902 93.234,89.6746 93.9215,89.6433 C93.7653,89.9871 93.6715,90.284 93.6403,90.534 C92.8278,90.534 92.2106,90.5262 91.7887,90.5105 C91.3668,90.4949 91.1246,90.2058 91.0621,89.6433 L91.0621,85.1902 L89.8434,85.1902 C89.8434,86.8152 89.6637,88.0262 89.3043,88.823 C88.945,89.6199 88.4059,90.3777 87.6871,91.0965 C87.5309,90.8777 87.2653,90.6746 86.8903,90.4871 C87.359,90.1433 87.7496,89.7371 88.0621,89.2683 C88.3746,88.7996 88.6012,88.284 88.7418,87.7215 C88.8825,87.159 88.9528,86.3152 88.9528,85.1902 L86.6559,85.1902 L86.6559,92.5027 L94.2965,92.5027 M102.922,84.2996 C104.234,86.2371 105.937,87.5183 108.031,88.1433 C107.718,88.5183 107.484,88.8777 107.328,89.2215 C105.297,88.3465 103.656,86.9558 102.406,85.0496 C101.25,86.8933 99.7028,88.3308 97.7653,89.3621 C97.609,89.0808 97.3434,88.784 96.9684,88.4715 C98.4684,87.8465 99.6325,87.0496 100.461,86.0808 C101.289,85.1121 101.843,84.2371 102.125,83.4558 C102.5,83.6121 102.875,83.7527 103.25,83.8777 C103.125,84.034 103.015,84.1746 102.922,84.2996 M101.984,88.9402 C101.984,88.4402 101.953,87.7996 101.89,87.0183 L102.968,87.0183 C102.937,87.5496 102.922,88.2058 102.922,88.9871 L102.922,92.3152 C102.922,93.034 102.937,93.7683 102.968,94.5183 L101.937,94.5183 C101.968,93.7371 101.984,93.0183 101.984,92.3621 L101.984,88.9402 M118.062,89.409 C118.031,89.8777 118.015,90.3465 118.015,90.8152 L118.015,92.6433 C118.015,93.2683 118.031,93.8777 118.062,94.4715 L117.031,94.4715 L117.031,93.8152 L111.922,93.8152 L111.922,94.5183 L110.937,94.5183 C110.968,93.8621 110.984,93.159 110.984,92.409 L110.984,90.8152 C110.984,90.409 110.968,89.9402 110.937,89.409 L118.062,89.409 M116.281,85.7527 C116.687,85.9402 117.047,86.0808 117.359,86.1746 C117.14,86.5183 116.976,86.7918 116.867,86.9949 C116.757,87.198 116.625,87.4558 116.468,87.7683 L117.968,87.7683 C118.593,87.7683 119.187,87.7527 119.75,87.7215 L119.75,88.5183 C119.187,88.4871 118.593,88.4715 117.968,88.4715 L111.078,88.4715 C110.453,88.4715 109.859,88.4871 109.297,88.5183 L109.297,87.7215 C109.89,87.7527 110.484,87.7683 111.078,87.7683 L112.437,87.7683 C112.187,87.1121 111.906,86.5808 111.593,86.1746 C111.875,86.0183 112.14,85.8621 112.39,85.7058 C112.797,86.3308 113.14,86.8777 113.422,87.3465 C113.203,87.4715 112.968,87.6121 112.718,87.7683 L115.531,87.7683 C115.906,86.9246 116.156,86.2527 116.281,85.7527 M114.593,83.4558 C114.812,84.0183 114.953,84.4871 115.015,84.8621 L117.406,84.8621 C117.843,84.8621 118.359,84.8465 118.953,84.8152 L118.953,85.6121 C118.328,85.5808 117.812,85.5652 117.406,85.5652 L111.547,85.5652 C110.953,85.5652 110.375,85.5808 109.812,85.6121 L109.812,84.8152 C110.375,84.8465 110.953,84.8621 111.547,84.8621 L113.937,84.8621 C113.906,84.4871 113.781,84.0965 113.562,83.6902 C113.906,83.6277 114.25,83.5496 114.593,83.4558 M117.031,93.1121 L117.031,91.9871 L111.922,91.9871 L111.922,93.1121 L117.031,93.1121 M117.031,91.284 L117.031,90.159 L111.922,90.159 L111.922,91.284 L117.031,91.284 M126.453,85.1902 C126.765,84.4715 126.953,83.9402 127.015,83.5965 C127.515,83.8152 127.875,83.9558 128.093,84.0183 C127.937,84.1433 127.703,84.534 127.39,85.1902 L129.922,85.1902 C130.578,85.1902 131.093,85.1746 131.468,85.1433 L131.468,85.9871 C131.062,85.9558 130.593,85.9402 130.062,85.9402 L127.015,85.9402 C126.859,86.2527 126.484,86.8933 125.89,87.8621 L127.765,87.8621 C127.765,87.2683 127.75,86.7683 127.718,86.3621 L128.656,86.3621 C128.625,86.7058 128.609,87.2058 128.609,87.8621 C130.172,87.8621 131,87.8465 131.093,87.8152 L131.093,88.7058 C130.906,88.6433 130.078,88.6121 128.609,88.6121 L128.609,90.159 L130.343,90.159 C131.031,90.159 131.468,90.1433 131.656,90.1121 L131.656,90.9558 C131.281,90.9246 130.843,90.909 130.343,90.909 L128.609,90.909 C128.609,91.784 128.625,92.5496 128.656,93.2058 L127.718,93.2058 C127.75,92.5496 127.765,91.784 127.765,90.909 C125.609,90.909 124.422,90.9246 124.203,90.9558 L124.203,90.1121 C125.047,90.1433 126.234,90.159 127.765,90.159 L127.765,88.6121 L126.265,88.6121 C125.578,88.6433 125.14,88.6902 124.953,88.7527 L124.625,87.909 C124.875,87.7527 125.117,87.5183 125.351,87.2058 C125.586,86.8933 125.828,86.4715 126.078,85.9402 C125.265,85.9402 124.64,85.9558 124.203,85.9871 L124.203,85.1433 C124.609,85.1746 125.359,85.1902 126.453,85.1902 M123.547,87.8621 C123.515,88.4871 123.5,89.0027 123.5,89.409 L123.5,92.3152 C124.406,93.0965 125.797,93.4871 127.672,93.4871 C129.578,93.4871 131.047,93.4402 132.078,93.3465 C131.89,93.659 131.765,94.0027 131.703,94.3777 C130.453,94.3777 129.328,94.3699 128.328,94.3543 C127.328,94.3387 126.437,94.2605 125.656,94.1199 C124.875,93.9793 124.257,93.7527 123.804,93.4402 C123.351,93.1277 122.984,93.1043 122.703,93.3699 C122.422,93.6355 122.109,93.9715 121.765,94.3777 C121.578,94.1277 121.328,93.8933 121.015,93.6746 C121.734,93.0808 122.25,92.6746 122.562,92.4558 L122.562,88.6121 C122.156,88.6121 121.718,88.6277 121.25,88.659 L121.25,87.8152 C121.75,87.8465 122.203,87.8621 122.609,87.8621 L123.547,87.8621 M122.328,84.0652 C122.922,84.909 123.422,85.659 123.828,86.3152 C123.547,86.409 123.25,86.5652 122.937,86.784 C122.781,86.3152 122.312,85.5965 121.531,84.6277 C121.812,84.3777 122.078,84.1902 122.328,84.0652 M138.968,85.284 C138.968,84.8152 138.922,84.2996 138.828,83.7371 C139.234,83.7683 139.656,83.8152 140.093,83.8777 C140,84.0652 139.937,84.3699 139.906,84.7918 C139.875,85.2137 139.875,85.8152 139.906,86.5965 L141.5,86.3152 C142.031,86.1902 142.562,86.0496 143.093,85.8933 L143.281,86.784 C142.75,86.8465 142.203,86.9246 141.64,87.0183 L139.953,87.3465 C139.953,87.8465 139.984,88.284 140.047,88.659 L141.875,88.3308 C142.5,88.2058 143.093,88.0496 143.656,87.8621 L143.797,88.7527 C143.234,88.8465 142.64,88.9558 142.015,89.0808 L140.187,89.409 C140.25,90.034 140.406,90.6121 140.656,91.1433 C140.937,90.9246 141.211,90.6746 141.476,90.3933 C141.742,90.1121 141.984,89.7996 142.203,89.4558 C142.672,89.8308 143.031,90.0808 143.281,90.2058 C142.875,90.3933 142.554,90.6043 142.32,90.8387 C142.086,91.073 141.703,91.4402 141.172,91.9402 C141.547,92.5652 141.882,92.9637 142.179,93.1355 C142.476,93.3074 142.687,93.3152 142.812,93.159 C142.937,93.0027 143.047,92.6746 143.14,92.1746 C143.422,92.3933 143.75,92.5652 144.125,92.6902 C143.593,94.0652 143.015,94.6199 142.39,94.3543 C141.765,94.0887 141.109,93.4715 140.422,92.5027 C139.984,92.8465 139.554,93.1668 139.132,93.4637 C138.711,93.7605 138.187,94.0652 137.562,94.3777 C137.406,94.0652 137.172,93.784 136.859,93.534 C137.484,93.3152 138.015,93.0808 138.453,92.8308 C138.89,92.5808 139.39,92.2215 139.953,91.7527 C139.672,91.1277 139.468,90.3933 139.343,89.5496 C138.406,89.7058 137.75,89.8465 137.375,89.9715 L137.234,89.0808 C137.609,89.0808 138.25,88.9871 139.156,88.7996 C139.093,88.2996 139.062,87.8777 139.062,87.534 C138.218,87.7215 137.64,87.8621 137.328,87.9558 L137.14,87.0652 C137.453,87.0652 138.062,86.9715 138.968,86.784 L138.968,85.284 M136.156,84.2058 C135.843,84.4871 135.539,84.8855 135.242,85.4012 C134.945,85.9168 134.547,86.5496 134.047,87.2996 C134.797,87.2683 135.312,87.2527 135.593,87.2527 C135.875,86.784 136.125,86.2683 136.343,85.7058 C136.656,85.9246 137,86.0965 137.375,86.2215 C137.062,86.534 136.742,86.9558 136.414,87.4871 C136.086,88.0183 135.515,88.9246 134.703,90.2058 C135.547,90.1433 136.297,90.0808 136.953,90.0183 C136.859,90.3308 136.812,90.5965 136.812,90.8152 C136.593,90.8152 136.109,90.8543 135.359,90.9324 C134.609,91.0105 134,91.1121 133.531,91.2371 C133.5,90.9246 133.406,90.5965 133.25,90.2527 C133.625,90.159 133.968,89.909 134.281,89.5027 C134.593,89.0965 134.922,88.5808 135.265,87.9558 C134.234,88.0183 133.578,88.1433 133.297,88.3308 C133.203,87.9871 133.062,87.6433 132.875,87.2996 C133.281,87.0183 133.672,86.5574 134.047,85.9168 C134.422,85.2762 134.765,84.534 135.078,83.6902 C135.39,83.909 135.75,84.0808 136.156,84.2058 M137.328,91.7058 C137.297,92.0496 137.297,92.3152 137.328,92.5027 C136.547,92.659 135.843,92.8152 135.218,92.9715 C134.593,93.1277 134.015,93.2996 133.484,93.4871 C133.39,93.1433 133.218,92.7996 132.968,92.4558 C133.843,92.3621 134.515,92.2762 134.984,92.198 C135.453,92.1199 136.234,91.9558 137.328,91.7058 M141.593,85.7996 C141.375,85.4558 141.078,85.0496 140.703,84.5808 L141.453,84.2058 C141.578,84.3621 141.89,84.7371 142.39,85.3308 C142.078,85.4558 141.812,85.6121 141.593,85.7996 M155.703,89.034 C155.672,89.8465 155.656,90.7215 155.656,91.659 C155.656,92.5652 155.672,93.3777 155.703,94.0965 L154.718,94.0965 L154.718,93.2527 L150.593,93.2527 L150.593,94.2371 L149.609,94.2371 C149.64,93.4558 149.656,92.5808 149.656,91.6121 C149.656,90.6121 149.64,89.7527 149.609,89.034 L155.703,89.034 M147.593,85.284 C147.593,84.8465 147.547,84.284 147.453,83.5965 L148.578,83.5965 C148.515,84.284 148.484,84.8621 148.484,85.3308 L148.484,92.8308 C148.484,93.1433 148.5,93.6746 148.531,94.4246 L147.5,94.4246 C147.562,93.8621 147.593,93.3308 147.593,92.8308 L147.593,85.284 M152.375,84.0652 C152.093,84.284 151.875,84.534 151.718,84.8152 C151.562,85.0965 151.422,85.3465 151.297,85.5652 L154.109,85.5652 C154.578,85.5652 155.125,85.534 155.75,85.4715 L155.75,86.409 C155.218,86.3465 154.703,86.3152 154.203,86.3152 L150.968,86.3152 C150.406,87.159 149.922,87.8152 149.515,88.284 C149.203,88.0027 148.937,87.8152 148.718,87.7215 C149.343,87.0965 149.867,86.3777 150.289,85.5652 C150.711,84.7527 150.984,84.0965 151.109,83.5965 C151.547,83.784 151.968,83.9402 152.375,84.0652 M146.422,85.1433 C146.359,85.7058 146.328,86.2215 146.328,86.6902 L146.328,91.0965 C146.328,91.5965 146.359,92.2371 146.422,93.0183 L145.343,93.0183 C145.406,92.2371 145.437,91.5965 145.437,91.0965 L145.437,86.7371 C145.437,86.4246 145.406,85.8933 145.343,85.1433 L146.422,85.1433 M153.078,89.784 L153.078,92.5027 L154.672,92.5027 L154.672,89.784 L153.078,89.784 M152.14,92.5027 L152.14,89.784 L150.593,89.784 L150.593,92.5027 L152.14,92.5027 M152.093,86.3621 C152.312,86.6121 152.64,86.9246 153.078,87.2996 C153.515,87.6746 153.828,88.0027 154.015,88.284 C153.64,88.5652 153.406,88.7683 153.312,88.8933 C152.781,88.2683 152.156,87.6121 151.437,86.9246 C151.656,86.7683 151.875,86.5808 152.093,86.3621 M161.234,84.7683 C161.203,85.8933 161.187,87.2527 161.187,88.8465 C161.187,90.4402 161.203,91.6902 161.234,92.5965 L160.25,92.5965 L160.25,91.7058 L158.375,91.7058 L158.375,93.2527 L157.39,93.2527 C157.422,91.8152 157.437,90.3777 157.437,88.9402 C157.437,87.4715 157.422,86.0808 157.39,84.7683 L161.234,84.7683 M165.64,86.1746 C165.64,85.2371 165.625,84.3621 165.593,83.5496 L166.625,83.5496 C166.593,84.3621 166.578,85.2371 166.578,86.1746 C167.047,86.1746 167.547,86.159 168.078,86.1277 L168.078,87.0183 C167.547,86.9871 167.047,86.9715 166.578,86.9715 L166.578,93.2527 C166.578,93.7215 166.39,94.0183 166.015,94.1433 C165.64,94.2683 165.156,94.3621 164.562,94.4246 C164.562,94.0496 164.39,93.6902 164.047,93.3465 C164.64,93.409 165.054,93.4246 165.289,93.3933 C165.523,93.3621 165.64,93.159 165.64,92.784 L165.64,86.9715 C164.078,86.9715 162.765,86.9871 161.703,87.0183 L161.703,86.1277 C162.703,86.159 164.015,86.1746 165.64,86.1746 M160.25,90.909 L160.25,88.5652 L158.375,88.5652 L158.375,90.909 L160.25,90.909 M160.25,87.7683 L160.25,85.5652 L158.375,85.5652 L158.375,87.7683 L160.25,87.7683 M163.156,88.2371 C163.562,88.8933 163.953,89.5965 164.328,90.3465 C164.015,90.4402 163.687,90.5808 163.343,90.7683 C163.093,90.0183 162.734,89.3152 162.265,88.659 C162.547,88.534 162.843,88.3933 163.156,88.2371 M175.25,84.7215 C174.843,84.784 174.25,84.9715 173.468,85.284 C173.468,86.0965 173.453,87.0183 173.422,88.0496 L176.187,88.0496 L176.187,85.3308 C176.187,84.7058 176.172,84.1902 176.14,83.784 L177.218,83.784 C177.187,84.1902 177.172,84.7058 177.172,85.3308 L177.172,88.0496 C178.484,88.0496 179.453,88.034 180.078,88.0027 L180.078,88.9402 C179.515,88.909 178.547,88.8933 177.172,88.8933 L177.172,92.5027 C177.172,93.0027 177.187,93.5965 177.218,94.284 L176.14,94.284 C176.172,93.6277 176.187,93.034 176.187,92.5027 L176.187,88.8933 L173.422,88.8933 C173.328,89.9871 172.968,90.9637 172.343,91.823 C171.718,92.6824 170.875,93.4715 169.812,94.1902 C169.656,93.909 169.359,93.659 168.922,93.4402 C169.64,93.1277 170.382,92.5418 171.148,91.6824 C171.914,90.823 172.328,89.8933 172.39,88.8933 L170.14,88.8933 C169.765,88.8933 169.359,88.909 168.922,88.9402 L168.922,88.0027 C169.359,88.034 169.765,88.0496 170.14,88.0496 L172.437,88.0496 C172.468,87.4246 172.484,86.5965 172.484,85.5652 C171.39,85.8465 170.656,86.0496 170.281,86.1746 C170.156,85.8308 169.937,85.534 169.625,85.284 C170.187,85.2215 170.945,85.0496 171.898,84.7683 C172.851,84.4871 173.672,84.1433 174.359,83.7371 L175.25,84.7215 M189.922,84.1121 C189.89,84.5808 189.875,85.1121 189.875,85.7058 C189.875,86.2996 189.89,86.8621 189.922,87.3933 L183.125,87.3933 C183.156,86.9558 183.172,86.4402 183.172,85.8465 C183.172,85.2215 183.156,84.6433 183.125,84.1121 L189.922,84.1121 M190.203,88.4246 C190.797,88.4246 191.328,88.409 191.797,88.3777 L191.797,89.2215 C191.328,89.1902 190.797,89.1746 190.203,89.1746 L185.093,89.1746 C184.968,89.6121 184.828,90.0965 184.672,90.6277 L190.203,90.6277 C190.109,91.1277 190.039,91.5496 189.992,91.8933 C189.945,92.2371 189.875,92.6512 189.781,93.1355 C189.687,93.6199 189.5,93.948 189.218,94.1199 C188.937,94.2918 188.047,94.4246 186.547,94.5183 C186.422,94.1746 186.265,93.8152 186.078,93.4402 C187.203,93.4715 187.914,93.4715 188.211,93.4402 C188.507,93.409 188.703,93.2449 188.797,92.948 C188.89,92.6512 188.984,92.1433 189.078,91.4246 L183.5,91.4246 C183.781,90.6746 184,89.9246 184.156,89.1746 L183.031,89.1746 C182.375,89.1746 181.765,89.1902 181.203,89.2215 L181.203,88.3777 C181.765,88.409 182.375,88.4246 183.031,88.4246 L190.203,88.4246 M188.984,86.6433 L188.984,84.8621 L184.062,84.8621 L184.062,86.6433 L188.984,86.6433 "/>
<path class="Bracket" fill-rule="evenodd" d="M44.0589,274.118 C44.0589,268.323 40.0677,262.691 40.0677,257.139 C40.0677,254.343 41.1562,251.628 44.5125,249.196 C44.5578,249.166 44.5805,249.115 44.5805,249.085 C44.5805,248.994 44.331,248.913 44.1496,248.913 C44.0589,248.913 43.9002,248.923 43.7868,248.994 C39.4328,252.114 37.9814,255.72 37.9814,259.368 C37.9814,265.243 42.2447,270.917 42.2447,276.55 C42.2447,279.346 41.1562,281.98 37.8,284.411 L37.8,284.492 L37.8,284.573 C41.1562,287.005 42.2447,289.639 42.2447,292.435 C42.2447,298.067 37.9814,303.741 37.9814,309.617 C37.9814,313.264 39.4328,316.87 43.7868,319.991 C43.9002,320.062 44.0589,320.072 44.1496,320.072 C44.331,320.072 44.5805,319.991 44.5805,319.9 C44.5805,319.869 44.5578,319.818 44.5125,319.788 C41.1562,317.357 40.0677,314.642 40.0677,311.845 C40.0677,306.294 44.0589,300.661 44.0589,294.866 C44.0589,291.179 42.6076,287.653 38.3443,284.492 C42.6076,281.331 44.0589,277.806 44.0589,274.118" id="36.2126,266.386 71.1592"/>
<path class="Bracket" fill-rule="evenodd" d="M44.0589,127.78 C44.0589,121.985 40.0677,116.352 40.0677,110.8 C40.0677,108.004 41.1562,105.289 44.5125,102.858 C44.5578,102.827 44.5805,102.777 44.5805,102.746 C44.5805,102.655 44.331,102.574 44.1496,102.574 C44.0589,102.574 43.9002,102.584 43.7868,102.655 C39.4328,105.775 37.9814,109.382 37.9814,113.029 C37.9814,118.905 42.2447,124.578 42.2447,130.211 C42.2447,133.007 41.1562,135.641 37.8,138.073 L37.8,138.154 L37.8,138.235 C41.1562,140.666 42.2447,143.3 42.2447,146.096 C42.2447,151.729 37.9814,157.402 37.9814,163.278 C37.9814,166.925 39.4328,170.532 43.7868,173.652 C43.9002,173.723 44.0589,173.733 44.1496,173.733 C44.331,173.733 44.5805,173.652 44.5805,173.561 C44.5805,173.531 44.5578,173.48 44.5125,173.449 C41.1562,171.018 40.0677,168.303 40.0677,165.507 C40.0677,159.955 44.0589,154.322 44.0589,148.528 C44.0589,144.84 42.6076,141.314 38.3443,138.154 C42.6076,134.993 44.0589,131.467 44.0589,127.78" id="36.2126,120.047 71.1592"/>
</svg>
