<?xml version="1.0" encoding="UTF-8" standalone="no"?>
<svg width="1011.97px" height="593.3px" viewBox="0 0 595.275 349"
 xmlns="http://www.w3.org/2000/svg" xmlns:xlink="http://www.w3.org/1999/xlink" version="1.2" baseProfile="tiny">
<title>34.小蜜蜂</title>
<desc>Generated by MuseScore 2.0.3</desc>
<polyline class="StaffLines" fill="none" stroke="#000000" stroke-width="0.40" stroke-linejoin="bevel" points="46.1339,102.189 559.558,102.189" x="46.1339" y="102.189" bx="46.1339" by="137.769" measure_no="0" elid="0" sysno="1" spatium="4.96063"/>
<polyline class="StaffLines" fill="none" stroke="#000000" stroke-width="0.40" stroke-linejoin="bevel" points="46.1339,107.15 559.558,107.15"/>
<polyline class="StaffLines" fill="none" stroke="#000000" stroke-width="0.40" stroke-linejoin="bevel" points="46.1339,112.11 559.558,112.11"/>
<polyline class="StaffLines" fill="none" stroke="#000000" stroke-width="0.40" stroke-linejoin="bevel" points="46.1339,117.071 559.558,117.071"/>
<polyline class="StaffLines" fill="none" stroke="#000000" stroke-width="0.40" stroke-linejoin="bevel" points="46.1339,122.032 559.558,122.032"/>
<polyline class="StaffLines" fill="none" stroke="#000000" stroke-width="0.40" stroke-linejoin="bevel" points="46.1339,154.276 559.558,154.276"/>
<polyline class="StaffLines" fill="none" stroke="#000000" stroke-width="0.40" stroke-linejoin="bevel" points="46.1339,159.236 559.558,159.236"/>
<polyline class="StaffLines" fill="none" stroke="#000000" stroke-width="0.40" stroke-linejoin="bevel" points="46.1339,164.197 559.558,164.197"/>
<polyline class="StaffLines" fill="none" stroke="#000000" stroke-width="0.40" stroke-linejoin="bevel" points="46.1339,169.157 559.558,169.157"/>
<polyline class="StaffLines" fill="none" stroke="#000000" stroke-width="0.40" stroke-linejoin="bevel" points="46.1339,174.118 559.558,174.118"/>
<polyline class="StaffLines" fill="none" stroke="#000000" stroke-width="0.40" stroke-linejoin="bevel" points="46.1339,248.528 559.558,248.528" x="46.1339" y="248.528" bx="46.1339" by="284.107" measure_no="4" elid="10" sysno="2" spatium="4.96063"/>
<polyline class="StaffLines" fill="none" stroke="#000000" stroke-width="0.40" stroke-linejoin="bevel" points="46.1339,253.488 559.558,253.488"/>
<polyline class="StaffLines" fill="none" stroke="#000000" stroke-width="0.40" stroke-linejoin="bevel" points="46.1339,258.449 559.558,258.449"/>
<polyline class="StaffLines" fill="none" stroke="#000000" stroke-width="0.40" stroke-linejoin="bevel" points="46.1339,263.409 559.558,263.409"/>
<polyline class="StaffLines" fill="none" stroke="#000000" stroke-width="0.40" stroke-linejoin="bevel" points="46.1339,268.37 559.558,268.37"/>
<polyline class="StaffLines" fill="none" stroke="#000000" stroke-width="0.40" stroke-linejoin="bevel" points="46.1339,300.614 559.558,300.614"/>
<polyline class="StaffLines" fill="none" stroke="#000000" stroke-width="0.40" stroke-linejoin="bevel" points="46.1339,305.575 559.558,305.575"/>
<polyline class="StaffLines" fill="none" stroke="#000000" stroke-width="0.40" stroke-linejoin="bevel" points="46.1339,310.535 559.558,310.535"/>
<polyline class="StaffLines" fill="none" stroke="#000000" stroke-width="0.40" stroke-linejoin="bevel" points="46.1339,315.496 559.558,315.496"/>
<polyline class="StaffLines" fill="none" stroke="#000000" stroke-width="0.40" stroke-linejoin="bevel" points="46.1339,320.457 559.558,320.457"/>
<path class="Text" d="M47.0089,235.028 C47.0089,234.747 46.9464,234.497 46.8214,234.278 C46.6964,234.059 46.5427,233.888 46.3604,233.763 C46.1781,233.638 45.9776,233.539 45.7589,233.466 C45.5401,233.393 45.35,233.343 45.1886,233.317 C45.0271,233.291 44.8839,233.278 44.7589,233.278 C44.6964,233.278 44.6651,233.257 44.6651,233.216 C44.6651,233.195 44.6651,233.179 44.6651,233.169 L45.5401,231.309 L47.212,231.309 C47.2953,231.309 47.363,231.296 47.4151,231.27 C47.4672,231.244 47.5245,231.19 47.587,231.106 L47.6495,231.169 L47.3526,231.825 C47.3318,231.877 47.2693,231.903 47.1651,231.903 L45.6026,231.903 L45.2589,232.575 C46.0401,232.721 46.6209,232.95 47.0011,233.263 C47.3813,233.575 47.5714,234.039 47.5714,234.653 C47.5714,234.966 47.5219,235.247 47.4229,235.497 C47.324,235.747 47.1964,235.947 47.0401,236.098 C46.8839,236.25 46.7068,236.372 46.5089,236.466 C46.311,236.559 46.1209,236.625 45.9386,236.661 C45.7563,236.697 45.5714,236.716 45.3839,236.716 C45.0818,236.716 44.8422,236.671 44.6651,236.583 C44.488,236.494 44.3995,236.372 44.3995,236.216 C44.3995,236.018 44.5141,235.919 44.7432,235.919 C44.8995,235.919 45.0948,236.002 45.3292,236.169 C45.5636,236.335 45.7537,236.419 45.8995,236.419 C46.212,236.419 46.475,236.286 46.6886,236.02 C46.9021,235.755 47.0089,235.424 47.0089,235.028"/>
<path class="Text" d="M248.982,32.6395 L250.529,32.3895 C250.758,33.1291 251.131,33.7437 251.646,34.2333 C252.162,34.7229 252.808,34.952 253.584,34.9208 C254.36,34.8895 254.977,34.5744 255.435,33.9755 C255.894,33.3765 256.094,32.689 256.037,31.913 C255.98,31.1369 255.677,30.5354 255.131,30.1083 C254.584,29.6812 253.711,29.3791 252.513,29.202 L252.513,28.0927 C253.711,27.9781 254.584,27.663 255.131,27.1473 C255.677,26.6317 255.922,25.9572 255.865,25.1239 C255.808,24.2906 255.435,23.689 254.748,23.3192 C254.06,22.9494 253.329,22.9078 252.552,23.1942 C251.776,23.4807 251.159,24.2802 250.701,25.5927 L249.154,25.3427 C249.498,24.3114 249.972,23.452 250.576,22.7645 C251.18,22.077 251.998,21.676 253.029,21.5614 C254.06,21.4468 254.961,21.5744 255.732,21.9442 C256.503,22.314 257.047,22.8869 257.365,23.663 C257.683,24.439 257.727,25.2854 257.498,26.202 C257.269,27.1187 256.607,27.9208 255.513,28.6083 C256.316,28.952 256.933,29.4677 257.365,30.1552 C257.797,30.8427 257.941,31.7437 257.795,32.8583 C257.649,33.9729 257.146,34.8739 256.287,35.5614 C255.427,36.2489 254.454,36.5796 253.365,36.5536 C252.276,36.5275 251.331,36.1838 250.529,35.5223 C249.727,34.8609 249.211,33.8999 248.982,32.6395 M265.998,33.077 L259.388,33.077 L259.388,31.6083 L266.342,21.5614 L267.638,21.5614 L267.638,31.6083 L269.701,31.6083 L269.701,33.077 L267.638,33.077 L267.638,36.3427 L265.998,36.3427 L265.998,33.077 M265.998,31.6083 L265.998,24.827 L261.185,31.6083 L265.998,31.6083 M273.826,36.4208 L271.842,36.4208 L271.842,34.5302 L273.826,34.5302 L273.826,36.4208 M293.154,19.1552 C293.102,19.9572 293.076,21.0458 293.076,22.4208 L293.076,36.2489 C293.076,37.3427 292.789,38.0328 292.217,38.3192 C291.644,38.6057 290.67,38.8062 289.295,38.9208 C289.18,38.2333 288.92,37.577 288.513,36.952 C289.774,36.952 290.563,36.9208 290.881,36.8583 C291.198,36.7958 291.357,36.452 291.357,35.827 L291.357,22.4208 C291.357,21.3895 291.326,20.301 291.263,19.1552 L293.154,19.1552 M288.263,25.1708 C287.743,26.5979 287.138,28.2437 286.451,30.1083 C285.763,31.9729 285.164,33.3635 284.654,34.2802 C284.081,33.8218 283.477,33.5354 282.842,33.4208 C283.821,31.702 284.597,29.9963 285.17,28.3036 C285.743,26.6109 286.112,25.3635 286.279,24.5614 C286.967,24.9052 287.628,25.1083 288.263,25.1708 M297.201,24.4833 C299.493,28.6083 300.868,31.4156 301.326,32.9052 C300.753,33.0197 300.18,33.2749 299.607,33.6708 C298.743,31.2124 297.425,28.4624 295.654,25.4208 C296.112,25.1916 296.628,24.8791 297.201,24.4833 M315.248,29.8114 C315.185,30.3843 315.154,30.7854 315.154,31.0145 L321.342,31.0145 C321.289,31.6395 321.263,32.327 321.263,33.077 C321.263,33.7645 321.289,34.3947 321.342,34.9677 L319.623,34.9677 C320.196,35.426 320.769,35.8713 321.342,36.3036 C321.914,36.7359 322.487,37.1499 323.06,37.5458 C322.602,37.8895 322.144,38.2645 321.685,38.6708 C321.227,38.2124 320.769,37.8687 320.31,37.6395 C318.998,37.7541 317.037,37.9104 314.427,38.1083 C311.818,38.3062 309.112,38.577 306.31,38.9208 C306.133,38.2958 305.847,37.7229 305.451,37.202 C306.649,37.202 307.865,37.1734 309.099,37.1161 C310.334,37.0588 311.868,36.9729 313.701,36.8583 L313.701,34.9677 L309.138,34.9677 L309.138,35.9052 L307.513,35.9052 C307.566,35.5093 307.592,34.7385 307.592,33.5927 C307.592,32.4468 307.566,31.5874 307.513,31.0145 L313.701,31.0145 C313.701,30.7854 313.67,30.3843 313.607,29.8114 L315.248,29.8114 M319.201,23.9677 C318.857,24.0197 318.485,24.2046 318.084,24.5223 C317.683,24.84 317.18,25.1994 316.576,25.6005 C315.972,26.0015 315.313,26.4442 314.599,26.9286 C313.886,27.413 313.013,27.8583 311.982,28.2645 L315.842,28.2645 C316.706,28.2645 317.266,28.1916 317.521,28.0458 C317.776,27.8999 317.961,27.2281 318.076,26.0302 C318.482,26.426 319.086,26.7385 319.888,26.9677 C319.482,28.1135 319.05,28.8166 318.592,29.077 C318.133,29.3374 317.503,29.4364 316.701,29.3739 L312.232,29.3739 C311.086,29.3739 310.456,29.202 310.342,28.8583 C309.717,29.1499 309.003,29.439 308.201,29.7255 C307.399,30.0119 306.425,30.3531 305.279,30.7489 C305.217,30.2385 304.956,29.6968 304.498,29.1239 C305.644,29.0093 306.646,28.8374 307.506,28.6083 C308.365,28.3791 309.196,28.1187 309.998,27.827 L309.998,26.1083 C309.998,25.5979 309.972,25.0822 309.92,24.5614 L311.717,24.5614 C311.602,24.9677 311.545,25.3427 311.545,25.6864 L311.545,27.1395 C312.524,26.6291 313.5,26.0432 314.474,25.3817 C315.448,24.7203 316.477,23.8166 317.56,22.6708 C318.019,23.077 318.566,23.5093 319.201,23.9677 M321.779,24.1395 L321.779,22.327 L306.826,22.327 L306.826,24.2177 L305.185,24.2177 C305.248,23.8739 305.279,23.4468 305.279,22.9364 C305.279,22.4156 305.248,21.8114 305.185,21.1239 L313.357,21.1239 C313.128,20.6135 312.899,20.1291 312.67,19.6708 C313.357,19.4937 313.956,19.3218 314.467,19.1552 C314.758,19.7802 315.045,20.4364 315.326,21.1239 L323.404,21.1239 C323.352,21.7593 323.326,22.3635 323.326,22.9364 C323.326,23.4468 323.352,23.8479 323.404,24.1395 L321.779,24.1395 M313.701,33.8427 L313.701,32.1239 L309.06,32.1239 L309.06,33.8427 L313.701,33.8427 M319.795,33.8427 L319.717,32.1239 L315.154,32.1239 L315.154,33.8427 L319.795,33.8427 M315.154,36.7645 C316.248,36.7124 317.597,36.6291 319.201,36.5145 C318.857,36.2854 318.571,36.0562 318.342,35.827 C318.685,35.5354 318.998,35.2489 319.279,34.9677 L315.154,34.9677 L315.154,36.7645 M320.404,24.3895 C320.977,24.7958 321.506,25.2281 321.99,25.6864 C322.474,26.1447 322.862,26.5458 323.154,26.8895 C322.748,27.1187 322.316,27.4624 321.857,27.9208 C321.513,27.4624 321.099,27.0171 320.615,26.5848 C320.131,26.1525 319.685,25.7958 319.279,25.5145 C319.737,25.1083 320.112,24.7333 320.404,24.3895 M308.795,24.827 C308.222,26.3166 307.852,27.3166 307.685,27.827 C306.998,27.6604 306.482,27.577 306.138,27.577 C306.711,26.2541 307.081,25.1916 307.248,24.3895 C307.706,24.5041 308.222,24.6499 308.795,24.827 M312.576,22.5927 C313.607,23.3947 314.295,23.9677 314.638,24.3114 C314.243,24.7072 313.873,25.051 313.529,25.3427 C313.237,24.9989 312.964,24.7124 312.709,24.4833 C312.454,24.2541 312.066,23.9364 311.545,23.5302 C311.888,23.1864 312.232,22.8739 312.576,22.5927 M329.592,30.6708 L328.31,30.6708 L328.31,31.8739 L326.67,31.8739 C326.732,30.551 326.763,29.0874 326.763,27.4833 C326.763,25.827 326.732,24.426 326.67,23.2802 L329.592,23.2802 C329.592,21.0406 329.566,19.6083 329.513,18.9833 L331.232,18.9833 C331.118,19.8999 331.06,21.3322 331.06,23.2802 L334.06,23.2802 C334.008,24.426 333.982,25.827 333.982,27.4833 C333.982,29.0874 334.008,30.4624 334.06,31.6083 L332.435,31.6083 L332.435,30.6708 L331.06,30.6708 L331.06,34.702 C331.748,34.5874 332.321,34.4729 332.779,34.3583 C332.55,33.7333 332.347,33.2177 332.17,32.8114 C332.743,32.6447 333.258,32.4729 333.717,32.2958 L335.092,36.5927 C334.581,36.7697 334.097,36.9729 333.638,37.202 C333.409,36.6812 333.206,36.1343 333.029,35.5614 C332.342,35.7385 331.31,36.0145 329.935,36.3895 C328.56,36.7645 327.414,37.1499 326.498,37.5458 C326.331,36.8583 326.133,36.2281 325.904,35.6552 C327.102,35.4781 328.331,35.2749 329.592,35.0458 L329.592,30.6708 M340.248,19.577 C339.789,19.9833 339.42,20.4416 339.138,20.952 L344.717,20.952 C344.258,21.7541 343.771,22.5145 343.256,23.2333 C342.74,23.952 342.196,24.5979 341.623,25.1708 C342.425,25.5666 343.198,25.8505 343.943,26.0223 C344.688,26.1942 345.519,26.3114 346.435,26.3739 C346.092,26.9468 345.836,27.577 345.67,28.2645 C344.461,27.9208 343.472,27.59 342.701,27.2723 C341.93,26.9546 341.17,26.5666 340.42,26.1083 C339.795,26.5145 339.066,26.9182 338.232,27.3192 C337.399,27.7203 336.383,28.1187 335.185,28.5145 C334.842,27.8895 334.498,27.4052 334.154,27.0614 C335.3,26.7697 336.188,26.5093 336.818,26.2802 C337.448,26.051 338.248,25.6812 339.217,25.1708 C338.592,24.6499 338.019,23.9624 337.498,23.1083 C337.102,23.7333 336.56,24.4468 335.873,25.2489 C335.467,24.9052 335.034,24.5927 334.576,24.3114 C335.493,23.4468 336.224,22.5718 336.771,21.6864 C337.318,20.801 337.789,19.8114 338.185,18.7177 L340.248,19.577 M341.888,29.202 C343.316,29.202 344.316,29.176 344.888,29.1239 L344.888,30.577 C344.316,30.5249 343.342,30.4989 341.967,30.4989 L341.201,30.4989 L341.201,31.952 L342.232,31.952 C343.086,31.952 343.857,31.926 344.545,31.8739 L344.545,33.2489 C343.805,33.1864 343.118,33.1552 342.482,33.1552 L341.201,33.1552 L341.201,34.8739 L342.998,34.8739 C343.914,34.8739 344.717,34.8479 345.404,34.7958 L345.404,36.1708 C344.602,36.1083 343.831,36.077 343.092,36.077 L341.201,36.077 C341.201,36.9416 341.227,37.8895 341.279,38.9208 L339.56,38.9208 C339.623,38.0041 339.654,37.0562 339.654,36.077 L337.842,36.077 C337.039,36.077 336.237,36.1083 335.435,36.1708 L335.435,34.7958 C336.071,34.8479 336.873,34.8739 337.842,34.8739 L339.654,34.8739 L339.654,33.1552 L338.529,33.1552 C337.727,33.1552 336.899,33.1864 336.045,33.2489 L336.045,31.8739 C336.899,31.926 337.727,31.952 338.529,31.952 L339.654,31.952 L339.654,30.4989 L338.623,30.4989 C337.706,30.4989 336.789,30.5249 335.873,30.577 L335.873,29.1239 C336.789,29.176 337.706,29.202 338.623,29.202 L339.654,29.202 C339.654,28.577 339.623,27.9208 339.56,27.2333 L341.279,27.2333 C341.227,27.8583 341.201,28.5145 341.201,29.202 L341.888,29.202 M332.435,29.2958 L332.435,24.5614 L331.06,24.5614 L331.06,29.2958 L332.435,29.2958 M329.592,29.2958 L329.592,24.5614 L328.31,24.5614 L328.31,29.2958 L329.592,29.2958 M340.342,24.3895 C341.144,23.7645 341.774,23.051 342.232,22.2489 L338.529,22.2489 C338.821,22.8218 339.425,23.5354 340.342,24.3895"/>
<polyline class="BarLine" fill="none" stroke="#000000" stroke-width="0.79" stroke-linejoin="bevel" points="46.5307,248.528 46.5307,320.457"/>
<polyline class="BarLine" fill="none" stroke="#000000" stroke-width="0.79" stroke-linejoin="bevel" points="46.5307,102.189 46.5307,174.118"/>
<polyline class="BarLine" fill="none" stroke="#000000" stroke-width="0.79" stroke-linejoin="bevel" points="554.697,300.614 554.697,320.457"/>
<polyline class="BarLine" fill="none" stroke="#000000" stroke-width="2.48" stroke-linejoin="bevel" points="558.318,300.614 558.318,320.457"/>
<polyline class="BarLine" fill="none" stroke="#000000" stroke-width="0.79" stroke-linejoin="bevel" points="554.697,248.528 554.697,268.37"/>
<polyline class="BarLine" fill="none" stroke="#000000" stroke-width="2.48" stroke-linejoin="bevel" points="558.318,248.528 558.318,268.37"/>
<polyline class="BarLine" fill="none" stroke="#000000" stroke-width="0.79" stroke-linejoin="bevel" points="441.605,300.614 441.605,320.457"/>
<polyline class="BarLine" fill="none" stroke="#000000" stroke-width="0.79" stroke-linejoin="bevel" points="441.605,248.528 441.605,268.37"/>
<polyline class="BarLine" fill="none" stroke="#000000" stroke-width="0.79" stroke-linejoin="bevel" points="317.135,300.614 317.135,320.457"/>
<polyline class="BarLine" fill="none" stroke="#000000" stroke-width="0.79" stroke-linejoin="bevel" points="317.135,248.528 317.135,268.37"/>
<polyline class="BarLine" fill="none" stroke="#000000" stroke-width="0.79" stroke-linejoin="bevel" points="192.664,300.614 192.664,320.457"/>
<polyline class="BarLine" fill="none" stroke="#000000" stroke-width="0.79" stroke-linejoin="bevel" points="192.664,248.528 192.664,268.37"/>
<polyline class="BarLine" fill="none" stroke="#000000" stroke-width="0.79" stroke-linejoin="bevel" points="559.162,154.276 559.162,174.118"/>
<polyline class="BarLine" fill="none" stroke="#000000" stroke-width="0.79" stroke-linejoin="bevel" points="559.162,102.189 559.162,122.032"/>
<polyline class="BarLine" fill="none" stroke="#000000" stroke-width="0.79" stroke-linejoin="bevel" points="447.687,154.276 447.687,174.118"/>
<polyline class="BarLine" fill="none" stroke="#000000" stroke-width="0.79" stroke-linejoin="bevel" points="447.687,102.189 447.687,122.032"/>
<polyline class="BarLine" fill="none" stroke="#000000" stroke-width="0.79" stroke-linejoin="bevel" points="324.833,154.276 324.833,174.118"/>
<polyline class="BarLine" fill="none" stroke="#000000" stroke-width="0.79" stroke-linejoin="bevel" points="324.833,102.189 324.833,122.032"/>
<polyline class="BarLine" fill="none" stroke="#000000" stroke-width="0.79" stroke-linejoin="bevel" points="201.514,154.276 201.514,174.118"/>
<polyline class="BarLine" fill="none" stroke="#000000" stroke-width="0.79" stroke-linejoin="bevel" points="201.514,102.189 201.514,122.032"/>
<polyline class="Stem" fill="none" stroke="#000000" stroke-width="0.64" stroke-linecap="round" stroke-linejoin="bevel" points="448.278,303.872 448.278,320.457" notes="{09b46e66-aecd-4018-8644-c63bc289c3b4}" x1="448.278" y1="303.872" x2="448.278" y2="320.457" height="17.3622"/>
<polyline class="Stem" fill="none" stroke="#000000" stroke-width="0.64" stroke-linecap="round" stroke-linejoin="bevel" points="402.29,301.546 402.29,317.976" notes="{bb102da9-7f44-45bc-aff9-b4c178b1a754}" x1="402.29" y1="301.546" x2="402.29" y2="317.976" height="17.3622"/>
<polyline class="Stem" fill="none" stroke="#000000" stroke-width="0.64" stroke-linecap="round" stroke-linejoin="bevel" points="363.048,299.066 363.048,315.496" notes="{507bdc84-b47c-4950-89af-7f0840271325}" x1="363.048" y1="299.066" x2="363.048" y2="315.496" height="17.3622"/>
<polyline class="Stem" fill="none" stroke="#000000" stroke-width="0.64" stroke-linecap="round" stroke-linejoin="bevel" points="323.807,296.585 323.807,313.016" notes="{b3c38eb1-5554-499f-8f81-b38b3ea330a2}" x1="323.807" y1="296.585" x2="323.807" y2="313.016" height="17.3622"/>
<polyline class="Stem" fill="none" stroke="#000000" stroke-width="0.64" stroke-linecap="round" stroke-linejoin="bevel" points="283.705,269.919 283.705,253.488" notes="{15007060-eaf9-49a9-be3d-893de997f96f}" x1="283.705" y1="269.919" x2="283.705" y2="253.488" height="-17.3622"/>
<polyline class="Stem" fill="none" stroke="#000000" stroke-width="0.64" stroke-linecap="round" stroke-linejoin="bevel" points="244.464,267.438 244.464,251.008" notes="{4650fca7-551f-42b5-85d9-9326cc9d69fd}" x1="244.464" y1="267.438" x2="244.464" y2="251.008" height="-17.3622"/>
<polyline class="Stem" fill="none" stroke="#000000" stroke-width="0.64" stroke-linecap="round" stroke-linejoin="bevel" points="205.222,269.919 205.222,253.488" notes="{4ac7c023-c2de-4bc8-84e6-95234ea8b271}" x1="205.222" y1="269.919" x2="205.222" y2="253.488" height="-17.3622"/>
<polyline class="Stem" fill="none" stroke="#000000" stroke-width="0.64" stroke-linecap="round" stroke-linejoin="bevel" points="160.886,267.438 160.886,251.008" notes="{6e36e643-4a0e-42c5-836b-bc5e473609bb}" x1="160.886" y1="267.438" x2="160.886" y2="251.008" height="-17.3622"/>
<polyline class="Stem" fill="none" stroke="#000000" stroke-width="0.64" stroke-linecap="round" stroke-linejoin="bevel" points="123.296,264.958 123.296,248.528" notes="{ef94d9fc-4462-4496-9ee7-c9234a4c5b5b}" x1="123.296" y1="264.958" x2="123.296" y2="248.528" height="-17.3622"/>
<polyline class="Stem" fill="none" stroke="#000000" stroke-width="0.64" stroke-linecap="round" stroke-linejoin="bevel" points="85.7057,262.478 85.7057,246.667" notes="{b3af03be-1575-4211-b3fe-8637764eb389}" x1="85.7057" y1="262.478" x2="85.7057" y2="246.667" height="-16.7421"/>
<polyline class="Stem" fill="none" stroke="#000000" stroke-width="0.64" stroke-linecap="round" stroke-linejoin="bevel" points="460.603,116.309 460.603,100.329" notes="{4d90013b-2c0a-4b12-9103-f0d8d4fefee3}" x1="460.603" y1="116.309" x2="460.603" y2="100.329" height="-16.7421"/>
<polyline class="Stem" fill="none" stroke="#000000" stroke-width="0.64" stroke-linecap="round" stroke-linejoin="bevel" points="414.796,118.62 414.796,102.189" notes="{6c94afde-d901-4a65-a1d0-35a2af9d3e9c}" x1="414.796" y1="118.62" x2="414.796" y2="102.189" height="-17.3622"/>
<polyline class="Stem" fill="none" stroke="#000000" stroke-width="0.64" stroke-linecap="round" stroke-linejoin="bevel" points="376.094,121.1 376.094,104.669" notes="{2d90af0e-03c5-4f6e-a3e6-2bba2cddd02d}" x1="376.094" y1="121.1" x2="376.094" y2="104.669" height="-17.3622"/>
<polyline class="Stem" fill="none" stroke="#000000" stroke-width="0.64" stroke-linecap="round" stroke-linejoin="bevel" points="337.391,123.58 337.391,107.15" notes="{26e4b27c-bdb4-4657-97ef-393c7f6983c1}" x1="337.391" y1="123.58" x2="337.391" y2="107.15" height="-17.3622"/>
<polyline class="Stem" fill="none" stroke="#000000" stroke-width="0.64" stroke-linecap="round" stroke-linejoin="bevel" points="291.942,123.58 291.942,107.15" notes="{3cf1965f-9eea-4be8-9677-1dd5280aeda0}" x1="291.942" y1="123.58" x2="291.942" y2="107.15" height="-17.3622"/>
<polyline class="Stem" fill="none" stroke="#000000" stroke-width="0.64" stroke-linecap="round" stroke-linejoin="bevel" points="253.24,121.1 253.24,104.669" notes="{5219e074-4183-45ac-a216-451aafda64e9}" x1="253.24" y1="121.1" x2="253.24" y2="104.669" height="-17.3622"/>
<polyline class="Stem" fill="none" stroke="#000000" stroke-width="0.64" stroke-linecap="round" stroke-linejoin="bevel" points="208.651,150.247 208.651,166.677" notes="{64b0915f-6015-404c-ac85-65ca86b4e0ec}" x1="208.651" y1="150.247" x2="208.651" y2="166.677" height="17.3622"/>
<polyline class="Stem" fill="none" stroke="#000000" stroke-width="0.64" stroke-linecap="round" stroke-linejoin="bevel" points="164.389,152.727 164.389,169.157" notes="{a96762e7-ef60-4446-a078-45adbd1206f5}" x1="164.389" y1="152.727" x2="164.389" y2="169.157" height="17.3622"/>
<polyline class="Stem" fill="none" stroke="#000000" stroke-width="0.64" stroke-linecap="round" stroke-linejoin="bevel" points="127.338,155.207 127.338,171.638" notes="{0fd3d138-ef62-495d-a39a-c2261e8c6a03}" x1="127.338" y1="155.207" x2="127.338" y2="171.638" height="17.3622"/>
<polyline class="Stem" fill="none" stroke="#000000" stroke-width="0.64" stroke-linecap="round" stroke-linejoin="bevel" points="90.2865,157.688 90.2865,174.118" notes="{1053ad3f-43f9-4053-84e1-ed7d7c482506}" x1="90.2865" y1="157.688" x2="90.2865" y2="174.118" height="17.3622"/>
<polyline class="LedgerLine" fill="none" stroke="#000000" stroke-width="0.79" stroke-linecap="square" stroke-linejoin="bevel" points="321.996,295.654 331.503,295.654"/>
<polyline class="LedgerLine" fill="none" stroke="#000000" stroke-width="0.79" stroke-linecap="square" stroke-linejoin="bevel" points="206.84,149.315 216.348,149.315"/>
<path class="Note" transform="matrix(0.992126,0,0,0.992126,447.955,303.094)" d="M6.3125,-1.3125 C6.3125,-1.53125 6.22917,-1.71875 6.0625,-1.875 C5.88542,-2.04167 5.6875,-2.125 5.46875,-2.125 C5.08333,-2.125 4.29688,-1.73438 3.10938,-0.953125 C1.88021,-0.161458 1.13021,0.40625 0.859375,0.75 C0.713542,0.927083 0.640625,1.11458 0.640625,1.3125 C0.640625,1.53125 0.729167,1.71875 0.90625,1.875 C1.0625,2.04167 1.25521,2.125 1.48438,2.125 C1.85938,2.125 2.65625,1.73438 3.875,0.953125 C5.07292,0.171875 5.8125,-0.395833 6.09375,-0.75 C6.23958,-0.916667 6.3125,-1.10417 6.3125,-1.3125 M5.28125,-2.75 C6.39583,-2.75 6.95312,-2.27083 6.95312,-1.3125 C6.95312,-0.84375 6.81771,-0.296875 6.54688,0.328125 C6.27604,0.942708 5.91146,1.41146 5.45312,1.73438 C4.45312,2.41146 3.19792,2.75 1.6875,2.75 C0.5625,2.75 0,2.27083 0,1.3125 C0,0.885417 0.135417,0.34375 0.40625,-0.3125 C0.666667,-0.9375 1.03125,-1.41146 1.5,-1.73438 C2.51042,-2.41146 3.77083,-2.75 5.28125,-2.75" id="{09b46e66-aecd-4018-8644-c63bc289c3b4}" stem_h="17.3622"/>
<path class="Note" transform="matrix(0.992126,0,0,0.992126,401.967,300.614)" d="M4.39062,-2.75 C5.01562,-2.75 5.54688,-2.58854 5.98438,-2.26562 C6.38021,-1.91146 6.57812,-1.46875 6.57812,-0.9375 C6.57812,-0.0416667 6.11979,0.796875 5.20312,1.57812 C4.26562,2.35938 3.26042,2.75 2.1875,2.75 C1.5625,2.75 1.03646,2.58854 0.609375,2.26562 C0.203125,1.91146 0,1.46875 0,0.9375 C0,0.0416667 0.46875,-0.796875 1.40625,-1.57812 C2.32292,-2.35938 3.31771,-2.75 4.39062,-2.75" id="{bb102da9-7f44-45bc-aff9-b4c178b1a754}" stem_h="17.3622"/>
<path class="Note" transform="matrix(0.992126,0,0,0.992126,362.726,298.134)" d="M4.39062,-2.75 C5.01562,-2.75 5.54688,-2.58854 5.98438,-2.26562 C6.38021,-1.91146 6.57812,-1.46875 6.57812,-0.9375 C6.57812,-0.0416667 6.11979,0.796875 5.20312,1.57812 C4.26562,2.35938 3.26042,2.75 2.1875,2.75 C1.5625,2.75 1.03646,2.58854 0.609375,2.26562 C0.203125,1.91146 0,1.46875 0,0.9375 C0,0.0416667 0.46875,-0.796875 1.40625,-1.57812 C2.32292,-2.35938 3.31771,-2.75 4.39062,-2.75" id="{507bdc84-b47c-4950-89af-7f0840271325}" stem_h="17.3622"/>
<path class="Note" transform="matrix(0.992126,0,0,0.992126,323.484,295.654)" d="M4.39062,-2.75 C5.01562,-2.75 5.54688,-2.58854 5.98438,-2.26562 C6.38021,-1.91146 6.57812,-1.46875 6.57812,-0.9375 C6.57812,-0.0416667 6.11979,0.796875 5.20312,1.57812 C4.26562,2.35938 3.26042,2.75 2.1875,2.75 C1.5625,2.75 1.03646,2.58854 0.609375,2.26562 C0.203125,1.91146 0,1.46875 0,0.9375 C0,0.0416667 0.46875,-0.796875 1.40625,-1.57812 C2.32292,-2.35938 3.31771,-2.75 4.39062,-2.75" id="{b3c38eb1-5554-499f-8f81-b38b3ea330a2}" stem_h="17.3622"/>
<path class="Note" transform="matrix(0.992126,0,0,0.992126,277.496,270.85)" d="M4.39062,-2.75 C5.01562,-2.75 5.54688,-2.58854 5.98438,-2.26562 C6.38021,-1.91146 6.57812,-1.46875 6.57812,-0.9375 C6.57812,-0.0416667 6.11979,0.796875 5.20312,1.57812 C4.26562,2.35938 3.26042,2.75 2.1875,2.75 C1.5625,2.75 1.03646,2.58854 0.609375,2.26562 C0.203125,1.91146 0,1.46875 0,0.9375 C0,0.0416667 0.46875,-0.796875 1.40625,-1.57812 C2.32292,-2.35938 3.31771,-2.75 4.39062,-2.75" id="{15007060-eaf9-49a9-be3d-893de997f96f}" stem_h="-17.3622"/>
<path class="Note" transform="matrix(0.992126,0,0,0.992126,238.255,268.37)" d="M4.39062,-2.75 C5.01562,-2.75 5.54688,-2.58854 5.98438,-2.26562 C6.38021,-1.91146 6.57812,-1.46875 6.57812,-0.9375 C6.57812,-0.0416667 6.11979,0.796875 5.20312,1.57812 C4.26562,2.35938 3.26042,2.75 2.1875,2.75 C1.5625,2.75 1.03646,2.58854 0.609375,2.26562 C0.203125,1.91146 0,1.46875 0,0.9375 C0,0.0416667 0.46875,-0.796875 1.40625,-1.57812 C2.32292,-2.35938 3.31771,-2.75 4.39062,-2.75" id="{4650fca7-551f-42b5-85d9-9326cc9d69fd}" stem_h="-17.3622"/>
<path class="Note" transform="matrix(0.992126,0,0,0.992126,199.014,270.85)" d="M4.39062,-2.75 C5.01562,-2.75 5.54688,-2.58854 5.98438,-2.26562 C6.38021,-1.91146 6.57812,-1.46875 6.57812,-0.9375 C6.57812,-0.0416667 6.11979,0.796875 5.20312,1.57812 C4.26562,2.35938 3.26042,2.75 2.1875,2.75 C1.5625,2.75 1.03646,2.58854 0.609375,2.26562 C0.203125,1.91146 0,1.46875 0,0.9375 C0,0.0416667 0.46875,-0.796875 1.40625,-1.57812 C2.32292,-2.35938 3.31771,-2.75 4.39062,-2.75" id="{4ac7c023-c2de-4bc8-84e6-95234ea8b271}" stem_h="-17.3622"/>
<path class="Note" transform="matrix(0.992126,0,0,0.992126,154.677,268.37)" d="M4.39062,-2.75 C5.01562,-2.75 5.54688,-2.58854 5.98438,-2.26562 C6.38021,-1.91146 6.57812,-1.46875 6.57812,-0.9375 C6.57812,-0.0416667 6.11979,0.796875 5.20312,1.57812 C4.26562,2.35938 3.26042,2.75 2.1875,2.75 C1.5625,2.75 1.03646,2.58854 0.609375,2.26562 C0.203125,1.91146 0,1.46875 0,0.9375 C0,0.0416667 0.46875,-0.796875 1.40625,-1.57812 C2.32292,-2.35938 3.31771,-2.75 4.39062,-2.75" id="{6e36e643-4a0e-42c5-836b-bc5e473609bb}" stem_h="-17.3622"/>
<path class="Note" transform="matrix(0.992126,0,0,0.992126,117.087,265.89)" d="M4.39062,-2.75 C5.01562,-2.75 5.54688,-2.58854 5.98438,-2.26562 C6.38021,-1.91146 6.57812,-1.46875 6.57812,-0.9375 C6.57812,-0.0416667 6.11979,0.796875 5.20312,1.57812 C4.26562,2.35938 3.26042,2.75 2.1875,2.75 C1.5625,2.75 1.03646,2.58854 0.609375,2.26562 C0.203125,1.91146 0,1.46875 0,0.9375 C0,0.0416667 0.46875,-0.796875 1.40625,-1.57812 C2.32292,-2.35938 3.31771,-2.75 4.39062,-2.75" id="{ef94d9fc-4462-4496-9ee7-c9234a4c5b5b}" stem_h="-17.3622"/>
<path class="Note" transform="matrix(0.992126,0,0,0.992126,79.4972,263.409)" d="M4.39062,-2.75 C5.01562,-2.75 5.54688,-2.58854 5.98438,-2.26562 C6.38021,-1.91146 6.57812,-1.46875 6.57812,-0.9375 C6.57812,-0.0416667 6.11979,0.796875 5.20312,1.57812 C4.26562,2.35938 3.26042,2.75 2.1875,2.75 C1.5625,2.75 1.03646,2.58854 0.609375,2.26562 C0.203125,1.91146 0,1.46875 0,0.9375 C0,0.0416667 0.46875,-0.796875 1.40625,-1.57812 C2.32292,-2.35938 3.31771,-2.75 4.39062,-2.75" id="{b3af03be-1575-4211-b3fe-8637764eb389}" stem_h="-16.7421"/>
<path class="Note" transform="matrix(0.992126,0,0,0.992126,454.037,117.071)" d="M6.3125,-1.3125 C6.3125,-1.53125 6.22917,-1.71875 6.0625,-1.875 C5.88542,-2.04167 5.6875,-2.125 5.46875,-2.125 C5.08333,-2.125 4.29688,-1.73438 3.10938,-0.953125 C1.88021,-0.161458 1.13021,0.40625 0.859375,0.75 C0.713542,0.927083 0.640625,1.11458 0.640625,1.3125 C0.640625,1.53125 0.729167,1.71875 0.90625,1.875 C1.0625,2.04167 1.25521,2.125 1.48438,2.125 C1.85938,2.125 2.65625,1.73438 3.875,0.953125 C5.07292,0.171875 5.8125,-0.395833 6.09375,-0.75 C6.23958,-0.916667 6.3125,-1.10417 6.3125,-1.3125 M5.28125,-2.75 C6.39583,-2.75 6.95312,-2.27083 6.95312,-1.3125 C6.95312,-0.84375 6.81771,-0.296875 6.54688,0.328125 C6.27604,0.942708 5.91146,1.41146 5.45312,1.73438 C4.45312,2.41146 3.19792,2.75 1.6875,2.75 C0.5625,2.75 0,2.27083 0,1.3125 C0,0.885417 0.135417,0.34375 0.40625,-0.3125 C0.666667,-0.9375 1.03125,-1.41146 1.5,-1.73438 C2.51042,-2.41146 3.77083,-2.75 5.28125,-2.75" id="{4d90013b-2c0a-4b12-9103-f0d8d4fefee3}" stem_h="-16.7421"/>
<path class="Note" transform="matrix(0.992126,0,0,0.992126,408.588,119.551)" d="M4.39062,-2.75 C5.01562,-2.75 5.54688,-2.58854 5.98438,-2.26562 C6.38021,-1.91146 6.57812,-1.46875 6.57812,-0.9375 C6.57812,-0.0416667 6.11979,0.796875 5.20312,1.57812 C4.26562,2.35938 3.26042,2.75 2.1875,2.75 C1.5625,2.75 1.03646,2.58854 0.609375,2.26562 C0.203125,1.91146 0,1.46875 0,0.9375 C0,0.0416667 0.46875,-0.796875 1.40625,-1.57812 C2.32292,-2.35938 3.31771,-2.75 4.39062,-2.75" id="{6c94afde-d901-4a65-a1d0-35a2af9d3e9c}" stem_h="-17.3622"/>
<path class="Note" transform="matrix(0.992126,0,0,0.992126,369.885,122.032)" d="M4.39062,-2.75 C5.01562,-2.75 5.54688,-2.58854 5.98438,-2.26562 C6.38021,-1.91146 6.57812,-1.46875 6.57812,-0.9375 C6.57812,-0.0416667 6.11979,0.796875 5.20312,1.57812 C4.26562,2.35938 3.26042,2.75 2.1875,2.75 C1.5625,2.75 1.03646,2.58854 0.609375,2.26562 C0.203125,1.91146 0,1.46875 0,0.9375 C0,0.0416667 0.46875,-0.796875 1.40625,-1.57812 C2.32292,-2.35938 3.31771,-2.75 4.39062,-2.75" id="{2d90af0e-03c5-4f6e-a3e6-2bba2cddd02d}" stem_h="-17.3622"/>
<path class="Note" transform="matrix(0.992126,0,0,0.992126,331.183,124.512)" d="M4.39062,-2.75 C5.01562,-2.75 5.54688,-2.58854 5.98438,-2.26562 C6.38021,-1.91146 6.57812,-1.46875 6.57812,-0.9375 C6.57812,-0.0416667 6.11979,0.796875 5.20312,1.57812 C4.26562,2.35938 3.26042,2.75 2.1875,2.75 C1.5625,2.75 1.03646,2.58854 0.609375,2.26562 C0.203125,1.91146 0,1.46875 0,0.9375 C0,0.0416667 0.46875,-0.796875 1.40625,-1.57812 C2.32292,-2.35938 3.31771,-2.75 4.39062,-2.75" id="{26e4b27c-bdb4-4657-97ef-393c7f6983c1}" stem_h="-17.3622"/>
<path class="Note" transform="matrix(0.992126,0,0,0.992126,285.734,124.512)" d="M4.39062,-2.75 C5.01562,-2.75 5.54688,-2.58854 5.98438,-2.26562 C6.38021,-1.91146 6.57812,-1.46875 6.57812,-0.9375 C6.57812,-0.0416667 6.11979,0.796875 5.20312,1.57812 C4.26562,2.35938 3.26042,2.75 2.1875,2.75 C1.5625,2.75 1.03646,2.58854 0.609375,2.26562 C0.203125,1.91146 0,1.46875 0,0.9375 C0,0.0416667 0.46875,-0.796875 1.40625,-1.57812 C2.32292,-2.35938 3.31771,-2.75 4.39062,-2.75" id="{3cf1965f-9eea-4be8-9677-1dd5280aeda0}" stem_h="-17.3622"/>
<path class="Note" transform="matrix(0.992126,0,0,0.992126,247.031,122.032)" d="M4.39062,-2.75 C5.01562,-2.75 5.54688,-2.58854 5.98438,-2.26562 C6.38021,-1.91146 6.57812,-1.46875 6.57812,-0.9375 C6.57812,-0.0416667 6.11979,0.796875 5.20312,1.57812 C4.26562,2.35938 3.26042,2.75 2.1875,2.75 C1.5625,2.75 1.03646,2.58854 0.609375,2.26562 C0.203125,1.91146 0,1.46875 0,0.9375 C0,0.0416667 0.46875,-0.796875 1.40625,-1.57812 C2.32292,-2.35938 3.31771,-2.75 4.39062,-2.75" id="{5219e074-4183-45ac-a216-451aafda64e9}" stem_h="-17.3622"/>
<path class="Note" transform="matrix(0.992126,0,0,0.992126,208.329,149.315)" d="M4.39062,-2.75 C5.01562,-2.75 5.54688,-2.58854 5.98438,-2.26562 C6.38021,-1.91146 6.57812,-1.46875 6.57812,-0.9375 C6.57812,-0.0416667 6.11979,0.796875 5.20312,1.57812 C4.26562,2.35938 3.26042,2.75 2.1875,2.75 C1.5625,2.75 1.03646,2.58854 0.609375,2.26562 C0.203125,1.91146 0,1.46875 0,0.9375 C0,0.0416667 0.46875,-0.796875 1.40625,-1.57812 C2.32292,-2.35938 3.31771,-2.75 4.39062,-2.75" id="{64b0915f-6015-404c-ac85-65ca86b4e0ec}" stem_h="17.3622"/>
<path class="Note" transform="matrix(0.992126,0,0,0.992126,164.066,151.795)" d="M4.39062,-2.75 C5.01562,-2.75 5.54688,-2.58854 5.98438,-2.26562 C6.38021,-1.91146 6.57812,-1.46875 6.57812,-0.9375 C6.57812,-0.0416667 6.11979,0.796875 5.20312,1.57812 C4.26562,2.35938 3.26042,2.75 2.1875,2.75 C1.5625,2.75 1.03646,2.58854 0.609375,2.26562 C0.203125,1.91146 0,1.46875 0,0.9375 C0,0.0416667 0.46875,-0.796875 1.40625,-1.57812 C2.32292,-2.35938 3.31771,-2.75 4.39062,-2.75" id="{a96762e7-ef60-4446-a078-45adbd1206f5}" stem_h="17.3622"/>
<path class="Note" transform="matrix(0.992126,0,0,0.992126,127.015,154.276)" d="M4.39062,-2.75 C5.01562,-2.75 5.54688,-2.58854 5.98438,-2.26562 C6.38021,-1.91146 6.57812,-1.46875 6.57812,-0.9375 C6.57812,-0.0416667 6.11979,0.796875 5.20312,1.57812 C4.26562,2.35938 3.26042,2.75 2.1875,2.75 C1.5625,2.75 1.03646,2.58854 0.609375,2.26562 C0.203125,1.91146 0,1.46875 0,0.9375 C0,0.0416667 0.46875,-0.796875 1.40625,-1.57812 C2.32292,-2.35938 3.31771,-2.75 4.39062,-2.75" id="{0fd3d138-ef62-495d-a39a-c2261e8c6a03}" stem_h="17.3622"/>
<path class="Note" transform="matrix(0.992126,0,0,0.992126,89.9641,156.756)" d="M4.39062,-2.75 C5.01562,-2.75 5.54688,-2.58854 5.98438,-2.26562 C6.38021,-1.91146 6.57812,-1.46875 6.57812,-0.9375 C6.57812,-0.0416667 6.11979,0.796875 5.20312,1.57812 C4.26562,2.35938 3.26042,2.75 2.1875,2.75 C1.5625,2.75 1.03646,2.58854 0.609375,2.26562 C0.203125,1.91146 0,1.46875 0,0.9375 C0,0.0416667 0.46875,-0.796875 1.40625,-1.57812 C2.32292,-2.35938 3.31771,-2.75 4.39062,-2.75" id="{1053ad3f-43f9-4053-84e1-ed7d7c482506}" stem_h="17.3622"/>
<path class="Clef" transform="matrix(0.992126,0,0,0.992126,50.0961,305.575)" d="M11.4297,-1.78125 C11.237,-1.97917 11.1406,-2.22135 11.1406,-2.50781 C11.1406,-2.79427 11.237,-3.03385 11.4297,-3.22656 C11.6224,-3.41927 11.862,-3.51562 12.1484,-3.51562 C12.4349,-3.51562 12.6771,-3.41927 12.875,-3.22656 C13.0729,-3.03385 13.1719,-2.79427 13.1719,-2.50781 C13.1719,-2.22135 13.0729,-1.97917 12.875,-1.78125 C12.6771,-1.58333 12.4349,-1.48438 12.1484,-1.48438 C11.862,-1.48438 11.6224,-1.58333 11.4297,-1.78125 M11.4297,3.22656 C11.237,3.03385 11.1406,2.79427 11.1406,2.50781 C11.1406,2.22135 11.237,1.97917 11.4297,1.78125 C11.6224,1.58333 11.862,1.48438 12.1484,1.48438 C12.4349,1.48438 12.6771,1.58333 12.875,1.78125 C13.0729,1.97917 13.1719,2.22135 13.1719,2.50781 C13.1719,2.79427 13.0729,3.03385 12.875,3.22656 C12.6771,3.41927 12.4349,3.51562 12.1484,3.51562 C11.862,3.51562 11.6224,3.41927 11.4297,3.22656 M4.65625,-5.25 C6.38542,-5.25 7.80208,-4.81771 8.90625,-3.95312 C9.97917,-3.03646 10.5156,-1.79688 10.5156,-0.234375 C10.5156,0.817708 10.3073,1.78125 9.89062,2.65625 C9.49479,3.57292 8.97917,4.38021 8.34375,5.07812 C7.6875,5.79688 6.90104,6.47396 5.98438,7.10938 C5.07812,7.73438 4.15104,8.29688 3.20312,8.79688 C1.27604,9.76562 0.208333,10.25 0,10.25 C-0.166667,10.25 -0.25,10.1667 -0.25,10 C-0.25,9.9375 -0.223958,9.88021 -0.171875,9.82812 C0.494792,9.43229 1.30729,8.93229 2.26562,8.32812 C2.89062,7.92188 3.61979,7.35938 4.45312,6.64062 C5.26562,5.96354 5.89062,5.32812 6.32812,4.73438 C6.78646,4.14062 7.20312,3.41146 7.57812,2.54688 C7.90104,1.67188 8.0625,0.807292 8.0625,-0.046875 C8.0625,-1.30729 7.75,-2.40625 7.125,-3.34375 C6.5,-4.28125 5.67708,-4.75 4.65625,-4.75 C3.92708,-4.75 3.30208,-4.51562 2.78125,-4.04688 C2.21875,-3.56771 1.8125,-2.96354 1.5625,-2.23438 C1.8125,-2.33854 2.04167,-2.39062 2.25,-2.39062 C2.79167,-2.39062 3.26042,-2.19271 3.65625,-1.79688 C4.04167,-1.38021 4.23438,-0.90625 4.23438,-0.375 C4.23438,0.1875 4.04688,0.692708 3.67188,1.14062 C3.26562,1.53646 2.79167,1.73438 2.25,1.73438 C1.66667,1.73438 1.14062,1.53646 0.671875,1.14062 C0.223958,0.692708 0,0.1875 0,-0.375 C0,-1.71875 0.458333,-2.86458 1.375,-3.8125 C2.27083,-4.77083 3.36458,-5.25 4.65625,-5.25"/>
<path class="Clef" transform="matrix(0.992126,0,0,0.992126,50.0961,263.409)" d="M7.34375,-5.125 C7.34375,-5.125 7.38542,-5.125 7.46875,-5.125 C7.52083,-5.13542 7.5625,-5.14062 7.59375,-5.14062 C9.05208,-5.14062 10.25,-4.625 11.1875,-3.59375 C12.125,-2.58333 12.5938,-1.40104 12.5938,-0.046875 C12.5938,1.64062 11.901,3.01042 10.5156,4.0625 C10.151,4.35417 9.67188,4.58854 9.07812,4.76562 C9.15104,5.60938 9.1875,6.29167 9.1875,6.8125 C9.1875,6.91667 9.17188,7.29688 9.14062,7.95312 C9.08854,9.16146 8.67188,10.2083 7.89062,11.0938 C7.14062,11.9688 6.20312,12.4062 5.07812,12.4062 C4.02604,12.4062 3.13021,12.0365 2.39062,11.2969 C1.64062,10.5365 1.26562,9.625 1.26562,8.5625 C1.26562,8 1.48438,7.52083 1.92188,7.125 C2.35938,6.73958 2.86979,6.54688 3.45312,6.54688 C3.97396,6.54688 4.41146,6.75 4.76562,7.15625 C5.13021,7.53125 5.3125,8 5.3125,8.5625 C5.3125,9.0625 5.13021,9.49479 4.76562,9.85938 C4.40104,10.224 3.96354,10.4062 3.45312,10.4062 C3.24479,10.4062 3.04688,10.3698 2.85938,10.2969 C3.43229,11.1406 4.19271,11.5625 5.14062,11.5625 C6.03646,11.5625 6.77083,11.1979 7.34375,10.4688 C7.94792,9.71875 8.27604,8.83854 8.32812,7.82812 C8.34896,7.20312 8.35938,6.84896 8.35938,6.76562 C8.35938,6.03646 8.33333,5.4375 8.28125,4.96875 C7.63542,5.07292 7.05729,5.125 6.54688,5.125 C4.73438,5.125 3.19271,4.40625 1.92188,2.96875 C0.671875,1.52083 0.046875,-0.197917 0.046875,-2.1875 C0.046875,-2.60417 0.0833333,-3.02604 0.15625,-3.45312 C0.239583,-3.80729 0.338542,-4.19271 0.453125,-4.60938 C0.515625,-4.84896 0.692708,-5.22917 0.984375,-5.75 C1.08854,-5.90625 1.20573,-6.10156 1.33594,-6.33594 C1.46615,-6.57031 1.55729,-6.72396 1.60938,-6.79688 C1.73438,-7.05729 1.98438,-7.41146 2.35938,-7.85938 C2.46354,-7.97396 2.57292,-8.10156 2.6875,-8.24219 C2.80208,-8.38281 2.89844,-8.5 2.97656,-8.59375 C3.05469,-8.6875 3.11198,-8.76042 3.14844,-8.8125 C3.1849,-8.86458 3.47917,-9.20833 4.03125,-9.84375 C4.15625,-9.97917 4.28125,-10.1198 4.40625,-10.2656 C4.53125,-10.4115 4.63281,-10.5286 4.71094,-10.6172 C4.78906,-10.7057 4.84896,-10.7656 4.89062,-10.7969 C4.42188,-12.349 4.125,-13.5885 4,-14.5156 C3.91667,-15.2552 3.875,-16.2708 3.875,-17.5625 C3.875,-18.6979 4.13542,-19.7604 4.65625,-20.75 C5.15625,-21.7708 5.86458,-22.6094 6.78125,-23.2656 C6.84375,-23.3073 6.90625,-23.3281 6.96875,-23.3281 C7.0625,-23.3281 7.13021,-23.3073 7.17188,-23.2656 C7.86979,-22.4219 8.47396,-21.3229 8.98438,-19.9688 C9.50521,-18.6146 9.76562,-17.3802 9.76562,-16.2656 C9.76562,-15.0156 9.46875,-13.8438 8.875,-12.75 C8.19792,-11.5938 7.32292,-10.3958 6.25,-9.15625 C6.52083,-8.30208 6.88542,-6.95833 7.34375,-5.125 M9,3.96875 C9.67708,3.71875 10.2083,3.29688 10.5938,2.70312 C11.0104,2.13021 11.2188,1.48438 11.2188,0.765625 C11.2188,-0.161458 10.9062,-0.984375 10.2812,-1.70312 C9.63542,-2.44271 8.81771,-2.85938 7.82812,-2.95312 C8.39062,-0.203125 8.78125,2.10417 9,3.96875 M1.45312,-0.546875 C1.45312,0.744792 1.97396,1.88021 3.01562,2.85938 C4.07812,3.80729 5.27604,4.28125 6.60938,4.28125 C7.15104,4.28125 7.68229,4.23958 8.20312,4.15625 C7.99479,2.17708 7.58333,-0.192708 6.96875,-2.95312 C6.22917,-2.86979 5.64062,-2.60938 5.20312,-2.17188 C4.76562,-1.71354 4.54688,-1.19792 4.54688,-0.625 C4.54688,0.364583 5.07812,1.16667 6.14062,1.78125 C6.22396,1.875 6.26562,1.97396 6.26562,2.07812 C6.26562,2.18229 6.22396,2.27604 6.14062,2.35938 C6.05729,2.45312 5.95833,2.5 5.84375,2.5 C5.83333,2.5 5.77604,2.48958 5.67188,2.46875 C4.92188,2.0625 4.34896,1.54167 3.95312,0.90625 C3.56771,0.21875 3.375,-0.46875 3.375,-1.15625 C3.375,-2.05208 3.65625,-2.86458 4.21875,-3.59375 C4.80208,-4.32292 5.5625,-4.79167 6.5,-5 C6.13542,-6.45833 5.83854,-7.59896 5.60938,-8.42188 C5.40104,-8.18229 5.15104,-7.89844 4.85938,-7.57031 C4.56771,-7.24219 4.39583,-7.04167 4.34375,-6.96875 C3.875,-6.36458 3.51562,-5.89062 3.26562,-5.54688 C2.81771,-4.93229 2.48958,-4.40625 2.28125,-3.96875 C2.0625,-3.46875 1.86979,-2.92708 1.70312,-2.34375 C1.53646,-1.78125 1.45312,-1.18229 1.45312,-0.546875 M7.96875,-20.4062 C6.98958,-19.9271 6.22396,-19.2396 5.67188,-18.3438 C5.09896,-17.4167 4.8125,-16.4219 4.8125,-15.3594 C4.8125,-14.4219 5.04688,-13.1562 5.51562,-11.5625 C6.45312,-12.6979 7.15625,-13.7448 7.625,-14.7031 C8.11458,-15.724 8.35938,-16.7865 8.35938,-17.8906 C8.35938,-18.724 8.22917,-19.5625 7.96875,-20.4062"/>
<path class="Clef" transform="matrix(0.992126,0,0,0.992126,50.0961,159.236)" d="M11.4297,-1.78125 C11.237,-1.97917 11.1406,-2.22135 11.1406,-2.50781 C11.1406,-2.79427 11.237,-3.03385 11.4297,-3.22656 C11.6224,-3.41927 11.862,-3.51562 12.1484,-3.51562 C12.4349,-3.51562 12.6771,-3.41927 12.875,-3.22656 C13.0729,-3.03385 13.1719,-2.79427 13.1719,-2.50781 C13.1719,-2.22135 13.0729,-1.97917 12.875,-1.78125 C12.6771,-1.58333 12.4349,-1.48438 12.1484,-1.48438 C11.862,-1.48438 11.6224,-1.58333 11.4297,-1.78125 M11.4297,3.22656 C11.237,3.03385 11.1406,2.79427 11.1406,2.50781 C11.1406,2.22135 11.237,1.97917 11.4297,1.78125 C11.6224,1.58333 11.862,1.48438 12.1484,1.48438 C12.4349,1.48438 12.6771,1.58333 12.875,1.78125 C13.0729,1.97917 13.1719,2.22135 13.1719,2.50781 C13.1719,2.79427 13.0729,3.03385 12.875,3.22656 C12.6771,3.41927 12.4349,3.51562 12.1484,3.51562 C11.862,3.51562 11.6224,3.41927 11.4297,3.22656 M4.65625,-5.25 C6.38542,-5.25 7.80208,-4.81771 8.90625,-3.95312 C9.97917,-3.03646 10.5156,-1.79688 10.5156,-0.234375 C10.5156,0.817708 10.3073,1.78125 9.89062,2.65625 C9.49479,3.57292 8.97917,4.38021 8.34375,5.07812 C7.6875,5.79688 6.90104,6.47396 5.98438,7.10938 C5.07812,7.73438 4.15104,8.29688 3.20312,8.79688 C1.27604,9.76562 0.208333,10.25 0,10.25 C-0.166667,10.25 -0.25,10.1667 -0.25,10 C-0.25,9.9375 -0.223958,9.88021 -0.171875,9.82812 C0.494792,9.43229 1.30729,8.93229 2.26562,8.32812 C2.89062,7.92188 3.61979,7.35938 4.45312,6.64062 C5.26562,5.96354 5.89062,5.32812 6.32812,4.73438 C6.78646,4.14062 7.20312,3.41146 7.57812,2.54688 C7.90104,1.67188 8.0625,0.807292 8.0625,-0.046875 C8.0625,-1.30729 7.75,-2.40625 7.125,-3.34375 C6.5,-4.28125 5.67708,-4.75 4.65625,-4.75 C3.92708,-4.75 3.30208,-4.51562 2.78125,-4.04688 C2.21875,-3.56771 1.8125,-2.96354 1.5625,-2.23438 C1.8125,-2.33854 2.04167,-2.39062 2.25,-2.39062 C2.79167,-2.39062 3.26042,-2.19271 3.65625,-1.79688 C4.04167,-1.38021 4.23438,-0.90625 4.23438,-0.375 C4.23438,0.1875 4.04688,0.692708 3.67188,1.14062 C3.26562,1.53646 2.79167,1.73438 2.25,1.73438 C1.66667,1.73438 1.14062,1.53646 0.671875,1.14062 C0.223958,0.692708 0,0.1875 0,-0.375 C0,-1.71875 0.458333,-2.86458 1.375,-3.8125 C2.27083,-4.77083 3.36458,-5.25 4.65625,-5.25"/>
<path class="Clef" transform="matrix(0.992126,0,0,0.992126,50.0961,117.071)" d="M7.34375,-5.125 C7.34375,-5.125 7.38542,-5.125 7.46875,-5.125 C7.52083,-5.13542 7.5625,-5.14062 7.59375,-5.14062 C9.05208,-5.14062 10.25,-4.625 11.1875,-3.59375 C12.125,-2.58333 12.5938,-1.40104 12.5938,-0.046875 C12.5938,1.64062 11.901,3.01042 10.5156,4.0625 C10.151,4.35417 9.67188,4.58854 9.07812,4.76562 C9.15104,5.60938 9.1875,6.29167 9.1875,6.8125 C9.1875,6.91667 9.17188,7.29688 9.14062,7.95312 C9.08854,9.16146 8.67188,10.2083 7.89062,11.0938 C7.14062,11.9688 6.20312,12.4062 5.07812,12.4062 C4.02604,12.4062 3.13021,12.0365 2.39062,11.2969 C1.64062,10.5365 1.26562,9.625 1.26562,8.5625 C1.26562,8 1.48438,7.52083 1.92188,7.125 C2.35938,6.73958 2.86979,6.54688 3.45312,6.54688 C3.97396,6.54688 4.41146,6.75 4.76562,7.15625 C5.13021,7.53125 5.3125,8 5.3125,8.5625 C5.3125,9.0625 5.13021,9.49479 4.76562,9.85938 C4.40104,10.224 3.96354,10.4062 3.45312,10.4062 C3.24479,10.4062 3.04688,10.3698 2.85938,10.2969 C3.43229,11.1406 4.19271,11.5625 5.14062,11.5625 C6.03646,11.5625 6.77083,11.1979 7.34375,10.4688 C7.94792,9.71875 8.27604,8.83854 8.32812,7.82812 C8.34896,7.20312 8.35938,6.84896 8.35938,6.76562 C8.35938,6.03646 8.33333,5.4375 8.28125,4.96875 C7.63542,5.07292 7.05729,5.125 6.54688,5.125 C4.73438,5.125 3.19271,4.40625 1.92188,2.96875 C0.671875,1.52083 0.046875,-0.197917 0.046875,-2.1875 C0.046875,-2.60417 0.0833333,-3.02604 0.15625,-3.45312 C0.239583,-3.80729 0.338542,-4.19271 0.453125,-4.60938 C0.515625,-4.84896 0.692708,-5.22917 0.984375,-5.75 C1.08854,-5.90625 1.20573,-6.10156 1.33594,-6.33594 C1.46615,-6.57031 1.55729,-6.72396 1.60938,-6.79688 C1.73438,-7.05729 1.98438,-7.41146 2.35938,-7.85938 C2.46354,-7.97396 2.57292,-8.10156 2.6875,-8.24219 C2.80208,-8.38281 2.89844,-8.5 2.97656,-8.59375 C3.05469,-8.6875 3.11198,-8.76042 3.14844,-8.8125 C3.1849,-8.86458 3.47917,-9.20833 4.03125,-9.84375 C4.15625,-9.97917 4.28125,-10.1198 4.40625,-10.2656 C4.53125,-10.4115 4.63281,-10.5286 4.71094,-10.6172 C4.78906,-10.7057 4.84896,-10.7656 4.89062,-10.7969 C4.42188,-12.349 4.125,-13.5885 4,-14.5156 C3.91667,-15.2552 3.875,-16.2708 3.875,-17.5625 C3.875,-18.6979 4.13542,-19.7604 4.65625,-20.75 C5.15625,-21.7708 5.86458,-22.6094 6.78125,-23.2656 C6.84375,-23.3073 6.90625,-23.3281 6.96875,-23.3281 C7.0625,-23.3281 7.13021,-23.3073 7.17188,-23.2656 C7.86979,-22.4219 8.47396,-21.3229 8.98438,-19.9688 C9.50521,-18.6146 9.76562,-17.3802 9.76562,-16.2656 C9.76562,-15.0156 9.46875,-13.8438 8.875,-12.75 C8.19792,-11.5938 7.32292,-10.3958 6.25,-9.15625 C6.52083,-8.30208 6.88542,-6.95833 7.34375,-5.125 M9,3.96875 C9.67708,3.71875 10.2083,3.29688 10.5938,2.70312 C11.0104,2.13021 11.2188,1.48438 11.2188,0.765625 C11.2188,-0.161458 10.9062,-0.984375 10.2812,-1.70312 C9.63542,-2.44271 8.81771,-2.85938 7.82812,-2.95312 C8.39062,-0.203125 8.78125,2.10417 9,3.96875 M1.45312,-0.546875 C1.45312,0.744792 1.97396,1.88021 3.01562,2.85938 C4.07812,3.80729 5.27604,4.28125 6.60938,4.28125 C7.15104,4.28125 7.68229,4.23958 8.20312,4.15625 C7.99479,2.17708 7.58333,-0.192708 6.96875,-2.95312 C6.22917,-2.86979 5.64062,-2.60938 5.20312,-2.17188 C4.76562,-1.71354 4.54688,-1.19792 4.54688,-0.625 C4.54688,0.364583 5.07812,1.16667 6.14062,1.78125 C6.22396,1.875 6.26562,1.97396 6.26562,2.07812 C6.26562,2.18229 6.22396,2.27604 6.14062,2.35938 C6.05729,2.45312 5.95833,2.5 5.84375,2.5 C5.83333,2.5 5.77604,2.48958 5.67188,2.46875 C4.92188,2.0625 4.34896,1.54167 3.95312,0.90625 C3.56771,0.21875 3.375,-0.46875 3.375,-1.15625 C3.375,-2.05208 3.65625,-2.86458 4.21875,-3.59375 C4.80208,-4.32292 5.5625,-4.79167 6.5,-5 C6.13542,-6.45833 5.83854,-7.59896 5.60938,-8.42188 C5.40104,-8.18229 5.15104,-7.89844 4.85938,-7.57031 C4.56771,-7.24219 4.39583,-7.04167 4.34375,-6.96875 C3.875,-6.36458 3.51562,-5.89062 3.26562,-5.54688 C2.81771,-4.93229 2.48958,-4.40625 2.28125,-3.96875 C2.0625,-3.46875 1.86979,-2.92708 1.70312,-2.34375 C1.53646,-1.78125 1.45312,-1.18229 1.45312,-0.546875 M7.96875,-20.4062 C6.98958,-19.9271 6.22396,-19.2396 5.67188,-18.3438 C5.09896,-17.4167 4.8125,-16.4219 4.8125,-15.3594 C4.8125,-14.4219 5.04688,-13.1562 5.51562,-11.5625 C6.45312,-12.6979 7.15625,-13.7448 7.625,-14.7031 C8.11458,-15.724 8.35938,-16.7865 8.35938,-17.8906 C8.35938,-18.724 8.22917,-19.5625 7.96875,-20.4062"/>
<path class="KeySig" transform="matrix(0.992126,0,0,0.992126,65.3516,305.575)" d="M4.3125,6.23438 C4.3125,6.48438 4.1901,6.60938 3.94531,6.60938 C3.70052,6.60938 3.57812,6.48438 3.57812,6.23438 L3.57812,3.34375 L1.92188,3.96875 L1.92188,7.125 C1.92188,7.375 1.79688,7.5 1.54688,7.5 C1.29688,7.5 1.17188,7.375 1.17188,7.125 L1.17188,4.21875 L0.546875,4.45312 C0.536458,4.46354 0.484375,4.46875 0.390625,4.46875 C0.286458,4.46875 0.195312,4.42969 0.117188,4.35156 C0.0390625,4.27344 0,4.18229 0,4.07812 L0,2.875 C0,2.67708 0.0833333,2.55208 0.25,2.5 L1.17188,2.1875 L1.17188,-1.01562 L0.546875,-0.796875 C0.536458,-0.786458 0.484375,-0.78125 0.390625,-0.78125 C0.286458,-0.78125 0.195312,-0.820312 0.117188,-0.898438 C0.0390625,-0.976562 0,-1.06771 0,-1.17188 L0,-2.39062 C0,-2.56771 0.0833333,-2.68229 0.25,-2.73438 L1.17188,-3.09375 L1.17188,-6.23438 C1.17188,-6.48438 1.29688,-6.60938 1.54688,-6.60938 C1.79688,-6.60938 1.92188,-6.48438 1.92188,-6.23438 L1.92188,-3.34375 L3.57812,-3.96875 L3.57812,-7.125 C3.57812,-7.375 3.70052,-7.5 3.94531,-7.5 C4.1901,-7.5 4.3125,-7.375 4.3125,-7.125 L4.3125,-4.21875 L4.96875,-4.45312 C4.97917,-4.46354 5.02083,-4.46875 5.09375,-4.46875 C5.1875,-4.46875 5.28646,-4.43229 5.39062,-4.35938 C5.47396,-4.27604 5.51562,-4.18229 5.51562,-4.07812 L5.51562,-2.875 C5.51562,-2.6875 5.42188,-2.5625 5.23438,-2.5 L4.3125,-2.1875 L4.3125,1.01562 L4.96875,0.796875 C4.97917,0.786458 5.02083,0.78125 5.09375,0.78125 C5.1875,0.78125 5.28646,0.822917 5.39062,0.90625 C5.47396,0.979167 5.51562,1.06771 5.51562,1.17188 L5.51562,2.39062 C5.51562,2.55729 5.42188,2.67188 5.23438,2.73438 L4.3125,3.09375 L4.3125,6.23438 M3.57812,-1.89062 L1.92188,-1.3125 L1.92188,1.89062 L3.57812,1.3125 L3.57812,-1.89062 "/>
<path class="KeySig" transform="matrix(0.992126,0,0,0.992126,65.3516,248.528)" d="M4.3125,6.23438 C4.3125,6.48438 4.1901,6.60938 3.94531,6.60938 C3.70052,6.60938 3.57812,6.48438 3.57812,6.23438 L3.57812,3.34375 L1.92188,3.96875 L1.92188,7.125 C1.92188,7.375 1.79688,7.5 1.54688,7.5 C1.29688,7.5 1.17188,7.375 1.17188,7.125 L1.17188,4.21875 L0.546875,4.45312 C0.536458,4.46354 0.484375,4.46875 0.390625,4.46875 C0.286458,4.46875 0.195312,4.42969 0.117188,4.35156 C0.0390625,4.27344 0,4.18229 0,4.07812 L0,2.875 C0,2.67708 0.0833333,2.55208 0.25,2.5 L1.17188,2.1875 L1.17188,-1.01562 L0.546875,-0.796875 C0.536458,-0.786458 0.484375,-0.78125 0.390625,-0.78125 C0.286458,-0.78125 0.195312,-0.820312 0.117188,-0.898438 C0.0390625,-0.976562 0,-1.06771 0,-1.17188 L0,-2.39062 C0,-2.56771 0.0833333,-2.68229 0.25,-2.73438 L1.17188,-3.09375 L1.17188,-6.23438 C1.17188,-6.48438 1.29688,-6.60938 1.54688,-6.60938 C1.79688,-6.60938 1.92188,-6.48438 1.92188,-6.23438 L1.92188,-3.34375 L3.57812,-3.96875 L3.57812,-7.125 C3.57812,-7.375 3.70052,-7.5 3.94531,-7.5 C4.1901,-7.5 4.3125,-7.375 4.3125,-7.125 L4.3125,-4.21875 L4.96875,-4.45312 C4.97917,-4.46354 5.02083,-4.46875 5.09375,-4.46875 C5.1875,-4.46875 5.28646,-4.43229 5.39062,-4.35938 C5.47396,-4.27604 5.51562,-4.18229 5.51562,-4.07812 L5.51562,-2.875 C5.51562,-2.6875 5.42188,-2.5625 5.23438,-2.5 L4.3125,-2.1875 L4.3125,1.01562 L4.96875,0.796875 C4.97917,0.786458 5.02083,0.78125 5.09375,0.78125 C5.1875,0.78125 5.28646,0.822917 5.39062,0.90625 C5.47396,0.979167 5.51562,1.06771 5.51562,1.17188 L5.51562,2.39062 C5.51562,2.55729 5.42188,2.67188 5.23438,2.73438 L4.3125,3.09375 L4.3125,6.23438 M3.57812,-1.89062 L1.92188,-1.3125 L1.92188,1.89062 L3.57812,1.3125 L3.57812,-1.89062 "/>
<path class="KeySig" transform="matrix(0.992126,0,0,0.992126,65.3516,159.236)" d="M4.3125,6.23438 C4.3125,6.48438 4.1901,6.60938 3.94531,6.60938 C3.70052,6.60938 3.57812,6.48438 3.57812,6.23438 L3.57812,3.34375 L1.92188,3.96875 L1.92188,7.125 C1.92188,7.375 1.79688,7.5 1.54688,7.5 C1.29688,7.5 1.17188,7.375 1.17188,7.125 L1.17188,4.21875 L0.546875,4.45312 C0.536458,4.46354 0.484375,4.46875 0.390625,4.46875 C0.286458,4.46875 0.195312,4.42969 0.117188,4.35156 C0.0390625,4.27344 0,4.18229 0,4.07812 L0,2.875 C0,2.67708 0.0833333,2.55208 0.25,2.5 L1.17188,2.1875 L1.17188,-1.01562 L0.546875,-0.796875 C0.536458,-0.786458 0.484375,-0.78125 0.390625,-0.78125 C0.286458,-0.78125 0.195312,-0.820312 0.117188,-0.898438 C0.0390625,-0.976562 0,-1.06771 0,-1.17188 L0,-2.39062 C0,-2.56771 0.0833333,-2.68229 0.25,-2.73438 L1.17188,-3.09375 L1.17188,-6.23438 C1.17188,-6.48438 1.29688,-6.60938 1.54688,-6.60938 C1.79688,-6.60938 1.92188,-6.48438 1.92188,-6.23438 L1.92188,-3.34375 L3.57812,-3.96875 L3.57812,-7.125 C3.57812,-7.375 3.70052,-7.5 3.94531,-7.5 C4.1901,-7.5 4.3125,-7.375 4.3125,-7.125 L4.3125,-4.21875 L4.96875,-4.45312 C4.97917,-4.46354 5.02083,-4.46875 5.09375,-4.46875 C5.1875,-4.46875 5.28646,-4.43229 5.39062,-4.35938 C5.47396,-4.27604 5.51562,-4.18229 5.51562,-4.07812 L5.51562,-2.875 C5.51562,-2.6875 5.42188,-2.5625 5.23438,-2.5 L4.3125,-2.1875 L4.3125,1.01562 L4.96875,0.796875 C4.97917,0.786458 5.02083,0.78125 5.09375,0.78125 C5.1875,0.78125 5.28646,0.822917 5.39062,0.90625 C5.47396,0.979167 5.51562,1.06771 5.51562,1.17188 L5.51562,2.39062 C5.51562,2.55729 5.42188,2.67188 5.23438,2.73438 L4.3125,3.09375 L4.3125,6.23438 M3.57812,-1.89062 L1.92188,-1.3125 L1.92188,1.89062 L3.57812,1.3125 L3.57812,-1.89062 "/>
<path class="KeySig" transform="matrix(0.992126,0,0,0.992126,65.3516,102.189)" d="M4.3125,6.23438 C4.3125,6.48438 4.1901,6.60938 3.94531,6.60938 C3.70052,6.60938 3.57812,6.48438 3.57812,6.23438 L3.57812,3.34375 L1.92188,3.96875 L1.92188,7.125 C1.92188,7.375 1.79688,7.5 1.54688,7.5 C1.29688,7.5 1.17188,7.375 1.17188,7.125 L1.17188,4.21875 L0.546875,4.45312 C0.536458,4.46354 0.484375,4.46875 0.390625,4.46875 C0.286458,4.46875 0.195312,4.42969 0.117188,4.35156 C0.0390625,4.27344 0,4.18229 0,4.07812 L0,2.875 C0,2.67708 0.0833333,2.55208 0.25,2.5 L1.17188,2.1875 L1.17188,-1.01562 L0.546875,-0.796875 C0.536458,-0.786458 0.484375,-0.78125 0.390625,-0.78125 C0.286458,-0.78125 0.195312,-0.820312 0.117188,-0.898438 C0.0390625,-0.976562 0,-1.06771 0,-1.17188 L0,-2.39062 C0,-2.56771 0.0833333,-2.68229 0.25,-2.73438 L1.17188,-3.09375 L1.17188,-6.23438 C1.17188,-6.48438 1.29688,-6.60938 1.54688,-6.60938 C1.79688,-6.60938 1.92188,-6.48438 1.92188,-6.23438 L1.92188,-3.34375 L3.57812,-3.96875 L3.57812,-7.125 C3.57812,-7.375 3.70052,-7.5 3.94531,-7.5 C4.1901,-7.5 4.3125,-7.375 4.3125,-7.125 L4.3125,-4.21875 L4.96875,-4.45312 C4.97917,-4.46354 5.02083,-4.46875 5.09375,-4.46875 C5.1875,-4.46875 5.28646,-4.43229 5.39062,-4.35938 C5.47396,-4.27604 5.51562,-4.18229 5.51562,-4.07812 L5.51562,-2.875 C5.51562,-2.6875 5.42188,-2.5625 5.23438,-2.5 L4.3125,-2.1875 L4.3125,1.01562 L4.96875,0.796875 C4.97917,0.786458 5.02083,0.78125 5.09375,0.78125 C5.1875,0.78125 5.28646,0.822917 5.39062,0.90625 C5.47396,0.979167 5.51562,1.06771 5.51562,1.17188 L5.51562,2.39062 C5.51562,2.55729 5.42188,2.67188 5.23438,2.73438 L4.3125,3.09375 L4.3125,6.23438 M3.57812,-1.89062 L1.92188,-1.3125 L1.92188,1.89062 L3.57812,1.3125 L3.57812,-1.89062 "/>
<path class="TimeSig" transform="matrix(0.992126,0,0,0.992126,74.0436,159.236)" d="M5.25,-0.296875 C5.25,-0.161458 5.32292,-0.0364583 5.46875,0.078125 C5.67708,0.234375 5.83854,0.354167 5.95312,0.4375 C6.10938,0.520833 6.27604,0.729167 6.45312,1.0625 C6.58854,1.375 6.65625,1.75521 6.65625,2.20312 C6.65625,3.10938 6.32812,3.80208 5.67188,4.28125 C4.99479,4.76042 4.13542,5 3.09375,5 C2.23958,5 1.52083,4.79167 0.9375,4.375 C0.3125,3.98958 0,3.44271 0,2.73438 C0,2.40104 0.130208,2.08854 0.390625,1.79688 C0.661458,1.54688 0.973958,1.42188 1.32812,1.42188 C1.69271,1.42188 1.99479,1.55208 2.23438,1.8125 C2.49479,2.0625 2.625,2.36979 2.625,2.73438 C2.625,2.90104 2.49479,3.08333 2.23438,3.28125 C1.95312,3.46875 1.8125,3.64583 1.8125,3.8125 C1.8125,4.0625 1.9375,4.24479 2.1875,4.35938 C2.44792,4.47396 2.75,4.53125 3.09375,4.53125 C3.54167,4.53125 3.86458,4.3125 4.0625,3.875 C4.25,3.38542 4.34375,2.82812 4.34375,2.20312 L4.34375,1.875 C4.34375,1.5 4.32812,1.16667 4.29688,0.875 C4.27604,0.65625 4.1875,0.458333 4.03125,0.28125 C3.88542,0.09375 3.65625,0 3.34375,0 L1.73438,0 C1.55729,0 1.46875,-0.0989583 1.46875,-0.296875 C1.46875,-0.463542 1.55729,-0.5625 1.73438,-0.59375 L3.34375,-0.59375 C3.70833,-0.59375 3.96875,-0.708333 4.125,-0.9375 C4.25,-1.125 4.3125,-1.45312 4.3125,-1.92188 L4.3125,-2.5625 L4.3125,-2.71875 C4.3125,-3.92708 3.86979,-4.53125 2.98438,-4.53125 C2.20312,-4.53125 1.8125,-4.31771 1.8125,-3.89062 C1.8125,-3.74479 1.9375,-3.58854 2.1875,-3.42188 C2.42708,-3.25521 2.54688,-3.09896 2.54688,-2.95312 C2.54688,-2.63021 2.42708,-2.34896 2.1875,-2.10938 C1.96875,-1.89062 1.69792,-1.78125 1.375,-1.78125 C1.0625,-1.78125 0.791667,-1.89062 0.5625,-2.10938 C0.34375,-2.35938 0.234375,-2.64062 0.234375,-2.95312 C0.234375,-3.56771 0.510417,-4.06771 1.0625,-4.45312 C1.63542,-4.81771 2.28646,-5 3.01562,-5 C3.98438,-5 4.79167,-4.8125 5.4375,-4.4375 C6.07292,-4.07292 6.39062,-3.5 6.39062,-2.71875 C6.39062,-2.15625 6.33333,-1.73438 6.21875,-1.45312 C6.09375,-1.15104 5.96354,-0.96875 5.82812,-0.90625 C5.67188,-0.833333 5.54167,-0.755208 5.4375,-0.671875 C5.3125,-0.567708 5.25,-0.442708 5.25,-0.296875"/>
<path class="TimeSig" transform="matrix(0.992126,0,0,0.992126,73.346,169.157)" d="M4.5,-4.75 C4.88542,-4.75 5.21615,-4.79427 5.49219,-4.88281 C5.76823,-4.97135 5.94271,-5.01562 6.01562,-5.01562 C6.10938,-5.01562 6.18229,-4.98958 6.23438,-4.9375 C6.27604,-4.90625 6.30208,-4.86458 6.3125,-4.8125 C6.3125,-4.78125 6.29688,-4.73958 6.26562,-4.6875 L0.59375,1.92188 L3.92188,1.92188 L3.92188,-0.703125 C3.92188,-0.869792 3.96875,-1.01562 4.0625,-1.14062 C4.21875,-1.26562 4.34896,-1.34375 4.45312,-1.375 C4.61979,-1.44792 4.82812,-1.63021 5.07812,-1.92188 C5.28646,-2.15104 5.53646,-2.55729 5.82812,-3.14062 C5.85938,-3.22396 5.91667,-3.26562 6,-3.26562 C6.15625,-3.26562 6.24479,-3.17188 6.26562,-2.98438 L6.26562,1.92188 L7.70312,1.92188 C7.88021,1.92188 7.98438,2.01562 8.01562,2.20312 C8.01562,2.40104 7.91146,2.5 7.70312,2.5 L6.26562,2.5 L6.26562,2.65625 C6.26562,3.17708 6.39583,3.61979 6.65625,3.98438 C6.95833,4.34896 7.3125,4.53125 7.71875,4.53125 C7.875,4.53125 7.95312,4.60938 7.95312,4.76562 C7.95312,4.92188 7.875,5 7.71875,5 C7.44792,5 7.00521,4.96354 6.39062,4.89062 C5.82812,4.79688 5.39062,4.75 5.07812,4.75 C4.75521,4.75 4.31771,4.79688 3.76562,4.89062 C3.18229,4.96354 2.75,5 2.46875,5 C2.3125,5 2.23438,4.92188 2.23438,4.76562 C2.23438,4.60938 2.3125,4.53125 2.46875,4.53125 C2.86458,4.53125 3.21354,4.34375 3.51562,3.96875 C3.78646,3.58333 3.92188,3.11979 3.92188,2.57812 L0.59375,2.57812 C0.364583,2.57812 0.208333,2.51562 0.125,2.39062 C0.0104167,2.30729 -0.046875,2.1875 -0.046875,2.03125 C-0.046875,1.98958 0.0520833,1.85417 0.25,1.625 C0.479167,1.36458 0.713542,1.04688 0.953125,0.671875 C1.24479,0.223958 1.52083,-0.234375 1.78125,-0.703125 C2.0625,-1.23438 2.29167,-1.84896 2.46875,-2.54688 C2.65625,-3.24479 2.75,-3.95833 2.75,-4.6875 C2.75,-4.89583 2.84375,-5 3.03125,-5 C3.07292,-5 3.15625,-4.97917 3.28125,-4.9375 C3.32292,-4.92708 3.40625,-4.90885 3.53125,-4.88281 C3.65625,-4.85677 3.75521,-4.83333 3.82812,-4.8125 C4.06771,-4.77083 4.29167,-4.75 4.5,-4.75"/>
<path class="TimeSig" transform="matrix(0.992126,0,0,0.992126,74.0436,107.15)" d="M5.25,-0.296875 C5.25,-0.161458 5.32292,-0.0364583 5.46875,0.078125 C5.67708,0.234375 5.83854,0.354167 5.95312,0.4375 C6.10938,0.520833 6.27604,0.729167 6.45312,1.0625 C6.58854,1.375 6.65625,1.75521 6.65625,2.20312 C6.65625,3.10938 6.32812,3.80208 5.67188,4.28125 C4.99479,4.76042 4.13542,5 3.09375,5 C2.23958,5 1.52083,4.79167 0.9375,4.375 C0.3125,3.98958 0,3.44271 0,2.73438 C0,2.40104 0.130208,2.08854 0.390625,1.79688 C0.661458,1.54688 0.973958,1.42188 1.32812,1.42188 C1.69271,1.42188 1.99479,1.55208 2.23438,1.8125 C2.49479,2.0625 2.625,2.36979 2.625,2.73438 C2.625,2.90104 2.49479,3.08333 2.23438,3.28125 C1.95312,3.46875 1.8125,3.64583 1.8125,3.8125 C1.8125,4.0625 1.9375,4.24479 2.1875,4.35938 C2.44792,4.47396 2.75,4.53125 3.09375,4.53125 C3.54167,4.53125 3.86458,4.3125 4.0625,3.875 C4.25,3.38542 4.34375,2.82812 4.34375,2.20312 L4.34375,1.875 C4.34375,1.5 4.32812,1.16667 4.29688,0.875 C4.27604,0.65625 4.1875,0.458333 4.03125,0.28125 C3.88542,0.09375 3.65625,0 3.34375,0 L1.73438,0 C1.55729,0 1.46875,-0.0989583 1.46875,-0.296875 C1.46875,-0.463542 1.55729,-0.5625 1.73438,-0.59375 L3.34375,-0.59375 C3.70833,-0.59375 3.96875,-0.708333 4.125,-0.9375 C4.25,-1.125 4.3125,-1.45312 4.3125,-1.92188 L4.3125,-2.5625 L4.3125,-2.71875 C4.3125,-3.92708 3.86979,-4.53125 2.98438,-4.53125 C2.20312,-4.53125 1.8125,-4.31771 1.8125,-3.89062 C1.8125,-3.74479 1.9375,-3.58854 2.1875,-3.42188 C2.42708,-3.25521 2.54688,-3.09896 2.54688,-2.95312 C2.54688,-2.63021 2.42708,-2.34896 2.1875,-2.10938 C1.96875,-1.89062 1.69792,-1.78125 1.375,-1.78125 C1.0625,-1.78125 0.791667,-1.89062 0.5625,-2.10938 C0.34375,-2.35938 0.234375,-2.64062 0.234375,-2.95312 C0.234375,-3.56771 0.510417,-4.06771 1.0625,-4.45312 C1.63542,-4.81771 2.28646,-5 3.01562,-5 C3.98438,-5 4.79167,-4.8125 5.4375,-4.4375 C6.07292,-4.07292 6.39062,-3.5 6.39062,-2.71875 C6.39062,-2.15625 6.33333,-1.73438 6.21875,-1.45312 C6.09375,-1.15104 5.96354,-0.96875 5.82812,-0.90625 C5.67188,-0.833333 5.54167,-0.755208 5.4375,-0.671875 C5.3125,-0.567708 5.25,-0.442708 5.25,-0.296875"/>
<path class="TimeSig" transform="matrix(0.992126,0,0,0.992126,73.346,117.071)" d="M4.5,-4.75 C4.88542,-4.75 5.21615,-4.79427 5.49219,-4.88281 C5.76823,-4.97135 5.94271,-5.01562 6.01562,-5.01562 C6.10938,-5.01562 6.18229,-4.98958 6.23438,-4.9375 C6.27604,-4.90625 6.30208,-4.86458 6.3125,-4.8125 C6.3125,-4.78125 6.29688,-4.73958 6.26562,-4.6875 L0.59375,1.92188 L3.92188,1.92188 L3.92188,-0.703125 C3.92188,-0.869792 3.96875,-1.01562 4.0625,-1.14062 C4.21875,-1.26562 4.34896,-1.34375 4.45312,-1.375 C4.61979,-1.44792 4.82812,-1.63021 5.07812,-1.92188 C5.28646,-2.15104 5.53646,-2.55729 5.82812,-3.14062 C5.85938,-3.22396 5.91667,-3.26562 6,-3.26562 C6.15625,-3.26562 6.24479,-3.17188 6.26562,-2.98438 L6.26562,1.92188 L7.70312,1.92188 C7.88021,1.92188 7.98438,2.01562 8.01562,2.20312 C8.01562,2.40104 7.91146,2.5 7.70312,2.5 L6.26562,2.5 L6.26562,2.65625 C6.26562,3.17708 6.39583,3.61979 6.65625,3.98438 C6.95833,4.34896 7.3125,4.53125 7.71875,4.53125 C7.875,4.53125 7.95312,4.60938 7.95312,4.76562 C7.95312,4.92188 7.875,5 7.71875,5 C7.44792,5 7.00521,4.96354 6.39062,4.89062 C5.82812,4.79688 5.39062,4.75 5.07812,4.75 C4.75521,4.75 4.31771,4.79688 3.76562,4.89062 C3.18229,4.96354 2.75,5 2.46875,5 C2.3125,5 2.23438,4.92188 2.23438,4.76562 C2.23438,4.60938 2.3125,4.53125 2.46875,4.53125 C2.86458,4.53125 3.21354,4.34375 3.51562,3.96875 C3.78646,3.58333 3.92188,3.11979 3.92188,2.57812 L0.59375,2.57812 C0.364583,2.57812 0.208333,2.51562 0.125,2.39062 C0.0104167,2.30729 -0.046875,2.1875 -0.046875,2.03125 C-0.046875,1.98958 0.0520833,1.85417 0.25,1.625 C0.479167,1.36458 0.713542,1.04688 0.953125,0.671875 C1.24479,0.223958 1.52083,-0.234375 1.78125,-0.703125 C2.0625,-1.23438 2.29167,-1.84896 2.46875,-2.54688 C2.65625,-3.24479 2.75,-3.95833 2.75,-4.6875 C2.75,-4.89583 2.84375,-5 3.03125,-5 C3.07292,-5 3.15625,-4.97917 3.28125,-4.9375 C3.32292,-4.92708 3.40625,-4.90885 3.53125,-4.88281 C3.65625,-4.85677 3.75521,-4.83333 3.82812,-4.8125 C4.06771,-4.77083 4.29167,-4.75 4.5,-4.75"/>
<path class="Rest" transform="matrix(0.992126,0,0,0.992126,494.431,253.488)" d="M7.3125,3.125 L0.203125,3.125 C0.0677083,3.125 0,3.0625 0,2.9375 L0,0.203125 C0,0.0677083 0.0677083,0 0.203125,0 L7.3125,0 C7.4375,0 7.5,0.0677083 7.5,0.203125 L7.5,2.9375 C7.5,3.0625 7.4375,3.125 7.3125,3.125"/>
<path class="Rest" transform="matrix(0.992126,0,0,0.992126,375.65,253.488)" d="M7.3125,3.125 L0.203125,3.125 C0.0677083,3.125 0,3.0625 0,2.9375 L0,0.203125 C0,0.0677083 0.0677083,0 0.203125,0 L7.3125,0 C7.4375,0 7.5,0.0677083 7.5,0.203125 L7.5,2.9375 C7.5,3.0625 7.4375,3.125 7.3125,3.125"/>
<path class="Rest" transform="matrix(0.992126,0,0,0.992126,251.179,305.575)" d="M7.3125,3.125 L0.203125,3.125 C0.0677083,3.125 0,3.0625 0,2.9375 L0,0.203125 C0,0.0677083 0.0677083,0 0.203125,0 L7.3125,0 C7.4375,0 7.5,0.0677083 7.5,0.203125 L7.5,2.9375 C7.5,3.0625 7.4375,3.125 7.3125,3.125"/>
<path class="Rest" transform="matrix(0.992126,0,0,0.992126,127.821,305.575)" d="M7.3125,3.125 L0.203125,3.125 C0.0677083,3.125 0,3.0625 0,2.9375 L0,0.203125 C0,0.0677083 0.0677083,0 0.203125,0 L7.3125,0 C7.4375,0 7.5,0.0677083 7.5,0.203125 L7.5,2.9375 C7.5,3.0625 7.4375,3.125 7.3125,3.125"/>
<path class="Rest" transform="matrix(0.992126,0,0,0.992126,499.704,159.236)" d="M7.3125,3.125 L0.203125,3.125 C0.0677083,3.125 0,3.0625 0,2.9375 L0,0.203125 C0,0.0677083 0.0677083,0 0.203125,0 L7.3125,0 C7.4375,0 7.5,0.0677083 7.5,0.203125 L7.5,2.9375 C7.5,3.0625 7.4375,3.125 7.3125,3.125"/>
<path class="Rest" transform="matrix(0.992126,0,0,0.992126,382.539,159.236)" d="M7.3125,3.125 L0.203125,3.125 C0.0677083,3.125 0,3.0625 0,2.9375 L0,0.203125 C0,0.0677083 0.0677083,0 0.203125,0 L7.3125,0 C7.4375,0 7.5,0.0677083 7.5,0.203125 L7.5,2.9375 C7.5,3.0625 7.4375,3.125 7.3125,3.125"/>
<path class="Rest" transform="matrix(0.992126,0,0,0.992126,285.734,164.197)" d="M-0.125,-1.5625 C-0.125,-1.80208 0.0104167,-2.0625 0.28125,-2.34375 C0.46875,-2.55208 0.755208,-2.80208 1.14062,-3.09375 C1.42188,-3.28125 1.69792,-3.57292 1.96875,-3.96875 C2.22917,-4.34375 2.35938,-4.75521 2.35938,-5.20312 C2.35938,-5.72396 2.19271,-6.18229 1.85938,-6.57812 L1.15625,-7.42188 C1.10417,-7.47396 1.07812,-7.53906 1.07812,-7.61719 C1.07812,-7.69531 1.11458,-7.76562 1.1875,-7.82812 C1.28125,-7.90104 1.35938,-7.9375 1.42188,-7.9375 C1.51562,-7.9375 1.58854,-7.89583 1.64062,-7.8125 L4.67188,-4.21875 C4.79688,-4.05208 4.85938,-3.88542 4.85938,-3.71875 C4.85938,-3.47917 4.72917,-3.21875 4.46875,-2.9375 C4.30208,-2.75 4.02604,-2.5 3.64062,-2.1875 C3.33854,-2.01042 3.05208,-1.71875 2.78125,-1.3125 C2.52083,-0.9375 2.39062,-0.526042 2.39062,-0.078125 C2.39062,0.473958 2.54688,0.9375 2.85938,1.3125 L4.53125,3.28125 C4.57292,3.32292 4.60417,3.39062 4.625,3.48438 C4.625,3.56771 4.59375,3.64583 4.53125,3.71875 C4.4375,3.78125 4.35938,3.8125 4.29688,3.8125 C4.27604,3.8125 4.17188,3.73958 3.98438,3.59375 C3.78646,3.4375 3.52604,3.28646 3.20312,3.14062 C2.83854,3.00521 2.47917,2.9375 2.125,2.9375 C1.80208,2.9375 1.53646,3.02604 1.32812,3.20312 C1.15104,3.39062 1.0625,3.74479 1.0625,4.26562 C1.0625,5.05729 1.25,5.68229 1.625,6.14062 C1.66667,6.19271 1.67188,6.25521 1.64062,6.32812 C1.61979,6.38021 1.57292,6.40625 1.5,6.40625 C1.41667,6.40625 1.21875,6.17188 0.90625,5.70312 C0.572917,5.21354 0.265625,4.64583 -0.015625,4 C-0.317708,3.32292 -0.46875,2.76562 -0.46875,2.32812 C-0.46875,1.76562 -0.203125,1.48438 0.328125,1.48438 C0.942708,1.48438 1.73958,1.69271 2.71875,2.10938 L0.078125,-1.0625 C-0.0572917,-1.22917 -0.125,-1.39583 -0.125,-1.5625"/>
<path class="Rest" transform="matrix(0.992126,0,0,0.992126,247.031,164.197)" d="M-0.125,-1.5625 C-0.125,-1.80208 0.0104167,-2.0625 0.28125,-2.34375 C0.46875,-2.55208 0.755208,-2.80208 1.14062,-3.09375 C1.42188,-3.28125 1.69792,-3.57292 1.96875,-3.96875 C2.22917,-4.34375 2.35938,-4.75521 2.35938,-5.20312 C2.35938,-5.72396 2.19271,-6.18229 1.85938,-6.57812 L1.15625,-7.42188 C1.10417,-7.47396 1.07812,-7.53906 1.07812,-7.61719 C1.07812,-7.69531 1.11458,-7.76562 1.1875,-7.82812 C1.28125,-7.90104 1.35938,-7.9375 1.42188,-7.9375 C1.51562,-7.9375 1.58854,-7.89583 1.64062,-7.8125 L4.67188,-4.21875 C4.79688,-4.05208 4.85938,-3.88542 4.85938,-3.71875 C4.85938,-3.47917 4.72917,-3.21875 4.46875,-2.9375 C4.30208,-2.75 4.02604,-2.5 3.64062,-2.1875 C3.33854,-2.01042 3.05208,-1.71875 2.78125,-1.3125 C2.52083,-0.9375 2.39062,-0.526042 2.39062,-0.078125 C2.39062,0.473958 2.54688,0.9375 2.85938,1.3125 L4.53125,3.28125 C4.57292,3.32292 4.60417,3.39062 4.625,3.48438 C4.625,3.56771 4.59375,3.64583 4.53125,3.71875 C4.4375,3.78125 4.35938,3.8125 4.29688,3.8125 C4.27604,3.8125 4.17188,3.73958 3.98438,3.59375 C3.78646,3.4375 3.52604,3.28646 3.20312,3.14062 C2.83854,3.00521 2.47917,2.9375 2.125,2.9375 C1.80208,2.9375 1.53646,3.02604 1.32812,3.20312 C1.15104,3.39062 1.0625,3.74479 1.0625,4.26562 C1.0625,5.05729 1.25,5.68229 1.625,6.14062 C1.66667,6.19271 1.67188,6.25521 1.64062,6.32812 C1.61979,6.38021 1.57292,6.40625 1.5,6.40625 C1.41667,6.40625 1.21875,6.17188 0.90625,5.70312 C0.572917,5.21354 0.265625,4.64583 -0.015625,4 C-0.317708,3.32292 -0.46875,2.76562 -0.46875,2.32812 C-0.46875,1.76562 -0.203125,1.48438 0.328125,1.48438 C0.942708,1.48438 1.73958,1.69271 2.71875,2.10938 L0.078125,-1.0625 C-0.0572917,-1.22917 -0.125,-1.39583 -0.125,-1.5625"/>
<path class="Rest" transform="matrix(0.992126,0,0,0.992126,208.329,112.11)" d="M-0.125,-1.5625 C-0.125,-1.80208 0.0104167,-2.0625 0.28125,-2.34375 C0.46875,-2.55208 0.755208,-2.80208 1.14062,-3.09375 C1.42188,-3.28125 1.69792,-3.57292 1.96875,-3.96875 C2.22917,-4.34375 2.35938,-4.75521 2.35938,-5.20312 C2.35938,-5.72396 2.19271,-6.18229 1.85938,-6.57812 L1.15625,-7.42188 C1.10417,-7.47396 1.07812,-7.53906 1.07812,-7.61719 C1.07812,-7.69531 1.11458,-7.76562 1.1875,-7.82812 C1.28125,-7.90104 1.35938,-7.9375 1.42188,-7.9375 C1.51562,-7.9375 1.58854,-7.89583 1.64062,-7.8125 L4.67188,-4.21875 C4.79688,-4.05208 4.85938,-3.88542 4.85938,-3.71875 C4.85938,-3.47917 4.72917,-3.21875 4.46875,-2.9375 C4.30208,-2.75 4.02604,-2.5 3.64062,-2.1875 C3.33854,-2.01042 3.05208,-1.71875 2.78125,-1.3125 C2.52083,-0.9375 2.39062,-0.526042 2.39062,-0.078125 C2.39062,0.473958 2.54688,0.9375 2.85938,1.3125 L4.53125,3.28125 C4.57292,3.32292 4.60417,3.39062 4.625,3.48438 C4.625,3.56771 4.59375,3.64583 4.53125,3.71875 C4.4375,3.78125 4.35938,3.8125 4.29688,3.8125 C4.27604,3.8125 4.17188,3.73958 3.98438,3.59375 C3.78646,3.4375 3.52604,3.28646 3.20312,3.14062 C2.83854,3.00521 2.47917,2.9375 2.125,2.9375 C1.80208,2.9375 1.53646,3.02604 1.32812,3.20312 C1.15104,3.39062 1.0625,3.74479 1.0625,4.26562 C1.0625,5.05729 1.25,5.68229 1.625,6.14062 C1.66667,6.19271 1.67188,6.25521 1.64062,6.32812 C1.61979,6.38021 1.57292,6.40625 1.5,6.40625 C1.41667,6.40625 1.21875,6.17188 0.90625,5.70312 C0.572917,5.21354 0.265625,4.64583 -0.015625,4 C-0.317708,3.32292 -0.46875,2.76562 -0.46875,2.32812 C-0.46875,1.76562 -0.203125,1.48438 0.328125,1.48438 C0.942708,1.48438 1.73958,1.69271 2.71875,2.10938 L0.078125,-1.0625 C-0.0572917,-1.22917 -0.125,-1.39583 -0.125,-1.5625"/>
<path class="Rest" transform="matrix(0.992126,0,0,0.992126,137.504,107.15)" d="M7.3125,3.125 L0.203125,3.125 C0.0677083,3.125 0,3.0625 0,2.9375 L0,0.203125 C0,0.0677083 0.0677083,0 0.203125,0 L7.3125,0 C7.4375,0 7.5,0.0677083 7.5,0.203125 L7.5,2.9375 C7.5,3.0625 7.4375,3.125 7.3125,3.125"/>
<path class="Fingering" d="M451.212,328.403 L451.212,328.887 L450.384,328.887 L450.384,330.215 L449.775,330.215 L449.775,328.887 L447.525,328.887 L447.525,328.403 L450.04,324.84 L450.384,324.84 L450.384,328.403 L451.212,328.403 M449.759,328.403 L449.759,325.653 L447.853,328.403 L449.759,328.403 "/>
<path class="Fingering" d="M401.905,326.999 C402.03,326.999 402.215,327.075 402.459,327.226 C402.704,327.377 402.915,327.452 403.092,327.452 C403.384,327.452 403.631,327.338 403.834,327.109 C404.037,326.879 404.139,326.598 404.139,326.265 C404.139,326.056 404.11,325.874 404.053,325.718 C403.996,325.562 403.912,325.439 403.803,325.351 C403.694,325.262 403.564,325.189 403.412,325.132 C403.261,325.075 403.118,325.038 402.983,325.023 C402.847,325.007 402.702,324.999 402.545,324.999 L402.545,324.89 C402.722,324.827 402.876,324.767 403.006,324.71 C403.136,324.653 403.274,324.572 403.42,324.468 C403.566,324.364 403.678,324.236 403.756,324.085 C403.834,323.934 403.873,323.765 403.873,323.577 C403.873,323.317 403.793,323.109 403.631,322.952 C403.47,322.796 403.259,322.718 402.998,322.718 C402.738,322.718 402.514,322.786 402.327,322.921 C402.139,323.056 401.962,323.27 401.795,323.562 L401.686,323.53 C401.821,323.155 402.006,322.846 402.241,322.601 C402.475,322.356 402.811,322.234 403.248,322.234 C403.623,322.234 403.926,322.335 404.155,322.538 C404.384,322.741 404.498,323.004 404.498,323.327 C404.498,323.546 404.441,323.739 404.327,323.905 C404.212,324.072 404.019,324.249 403.748,324.437 C404.061,324.572 404.308,324.747 404.491,324.96 C404.673,325.174 404.764,325.484 404.764,325.89 C404.764,326.452 404.548,326.903 404.116,327.241 C403.683,327.58 403.149,327.749 402.514,327.749 C402.233,327.749 402.011,327.708 401.85,327.624 C401.689,327.541 401.608,327.426 401.608,327.28 C401.608,327.197 401.636,327.129 401.694,327.077 C401.751,327.025 401.821,326.999 401.905,326.999"/>
<path class="Fingering" d="M362.273,321.347 C362.293,321.232 362.319,321.128 362.351,321.035 C362.382,320.941 362.439,320.808 362.523,320.636 C362.606,320.464 362.702,320.321 362.812,320.206 C362.921,320.092 363.075,319.99 363.273,319.902 C363.471,319.813 363.689,319.769 363.929,319.769 C364.346,319.769 364.694,319.904 364.976,320.175 C365.257,320.446 365.398,320.779 365.398,321.175 C365.398,321.779 365.059,322.441 364.382,323.16 L363.054,324.581 L364.944,324.581 C365.132,324.581 365.27,324.55 365.359,324.488 C365.447,324.425 365.564,324.279 365.71,324.05 L365.819,324.081 L365.366,325.16 L362.257,325.16 L362.257,325.066 L363.679,323.55 C364.377,322.821 364.726,322.133 364.726,321.488 C364.726,321.144 364.622,320.868 364.413,320.66 C364.205,320.451 363.934,320.347 363.601,320.347 C363.319,320.347 363.096,320.423 362.929,320.574 C362.762,320.725 362.601,320.998 362.444,321.394 L362.273,321.347 "/>
<path class="Fingering" d="M324.25,317.945 C324.146,317.945 323.953,318.002 323.672,318.117 L323.672,318.007 L325.094,317.273 L325.156,317.289 L325.156,322.085 C325.156,322.283 325.206,322.411 325.305,322.468 C325.404,322.526 325.609,322.554 325.922,322.554 L325.922,322.679 L323.719,322.679 L323.719,322.554 C324.021,322.544 324.224,322.5 324.328,322.421 C324.432,322.343 324.484,322.179 324.484,321.929 L324.484,318.32 C324.484,318.07 324.406,317.945 324.25,317.945"/>
<path class="Fingering" d="M281.012,245.012 C281.033,244.898 281.059,244.793 281.09,244.7 C281.121,244.606 281.178,244.473 281.262,244.301 C281.345,244.129 281.441,243.986 281.551,243.872 C281.66,243.757 281.814,243.655 282.012,243.567 C282.21,243.478 282.428,243.434 282.668,243.434 C283.085,243.434 283.434,243.57 283.715,243.84 C283.996,244.111 284.137,244.445 284.137,244.84 C284.137,245.445 283.798,246.106 283.121,246.825 L281.793,248.247 L283.684,248.247 C283.871,248.247 284.009,248.215 284.098,248.153 C284.186,248.09 284.303,247.945 284.449,247.715 L284.559,247.747 L284.106,248.825 L280.996,248.825 L280.996,248.731 L282.418,247.215 C283.116,246.486 283.465,245.799 283.465,245.153 C283.465,244.809 283.361,244.533 283.152,244.325 C282.944,244.116 282.673,244.012 282.34,244.012 C282.059,244.012 281.835,244.088 281.668,244.239 C281.501,244.39 281.34,244.663 281.184,245.059 L281.012,245.012 "/>
<path class="Fingering" d="M242.161,245.704 C242.286,245.704 242.471,245.779 242.716,245.93 C242.96,246.081 243.171,246.157 243.348,246.157 C243.64,246.157 243.888,246.042 244.091,245.813 C244.294,245.584 244.395,245.303 244.395,244.969 C244.395,244.761 244.367,244.579 244.309,244.423 C244.252,244.266 244.169,244.144 244.059,244.055 C243.95,243.967 243.82,243.894 243.669,243.837 C243.518,243.779 243.375,243.743 243.239,243.727 C243.104,243.712 242.958,243.704 242.802,243.704 L242.802,243.594 C242.979,243.532 243.132,243.472 243.263,243.415 C243.393,243.357 243.531,243.277 243.677,243.173 C243.822,243.068 243.934,242.941 244.013,242.79 C244.091,242.639 244.13,242.469 244.13,242.282 C244.13,242.022 244.049,241.813 243.888,241.657 C243.726,241.501 243.515,241.423 243.255,241.423 C242.994,241.423 242.77,241.49 242.583,241.626 C242.395,241.761 242.218,241.975 242.052,242.266 L241.942,242.235 C242.078,241.86 242.263,241.55 242.497,241.305 C242.731,241.061 243.067,240.938 243.505,240.938 C243.88,240.938 244.182,241.04 244.411,241.243 C244.64,241.446 244.755,241.709 244.755,242.032 C244.755,242.251 244.697,242.443 244.583,242.61 C244.468,242.777 244.276,242.954 244.005,243.141 C244.317,243.277 244.565,243.451 244.747,243.665 C244.929,243.878 245.02,244.188 245.02,244.594 C245.02,245.157 244.804,245.607 244.372,245.946 C243.94,246.285 243.406,246.454 242.77,246.454 C242.489,246.454 242.268,246.412 242.106,246.329 C241.945,246.245 241.864,246.131 241.864,245.985 C241.864,245.902 241.893,245.834 241.95,245.782 C242.007,245.73 242.078,245.704 242.161,245.704"/>
<path class="Fingering" d="M202.529,245.012 C202.55,244.898 202.576,244.793 202.607,244.7 C202.638,244.606 202.696,244.473 202.779,244.301 C202.862,244.129 202.959,243.986 203.068,243.872 C203.177,243.757 203.331,243.655 203.529,243.567 C203.727,243.478 203.946,243.434 204.185,243.434 C204.602,243.434 204.951,243.57 205.232,243.84 C205.513,244.111 205.654,244.445 205.654,244.84 C205.654,245.445 205.315,246.106 204.638,246.825 L203.31,248.247 L205.201,248.247 C205.388,248.247 205.526,248.215 205.615,248.153 C205.703,248.09 205.821,247.945 205.966,247.715 L206.076,247.747 L205.623,248.825 L202.513,248.825 L202.513,248.731 L203.935,247.215 C204.633,246.486 204.982,245.799 204.982,245.153 C204.982,244.809 204.878,244.533 204.67,244.325 C204.461,244.116 204.19,244.012 203.857,244.012 C203.576,244.012 203.352,244.088 203.185,244.239 C203.018,244.39 202.857,244.663 202.701,245.059 L202.529,245.012 "/>
<path class="Fingering" d="M158.583,245.704 C158.708,245.704 158.893,245.779 159.138,245.93 C159.383,246.081 159.594,246.157 159.771,246.157 C160.062,246.157 160.31,246.042 160.513,245.813 C160.716,245.584 160.817,245.303 160.817,244.969 C160.817,244.761 160.789,244.579 160.732,244.423 C160.674,244.266 160.591,244.144 160.482,244.055 C160.372,243.967 160.242,243.894 160.091,243.837 C159.94,243.779 159.797,243.743 159.661,243.727 C159.526,243.712 159.38,243.704 159.224,243.704 L159.224,243.594 C159.401,243.532 159.554,243.472 159.685,243.415 C159.815,243.357 159.953,243.277 160.099,243.173 C160.245,243.068 160.357,242.941 160.435,242.79 C160.513,242.639 160.552,242.469 160.552,242.282 C160.552,242.022 160.471,241.813 160.31,241.657 C160.148,241.501 159.937,241.423 159.677,241.423 C159.416,241.423 159.192,241.49 159.005,241.626 C158.817,241.761 158.64,241.975 158.474,242.266 L158.364,242.235 C158.5,241.86 158.685,241.55 158.919,241.305 C159.153,241.061 159.489,240.938 159.927,240.938 C160.302,240.938 160.604,241.04 160.833,241.243 C161.062,241.446 161.177,241.709 161.177,242.032 C161.177,242.251 161.12,242.443 161.005,242.61 C160.89,242.777 160.698,242.954 160.427,243.141 C160.739,243.277 160.987,243.451 161.169,243.665 C161.351,243.878 161.442,244.188 161.442,244.594 C161.442,245.157 161.226,245.607 160.794,245.946 C160.362,246.285 159.828,246.454 159.192,246.454 C158.911,246.454 158.69,246.412 158.528,246.329 C158.367,246.245 158.286,246.131 158.286,245.985 C158.286,245.902 158.315,245.834 158.372,245.782 C158.429,245.73 158.5,245.704 158.583,245.704"/>
<path class="Fingering" d="M124.134,242.052 L124.134,242.536 L123.306,242.536 L123.306,243.864 L122.696,243.864 L122.696,242.536 L120.446,242.536 L120.446,242.052 L122.962,238.489 L123.306,238.489 L123.306,242.052 L124.134,242.052 M122.681,242.052 L122.681,239.302 L120.774,242.052 L122.681,242.052 "/>
<path class="Fingering" d="M85.6219,240.426 C85.6219,240.145 85.5594,239.895 85.4344,239.676 C85.3094,239.457 85.1558,239.285 84.9735,239.16 C84.7912,239.035 84.5906,238.936 84.3719,238.863 C84.1531,238.79 83.963,238.741 83.8016,238.715 C83.6401,238.689 83.4969,238.676 83.3719,238.676 C83.3094,238.676 83.2781,238.655 83.2781,238.613 C83.2781,238.592 83.2781,238.577 83.2781,238.566 L84.1531,236.707 L85.825,236.707 C85.9084,236.707 85.9761,236.694 86.0281,236.668 C86.0802,236.642 86.1375,236.587 86.2,236.504 L86.2625,236.566 L85.9656,237.223 C85.9448,237.275 85.8823,237.301 85.7781,237.301 L84.2156,237.301 L83.8719,237.973 C84.6531,238.118 85.2339,238.348 85.6141,238.66 C85.9943,238.973 86.1844,239.436 86.1844,240.051 C86.1844,240.363 86.1349,240.645 86.036,240.895 C85.937,241.145 85.8094,241.345 85.6531,241.496 C85.4969,241.647 85.3198,241.77 85.1219,241.863 C84.924,241.957 84.7339,242.022 84.5516,242.059 C84.3693,242.095 84.1844,242.113 83.9969,242.113 C83.6948,242.113 83.4552,242.069 83.2781,241.98 C83.1011,241.892 83.0125,241.77 83.0125,241.613 C83.0125,241.415 83.1271,241.316 83.3563,241.316 C83.5125,241.316 83.7078,241.4 83.9422,241.566 C84.1766,241.733 84.3667,241.816 84.5125,241.816 C84.825,241.816 85.088,241.684 85.3016,241.418 C85.5151,241.152 85.6219,240.822 85.6219,240.426"/>
<path class="Fingering" d="M460.34,93.9764 C460.34,93.6951 460.278,93.4451 460.153,93.2264 C460.028,93.0076 459.874,92.8357 459.692,92.7107 C459.51,92.5857 459.309,92.4868 459.09,92.4139 C458.872,92.3409 458.681,92.2915 458.52,92.2654 C458.359,92.2394 458.215,92.2264 458.09,92.2264 C458.028,92.2264 457.997,92.2055 457.997,92.1639 C457.997,92.143 457.997,92.1274 457.997,92.117 L458.872,90.2576 L460.543,90.2576 C460.627,90.2576 460.694,90.2446 460.747,90.2185 C460.799,90.1925 460.856,90.1378 460.918,90.0545 L460.981,90.117 L460.684,90.7732 C460.663,90.8253 460.601,90.8514 460.497,90.8514 L458.934,90.8514 L458.59,91.5232 C459.372,91.6691 459.952,91.8982 460.333,92.2107 C460.713,92.5232 460.903,92.9868 460.903,93.6014 C460.903,93.9139 460.853,94.1951 460.754,94.4451 C460.655,94.6951 460.528,94.8956 460.372,95.0467 C460.215,95.1977 460.038,95.3201 459.84,95.4139 C459.642,95.5076 459.452,95.5727 459.27,95.6092 C459.088,95.6456 458.903,95.6639 458.715,95.6639 C458.413,95.6639 458.174,95.6196 457.997,95.531 C457.819,95.4425 457.731,95.3201 457.731,95.1639 C457.731,94.9659 457.846,94.867 458.075,94.867 C458.231,94.867 458.426,94.9503 458.661,95.117 C458.895,95.2836 459.085,95.367 459.231,95.367 C459.543,95.367 459.806,95.2342 460.02,94.9685 C460.234,94.7029 460.34,94.3722 460.34,93.9764"/>
<path class="Fingering" d="M415.634,95.713 L415.634,96.1974 L414.806,96.1974 L414.806,97.5255 L414.197,97.5255 L414.197,96.1974 L411.947,96.1974 L411.947,95.713 L414.462,92.1505 L414.806,92.1505 L414.806,95.713 L415.634,95.713 M414.181,95.713 L414.181,92.963 L412.275,95.713 L414.181,95.713 "/>
<path class="Fingering" d="M373.791,99.3652 C373.916,99.3652 374.101,99.4407 374.346,99.5918 C374.591,99.7428 374.801,99.8184 374.979,99.8184 C375.27,99.8184 375.518,99.7038 375.721,99.4746 C375.924,99.2454 376.025,98.9642 376.025,98.6309 C376.025,98.4225 375.997,98.2402 375.94,98.084 C375.882,97.9277 375.799,97.8053 375.69,97.7168 C375.58,97.6282 375.45,97.5553 375.299,97.498 C375.148,97.4407 375.005,97.4043 374.869,97.3887 C374.734,97.373 374.588,97.3652 374.432,97.3652 L374.432,97.2559 C374.609,97.1934 374.762,97.1335 374.893,97.0762 C375.023,97.0189 375.161,96.9381 375.307,96.834 C375.453,96.7298 375.565,96.6022 375.643,96.4512 C375.721,96.3001 375.76,96.1309 375.76,95.9434 C375.76,95.6829 375.679,95.4746 375.518,95.3184 C375.356,95.1621 375.145,95.084 374.885,95.084 C374.624,95.084 374.4,95.1517 374.213,95.2871 C374.025,95.4225 373.848,95.6361 373.682,95.9277 L373.572,95.8965 C373.708,95.5215 373.893,95.2116 374.127,94.9668 C374.361,94.722 374.697,94.5996 375.135,94.5996 C375.51,94.5996 375.812,94.7012 376.041,94.9043 C376.27,95.1074 376.385,95.3704 376.385,95.6934 C376.385,95.9121 376.328,96.1048 376.213,96.2715 C376.098,96.4381 375.906,96.6152 375.635,96.8027 C375.947,96.9381 376.195,97.1126 376.377,97.3262 C376.559,97.5397 376.65,97.8496 376.65,98.2559 C376.65,98.8184 376.434,99.2689 376.002,99.6074 C375.57,99.946 375.036,100.115 374.4,100.115 C374.119,100.115 373.898,100.074 373.736,99.9902 C373.575,99.9069 373.494,99.7923 373.494,99.6465 C373.494,99.5631 373.523,99.4954 373.58,99.4434 C373.637,99.3913 373.708,99.3652 373.791,99.3652"/>
<path class="Fingering" d="M334.698,98.6737 C334.719,98.5591 334.745,98.4549 334.776,98.3612 C334.807,98.2674 334.865,98.1346 334.948,97.9627 C335.031,97.7909 335.128,97.6476 335.237,97.533 C335.346,97.4185 335.5,97.3169 335.698,97.2284 C335.896,97.1398 336.115,97.0955 336.354,97.0955 C336.771,97.0955 337.12,97.231 337.401,97.5018 C337.682,97.7726 337.823,98.106 337.823,98.5018 C337.823,99.106 337.484,99.7674 336.807,100.486 L335.479,101.908 L337.37,101.908 C337.557,101.908 337.695,101.877 337.784,101.814 C337.872,101.752 337.99,101.606 338.135,101.377 L338.245,101.408 L337.792,102.486 L334.682,102.486 L334.682,102.392 L336.104,100.877 C336.802,100.148 337.151,99.4601 337.151,98.8143 C337.151,98.4705 337.047,98.1945 336.839,97.9862 C336.63,97.7778 336.359,97.6737 336.026,97.6737 C335.745,97.6737 335.521,97.7492 335.354,97.9002 C335.188,98.0513 335.026,98.3247 334.87,98.7205 L334.698,98.6737 "/>
<path class="Fingering" d="M289.249,98.6737 C289.27,98.5591 289.296,98.4549 289.327,98.3612 C289.358,98.2674 289.416,98.1346 289.499,97.9627 C289.582,97.7909 289.679,97.6476 289.788,97.533 C289.897,97.4185 290.051,97.3169 290.249,97.2284 C290.447,97.1398 290.666,97.0955 290.905,97.0955 C291.322,97.0955 291.671,97.231 291.952,97.5018 C292.233,97.7726 292.374,98.106 292.374,98.5018 C292.374,99.106 292.035,99.7674 291.358,100.486 L290.03,101.908 L291.921,101.908 C292.108,101.908 292.246,101.877 292.335,101.814 C292.423,101.752 292.541,101.606 292.687,101.377 L292.796,101.408 L292.343,102.486 L289.233,102.486 L289.233,102.392 L290.655,100.877 C291.353,100.148 291.702,99.4601 291.702,98.8143 C291.702,98.4705 291.598,98.1945 291.39,97.9862 C291.181,97.7778 290.91,97.6737 290.577,97.6737 C290.296,97.6737 290.072,97.7492 289.905,97.9002 C289.739,98.0513 289.577,98.3247 289.421,98.7205 L289.249,98.6737 "/>
<path class="Fingering" d="M250.937,99.3652 C251.062,99.3652 251.247,99.4407 251.492,99.5918 C251.737,99.7428 251.948,99.8184 252.125,99.8184 C252.416,99.8184 252.664,99.7038 252.867,99.4746 C253.07,99.2454 253.172,98.9642 253.172,98.6309 C253.172,98.4225 253.143,98.2402 253.086,98.084 C253.028,97.9277 252.945,97.8053 252.836,97.7168 C252.726,97.6282 252.596,97.5553 252.445,97.498 C252.294,97.4407 252.151,97.4043 252.015,97.3887 C251.88,97.373 251.734,97.3652 251.578,97.3652 L251.578,97.2559 C251.755,97.1934 251.909,97.1335 252.039,97.0762 C252.169,97.0189 252.307,96.9381 252.453,96.834 C252.599,96.7298 252.711,96.6022 252.789,96.4512 C252.867,96.3001 252.906,96.1309 252.906,95.9434 C252.906,95.6829 252.825,95.4746 252.664,95.3184 C252.502,95.1621 252.291,95.084 252.031,95.084 C251.77,95.084 251.547,95.1517 251.359,95.2871 C251.172,95.4225 250.994,95.6361 250.828,95.9277 L250.718,95.8965 C250.854,95.5215 251.039,95.2116 251.273,94.9668 C251.507,94.722 251.843,94.5996 252.281,94.5996 C252.656,94.5996 252.958,94.7012 253.187,94.9043 C253.416,95.1074 253.531,95.3704 253.531,95.6934 C253.531,95.9121 253.474,96.1048 253.359,96.2715 C253.244,96.4381 253.052,96.6152 252.781,96.8027 C253.093,96.9381 253.341,97.1126 253.523,97.3262 C253.705,97.5397 253.797,97.8496 253.797,98.2559 C253.797,98.8184 253.58,99.2689 253.148,99.6074 C252.716,99.946 252.182,100.115 251.547,100.115 C251.265,100.115 251.044,100.074 250.882,99.9902 C250.721,99.9069 250.64,99.7923 250.64,99.6465 C250.64,99.5631 250.669,99.4954 250.726,99.4434 C250.784,99.3913 250.854,99.3652 250.937,99.3652"/>
<path class="Fingering" d="M209.094,171.606 C208.99,171.606 208.797,171.664 208.516,171.778 L208.516,171.669 L209.938,170.934 L210.001,170.95 L210.001,175.747 C210.001,175.945 210.05,176.072 210.149,176.13 C210.248,176.187 210.454,176.216 210.766,176.216 L210.766,176.341 L208.563,176.341 L208.563,176.216 C208.865,176.205 209.068,176.161 209.172,176.083 C209.277,176.005 209.329,175.841 209.329,175.591 L209.329,171.981 C209.329,171.731 209.251,171.606 209.094,171.606"/>
<path class="Fingering" d="M163.613,175.008 C163.634,174.894 163.66,174.79 163.691,174.696 C163.722,174.602 163.78,174.469 163.863,174.297 C163.946,174.126 164.043,173.982 164.152,173.868 C164.261,173.753 164.415,173.652 164.613,173.563 C164.811,173.475 165.03,173.43 165.269,173.43 C165.686,173.43 166.035,173.566 166.316,173.837 C166.597,174.107 166.738,174.441 166.738,174.837 C166.738,175.441 166.399,176.102 165.722,176.821 L164.394,178.243 L166.285,178.243 C166.472,178.243 166.61,178.212 166.699,178.149 C166.787,178.087 166.905,177.941 167.051,177.712 L167.16,177.743 L166.707,178.821 L163.597,178.821 L163.597,178.727 L165.019,177.212 C165.717,176.482 166.066,175.795 166.066,175.149 C166.066,174.805 165.962,174.529 165.754,174.321 C165.545,174.113 165.274,174.008 164.941,174.008 C164.66,174.008 164.436,174.084 164.269,174.235 C164.103,174.386 163.941,174.659 163.785,175.055 L163.613,175.008 "/>
<path class="Fingering" d="M126.953,180.661 C127.078,180.661 127.262,180.736 127.507,180.887 C127.752,181.038 127.963,181.114 128.14,181.114 C128.432,181.114 128.679,180.999 128.882,180.77 C129.085,180.541 129.187,180.26 129.187,179.926 C129.187,179.718 129.158,179.536 129.101,179.379 C129.044,179.223 128.96,179.101 128.851,179.012 C128.742,178.924 128.611,178.851 128.46,178.793 C128.309,178.736 128.166,178.7 128.031,178.684 C127.895,178.668 127.749,178.661 127.593,178.661 L127.593,178.551 C127.77,178.489 127.924,178.429 128.054,178.372 C128.184,178.314 128.322,178.234 128.468,178.129 C128.614,178.025 128.726,177.898 128.804,177.747 C128.882,177.596 128.921,177.426 128.921,177.239 C128.921,176.978 128.841,176.77 128.679,176.614 C128.518,176.457 128.307,176.379 128.046,176.379 C127.786,176.379 127.562,176.447 127.374,176.582 C127.187,176.718 127.01,176.931 126.843,177.223 L126.734,177.192 C126.869,176.817 127.054,176.507 127.289,176.262 C127.523,176.017 127.859,175.895 128.296,175.895 C128.671,175.895 128.973,175.997 129.203,176.2 C129.432,176.403 129.546,176.666 129.546,176.989 C129.546,177.207 129.489,177.4 129.374,177.567 C129.26,177.734 129.067,177.911 128.796,178.098 C129.109,178.234 129.356,178.408 129.539,178.622 C129.721,178.835 129.812,179.145 129.812,179.551 C129.812,180.114 129.596,180.564 129.164,180.903 C128.731,181.241 128.197,181.411 127.562,181.411 C127.281,181.411 127.059,181.369 126.898,181.286 C126.736,181.202 126.656,181.088 126.656,180.942 C126.656,180.859 126.684,180.791 126.742,180.739 C126.799,180.687 126.869,180.661 126.953,180.661"/>
<path class="Fingering" d="M93.0422,181.969 L93.0422,182.453 L92.2141,182.453 L92.2141,183.782 L91.6047,183.782 L91.6047,182.453 L89.3547,182.453 L89.3547,181.969 L91.8703,178.407 L92.2141,178.407 L92.2141,181.969 L93.0422,181.969 M91.5891,181.969 L91.5891,179.219 L89.6828,181.969 L91.5891,181.969 "/>
<path class="StaffText" d="M66.9203,82.2927 C66.9516,82.9177 66.7953,83.3162 66.4516,83.488 C66.1078,83.6599 65.6078,83.7927 64.9516,83.8865 C64.8578,83.5115 64.7328,83.1365 64.5766,82.7615 C65.2016,82.7927 65.6,82.7615 65.7719,82.6677 C65.9438,82.574 66.0453,82.3865 66.0766,82.1052 L66.0766,74.1833 L61.5297,74.1833 L61.5297,78.4021 C61.5297,79.7146 61.4203,80.7537 61.2016,81.5193 C60.9828,82.2849 60.5922,83.074 60.0297,83.8865 C59.8422,83.6365 59.5609,83.4177 59.1859,83.2302 C59.5922,82.7615 59.8969,82.3005 60.1,81.8474 C60.3031,81.3943 60.4516,80.9099 60.5453,80.3943 C60.6391,79.8787 60.6859,78.8083 60.6859,77.1833 C60.6859,75.5271 60.6703,74.2927 60.6391,73.4802 L66.9672,73.4802 C66.9359,73.949 66.9203,74.574 66.9203,75.3552 L66.9203,82.2927 M65.3734,79.2458 C65.3422,79.6833 65.3266,80.0896 65.3266,80.4646 C65.3266,80.8396 65.3422,81.3083 65.3734,81.8708 L62.1859,81.8708 C62.2172,81.3083 62.2328,80.8396 62.2328,80.4646 C62.2328,80.0896 62.2172,79.6833 62.1859,79.2458 L65.3734,79.2458 M59.7484,79.6677 C59.8734,79.949 60.0453,80.199 60.2641,80.4177 C59.8578,80.824 59.5297,81.1677 59.2797,81.449 C59.0297,81.7302 58.6859,82.1052 58.2484,82.574 C58.0297,82.324 57.8266,82.1052 57.6391,81.9177 C57.8578,81.6677 57.9672,81.4021 57.9672,81.1208 L57.9672,77.3708 L57.5453,77.3708 C57.3266,77.3708 56.9203,77.3865 56.3266,77.4177 L56.3266,76.574 C56.9203,76.6052 57.3266,76.6208 57.5453,76.6208 L58.8578,76.6208 C58.8266,77.1833 58.8109,77.8083 58.8109,78.4958 L58.8109,80.699 C58.9672,80.574 59.2797,80.2302 59.7484,79.6677 M63.3578,75.7771 C63.3578,75.4021 63.3422,75.0115 63.3109,74.6052 L64.2016,74.6052 C64.1703,74.9802 64.1547,75.3708 64.1547,75.7771 C64.4984,75.7771 64.9047,75.7615 65.3734,75.7302 L65.3734,76.5271 C64.9047,76.4958 64.4984,76.4802 64.1547,76.4802 L64.1547,77.6521 C64.7172,77.6521 65.1859,77.6365 65.5609,77.6052 L65.5609,78.449 C65.0609,78.4177 64.4828,78.4021 63.8266,78.4021 C63.1703,78.4021 62.5766,78.4177 62.0453,78.449 L62.0453,77.6052 C62.5766,77.6365 63.0141,77.6521 63.3578,77.6521 L63.3578,76.4802 C62.9516,76.4802 62.5297,76.4958 62.0922,76.5271 L62.0922,75.7302 C62.5609,75.7615 62.9828,75.7771 63.3578,75.7771 M64.5297,81.2146 L64.5297,79.9021 L63.0297,79.9021 L63.0297,81.2146 L64.5297,81.2146 M58.1078,73.2458 C58.4516,73.6521 58.9047,74.2302 59.4672,74.9802 C59.1859,75.1365 58.9359,75.3396 58.7172,75.5896 C58.0922,74.6521 57.6547,74.0583 57.4047,73.8083 C57.6547,73.6521 57.8891,73.4646 58.1078,73.2458 M77.1859,73.4333 C77.1547,73.9021 77.1391,74.4333 77.1391,75.0271 C77.1391,75.6208 77.1547,76.1833 77.1859,76.7146 L70.3891,76.7146 C70.4203,76.2771 70.4359,75.7615 70.4359,75.1677 C70.4359,74.5427 70.4203,73.9646 70.3891,73.4333 L77.1859,73.4333 M77.4672,77.7458 C78.0609,77.7458 78.5922,77.7302 79.0609,77.699 L79.0609,78.5427 C78.5922,78.5115 78.0609,78.4958 77.4672,78.4958 L72.3578,78.4958 C72.2328,78.9333 72.0922,79.4177 71.9359,79.949 L77.4672,79.949 C77.3734,80.449 77.3031,80.8708 77.2563,81.2146 C77.2094,81.5583 77.1391,81.9724 77.0453,82.4568 C76.9516,82.9412 76.7641,83.2693 76.4828,83.4412 C76.2016,83.613 75.3109,83.7458 73.8109,83.8396 C73.6859,83.4958 73.5297,83.1365 73.3422,82.7615 C74.4672,82.7927 75.1781,82.7927 75.475,82.7615 C75.7719,82.7302 75.9672,82.5662 76.0609,82.2693 C76.1547,81.9724 76.2484,81.4646 76.3422,80.7458 L70.7641,80.7458 C71.0453,79.9958 71.2641,79.2458 71.4203,78.4958 L70.2953,78.4958 C69.6391,78.4958 69.0297,78.5115 68.4672,78.5427 L68.4672,77.699 C69.0297,77.7302 69.6391,77.7458 70.2953,77.7458 L77.4672,77.7458 M76.2484,75.9646 L76.2484,74.1833 L71.3266,74.1833 L71.3266,75.9646 L76.2484,75.9646 M94.9047,77.6521 C95.7172,77.6521 96.4516,77.6365 97.1078,77.6052 L97.1078,78.824 C96.4516,78.7927 95.7328,78.7771 94.9516,78.7771 L88.7641,78.7771 C87.9516,78.7771 87.1703,78.7927 86.4203,78.824 L86.4203,77.6052 C87.1703,77.6365 87.9516,77.6521 88.7641,77.6521 L94.9047,77.6521 M104.186,73.6208 C105.498,75.5583 107.202,76.8396 109.295,77.4646 C108.983,77.8396 108.748,78.199 108.592,78.5427 C106.561,77.6677 104.92,76.2771 103.67,74.3708 C102.514,76.2146 100.967,77.6521 99.0297,78.6833 C98.8734,78.4021 98.6078,78.1052 98.2328,77.7927 C99.7328,77.1677 100.897,76.3708 101.725,75.4021 C102.553,74.4333 103.108,73.5583 103.389,72.7771 C103.764,72.9333 104.139,73.074 104.514,73.199 C104.389,73.3552 104.28,73.4958 104.186,73.6208 M103.248,78.2615 C103.248,77.7615 103.217,77.1208 103.155,76.3396 L104.233,76.3396 C104.202,76.8708 104.186,77.5271 104.186,78.3083 L104.186,81.6365 C104.186,82.3552 104.202,83.0896 104.233,83.8396 L103.202,83.8396 C103.233,83.0583 103.248,82.3396 103.248,81.6833 L103.248,78.2615 M116.514,74.0427 C116.108,74.1052 115.514,74.2927 114.733,74.6052 C114.733,75.4177 114.717,76.3396 114.686,77.3708 L117.452,77.3708 L117.452,74.6521 C117.452,74.0271 117.436,73.5115 117.405,73.1052 L118.483,73.1052 C118.452,73.5115 118.436,74.0271 118.436,74.6521 L118.436,77.3708 C119.748,77.3708 120.717,77.3552 121.342,77.324 L121.342,78.2615 C120.78,78.2302 119.811,78.2146 118.436,78.2146 L118.436,81.824 C118.436,82.324 118.452,82.9177 118.483,83.6052 L117.405,83.6052 C117.436,82.949 117.452,82.3552 117.452,81.824 L117.452,78.2146 L114.686,78.2146 C114.592,79.3083 114.233,80.2849 113.608,81.1443 C112.983,82.0037 112.139,82.7927 111.077,83.5115 C110.92,83.2302 110.623,82.9802 110.186,82.7615 C110.905,82.449 111.647,81.863 112.413,81.0037 C113.178,80.1443 113.592,79.2146 113.655,78.2146 L111.405,78.2146 C111.03,78.2146 110.623,78.2302 110.186,78.2615 L110.186,77.324 C110.623,77.3552 111.03,77.3708 111.405,77.3708 L113.702,77.3708 C113.733,76.7458 113.748,75.9177 113.748,74.8865 C112.655,75.1677 111.92,75.3708 111.545,75.4958 C111.42,75.1521 111.202,74.8552 110.889,74.6052 C111.452,74.5427 112.209,74.3708 113.163,74.0896 C114.116,73.8083 114.936,73.4646 115.623,73.0583 L116.514,74.0427 M131.186,73.4333 C131.155,73.9021 131.139,74.4333 131.139,75.0271 C131.139,75.6208 131.155,76.1833 131.186,76.7146 L124.389,76.7146 C124.42,76.2771 124.436,75.7615 124.436,75.1677 C124.436,74.5427 124.42,73.9646 124.389,73.4333 L131.186,73.4333 M131.467,77.7458 C132.061,77.7458 132.592,77.7302 133.061,77.699 L133.061,78.5427 C132.592,78.5115 132.061,78.4958 131.467,78.4958 L126.358,78.4958 C126.233,78.9333 126.092,79.4177 125.936,79.949 L131.467,79.949 C131.373,80.449 131.303,80.8708 131.256,81.2146 C131.209,81.5583 131.139,81.9724 131.045,82.4568 C130.952,82.9412 130.764,83.2693 130.483,83.4412 C130.202,83.613 129.311,83.7458 127.811,83.8396 C127.686,83.4958 127.53,83.1365 127.342,82.7615 C128.467,82.7927 129.178,82.7927 129.475,82.7615 C129.772,82.7302 129.967,82.5662 130.061,82.2693 C130.155,81.9724 130.248,81.4646 130.342,80.7458 L124.764,80.7458 C125.045,79.9958 125.264,79.2458 125.42,78.4958 L124.295,78.4958 C123.639,78.4958 123.03,78.5115 122.467,78.5427 L122.467,77.699 C123.03,77.7302 123.639,77.7458 124.295,77.7458 L131.467,77.7458 M130.248,75.9646 L130.248,74.1833 L125.327,74.1833 L125.327,75.9646 L130.248,75.9646 "/>
<path class="NoteDot" transform="matrix(0.992126,0,0,0.992126,456.58,303.094)" d="M0.335938,0.804688 C0.111979,0.580729 0,0.3125 0,0 C0,-0.3125 0.111979,-0.580729 0.335938,-0.804688 C0.559896,-1.02865 0.828125,-1.14062 1.14062,-1.14062 C1.45312,-1.14062 1.71875,-1.02865 1.9375,-0.804688 C2.15625,-0.580729 2.26562,-0.3125 2.26562,0 C2.26562,0.3125 2.15625,0.580729 1.9375,0.804688 C1.71875,1.02865 1.45312,1.14062 1.14062,1.14062 C0.828125,1.14062 0.559896,1.02865 0.335938,0.804688"/>
<path class="NoteDot" transform="matrix(0.992126,0,0,0.992126,462.662,114.591)" d="M0.335938,0.804688 C0.111979,0.580729 0,0.3125 0,0 C0,-0.3125 0.111979,-0.580729 0.335938,-0.804688 C0.559896,-1.02865 0.828125,-1.14062 1.14062,-1.14062 C1.45312,-1.14062 1.71875,-1.02865 1.9375,-0.804688 C2.15625,-0.580729 2.26562,-0.3125 2.26562,0 C2.26562,0.3125 2.15625,0.580729 1.9375,0.804688 C1.71875,1.02865 1.45312,1.14062 1.14062,1.14062 C0.828125,1.14062 0.559896,1.02865 0.335938,0.804688"/>
<path class="Bracket" fill-rule="evenodd" d="M44.0589,274.118 C44.0589,268.323 40.0677,262.691 40.0677,257.139 C40.0677,254.343 41.1562,251.628 44.5125,249.196 C44.5578,249.166 44.5805,249.115 44.5805,249.085 C44.5805,248.994 44.331,248.913 44.1496,248.913 C44.0589,248.913 43.9002,248.923 43.7868,248.994 C39.4328,252.114 37.9814,255.72 37.9814,259.368 C37.9814,265.243 42.2447,270.917 42.2447,276.55 C42.2447,279.346 41.1562,281.98 37.8,284.411 L37.8,284.492 L37.8,284.573 C41.1562,287.005 42.2447,289.639 42.2447,292.435 C42.2447,298.067 37.9814,303.741 37.9814,309.617 C37.9814,313.264 39.4328,316.87 43.7868,319.991 C43.9002,320.062 44.0589,320.072 44.1496,320.072 C44.331,320.072 44.5805,319.991 44.5805,319.9 C44.5805,319.869 44.5578,319.818 44.5125,319.788 C41.1562,317.357 40.0677,314.642 40.0677,311.845 C40.0677,306.294 44.0589,300.661 44.0589,294.866 C44.0589,291.179 42.6076,287.653 38.3443,284.492 C42.6076,281.331 44.0589,277.806 44.0589,274.118" id="36.2126,266.386 71.1592"/>
<path class="Bracket" fill-rule="evenodd" d="M44.0589,127.78 C44.0589,121.985 40.0677,116.352 40.0677,110.8 C40.0677,108.004 41.1562,105.289 44.5125,102.858 C44.5578,102.827 44.5805,102.777 44.5805,102.746 C44.5805,102.655 44.331,102.574 44.1496,102.574 C44.0589,102.574 43.9002,102.584 43.7868,102.655 C39.4328,105.775 37.9814,109.382 37.9814,113.029 C37.9814,118.905 42.2447,124.578 42.2447,130.211 C42.2447,133.007 41.1562,135.641 37.8,138.073 L37.8,138.154 L37.8,138.235 C41.1562,140.666 42.2447,143.3 42.2447,146.096 C42.2447,151.729 37.9814,157.402 37.9814,163.278 C37.9814,166.925 39.4328,170.532 43.7868,173.652 C43.9002,173.723 44.0589,173.733 44.1496,173.733 C44.331,173.733 44.5805,173.652 44.5805,173.561 C44.5805,173.531 44.5578,173.48 44.5125,173.449 C41.1562,171.018 40.0677,168.303 40.0677,165.507 C40.0677,159.955 44.0589,154.322 44.0589,148.528 C44.0589,144.84 42.6076,141.314 38.3443,138.154 C42.6076,134.993 44.0589,131.467 44.0589,127.78" id="36.2126,120.047 71.1592"/>
</svg>
