<?xml version="1.0" encoding="UTF-8" standalone="no"?>
<svg width="1011.97px" height="831.3px" viewBox="0 0 595.275 489"
 xmlns="http://www.w3.org/2000/svg" xmlns:xlink="http://www.w3.org/1999/xlink" version="1.2" baseProfile="tiny">
<title>33.练习曲</title>
<desc>Generated by MuseScore 2.0.3</desc>
<polyline class="StaffLines" fill="none" stroke="#000000" stroke-width="0.40" stroke-linejoin="bevel" points="46.1339,102.189 559.558,102.189" x="46.1339" y="102.189" bx="46.1339" by="137.769" measure_no="0" elid="0" sysno="1" spatium="4.96063"/>
<polyline class="StaffLines" fill="none" stroke="#000000" stroke-width="0.40" stroke-linejoin="bevel" points="46.1339,107.15 559.558,107.15"/>
<polyline class="StaffLines" fill="none" stroke="#000000" stroke-width="0.40" stroke-linejoin="bevel" points="46.1339,112.11 559.558,112.11"/>
<polyline class="StaffLines" fill="none" stroke="#000000" stroke-width="0.40" stroke-linejoin="bevel" points="46.1339,117.071 559.558,117.071"/>
<polyline class="StaffLines" fill="none" stroke="#000000" stroke-width="0.40" stroke-linejoin="bevel" points="46.1339,122.032 559.558,122.032"/>
<polyline class="StaffLines" fill="none" stroke="#000000" stroke-width="0.40" stroke-linejoin="bevel" points="46.1339,154.276 559.558,154.276"/>
<polyline class="StaffLines" fill="none" stroke="#000000" stroke-width="0.40" stroke-linejoin="bevel" points="46.1339,159.236 559.558,159.236"/>
<polyline class="StaffLines" fill="none" stroke="#000000" stroke-width="0.40" stroke-linejoin="bevel" points="46.1339,164.197 559.558,164.197"/>
<polyline class="StaffLines" fill="none" stroke="#000000" stroke-width="0.40" stroke-linejoin="bevel" points="46.1339,169.157 559.558,169.157"/>
<polyline class="StaffLines" fill="none" stroke="#000000" stroke-width="0.40" stroke-linejoin="bevel" points="46.1339,174.118 559.558,174.118"/>
<polyline class="StaffLines" fill="none" stroke="#000000" stroke-width="0.40" stroke-linejoin="bevel" points="46.1339,248.528 559.558,248.528" x="46.1339" y="248.528" bx="46.1339" by="284.107" measure_no="4" elid="10" sysno="2" spatium="4.96063"/>
<polyline class="StaffLines" fill="none" stroke="#000000" stroke-width="0.40" stroke-linejoin="bevel" points="46.1339,253.488 559.558,253.488"/>
<polyline class="StaffLines" fill="none" stroke="#000000" stroke-width="0.40" stroke-linejoin="bevel" points="46.1339,258.449 559.558,258.449"/>
<polyline class="StaffLines" fill="none" stroke="#000000" stroke-width="0.40" stroke-linejoin="bevel" points="46.1339,263.409 559.558,263.409"/>
<polyline class="StaffLines" fill="none" stroke="#000000" stroke-width="0.40" stroke-linejoin="bevel" points="46.1339,268.37 559.558,268.37"/>
<polyline class="StaffLines" fill="none" stroke="#000000" stroke-width="0.40" stroke-linejoin="bevel" points="46.1339,300.614 559.558,300.614"/>
<polyline class="StaffLines" fill="none" stroke="#000000" stroke-width="0.40" stroke-linejoin="bevel" points="46.1339,305.575 559.558,305.575"/>
<polyline class="StaffLines" fill="none" stroke="#000000" stroke-width="0.40" stroke-linejoin="bevel" points="46.1339,310.535 559.558,310.535"/>
<polyline class="StaffLines" fill="none" stroke="#000000" stroke-width="0.40" stroke-linejoin="bevel" points="46.1339,315.496 559.558,315.496"/>
<polyline class="StaffLines" fill="none" stroke="#000000" stroke-width="0.40" stroke-linejoin="bevel" points="46.1339,320.457 559.558,320.457"/>
<polyline class="StaffLines" fill="none" stroke="#000000" stroke-width="0.40" stroke-linejoin="bevel" points="46.1339,394.866 559.558,394.866" x="46.1339" y="394.866" bx="46.1339" by="430.446" measure_no="8" elid="23" sysno="3" spatium="4.96063"/>
<polyline class="StaffLines" fill="none" stroke="#000000" stroke-width="0.40" stroke-linejoin="bevel" points="46.1339,399.827 559.558,399.827"/>
<polyline class="StaffLines" fill="none" stroke="#000000" stroke-width="0.40" stroke-linejoin="bevel" points="46.1339,404.787 559.558,404.787"/>
<polyline class="StaffLines" fill="none" stroke="#000000" stroke-width="0.40" stroke-linejoin="bevel" points="46.1339,409.748 559.558,409.748"/>
<polyline class="StaffLines" fill="none" stroke="#000000" stroke-width="0.40" stroke-linejoin="bevel" points="46.1339,414.709 559.558,414.709"/>
<polyline class="StaffLines" fill="none" stroke="#000000" stroke-width="0.40" stroke-linejoin="bevel" points="46.1339,446.953 559.558,446.953"/>
<polyline class="StaffLines" fill="none" stroke="#000000" stroke-width="0.40" stroke-linejoin="bevel" points="46.1339,451.913 559.558,451.913"/>
<polyline class="StaffLines" fill="none" stroke="#000000" stroke-width="0.40" stroke-linejoin="bevel" points="46.1339,456.874 559.558,456.874"/>
<polyline class="StaffLines" fill="none" stroke="#000000" stroke-width="0.40" stroke-linejoin="bevel" points="46.1339,461.835 559.558,461.835"/>
<polyline class="StaffLines" fill="none" stroke="#000000" stroke-width="0.40" stroke-linejoin="bevel" points="46.1339,466.795 559.558,466.795"/>
<path class="Text" d="M44.6182,383.117 L44.6026,382.961 C45.2068,382.856 45.7198,382.599 46.1417,382.187 C46.5636,381.776 46.8578,381.242 47.0245,380.586 C46.6287,380.898 46.2276,381.054 45.8214,381.054 C45.3943,381.054 45.0479,380.903 44.7823,380.601 C44.5167,380.299 44.3839,379.908 44.3839,379.429 C44.3839,378.888 44.5427,378.434 44.8604,378.07 C45.1781,377.705 45.5766,377.523 46.0557,377.523 C46.587,377.523 47.0193,377.734 47.3526,378.156 C47.686,378.578 47.8526,379.122 47.8526,379.789 C47.8526,380.007 47.8344,380.229 47.7979,380.453 C47.7615,380.677 47.6755,380.942 47.5401,381.25 C47.4047,381.557 47.225,381.83 47.0011,382.07 C46.7771,382.309 46.462,382.528 46.0557,382.726 C45.6495,382.924 45.1703,383.054 44.6182,383.117 M46.1182,380.695 C46.2224,380.695 46.337,380.682 46.462,380.656 C46.587,380.63 46.7146,380.567 46.8448,380.468 C46.975,380.369 47.0401,380.247 47.0401,380.101 L47.0401,379.789 C47.0401,378.434 46.6912,377.757 45.9932,377.757 C45.8266,377.757 45.6834,377.802 45.5636,377.89 C45.4438,377.979 45.3552,378.096 45.2979,378.242 C45.2406,378.388 45.1964,378.533 45.1651,378.679 C45.1339,378.825 45.1182,378.981 45.1182,379.148 C45.1182,379.627 45.2094,380.005 45.3917,380.281 C45.574,380.557 45.8162,380.695 46.1182,380.695"/>
<path class="Text" d="M47.0089,235.028 C47.0089,234.747 46.9464,234.497 46.8214,234.278 C46.6964,234.059 46.5427,233.888 46.3604,233.763 C46.1781,233.638 45.9776,233.539 45.7589,233.466 C45.5401,233.393 45.35,233.343 45.1886,233.317 C45.0271,233.291 44.8839,233.278 44.7589,233.278 C44.6964,233.278 44.6651,233.257 44.6651,233.216 C44.6651,233.195 44.6651,233.179 44.6651,233.169 L45.5401,231.309 L47.212,231.309 C47.2953,231.309 47.363,231.296 47.4151,231.27 C47.4672,231.244 47.5245,231.19 47.587,231.106 L47.6495,231.169 L47.3526,231.825 C47.3318,231.877 47.2693,231.903 47.1651,231.903 L45.6026,231.903 L45.2589,232.575 C46.0401,232.721 46.6209,232.95 47.0011,233.263 C47.3813,233.575 47.5714,234.039 47.5714,234.653 C47.5714,234.966 47.5219,235.247 47.4229,235.497 C47.324,235.747 47.1964,235.947 47.0401,236.098 C46.8839,236.25 46.7068,236.372 46.5089,236.466 C46.311,236.559 46.1209,236.625 45.9386,236.661 C45.7563,236.697 45.5714,236.716 45.3839,236.716 C45.0818,236.716 44.8422,236.671 44.6651,236.583 C44.488,236.494 44.3995,236.372 44.3995,236.216 C44.3995,236.018 44.5141,235.919 44.7432,235.919 C44.8995,235.919 45.0948,236.002 45.3292,236.169 C45.5636,236.335 45.7537,236.419 45.8995,236.419 C46.212,236.419 46.475,236.286 46.6886,236.02 C46.9021,235.755 47.0089,235.424 47.0089,235.028"/>
<path class="Text" d="M248.982,32.6395 L250.529,32.3895 C250.758,33.1291 251.131,33.7437 251.646,34.2333 C252.162,34.7229 252.808,34.952 253.584,34.9208 C254.36,34.8895 254.977,34.5744 255.435,33.9755 C255.894,33.3765 256.094,32.689 256.037,31.913 C255.98,31.1369 255.677,30.5354 255.131,30.1083 C254.584,29.6812 253.711,29.3791 252.513,29.202 L252.513,28.0927 C253.711,27.9781 254.584,27.663 255.131,27.1473 C255.677,26.6317 255.922,25.9572 255.865,25.1239 C255.808,24.2906 255.435,23.689 254.748,23.3192 C254.06,22.9494 253.329,22.9078 252.552,23.1942 C251.776,23.4807 251.159,24.2802 250.701,25.5927 L249.154,25.3427 C249.498,24.3114 249.972,23.452 250.576,22.7645 C251.18,22.077 251.998,21.676 253.029,21.5614 C254.06,21.4468 254.961,21.5744 255.732,21.9442 C256.503,22.314 257.047,22.8869 257.365,23.663 C257.683,24.439 257.727,25.2854 257.498,26.202 C257.269,27.1187 256.607,27.9208 255.513,28.6083 C256.316,28.952 256.933,29.4677 257.365,30.1552 C257.797,30.8427 257.941,31.7437 257.795,32.8583 C257.649,33.9729 257.146,34.8739 256.287,35.5614 C255.427,36.2489 254.454,36.5796 253.365,36.5536 C252.276,36.5275 251.331,36.1838 250.529,35.5223 C249.727,34.8609 249.211,33.8999 248.982,32.6395 M259.982,32.6395 L261.529,32.3895 C261.758,33.1291 262.131,33.7437 262.646,34.2333 C263.162,34.7229 263.808,34.952 264.584,34.9208 C265.36,34.8895 265.977,34.5744 266.435,33.9755 C266.894,33.3765 267.094,32.689 267.037,31.913 C266.98,31.1369 266.677,30.5354 266.131,30.1083 C265.584,29.6812 264.711,29.3791 263.513,29.202 L263.513,28.0927 C264.711,27.9781 265.584,27.663 266.131,27.1473 C266.677,26.6317 266.922,25.9572 266.865,25.1239 C266.808,24.2906 266.435,23.689 265.748,23.3192 C265.06,22.9494 264.329,22.9078 263.552,23.1942 C262.776,23.4807 262.159,24.2802 261.701,25.5927 L260.154,25.3427 C260.498,24.3114 260.972,23.452 261.576,22.7645 C262.18,22.077 262.998,21.676 264.029,21.5614 C265.06,21.4468 265.961,21.5744 266.732,21.9442 C267.503,22.314 268.047,22.8869 268.365,23.663 C268.683,24.439 268.727,25.2854 268.498,26.202 C268.269,27.1187 267.607,27.9208 266.513,28.6083 C267.316,28.952 267.933,29.4677 268.365,30.1552 C268.797,30.8427 268.941,31.7437 268.795,32.8583 C268.649,33.9729 268.146,34.8739 267.287,35.5614 C266.427,36.2489 265.454,36.5796 264.365,36.5536 C263.276,36.5275 262.331,36.1838 261.529,35.5223 C260.727,34.8609 260.211,33.8999 259.982,32.6395 M273.826,36.4208 L271.842,36.4208 L271.842,34.5302 L273.826,34.5302 L273.826,36.4208 M292.467,23.702 C291.664,23.702 290.633,23.7333 289.373,23.7958 L289.373,22.2489 C290.633,22.301 291.696,22.327 292.56,22.327 L293.592,22.327 C294.164,20.6708 294.477,19.5822 294.529,19.0614 C295.217,19.4052 295.847,19.6916 296.42,19.9208 C296.191,20.1499 295.977,20.5093 295.779,20.9989 C295.581,21.4885 295.394,21.9312 295.217,22.327 L298.404,22.327 C299.321,22.327 300.321,22.301 301.404,22.2489 L301.404,23.7958 C300.602,23.7333 299.602,23.702 298.404,23.702 L294.795,23.702 C294.503,24.3895 294.185,25.1656 293.842,26.0302 L297.201,26.0302 C297.138,26.6552 297.107,27.426 297.107,28.3427 L297.107,30.0614 L298.232,30.0614 C299.086,30.0614 300.029,30.0354 301.06,29.9833 L301.06,31.5302 C300.029,31.4677 299.086,31.4364 298.232,31.4364 L297.107,31.4364 L297.107,36.4208 C297.107,37.3999 296.894,38.0328 296.467,38.3192 C296.039,38.6057 295.107,38.8374 293.67,39.0145 C293.618,38.4416 293.388,37.8374 292.982,37.202 C294.42,37.2645 295.209,37.1786 295.349,36.9442 C295.49,36.7098 295.56,36.3062 295.56,35.7333 L295.56,31.4364 L292.904,31.4364 C292.498,31.4364 292.123,31.452 291.779,31.4833 C291.435,31.5145 291.034,31.6135 290.576,31.7802 C290.347,31.2072 290.118,30.6656 289.888,30.1552 C290.461,29.9781 291.123,29.0302 291.873,27.3114 C291.467,27.3114 290.691,27.3427 289.545,27.4052 L289.545,25.9364 C290.868,25.9989 291.784,26.0302 292.295,26.0302 C292.638,25.1656 292.925,24.3895 293.154,23.702 L292.467,23.702 M286.795,26.7177 C287.316,25.9156 287.831,24.827 288.342,23.452 C288.862,23.8479 289.409,24.1916 289.982,24.4833 C289.409,25.2229 288.779,26.1942 288.092,27.3973 C287.404,28.6005 286.316,30.2072 284.826,32.2177 C285.336,32.1031 286.852,31.8427 289.373,31.4364 C289.258,32.0718 289.232,32.5614 289.295,32.9052 C288.034,33.0197 286.055,33.3895 283.357,34.0145 C283.076,33.4416 282.789,32.926 282.498,32.4677 C283.019,32.1864 283.579,31.6578 284.177,30.8817 C284.776,30.1057 285.42,29.1447 286.107,27.9989 C285.763,27.9468 285.263,27.9624 284.607,28.0458 C283.951,28.1291 283.305,28.2593 282.67,28.4364 C282.441,27.9156 282.211,27.3687 281.982,26.7958 C282.555,26.452 283.201,25.5354 283.92,24.0458 C284.638,22.5562 285.227,21.0979 285.685,19.6708 C286.31,20.0666 286.909,20.3531 287.482,20.5302 C286.909,21.3843 286.381,22.2854 285.896,23.2333 C285.412,24.1812 284.737,25.3687 283.873,26.7958 C285.196,26.7958 286.17,26.7697 286.795,26.7177 M289.467,34.452 C289.404,35.077 289.404,35.5927 289.467,35.9989 C288.487,36.2281 287.383,36.5432 286.154,36.9442 C284.925,37.3453 283.795,37.8062 282.763,38.327 C282.586,37.6916 282.383,37.0562 282.154,36.4208 C283.644,36.077 284.662,35.8348 285.209,35.6942 C285.756,35.5536 287.175,35.1395 289.467,34.452 M293.935,33.8427 C293.758,34.0197 293.256,34.5666 292.427,35.4833 C291.599,36.3999 290.67,37.4052 289.638,38.4989 C289.232,37.9781 288.857,37.577 288.513,37.2958 C289.149,36.7749 289.839,36.0979 290.584,35.2645 C291.329,34.4312 291.987,33.5562 292.56,32.6395 C292.904,33.0458 293.362,33.4468 293.935,33.8427 M299.263,32.6395 C300.753,34.5874 301.81,36.1083 302.435,37.202 C301.862,37.4312 301.347,37.7489 300.888,38.1552 C300.263,36.8843 299.289,35.3635 297.967,33.5927 C298.373,33.3635 298.805,33.0458 299.263,32.6395 M295.56,30.0614 L295.56,27.3114 L293.42,27.3114 C292.847,28.5197 292.388,29.4364 292.045,30.0614 L295.56,30.0614 M311.717,21.9833 C310.06,21.9833 308.487,22.0145 306.998,22.077 L306.998,20.3583 C308.883,20.4104 310.316,20.4364 311.295,20.4364 L322.029,20.4364 C321.914,21.2385 321.831,22.4729 321.779,24.1395 L321.435,35.5614 C321.321,37.1135 320.862,38.0328 320.06,38.3192 C319.258,38.6057 317.941,38.8062 316.107,38.9208 C315.93,38.2333 315.612,37.5458 315.154,36.8583 C316.821,36.9729 317.969,36.9572 318.599,36.8114 C319.23,36.6656 319.602,36.1343 319.717,35.2177 L320.06,21.9833 L311.717,21.9833 M317.56,29.7177 C317.56,30.3531 317.618,30.9572 317.732,31.5302 C314.472,32.7281 311.066,34.2177 307.513,35.9989 C307.222,35.3114 306.821,34.6499 306.31,34.0145 C307.05,33.8479 308.524,33.3635 310.732,32.5614 C312.941,31.7593 315.217,30.8114 317.56,29.7177 M309.31,23.702 C311.779,25.1395 313.612,26.3166 314.81,27.2333 C314.581,27.577 314.18,28.1187 313.607,28.8583 C312.576,27.8895 310.8,26.6604 308.279,25.1708 C308.685,24.6499 309.029,24.1604 309.31,23.702 M345.154,35.1395 C345.154,36.7437 345.18,37.9468 345.232,38.7489 L343.263,38.7489 L343.263,37.0302 L329.076,37.0302 L329.076,38.7489 L327.107,38.7489 C327.159,37.1968 327.185,35.9364 327.185,34.9677 L327.185,27.3114 C327.185,25.8218 327.159,24.5354 327.107,23.452 L332.513,23.452 L332.513,21.5614 C332.461,20.6447 332.435,19.8427 332.435,19.1552 L334.404,19.1552 C334.289,19.8947 334.232,20.6656 334.232,21.4677 L334.232,23.452 L337.842,23.452 L337.842,21.2958 C337.842,20.5562 337.816,19.8114 337.763,19.0614 L339.732,19.0614 C339.68,19.7489 339.654,20.4677 339.654,21.2177 L339.654,23.452 L345.232,23.452 C345.18,24.3062 345.154,25.6239 345.154,27.4052 L345.154,35.1395 M337.842,35.7333 L337.842,30.4052 L334.232,30.4052 L334.232,35.7333 L337.842,35.7333 M343.263,35.7333 L343.263,30.4052 L339.654,30.4052 L339.654,35.7333 L343.263,35.7333 M332.513,35.7333 L332.513,30.4052 L329.076,30.4052 L329.076,35.7333 L332.513,35.7333 M337.842,29.1239 L337.842,24.7333 L334.232,24.7333 L334.232,29.1239 L337.842,29.1239 M343.263,29.1239 L343.263,24.7333 L339.654,24.7333 L339.654,29.1239 L343.263,29.1239 M332.513,29.1239 L332.513,24.7333 L329.076,24.7333 L329.076,29.1239 L332.513,29.1239 "/>
<polyline class="BarLine" fill="none" stroke="#000000" stroke-width="0.79" stroke-linejoin="bevel" points="46.5307,394.866 46.5307,466.795"/>
<polyline class="BarLine" fill="none" stroke="#000000" stroke-width="0.79" stroke-linejoin="bevel" points="46.5307,248.528 46.5307,320.457"/>
<polyline class="BarLine" fill="none" stroke="#000000" stroke-width="0.79" stroke-linejoin="bevel" points="46.5307,102.189 46.5307,174.118"/>
<polyline class="BarLine" fill="none" stroke="#000000" stroke-width="0.79" stroke-linejoin="bevel" points="554.697,446.953 554.697,466.795"/>
<polyline class="BarLine" fill="none" stroke="#000000" stroke-width="2.48" stroke-linejoin="bevel" points="558.318,446.953 558.318,466.795"/>
<polyline class="BarLine" fill="none" stroke="#000000" stroke-width="0.79" stroke-linejoin="bevel" points="554.697,394.866 554.697,414.709"/>
<polyline class="BarLine" fill="none" stroke="#000000" stroke-width="2.48" stroke-linejoin="bevel" points="558.318,394.866 558.318,414.709"/>
<polyline class="BarLine" fill="none" stroke="#000000" stroke-width="0.79" stroke-linejoin="bevel" points="437.862,446.953 437.862,466.795"/>
<polyline class="BarLine" fill="none" stroke="#000000" stroke-width="0.79" stroke-linejoin="bevel" points="437.862,394.866 437.862,414.709"/>
<polyline class="BarLine" fill="none" stroke="#000000" stroke-width="0.79" stroke-linejoin="bevel" points="321.027,446.953 321.027,466.795"/>
<polyline class="BarLine" fill="none" stroke="#000000" stroke-width="0.79" stroke-linejoin="bevel" points="321.027,394.866 321.027,414.709"/>
<polyline class="BarLine" fill="none" stroke="#000000" stroke-width="0.79" stroke-linejoin="bevel" points="203.455,446.953 203.455,466.795"/>
<polyline class="BarLine" fill="none" stroke="#000000" stroke-width="0.79" stroke-linejoin="bevel" points="203.455,394.866 203.455,414.709"/>
<polyline class="BarLine" fill="none" stroke="#000000" stroke-width="0.79" stroke-linejoin="bevel" points="559.162,300.614 559.162,320.457"/>
<polyline class="BarLine" fill="none" stroke="#000000" stroke-width="0.79" stroke-linejoin="bevel" points="559.162,248.528 559.162,268.37"/>
<polyline class="BarLine" fill="none" stroke="#000000" stroke-width="0.79" stroke-linejoin="bevel" points="425.193,300.614 425.193,320.457"/>
<polyline class="BarLine" fill="none" stroke="#000000" stroke-width="0.79" stroke-linejoin="bevel" points="425.193,248.528 425.193,268.37"/>
<polyline class="BarLine" fill="none" stroke="#000000" stroke-width="0.79" stroke-linejoin="bevel" points="291.225,300.614 291.225,320.457"/>
<polyline class="BarLine" fill="none" stroke="#000000" stroke-width="0.79" stroke-linejoin="bevel" points="291.225,248.528 291.225,268.37"/>
<polyline class="BarLine" fill="none" stroke="#000000" stroke-width="0.79" stroke-linejoin="bevel" points="186.57,300.614 186.57,320.457"/>
<polyline class="BarLine" fill="none" stroke="#000000" stroke-width="0.79" stroke-linejoin="bevel" points="186.57,248.528 186.57,268.37"/>
<polyline class="BarLine" fill="none" stroke="#000000" stroke-width="0.79" stroke-linejoin="bevel" points="559.162,154.276 559.162,174.118"/>
<polyline class="BarLine" fill="none" stroke="#000000" stroke-width="0.79" stroke-linejoin="bevel" points="559.162,102.189 559.162,122.032"/>
<polyline class="BarLine" fill="none" stroke="#000000" stroke-width="0.79" stroke-linejoin="bevel" points="422.645,154.276 422.645,174.118"/>
<polyline class="BarLine" fill="none" stroke="#000000" stroke-width="0.79" stroke-linejoin="bevel" points="422.645,102.189 422.645,122.032"/>
<polyline class="BarLine" fill="none" stroke="#000000" stroke-width="0.79" stroke-linejoin="bevel" points="286.128,154.276 286.128,174.118"/>
<polyline class="BarLine" fill="none" stroke="#000000" stroke-width="0.79" stroke-linejoin="bevel" points="286.128,102.189 286.128,122.032"/>
<polyline class="BarLine" fill="none" stroke="#000000" stroke-width="0.79" stroke-linejoin="bevel" points="179.662,154.276 179.662,174.118"/>
<polyline class="BarLine" fill="none" stroke="#000000" stroke-width="0.79" stroke-linejoin="bevel" points="179.662,102.189 179.662,122.032"/>
<path class="Accidental" transform="matrix(0.992126,0,0,0.992126,456.792,265.89)" d="M4.3125,6.23438 C4.3125,6.48438 4.1901,6.60938 3.94531,6.60938 C3.70052,6.60938 3.57812,6.48438 3.57812,6.23438 L3.57812,3.34375 L1.92188,3.96875 L1.92188,7.125 C1.92188,7.375 1.79688,7.5 1.54688,7.5 C1.29688,7.5 1.17188,7.375 1.17188,7.125 L1.17188,4.21875 L0.546875,4.45312 C0.536458,4.46354 0.484375,4.46875 0.390625,4.46875 C0.286458,4.46875 0.195312,4.42969 0.117188,4.35156 C0.0390625,4.27344 0,4.18229 0,4.07812 L0,2.875 C0,2.67708 0.0833333,2.55208 0.25,2.5 L1.17188,2.1875 L1.17188,-1.01562 L0.546875,-0.796875 C0.536458,-0.786458 0.484375,-0.78125 0.390625,-0.78125 C0.286458,-0.78125 0.195312,-0.820312 0.117188,-0.898438 C0.0390625,-0.976562 0,-1.06771 0,-1.17188 L0,-2.39062 C0,-2.56771 0.0833333,-2.68229 0.25,-2.73438 L1.17188,-3.09375 L1.17188,-6.23438 C1.17188,-6.48438 1.29688,-6.60938 1.54688,-6.60938 C1.79688,-6.60938 1.92188,-6.48438 1.92188,-6.23438 L1.92188,-3.34375 L3.57812,-3.96875 L3.57812,-7.125 C3.57812,-7.375 3.70052,-7.5 3.94531,-7.5 C4.1901,-7.5 4.3125,-7.375 4.3125,-7.125 L4.3125,-4.21875 L4.96875,-4.45312 C4.97917,-4.46354 5.02083,-4.46875 5.09375,-4.46875 C5.1875,-4.46875 5.28646,-4.43229 5.39062,-4.35938 C5.47396,-4.27604 5.51562,-4.18229 5.51562,-4.07812 L5.51562,-2.875 C5.51562,-2.6875 5.42188,-2.5625 5.23438,-2.5 L4.3125,-2.1875 L4.3125,1.01562 L4.96875,0.796875 C4.97917,0.786458 5.02083,0.78125 5.09375,0.78125 C5.1875,0.78125 5.28646,0.822917 5.39062,0.90625 C5.47396,0.979167 5.51562,1.06771 5.51562,1.17188 L5.51562,2.39062 C5.51562,2.55729 5.42188,2.67188 5.23438,2.73438 L4.3125,3.09375 L4.3125,6.23438 M3.57812,-1.89062 L1.92188,-1.3125 L1.92188,1.89062 L3.57812,1.3125 L3.57812,-1.89062 "/>
<path class="Accidental" transform="matrix(0.992126,0,0,0.992126,322.824,265.89)" d="M4.3125,6.23438 C4.3125,6.48438 4.1901,6.60938 3.94531,6.60938 C3.70052,6.60938 3.57812,6.48438 3.57812,6.23438 L3.57812,3.34375 L1.92188,3.96875 L1.92188,7.125 C1.92188,7.375 1.79688,7.5 1.54688,7.5 C1.29688,7.5 1.17188,7.375 1.17188,7.125 L1.17188,4.21875 L0.546875,4.45312 C0.536458,4.46354 0.484375,4.46875 0.390625,4.46875 C0.286458,4.46875 0.195312,4.42969 0.117188,4.35156 C0.0390625,4.27344 0,4.18229 0,4.07812 L0,2.875 C0,2.67708 0.0833333,2.55208 0.25,2.5 L1.17188,2.1875 L1.17188,-1.01562 L0.546875,-0.796875 C0.536458,-0.786458 0.484375,-0.78125 0.390625,-0.78125 C0.286458,-0.78125 0.195312,-0.820312 0.117188,-0.898438 C0.0390625,-0.976562 0,-1.06771 0,-1.17188 L0,-2.39062 C0,-2.56771 0.0833333,-2.68229 0.25,-2.73438 L1.17188,-3.09375 L1.17188,-6.23438 C1.17188,-6.48438 1.29688,-6.60938 1.54688,-6.60938 C1.79688,-6.60938 1.92188,-6.48438 1.92188,-6.23438 L1.92188,-3.34375 L3.57812,-3.96875 L3.57812,-7.125 C3.57812,-7.375 3.70052,-7.5 3.94531,-7.5 C4.1901,-7.5 4.3125,-7.375 4.3125,-7.125 L4.3125,-4.21875 L4.96875,-4.45312 C4.97917,-4.46354 5.02083,-4.46875 5.09375,-4.46875 C5.1875,-4.46875 5.28646,-4.43229 5.39062,-4.35938 C5.47396,-4.27604 5.51562,-4.18229 5.51562,-4.07812 L5.51562,-2.875 C5.51562,-2.6875 5.42188,-2.5625 5.23438,-2.5 L4.3125,-2.1875 L4.3125,1.01562 L4.96875,0.796875 C4.97917,0.786458 5.02083,0.78125 5.09375,0.78125 C5.1875,0.78125 5.28646,0.822917 5.39062,0.90625 C5.47396,0.979167 5.51562,1.06771 5.51562,1.17188 L5.51562,2.39062 C5.51562,2.55729 5.42188,2.67188 5.23438,2.73438 L4.3125,3.09375 L4.3125,6.23438 M3.57812,-1.89062 L1.92188,-1.3125 L1.92188,1.89062 L3.57812,1.3125 L3.57812,-1.89062 "/>
<path class="Accidental" transform="matrix(0.992126,0,0,0.992126,454.881,119.551)" d="M4.3125,6.23438 C4.3125,6.48438 4.1901,6.60938 3.94531,6.60938 C3.70052,6.60938 3.57812,6.48438 3.57812,6.23438 L3.57812,3.34375 L1.92188,3.96875 L1.92188,7.125 C1.92188,7.375 1.79688,7.5 1.54688,7.5 C1.29688,7.5 1.17188,7.375 1.17188,7.125 L1.17188,4.21875 L0.546875,4.45312 C0.536458,4.46354 0.484375,4.46875 0.390625,4.46875 C0.286458,4.46875 0.195312,4.42969 0.117188,4.35156 C0.0390625,4.27344 0,4.18229 0,4.07812 L0,2.875 C0,2.67708 0.0833333,2.55208 0.25,2.5 L1.17188,2.1875 L1.17188,-1.01562 L0.546875,-0.796875 C0.536458,-0.786458 0.484375,-0.78125 0.390625,-0.78125 C0.286458,-0.78125 0.195312,-0.820312 0.117188,-0.898438 C0.0390625,-0.976562 0,-1.06771 0,-1.17188 L0,-2.39062 C0,-2.56771 0.0833333,-2.68229 0.25,-2.73438 L1.17188,-3.09375 L1.17188,-6.23438 C1.17188,-6.48438 1.29688,-6.60938 1.54688,-6.60938 C1.79688,-6.60938 1.92188,-6.48438 1.92188,-6.23438 L1.92188,-3.34375 L3.57812,-3.96875 L3.57812,-7.125 C3.57812,-7.375 3.70052,-7.5 3.94531,-7.5 C4.1901,-7.5 4.3125,-7.375 4.3125,-7.125 L4.3125,-4.21875 L4.96875,-4.45312 C4.97917,-4.46354 5.02083,-4.46875 5.09375,-4.46875 C5.1875,-4.46875 5.28646,-4.43229 5.39062,-4.35938 C5.47396,-4.27604 5.51562,-4.18229 5.51562,-4.07812 L5.51562,-2.875 C5.51562,-2.6875 5.42188,-2.5625 5.23438,-2.5 L4.3125,-2.1875 L4.3125,1.01562 L4.96875,0.796875 C4.97917,0.786458 5.02083,0.78125 5.09375,0.78125 C5.1875,0.78125 5.28646,0.822917 5.39062,0.90625 C5.47396,0.979167 5.51562,1.06771 5.51562,1.17188 L5.51562,2.39062 C5.51562,2.55729 5.42188,2.67188 5.23438,2.73438 L4.3125,3.09375 L4.3125,6.23438 M3.57812,-1.89062 L1.92188,-1.3125 L1.92188,1.89062 L3.57812,1.3125 L3.57812,-1.89062 "/>
<path class="Accidental" transform="matrix(0.992126,0,0,0.992126,318.364,119.551)" d="M4.3125,6.23438 C4.3125,6.48438 4.1901,6.60938 3.94531,6.60938 C3.70052,6.60938 3.57812,6.48438 3.57812,6.23438 L3.57812,3.34375 L1.92188,3.96875 L1.92188,7.125 C1.92188,7.375 1.79688,7.5 1.54688,7.5 C1.29688,7.5 1.17188,7.375 1.17188,7.125 L1.17188,4.21875 L0.546875,4.45312 C0.536458,4.46354 0.484375,4.46875 0.390625,4.46875 C0.286458,4.46875 0.195312,4.42969 0.117188,4.35156 C0.0390625,4.27344 0,4.18229 0,4.07812 L0,2.875 C0,2.67708 0.0833333,2.55208 0.25,2.5 L1.17188,2.1875 L1.17188,-1.01562 L0.546875,-0.796875 C0.536458,-0.786458 0.484375,-0.78125 0.390625,-0.78125 C0.286458,-0.78125 0.195312,-0.820312 0.117188,-0.898438 C0.0390625,-0.976562 0,-1.06771 0,-1.17188 L0,-2.39062 C0,-2.56771 0.0833333,-2.68229 0.25,-2.73438 L1.17188,-3.09375 L1.17188,-6.23438 C1.17188,-6.48438 1.29688,-6.60938 1.54688,-6.60938 C1.79688,-6.60938 1.92188,-6.48438 1.92188,-6.23438 L1.92188,-3.34375 L3.57812,-3.96875 L3.57812,-7.125 C3.57812,-7.375 3.70052,-7.5 3.94531,-7.5 C4.1901,-7.5 4.3125,-7.375 4.3125,-7.125 L4.3125,-4.21875 L4.96875,-4.45312 C4.97917,-4.46354 5.02083,-4.46875 5.09375,-4.46875 C5.1875,-4.46875 5.28646,-4.43229 5.39062,-4.35938 C5.47396,-4.27604 5.51562,-4.18229 5.51562,-4.07812 L5.51562,-2.875 C5.51562,-2.6875 5.42188,-2.5625 5.23438,-2.5 L4.3125,-2.1875 L4.3125,1.01562 L4.96875,0.796875 C4.97917,0.786458 5.02083,0.78125 5.09375,0.78125 C5.1875,0.78125 5.28646,0.822917 5.39062,0.90625 C5.47396,0.979167 5.51562,1.06771 5.51562,1.17188 L5.51562,2.39062 C5.51562,2.55729 5.42188,2.67188 5.23438,2.73438 L4.3125,3.09375 L4.3125,6.23438 M3.57812,-1.89062 L1.92188,-1.3125 L1.92188,1.89062 L3.57812,1.3125 L3.57812,-1.89062 "/>
<polyline class="Stem" fill="none" stroke="#000000" stroke-width="0.64" stroke-linecap="round" stroke-linejoin="bevel" points="170.504,447.884 170.504,464.315" notes="{a7f6cc71-8865-4aaa-980e-4eaa4717f9ff}" x1="170.504" y1="447.884" x2="170.504" y2="464.315" height="17.3622"/>
<polyline class="Stem" fill="none" stroke="#000000" stroke-width="0.64" stroke-linecap="round" stroke-linejoin="bevel" points="137.628,445.404 137.628,461.835" notes="{63f81fdc-6cf5-4191-af2f-ac987f60ea89}" x1="137.628" y1="445.404" x2="137.628" y2="461.835" height="17.3622"/>
<polyline class="Stem" fill="none" stroke="#000000" stroke-width="0.64" stroke-linecap="round" stroke-linejoin="bevel" points="104.751,442.924 104.751,459.354" notes="{5ec85025-218d-4dd9-b3a5-ebe59be368b2}" x1="104.751" y1="442.924" x2="104.751" y2="459.354" height="17.3622"/>
<polyline class="Stem" fill="none" stroke="#000000" stroke-width="0.64" stroke-linecap="round" stroke-linejoin="bevel" points="71.8748,440.443 71.8748,456.874" notes="{f9412dee-8715-4f72-893e-aab4916b9d8a}" x1="71.8748" y1="440.443" x2="71.8748" y2="456.874" height="17.3622"/>
<polyline class="Stem" fill="none" stroke="#000000" stroke-width="0.64" stroke-linecap="round" stroke-linejoin="bevel" points="533.168,269.919 533.168,253.488" notes="{2f77850f-9f82-47ba-8018-5b71d0d9937d}" x1="533.168" y1="269.919" x2="533.168" y2="253.488" height="-17.3622"/>
<polyline class="Stem" fill="none" stroke="#000000" stroke-width="0.64" stroke-linecap="round" stroke-linejoin="bevel" points="501.362,262.478 501.362,246.667" notes="{27c79278-3529-467a-ae3c-806e657778a8}" x1="501.362" y1="262.478" x2="501.362" y2="246.667" height="-16.7421"/>
<polyline class="Stem" fill="none" stroke="#000000" stroke-width="0.64" stroke-linecap="round" stroke-linejoin="bevel" points="469.557,264.958 469.557,248.528" notes="{3af83c44-7492-4b4c-8c23-b3dc8a3403b5}" x1="469.557" y1="264.958" x2="469.557" y2="248.528" height="-17.3622"/>
<polyline class="Stem" fill="none" stroke="#000000" stroke-width="0.64" stroke-linecap="round" stroke-linejoin="bevel" points="437.751,262.478 437.751,246.667" notes="{09a80e52-1751-4c66-9363-d967f618304a}" x1="437.751" y1="262.478" x2="437.751" y2="246.667" height="-16.7421"/>
<polyline class="Stem" fill="none" stroke="#000000" stroke-width="0.64" stroke-linecap="round" stroke-linejoin="bevel" points="399.199,269.919 399.199,253.488" notes="{231e7843-02c4-4a56-9f85-4b229a27d773}" x1="399.199" y1="269.919" x2="399.199" y2="253.488" height="-17.3622"/>
<polyline class="Stem" fill="none" stroke="#000000" stroke-width="0.64" stroke-linecap="round" stroke-linejoin="bevel" points="367.394,262.478 367.394,246.667" notes="{0d0dee7c-5678-4b4b-9359-17fa2758e3d5}" x1="367.394" y1="262.478" x2="367.394" y2="246.667" height="-16.7421"/>
<polyline class="Stem" fill="none" stroke="#000000" stroke-width="0.64" stroke-linecap="round" stroke-linejoin="bevel" points="335.588,264.958 335.588,248.528" notes="{5a9b3b16-9677-4bae-a8be-0754337dd354}" x1="335.588" y1="264.958" x2="335.588" y2="248.528" height="-17.3622"/>
<polyline class="Stem" fill="none" stroke="#000000" stroke-width="0.64" stroke-linecap="round" stroke-linejoin="bevel" points="303.783,262.478 303.783,246.667" notes="{7fa59cb5-5c32-4942-be01-6ee96ff02686}" x1="303.783" y1="262.478" x2="303.783" y2="246.667" height="-16.7421"/>
<polyline class="Stem" fill="none" stroke="#000000" stroke-width="0.64" stroke-linecap="round" stroke-linejoin="bevel" points="157.84,296.585 157.84,313.016" notes="{dbca5a9d-5e23-4897-94e4-f6f04a618cf7}" x1="157.84" y1="296.585" x2="157.84" y2="313.016" height="17.3622"/>
<polyline class="Stem" fill="none" stroke="#000000" stroke-width="0.64" stroke-linecap="round" stroke-linejoin="bevel" points="129.185,299.066 129.185,315.496" notes="{165ac679-6d14-4c19-811d-7f021bea3572}" x1="129.185" y1="299.066" x2="129.185" y2="315.496" height="17.3622"/>
<polyline class="Stem" fill="none" stroke="#000000" stroke-width="0.64" stroke-linecap="round" stroke-linejoin="bevel" points="100.53,301.546 100.53,317.976" notes="{7bcd1375-7f67-47a2-82ba-ef4ad376e61b}" x1="100.53" y1="301.546" x2="100.53" y2="317.976" height="17.3622"/>
<polyline class="Stem" fill="none" stroke="#000000" stroke-width="0.64" stroke-linecap="round" stroke-linejoin="bevel" points="71.8748,304.026 71.8748,320.457" notes="{0b2a8898-f0e4-45ef-9b2f-e17e6ba46a25}" x1="71.8748" y1="304.026" x2="71.8748" y2="320.457" height="17.3622"/>
<polyline class="Stem" fill="none" stroke="#000000" stroke-width="0.64" stroke-linecap="round" stroke-linejoin="bevel" points="532.531,123.58 532.531,107.15" notes="{316e61fa-c504-47cc-b4f3-2368ebd62bfe}" x1="532.531" y1="123.58" x2="532.531" y2="107.15" height="-17.3622"/>
<polyline class="Stem" fill="none" stroke="#000000" stroke-width="0.64" stroke-linecap="round" stroke-linejoin="bevel" points="500.088,116.139 500.088,100.329" notes="{3ad8526d-f675-4af5-9bce-1d7752643f16}" x1="500.088" y1="116.139" x2="500.088" y2="100.329" height="-16.7421"/>
<polyline class="Stem" fill="none" stroke="#000000" stroke-width="0.64" stroke-linecap="round" stroke-linejoin="bevel" points="467.646,118.62 467.646,102.189" notes="{40ce5cc1-08f4-4c76-a998-cd77392896fc}" x1="467.646" y1="118.62" x2="467.646" y2="102.189" height="-17.3622"/>
<polyline class="Stem" fill="none" stroke="#000000" stroke-width="0.64" stroke-linecap="round" stroke-linejoin="bevel" points="435.203,116.139 435.203,100.329" notes="{f6c2e606-e0c5-4fc2-b94c-f47a5f940074}" x1="435.203" y1="116.139" x2="435.203" y2="100.329" height="-16.7421"/>
<polyline class="Stem" fill="none" stroke="#000000" stroke-width="0.64" stroke-linecap="round" stroke-linejoin="bevel" points="396.014,123.58 396.014,107.15" notes="{b7327dff-f583-4fff-bdc4-930af9a61330}" x1="396.014" y1="123.58" x2="396.014" y2="107.15" height="-17.3622"/>
<polyline class="Stem" fill="none" stroke="#000000" stroke-width="0.64" stroke-linecap="round" stroke-linejoin="bevel" points="363.571,116.139 363.571,100.329" notes="{d1cb23cb-f1d4-4e39-b10d-47afb5b760db}" x1="363.571" y1="116.139" x2="363.571" y2="100.329" height="-16.7421"/>
<polyline class="Stem" fill="none" stroke="#000000" stroke-width="0.64" stroke-linecap="round" stroke-linejoin="bevel" points="331.129,118.62 331.129,102.189" notes="{dedd8c03-892d-4f0f-a617-124bc2bae8b5}" x1="331.129" y1="118.62" x2="331.129" y2="102.189" height="-17.3622"/>
<polyline class="Stem" fill="none" stroke="#000000" stroke-width="0.64" stroke-linecap="round" stroke-linejoin="bevel" points="298.686,116.139 298.686,100.329" notes="{312b9d1a-3a46-4a56-8096-f12a700c38df}" x1="298.686" y1="116.139" x2="298.686" y2="100.329" height="-16.7421"/>
<polyline class="LedgerLine" fill="none" stroke="#000000" stroke-width="0.79" stroke-linecap="square" stroke-linejoin="bevel" points="102.941,441.992 112.448,441.992"/>
<polyline class="LedgerLine" fill="none" stroke="#000000" stroke-width="0.79" stroke-linecap="square" stroke-linejoin="bevel" points="70.0642,441.992 79.5716,441.992"/>
<polyline class="LedgerLine" fill="none" stroke="#000000" stroke-width="0.79" stroke-linecap="square" stroke-linejoin="bevel" points="191.431,295.654 204.233,295.654"/>
<polyline class="LedgerLine" fill="none" stroke="#000000" stroke-width="0.79" stroke-linecap="square" stroke-linejoin="bevel" points="156.03,295.654 165.537,295.654"/>
<path class="Note" transform="matrix(0.992126,0,0,0.992126,209.805,449.433)" d="M4.29688,-2.25 C3.82812,-2.25 3.48958,-2.08854 3.28125,-1.76562 C3.05208,-1.45312 2.9375,-1.02604 2.9375,-0.484375 C2.9375,0.130208 3.09896,0.65625 3.42188,1.09375 C3.74479,1.52083 4.10417,1.82292 4.5,2 C4.84375,2.16667 5.21354,2.25 5.60938,2.25 C6.06771,2.25 6.41146,2.08854 6.64062,1.76562 C6.85938,1.43229 6.96875,1.00521 6.96875,0.484375 C6.96875,-0.130208 6.80729,-0.65625 6.48438,-1.09375 C6.16146,-1.51042 5.8125,-1.8125 5.4375,-2 C5.05208,-2.16667 4.67188,-2.25 4.29688,-2.25 M4.96875,-2.75 C6.375,-2.75 7.54688,-2.47917 8.48438,-1.9375 C9.43229,-1.38542 9.90625,-0.739583 9.90625,0 C9.90625,0.791667 9.41667,1.44271 8.4375,1.95312 C7.45833,2.48438 6.30208,2.75 4.96875,2.75 C3.58333,2.75 2.41146,2.47917 1.45312,1.9375 C0.484375,1.38542 0,0.739583 0,0 C0,-0.791667 0.494792,-1.44271 1.48438,-1.95312 C2.46354,-2.48438 3.625,-2.75 4.96875,-2.75" id="{be9146e8-7f53-4b19-834c-a366df10efd9}"/>
<path class="Note" transform="matrix(0.992126,0,0,0.992126,170.182,446.953)" d="M4.39062,-2.75 C5.01562,-2.75 5.54688,-2.58854 5.98438,-2.26562 C6.38021,-1.91146 6.57812,-1.46875 6.57812,-0.9375 C6.57812,-0.0416667 6.11979,0.796875 5.20312,1.57812 C4.26562,2.35938 3.26042,2.75 2.1875,2.75 C1.5625,2.75 1.03646,2.58854 0.609375,2.26562 C0.203125,1.91146 0,1.46875 0,0.9375 C0,0.0416667 0.46875,-0.796875 1.40625,-1.57812 C2.32292,-2.35938 3.31771,-2.75 4.39062,-2.75" id="{a7f6cc71-8865-4aaa-980e-4eaa4717f9ff}" stem_h="17.3622"/>
<path class="Note" transform="matrix(0.992126,0,0,0.992126,137.305,444.472)" d="M4.39062,-2.75 C5.01562,-2.75 5.54688,-2.58854 5.98438,-2.26562 C6.38021,-1.91146 6.57812,-1.46875 6.57812,-0.9375 C6.57812,-0.0416667 6.11979,0.796875 5.20312,1.57812 C4.26562,2.35938 3.26042,2.75 2.1875,2.75 C1.5625,2.75 1.03646,2.58854 0.609375,2.26562 C0.203125,1.91146 0,1.46875 0,0.9375 C0,0.0416667 0.46875,-0.796875 1.40625,-1.57812 C2.32292,-2.35938 3.31771,-2.75 4.39062,-2.75" id="{63f81fdc-6cf5-4191-af2f-ac987f60ea89}" stem_h="17.3622"/>
<path class="Note" transform="matrix(0.992126,0,0,0.992126,104.429,441.992)" d="M4.39062,-2.75 C5.01562,-2.75 5.54688,-2.58854 5.98438,-2.26562 C6.38021,-1.91146 6.57812,-1.46875 6.57812,-0.9375 C6.57812,-0.0416667 6.11979,0.796875 5.20312,1.57812 C4.26562,2.35938 3.26042,2.75 2.1875,2.75 C1.5625,2.75 1.03646,2.58854 0.609375,2.26562 C0.203125,1.91146 0,1.46875 0,0.9375 C0,0.0416667 0.46875,-0.796875 1.40625,-1.57812 C2.32292,-2.35938 3.31771,-2.75 4.39062,-2.75" id="{5ec85025-218d-4dd9-b3a5-ebe59be368b2}" stem_h="17.3622"/>
<path class="Note" transform="matrix(0.992126,0,0,0.992126,71.5524,439.512)" d="M4.39062,-2.75 C5.01562,-2.75 5.54688,-2.58854 5.98438,-2.26562 C6.38021,-1.91146 6.57812,-1.46875 6.57812,-0.9375 C6.57812,-0.0416667 6.11979,0.796875 5.20312,1.57812 C4.26562,2.35938 3.26042,2.75 2.1875,2.75 C1.5625,2.75 1.03646,2.58854 0.609375,2.26562 C0.203125,1.91146 0,1.46875 0,0.9375 C0,0.0416667 0.46875,-0.796875 1.40625,-1.57812 C2.32292,-2.35938 3.31771,-2.75 4.39062,-2.75" id="{f9412dee-8715-4f72-893e-aab4916b9d8a}" stem_h="17.3622"/>
<path class="Note" transform="matrix(0.992126,0,0,0.992126,526.959,270.85)" d="M4.39062,-2.75 C5.01562,-2.75 5.54688,-2.58854 5.98438,-2.26562 C6.38021,-1.91146 6.57812,-1.46875 6.57812,-0.9375 C6.57812,-0.0416667 6.11979,0.796875 5.20312,1.57812 C4.26562,2.35938 3.26042,2.75 2.1875,2.75 C1.5625,2.75 1.03646,2.58854 0.609375,2.26562 C0.203125,1.91146 0,1.46875 0,0.9375 C0,0.0416667 0.46875,-0.796875 1.40625,-1.57812 C2.32292,-2.35938 3.31771,-2.75 4.39062,-2.75" id="{2f77850f-9f82-47ba-8018-5b71d0d9937d}" stem_h="-17.3622"/>
<path class="Note" transform="matrix(0.992126,0,0,0.992126,495.154,263.409)" d="M4.39062,-2.75 C5.01562,-2.75 5.54688,-2.58854 5.98438,-2.26562 C6.38021,-1.91146 6.57812,-1.46875 6.57812,-0.9375 C6.57812,-0.0416667 6.11979,0.796875 5.20312,1.57812 C4.26562,2.35938 3.26042,2.75 2.1875,2.75 C1.5625,2.75 1.03646,2.58854 0.609375,2.26562 C0.203125,1.91146 0,1.46875 0,0.9375 C0,0.0416667 0.46875,-0.796875 1.40625,-1.57812 C2.32292,-2.35938 3.31771,-2.75 4.39062,-2.75" id="{27c79278-3529-467a-ae3c-806e657778a8}" stem_h="-16.7421"/>
<path class="Note" transform="matrix(0.992126,0,0,0.992126,463.348,265.89)" d="M4.39062,-2.75 C5.01562,-2.75 5.54688,-2.58854 5.98438,-2.26562 C6.38021,-1.91146 6.57812,-1.46875 6.57812,-0.9375 C6.57812,-0.0416667 6.11979,0.796875 5.20312,1.57812 C4.26562,2.35938 3.26042,2.75 2.1875,2.75 C1.5625,2.75 1.03646,2.58854 0.609375,2.26562 C0.203125,1.91146 0,1.46875 0,0.9375 C0,0.0416667 0.46875,-0.796875 1.40625,-1.57812 C2.32292,-2.35938 3.31771,-2.75 4.39062,-2.75" id="{3af83c44-7492-4b4c-8c23-b3dc8a3403b5}" stem_h="-17.3622"/>
<path class="Note" transform="matrix(0.992126,0,0,0.992126,431.543,263.409)" d="M4.39062,-2.75 C5.01562,-2.75 5.54688,-2.58854 5.98438,-2.26562 C6.38021,-1.91146 6.57812,-1.46875 6.57812,-0.9375 C6.57812,-0.0416667 6.11979,0.796875 5.20312,1.57812 C4.26562,2.35938 3.26042,2.75 2.1875,2.75 C1.5625,2.75 1.03646,2.58854 0.609375,2.26562 C0.203125,1.91146 0,1.46875 0,0.9375 C0,0.0416667 0.46875,-0.796875 1.40625,-1.57812 C2.32292,-2.35938 3.31771,-2.75 4.39062,-2.75" id="{09a80e52-1751-4c66-9363-d967f618304a}" stem_h="-16.7421"/>
<path class="Note" transform="matrix(0.992126,0,0,0.992126,392.991,270.85)" d="M4.39062,-2.75 C5.01562,-2.75 5.54688,-2.58854 5.98438,-2.26562 C6.38021,-1.91146 6.57812,-1.46875 6.57812,-0.9375 C6.57812,-0.0416667 6.11979,0.796875 5.20312,1.57812 C4.26562,2.35938 3.26042,2.75 2.1875,2.75 C1.5625,2.75 1.03646,2.58854 0.609375,2.26562 C0.203125,1.91146 0,1.46875 0,0.9375 C0,0.0416667 0.46875,-0.796875 1.40625,-1.57812 C2.32292,-2.35938 3.31771,-2.75 4.39062,-2.75" id="{231e7843-02c4-4a56-9f85-4b229a27d773}" stem_h="-17.3622"/>
<path class="Note" transform="matrix(0.992126,0,0,0.992126,361.185,263.409)" d="M4.39062,-2.75 C5.01562,-2.75 5.54688,-2.58854 5.98438,-2.26562 C6.38021,-1.91146 6.57812,-1.46875 6.57812,-0.9375 C6.57812,-0.0416667 6.11979,0.796875 5.20312,1.57812 C4.26562,2.35938 3.26042,2.75 2.1875,2.75 C1.5625,2.75 1.03646,2.58854 0.609375,2.26562 C0.203125,1.91146 0,1.46875 0,0.9375 C0,0.0416667 0.46875,-0.796875 1.40625,-1.57812 C2.32292,-2.35938 3.31771,-2.75 4.39062,-2.75" id="{0d0dee7c-5678-4b4b-9359-17fa2758e3d5}" stem_h="-16.7421"/>
<path class="Note" transform="matrix(0.992126,0,0,0.992126,329.38,265.89)" d="M4.39062,-2.75 C5.01562,-2.75 5.54688,-2.58854 5.98438,-2.26562 C6.38021,-1.91146 6.57812,-1.46875 6.57812,-0.9375 C6.57812,-0.0416667 6.11979,0.796875 5.20312,1.57812 C4.26562,2.35938 3.26042,2.75 2.1875,2.75 C1.5625,2.75 1.03646,2.58854 0.609375,2.26562 C0.203125,1.91146 0,1.46875 0,0.9375 C0,0.0416667 0.46875,-0.796875 1.40625,-1.57812 C2.32292,-2.35938 3.31771,-2.75 4.39062,-2.75" id="{5a9b3b16-9677-4bae-a8be-0754337dd354}" stem_h="-17.3622"/>
<path class="Note" transform="matrix(0.992126,0,0,0.992126,297.574,263.409)" d="M4.39062,-2.75 C5.01562,-2.75 5.54688,-2.58854 5.98438,-2.26562 C6.38021,-1.91146 6.57812,-1.46875 6.57812,-0.9375 C6.57812,-0.0416667 6.11979,0.796875 5.20312,1.57812 C4.26562,2.35938 3.26042,2.75 2.1875,2.75 C1.5625,2.75 1.03646,2.58854 0.609375,2.26562 C0.203125,1.91146 0,1.46875 0,0.9375 C0,0.0416667 0.46875,-0.796875 1.40625,-1.57812 C2.32292,-2.35938 3.31771,-2.75 4.39062,-2.75" id="{7fa59cb5-5c32-4942-be01-6ee96ff02686}" stem_h="-16.7421"/>
<path class="Note" transform="matrix(0.992126,0,0,0.992126,192.919,293.173)" d="M4.29688,-2.25 C3.82812,-2.25 3.48958,-2.08854 3.28125,-1.76562 C3.05208,-1.45312 2.9375,-1.02604 2.9375,-0.484375 C2.9375,0.130208 3.09896,0.65625 3.42188,1.09375 C3.74479,1.52083 4.10417,1.82292 4.5,2 C4.84375,2.16667 5.21354,2.25 5.60938,2.25 C6.06771,2.25 6.41146,2.08854 6.64062,1.76562 C6.85938,1.43229 6.96875,1.00521 6.96875,0.484375 C6.96875,-0.130208 6.80729,-0.65625 6.48438,-1.09375 C6.16146,-1.51042 5.8125,-1.8125 5.4375,-2 C5.05208,-2.16667 4.67188,-2.25 4.29688,-2.25 M4.96875,-2.75 C6.375,-2.75 7.54688,-2.47917 8.48438,-1.9375 C9.43229,-1.38542 9.90625,-0.739583 9.90625,0 C9.90625,0.791667 9.41667,1.44271 8.4375,1.95312 C7.45833,2.48438 6.30208,2.75 4.96875,2.75 C3.58333,2.75 2.41146,2.47917 1.45312,1.9375 C0.484375,1.38542 0,0.739583 0,0 C0,-0.791667 0.494792,-1.44271 1.48438,-1.95312 C2.46354,-2.48438 3.625,-2.75 4.96875,-2.75" id="{527a8397-4184-4f8f-bd2a-687884770167}"/>
<path class="Note" transform="matrix(0.992126,0,0,0.992126,157.518,295.654)" d="M4.39062,-2.75 C5.01562,-2.75 5.54688,-2.58854 5.98438,-2.26562 C6.38021,-1.91146 6.57812,-1.46875 6.57812,-0.9375 C6.57812,-0.0416667 6.11979,0.796875 5.20312,1.57812 C4.26562,2.35938 3.26042,2.75 2.1875,2.75 C1.5625,2.75 1.03646,2.58854 0.609375,2.26562 C0.203125,1.91146 0,1.46875 0,0.9375 C0,0.0416667 0.46875,-0.796875 1.40625,-1.57812 C2.32292,-2.35938 3.31771,-2.75 4.39062,-2.75" id="{dbca5a9d-5e23-4897-94e4-f6f04a618cf7}" stem_h="17.3622"/>
<path class="Note" transform="matrix(0.992126,0,0,0.992126,128.863,298.134)" d="M4.39062,-2.75 C5.01562,-2.75 5.54688,-2.58854 5.98438,-2.26562 C6.38021,-1.91146 6.57812,-1.46875 6.57812,-0.9375 C6.57812,-0.0416667 6.11979,0.796875 5.20312,1.57812 C4.26562,2.35938 3.26042,2.75 2.1875,2.75 C1.5625,2.75 1.03646,2.58854 0.609375,2.26562 C0.203125,1.91146 0,1.46875 0,0.9375 C0,0.0416667 0.46875,-0.796875 1.40625,-1.57812 C2.32292,-2.35938 3.31771,-2.75 4.39062,-2.75" id="{165ac679-6d14-4c19-811d-7f021bea3572}" stem_h="17.3622"/>
<path class="Note" transform="matrix(0.992126,0,0,0.992126,100.208,300.614)" d="M4.39062,-2.75 C5.01562,-2.75 5.54688,-2.58854 5.98438,-2.26562 C6.38021,-1.91146 6.57812,-1.46875 6.57812,-0.9375 C6.57812,-0.0416667 6.11979,0.796875 5.20312,1.57812 C4.26562,2.35938 3.26042,2.75 2.1875,2.75 C1.5625,2.75 1.03646,2.58854 0.609375,2.26562 C0.203125,1.91146 0,1.46875 0,0.9375 C0,0.0416667 0.46875,-0.796875 1.40625,-1.57812 C2.32292,-2.35938 3.31771,-2.75 4.39062,-2.75" id="{7bcd1375-7f67-47a2-82ba-ef4ad376e61b}" stem_h="17.3622"/>
<path class="Note" transform="matrix(0.992126,0,0,0.992126,71.5524,303.094)" d="M4.39062,-2.75 C5.01562,-2.75 5.54688,-2.58854 5.98438,-2.26562 C6.38021,-1.91146 6.57812,-1.46875 6.57812,-0.9375 C6.57812,-0.0416667 6.11979,0.796875 5.20312,1.57812 C4.26562,2.35938 3.26042,2.75 2.1875,2.75 C1.5625,2.75 1.03646,2.58854 0.609375,2.26562 C0.203125,1.91146 0,1.46875 0,0.9375 C0,0.0416667 0.46875,-0.796875 1.40625,-1.57812 C2.32292,-2.35938 3.31771,-2.75 4.39062,-2.75" id="{0b2a8898-f0e4-45ef-9b2f-e17e6ba46a25}" stem_h="17.3622"/>
<path class="Note" transform="matrix(0.992126,0,0,0.992126,526.322,124.512)" d="M4.39062,-2.75 C5.01562,-2.75 5.54688,-2.58854 5.98438,-2.26562 C6.38021,-1.91146 6.57812,-1.46875 6.57812,-0.9375 C6.57812,-0.0416667 6.11979,0.796875 5.20312,1.57812 C4.26562,2.35938 3.26042,2.75 2.1875,2.75 C1.5625,2.75 1.03646,2.58854 0.609375,2.26562 C0.203125,1.91146 0,1.46875 0,0.9375 C0,0.0416667 0.46875,-0.796875 1.40625,-1.57812 C2.32292,-2.35938 3.31771,-2.75 4.39062,-2.75" id="{316e61fa-c504-47cc-b4f3-2368ebd62bfe}" stem_h="-17.3622"/>
<path class="Note" transform="matrix(0.992126,0,0,0.992126,493.88,117.071)" d="M4.39062,-2.75 C5.01562,-2.75 5.54688,-2.58854 5.98438,-2.26562 C6.38021,-1.91146 6.57812,-1.46875 6.57812,-0.9375 C6.57812,-0.0416667 6.11979,0.796875 5.20312,1.57812 C4.26562,2.35938 3.26042,2.75 2.1875,2.75 C1.5625,2.75 1.03646,2.58854 0.609375,2.26562 C0.203125,1.91146 0,1.46875 0,0.9375 C0,0.0416667 0.46875,-0.796875 1.40625,-1.57812 C2.32292,-2.35938 3.31771,-2.75 4.39062,-2.75" id="{3ad8526d-f675-4af5-9bce-1d7752643f16}" stem_h="-16.7421"/>
<path class="Note" transform="matrix(0.992126,0,0,0.992126,461.437,119.551)" d="M4.39062,-2.75 C5.01562,-2.75 5.54688,-2.58854 5.98438,-2.26562 C6.38021,-1.91146 6.57812,-1.46875 6.57812,-0.9375 C6.57812,-0.0416667 6.11979,0.796875 5.20312,1.57812 C4.26562,2.35938 3.26042,2.75 2.1875,2.75 C1.5625,2.75 1.03646,2.58854 0.609375,2.26562 C0.203125,1.91146 0,1.46875 0,0.9375 C0,0.0416667 0.46875,-0.796875 1.40625,-1.57812 C2.32292,-2.35938 3.31771,-2.75 4.39062,-2.75" id="{40ce5cc1-08f4-4c76-a998-cd77392896fc}" stem_h="-17.3622"/>
<path class="Note" transform="matrix(0.992126,0,0,0.992126,428.994,117.071)" d="M4.39062,-2.75 C5.01562,-2.75 5.54688,-2.58854 5.98438,-2.26562 C6.38021,-1.91146 6.57812,-1.46875 6.57812,-0.9375 C6.57812,-0.0416667 6.11979,0.796875 5.20312,1.57812 C4.26562,2.35938 3.26042,2.75 2.1875,2.75 C1.5625,2.75 1.03646,2.58854 0.609375,2.26562 C0.203125,1.91146 0,1.46875 0,0.9375 C0,0.0416667 0.46875,-0.796875 1.40625,-1.57812 C2.32292,-2.35938 3.31771,-2.75 4.39062,-2.75" id="{f6c2e606-e0c5-4fc2-b94c-f47a5f940074}" stem_h="-16.7421"/>
<path class="Note" transform="matrix(0.992126,0,0,0.992126,389.805,124.512)" d="M4.39062,-2.75 C5.01562,-2.75 5.54688,-2.58854 5.98438,-2.26562 C6.38021,-1.91146 6.57812,-1.46875 6.57812,-0.9375 C6.57812,-0.0416667 6.11979,0.796875 5.20312,1.57812 C4.26562,2.35938 3.26042,2.75 2.1875,2.75 C1.5625,2.75 1.03646,2.58854 0.609375,2.26562 C0.203125,1.91146 0,1.46875 0,0.9375 C0,0.0416667 0.46875,-0.796875 1.40625,-1.57812 C2.32292,-2.35938 3.31771,-2.75 4.39062,-2.75" id="{b7327dff-f583-4fff-bdc4-930af9a61330}" stem_h="-17.3622"/>
<path class="Note" transform="matrix(0.992126,0,0,0.992126,357.363,117.071)" d="M4.39062,-2.75 C5.01562,-2.75 5.54688,-2.58854 5.98438,-2.26562 C6.38021,-1.91146 6.57812,-1.46875 6.57812,-0.9375 C6.57812,-0.0416667 6.11979,0.796875 5.20312,1.57812 C4.26562,2.35938 3.26042,2.75 2.1875,2.75 C1.5625,2.75 1.03646,2.58854 0.609375,2.26562 C0.203125,1.91146 0,1.46875 0,0.9375 C0,0.0416667 0.46875,-0.796875 1.40625,-1.57812 C2.32292,-2.35938 3.31771,-2.75 4.39062,-2.75" id="{d1cb23cb-f1d4-4e39-b10d-47afb5b760db}" stem_h="-16.7421"/>
<path class="Note" transform="matrix(0.992126,0,0,0.992126,324.92,119.551)" d="M4.39062,-2.75 C5.01562,-2.75 5.54688,-2.58854 5.98438,-2.26562 C6.38021,-1.91146 6.57812,-1.46875 6.57812,-0.9375 C6.57812,-0.0416667 6.11979,0.796875 5.20312,1.57812 C4.26562,2.35938 3.26042,2.75 2.1875,2.75 C1.5625,2.75 1.03646,2.58854 0.609375,2.26562 C0.203125,1.91146 0,1.46875 0,0.9375 C0,0.0416667 0.46875,-0.796875 1.40625,-1.57812 C2.32292,-2.35938 3.31771,-2.75 4.39062,-2.75" id="{dedd8c03-892d-4f0f-a617-124bc2bae8b5}" stem_h="-17.3622"/>
<path class="Note" transform="matrix(0.992126,0,0,0.992126,292.478,117.071)" d="M4.39062,-2.75 C5.01562,-2.75 5.54688,-2.58854 5.98438,-2.26562 C6.38021,-1.91146 6.57812,-1.46875 6.57812,-0.9375 C6.57812,-0.0416667 6.11979,0.796875 5.20312,1.57812 C4.26562,2.35938 3.26042,2.75 2.1875,2.75 C1.5625,2.75 1.03646,2.58854 0.609375,2.26562 C0.203125,1.91146 0,1.46875 0,0.9375 C0,0.0416667 0.46875,-0.796875 1.40625,-1.57812 C2.32292,-2.35938 3.31771,-2.75 4.39062,-2.75" id="{312b9d1a-3a46-4a56-8096-f12a700c38df}" stem_h="-16.7421"/>
<path class="Clef" transform="matrix(0.992126,0,0,0.992126,50.0961,451.913)" d="M11.4297,-1.78125 C11.237,-1.97917 11.1406,-2.22135 11.1406,-2.50781 C11.1406,-2.79427 11.237,-3.03385 11.4297,-3.22656 C11.6224,-3.41927 11.862,-3.51562 12.1484,-3.51562 C12.4349,-3.51562 12.6771,-3.41927 12.875,-3.22656 C13.0729,-3.03385 13.1719,-2.79427 13.1719,-2.50781 C13.1719,-2.22135 13.0729,-1.97917 12.875,-1.78125 C12.6771,-1.58333 12.4349,-1.48438 12.1484,-1.48438 C11.862,-1.48438 11.6224,-1.58333 11.4297,-1.78125 M11.4297,3.22656 C11.237,3.03385 11.1406,2.79427 11.1406,2.50781 C11.1406,2.22135 11.237,1.97917 11.4297,1.78125 C11.6224,1.58333 11.862,1.48438 12.1484,1.48438 C12.4349,1.48438 12.6771,1.58333 12.875,1.78125 C13.0729,1.97917 13.1719,2.22135 13.1719,2.50781 C13.1719,2.79427 13.0729,3.03385 12.875,3.22656 C12.6771,3.41927 12.4349,3.51562 12.1484,3.51562 C11.862,3.51562 11.6224,3.41927 11.4297,3.22656 M4.65625,-5.25 C6.38542,-5.25 7.80208,-4.81771 8.90625,-3.95312 C9.97917,-3.03646 10.5156,-1.79688 10.5156,-0.234375 C10.5156,0.817708 10.3073,1.78125 9.89062,2.65625 C9.49479,3.57292 8.97917,4.38021 8.34375,5.07812 C7.6875,5.79688 6.90104,6.47396 5.98438,7.10938 C5.07812,7.73438 4.15104,8.29688 3.20312,8.79688 C1.27604,9.76562 0.208333,10.25 0,10.25 C-0.166667,10.25 -0.25,10.1667 -0.25,10 C-0.25,9.9375 -0.223958,9.88021 -0.171875,9.82812 C0.494792,9.43229 1.30729,8.93229 2.26562,8.32812 C2.89062,7.92188 3.61979,7.35938 4.45312,6.64062 C5.26562,5.96354 5.89062,5.32812 6.32812,4.73438 C6.78646,4.14062 7.20312,3.41146 7.57812,2.54688 C7.90104,1.67188 8.0625,0.807292 8.0625,-0.046875 C8.0625,-1.30729 7.75,-2.40625 7.125,-3.34375 C6.5,-4.28125 5.67708,-4.75 4.65625,-4.75 C3.92708,-4.75 3.30208,-4.51562 2.78125,-4.04688 C2.21875,-3.56771 1.8125,-2.96354 1.5625,-2.23438 C1.8125,-2.33854 2.04167,-2.39062 2.25,-2.39062 C2.79167,-2.39062 3.26042,-2.19271 3.65625,-1.79688 C4.04167,-1.38021 4.23438,-0.90625 4.23438,-0.375 C4.23438,0.1875 4.04688,0.692708 3.67188,1.14062 C3.26562,1.53646 2.79167,1.73438 2.25,1.73438 C1.66667,1.73438 1.14062,1.53646 0.671875,1.14062 C0.223958,0.692708 0,0.1875 0,-0.375 C0,-1.71875 0.458333,-2.86458 1.375,-3.8125 C2.27083,-4.77083 3.36458,-5.25 4.65625,-5.25"/>
<path class="Clef" transform="matrix(0.992126,0,0,0.992126,50.0961,409.748)" d="M7.34375,-5.125 C7.34375,-5.125 7.38542,-5.125 7.46875,-5.125 C7.52083,-5.13542 7.5625,-5.14062 7.59375,-5.14062 C9.05208,-5.14062 10.25,-4.625 11.1875,-3.59375 C12.125,-2.58333 12.5938,-1.40104 12.5938,-0.046875 C12.5938,1.64062 11.901,3.01042 10.5156,4.0625 C10.151,4.35417 9.67188,4.58854 9.07812,4.76562 C9.15104,5.60938 9.1875,6.29167 9.1875,6.8125 C9.1875,6.91667 9.17188,7.29688 9.14062,7.95312 C9.08854,9.16146 8.67188,10.2083 7.89062,11.0938 C7.14062,11.9688 6.20312,12.4062 5.07812,12.4062 C4.02604,12.4062 3.13021,12.0365 2.39062,11.2969 C1.64062,10.5365 1.26562,9.625 1.26562,8.5625 C1.26562,8 1.48438,7.52083 1.92188,7.125 C2.35938,6.73958 2.86979,6.54688 3.45312,6.54688 C3.97396,6.54688 4.41146,6.75 4.76562,7.15625 C5.13021,7.53125 5.3125,8 5.3125,8.5625 C5.3125,9.0625 5.13021,9.49479 4.76562,9.85938 C4.40104,10.224 3.96354,10.4062 3.45312,10.4062 C3.24479,10.4062 3.04688,10.3698 2.85938,10.2969 C3.43229,11.1406 4.19271,11.5625 5.14062,11.5625 C6.03646,11.5625 6.77083,11.1979 7.34375,10.4688 C7.94792,9.71875 8.27604,8.83854 8.32812,7.82812 C8.34896,7.20312 8.35938,6.84896 8.35938,6.76562 C8.35938,6.03646 8.33333,5.4375 8.28125,4.96875 C7.63542,5.07292 7.05729,5.125 6.54688,5.125 C4.73438,5.125 3.19271,4.40625 1.92188,2.96875 C0.671875,1.52083 0.046875,-0.197917 0.046875,-2.1875 C0.046875,-2.60417 0.0833333,-3.02604 0.15625,-3.45312 C0.239583,-3.80729 0.338542,-4.19271 0.453125,-4.60938 C0.515625,-4.84896 0.692708,-5.22917 0.984375,-5.75 C1.08854,-5.90625 1.20573,-6.10156 1.33594,-6.33594 C1.46615,-6.57031 1.55729,-6.72396 1.60938,-6.79688 C1.73438,-7.05729 1.98438,-7.41146 2.35938,-7.85938 C2.46354,-7.97396 2.57292,-8.10156 2.6875,-8.24219 C2.80208,-8.38281 2.89844,-8.5 2.97656,-8.59375 C3.05469,-8.6875 3.11198,-8.76042 3.14844,-8.8125 C3.1849,-8.86458 3.47917,-9.20833 4.03125,-9.84375 C4.15625,-9.97917 4.28125,-10.1198 4.40625,-10.2656 C4.53125,-10.4115 4.63281,-10.5286 4.71094,-10.6172 C4.78906,-10.7057 4.84896,-10.7656 4.89062,-10.7969 C4.42188,-12.349 4.125,-13.5885 4,-14.5156 C3.91667,-15.2552 3.875,-16.2708 3.875,-17.5625 C3.875,-18.6979 4.13542,-19.7604 4.65625,-20.75 C5.15625,-21.7708 5.86458,-22.6094 6.78125,-23.2656 C6.84375,-23.3073 6.90625,-23.3281 6.96875,-23.3281 C7.0625,-23.3281 7.13021,-23.3073 7.17188,-23.2656 C7.86979,-22.4219 8.47396,-21.3229 8.98438,-19.9688 C9.50521,-18.6146 9.76562,-17.3802 9.76562,-16.2656 C9.76562,-15.0156 9.46875,-13.8438 8.875,-12.75 C8.19792,-11.5938 7.32292,-10.3958 6.25,-9.15625 C6.52083,-8.30208 6.88542,-6.95833 7.34375,-5.125 M9,3.96875 C9.67708,3.71875 10.2083,3.29688 10.5938,2.70312 C11.0104,2.13021 11.2188,1.48438 11.2188,0.765625 C11.2188,-0.161458 10.9062,-0.984375 10.2812,-1.70312 C9.63542,-2.44271 8.81771,-2.85938 7.82812,-2.95312 C8.39062,-0.203125 8.78125,2.10417 9,3.96875 M1.45312,-0.546875 C1.45312,0.744792 1.97396,1.88021 3.01562,2.85938 C4.07812,3.80729 5.27604,4.28125 6.60938,4.28125 C7.15104,4.28125 7.68229,4.23958 8.20312,4.15625 C7.99479,2.17708 7.58333,-0.192708 6.96875,-2.95312 C6.22917,-2.86979 5.64062,-2.60938 5.20312,-2.17188 C4.76562,-1.71354 4.54688,-1.19792 4.54688,-0.625 C4.54688,0.364583 5.07812,1.16667 6.14062,1.78125 C6.22396,1.875 6.26562,1.97396 6.26562,2.07812 C6.26562,2.18229 6.22396,2.27604 6.14062,2.35938 C6.05729,2.45312 5.95833,2.5 5.84375,2.5 C5.83333,2.5 5.77604,2.48958 5.67188,2.46875 C4.92188,2.0625 4.34896,1.54167 3.95312,0.90625 C3.56771,0.21875 3.375,-0.46875 3.375,-1.15625 C3.375,-2.05208 3.65625,-2.86458 4.21875,-3.59375 C4.80208,-4.32292 5.5625,-4.79167 6.5,-5 C6.13542,-6.45833 5.83854,-7.59896 5.60938,-8.42188 C5.40104,-8.18229 5.15104,-7.89844 4.85938,-7.57031 C4.56771,-7.24219 4.39583,-7.04167 4.34375,-6.96875 C3.875,-6.36458 3.51562,-5.89062 3.26562,-5.54688 C2.81771,-4.93229 2.48958,-4.40625 2.28125,-3.96875 C2.0625,-3.46875 1.86979,-2.92708 1.70312,-2.34375 C1.53646,-1.78125 1.45312,-1.18229 1.45312,-0.546875 M7.96875,-20.4062 C6.98958,-19.9271 6.22396,-19.2396 5.67188,-18.3438 C5.09896,-17.4167 4.8125,-16.4219 4.8125,-15.3594 C4.8125,-14.4219 5.04688,-13.1562 5.51562,-11.5625 C6.45312,-12.6979 7.15625,-13.7448 7.625,-14.7031 C8.11458,-15.724 8.35938,-16.7865 8.35938,-17.8906 C8.35938,-18.724 8.22917,-19.5625 7.96875,-20.4062"/>
<path class="Clef" transform="matrix(0.992126,0,0,0.992126,50.0961,305.575)" d="M11.4297,-1.78125 C11.237,-1.97917 11.1406,-2.22135 11.1406,-2.50781 C11.1406,-2.79427 11.237,-3.03385 11.4297,-3.22656 C11.6224,-3.41927 11.862,-3.51562 12.1484,-3.51562 C12.4349,-3.51562 12.6771,-3.41927 12.875,-3.22656 C13.0729,-3.03385 13.1719,-2.79427 13.1719,-2.50781 C13.1719,-2.22135 13.0729,-1.97917 12.875,-1.78125 C12.6771,-1.58333 12.4349,-1.48438 12.1484,-1.48438 C11.862,-1.48438 11.6224,-1.58333 11.4297,-1.78125 M11.4297,3.22656 C11.237,3.03385 11.1406,2.79427 11.1406,2.50781 C11.1406,2.22135 11.237,1.97917 11.4297,1.78125 C11.6224,1.58333 11.862,1.48438 12.1484,1.48438 C12.4349,1.48438 12.6771,1.58333 12.875,1.78125 C13.0729,1.97917 13.1719,2.22135 13.1719,2.50781 C13.1719,2.79427 13.0729,3.03385 12.875,3.22656 C12.6771,3.41927 12.4349,3.51562 12.1484,3.51562 C11.862,3.51562 11.6224,3.41927 11.4297,3.22656 M4.65625,-5.25 C6.38542,-5.25 7.80208,-4.81771 8.90625,-3.95312 C9.97917,-3.03646 10.5156,-1.79688 10.5156,-0.234375 C10.5156,0.817708 10.3073,1.78125 9.89062,2.65625 C9.49479,3.57292 8.97917,4.38021 8.34375,5.07812 C7.6875,5.79688 6.90104,6.47396 5.98438,7.10938 C5.07812,7.73438 4.15104,8.29688 3.20312,8.79688 C1.27604,9.76562 0.208333,10.25 0,10.25 C-0.166667,10.25 -0.25,10.1667 -0.25,10 C-0.25,9.9375 -0.223958,9.88021 -0.171875,9.82812 C0.494792,9.43229 1.30729,8.93229 2.26562,8.32812 C2.89062,7.92188 3.61979,7.35938 4.45312,6.64062 C5.26562,5.96354 5.89062,5.32812 6.32812,4.73438 C6.78646,4.14062 7.20312,3.41146 7.57812,2.54688 C7.90104,1.67188 8.0625,0.807292 8.0625,-0.046875 C8.0625,-1.30729 7.75,-2.40625 7.125,-3.34375 C6.5,-4.28125 5.67708,-4.75 4.65625,-4.75 C3.92708,-4.75 3.30208,-4.51562 2.78125,-4.04688 C2.21875,-3.56771 1.8125,-2.96354 1.5625,-2.23438 C1.8125,-2.33854 2.04167,-2.39062 2.25,-2.39062 C2.79167,-2.39062 3.26042,-2.19271 3.65625,-1.79688 C4.04167,-1.38021 4.23438,-0.90625 4.23438,-0.375 C4.23438,0.1875 4.04688,0.692708 3.67188,1.14062 C3.26562,1.53646 2.79167,1.73438 2.25,1.73438 C1.66667,1.73438 1.14062,1.53646 0.671875,1.14062 C0.223958,0.692708 0,0.1875 0,-0.375 C0,-1.71875 0.458333,-2.86458 1.375,-3.8125 C2.27083,-4.77083 3.36458,-5.25 4.65625,-5.25"/>
<path class="Clef" transform="matrix(0.992126,0,0,0.992126,50.0961,263.409)" d="M7.34375,-5.125 C7.34375,-5.125 7.38542,-5.125 7.46875,-5.125 C7.52083,-5.13542 7.5625,-5.14062 7.59375,-5.14062 C9.05208,-5.14062 10.25,-4.625 11.1875,-3.59375 C12.125,-2.58333 12.5938,-1.40104 12.5938,-0.046875 C12.5938,1.64062 11.901,3.01042 10.5156,4.0625 C10.151,4.35417 9.67188,4.58854 9.07812,4.76562 C9.15104,5.60938 9.1875,6.29167 9.1875,6.8125 C9.1875,6.91667 9.17188,7.29688 9.14062,7.95312 C9.08854,9.16146 8.67188,10.2083 7.89062,11.0938 C7.14062,11.9688 6.20312,12.4062 5.07812,12.4062 C4.02604,12.4062 3.13021,12.0365 2.39062,11.2969 C1.64062,10.5365 1.26562,9.625 1.26562,8.5625 C1.26562,8 1.48438,7.52083 1.92188,7.125 C2.35938,6.73958 2.86979,6.54688 3.45312,6.54688 C3.97396,6.54688 4.41146,6.75 4.76562,7.15625 C5.13021,7.53125 5.3125,8 5.3125,8.5625 C5.3125,9.0625 5.13021,9.49479 4.76562,9.85938 C4.40104,10.224 3.96354,10.4062 3.45312,10.4062 C3.24479,10.4062 3.04688,10.3698 2.85938,10.2969 C3.43229,11.1406 4.19271,11.5625 5.14062,11.5625 C6.03646,11.5625 6.77083,11.1979 7.34375,10.4688 C7.94792,9.71875 8.27604,8.83854 8.32812,7.82812 C8.34896,7.20312 8.35938,6.84896 8.35938,6.76562 C8.35938,6.03646 8.33333,5.4375 8.28125,4.96875 C7.63542,5.07292 7.05729,5.125 6.54688,5.125 C4.73438,5.125 3.19271,4.40625 1.92188,2.96875 C0.671875,1.52083 0.046875,-0.197917 0.046875,-2.1875 C0.046875,-2.60417 0.0833333,-3.02604 0.15625,-3.45312 C0.239583,-3.80729 0.338542,-4.19271 0.453125,-4.60938 C0.515625,-4.84896 0.692708,-5.22917 0.984375,-5.75 C1.08854,-5.90625 1.20573,-6.10156 1.33594,-6.33594 C1.46615,-6.57031 1.55729,-6.72396 1.60938,-6.79688 C1.73438,-7.05729 1.98438,-7.41146 2.35938,-7.85938 C2.46354,-7.97396 2.57292,-8.10156 2.6875,-8.24219 C2.80208,-8.38281 2.89844,-8.5 2.97656,-8.59375 C3.05469,-8.6875 3.11198,-8.76042 3.14844,-8.8125 C3.1849,-8.86458 3.47917,-9.20833 4.03125,-9.84375 C4.15625,-9.97917 4.28125,-10.1198 4.40625,-10.2656 C4.53125,-10.4115 4.63281,-10.5286 4.71094,-10.6172 C4.78906,-10.7057 4.84896,-10.7656 4.89062,-10.7969 C4.42188,-12.349 4.125,-13.5885 4,-14.5156 C3.91667,-15.2552 3.875,-16.2708 3.875,-17.5625 C3.875,-18.6979 4.13542,-19.7604 4.65625,-20.75 C5.15625,-21.7708 5.86458,-22.6094 6.78125,-23.2656 C6.84375,-23.3073 6.90625,-23.3281 6.96875,-23.3281 C7.0625,-23.3281 7.13021,-23.3073 7.17188,-23.2656 C7.86979,-22.4219 8.47396,-21.3229 8.98438,-19.9688 C9.50521,-18.6146 9.76562,-17.3802 9.76562,-16.2656 C9.76562,-15.0156 9.46875,-13.8438 8.875,-12.75 C8.19792,-11.5938 7.32292,-10.3958 6.25,-9.15625 C6.52083,-8.30208 6.88542,-6.95833 7.34375,-5.125 M9,3.96875 C9.67708,3.71875 10.2083,3.29688 10.5938,2.70312 C11.0104,2.13021 11.2188,1.48438 11.2188,0.765625 C11.2188,-0.161458 10.9062,-0.984375 10.2812,-1.70312 C9.63542,-2.44271 8.81771,-2.85938 7.82812,-2.95312 C8.39062,-0.203125 8.78125,2.10417 9,3.96875 M1.45312,-0.546875 C1.45312,0.744792 1.97396,1.88021 3.01562,2.85938 C4.07812,3.80729 5.27604,4.28125 6.60938,4.28125 C7.15104,4.28125 7.68229,4.23958 8.20312,4.15625 C7.99479,2.17708 7.58333,-0.192708 6.96875,-2.95312 C6.22917,-2.86979 5.64062,-2.60938 5.20312,-2.17188 C4.76562,-1.71354 4.54688,-1.19792 4.54688,-0.625 C4.54688,0.364583 5.07812,1.16667 6.14062,1.78125 C6.22396,1.875 6.26562,1.97396 6.26562,2.07812 C6.26562,2.18229 6.22396,2.27604 6.14062,2.35938 C6.05729,2.45312 5.95833,2.5 5.84375,2.5 C5.83333,2.5 5.77604,2.48958 5.67188,2.46875 C4.92188,2.0625 4.34896,1.54167 3.95312,0.90625 C3.56771,0.21875 3.375,-0.46875 3.375,-1.15625 C3.375,-2.05208 3.65625,-2.86458 4.21875,-3.59375 C4.80208,-4.32292 5.5625,-4.79167 6.5,-5 C6.13542,-6.45833 5.83854,-7.59896 5.60938,-8.42188 C5.40104,-8.18229 5.15104,-7.89844 4.85938,-7.57031 C4.56771,-7.24219 4.39583,-7.04167 4.34375,-6.96875 C3.875,-6.36458 3.51562,-5.89062 3.26562,-5.54688 C2.81771,-4.93229 2.48958,-4.40625 2.28125,-3.96875 C2.0625,-3.46875 1.86979,-2.92708 1.70312,-2.34375 C1.53646,-1.78125 1.45312,-1.18229 1.45312,-0.546875 M7.96875,-20.4062 C6.98958,-19.9271 6.22396,-19.2396 5.67188,-18.3438 C5.09896,-17.4167 4.8125,-16.4219 4.8125,-15.3594 C4.8125,-14.4219 5.04688,-13.1562 5.51562,-11.5625 C6.45312,-12.6979 7.15625,-13.7448 7.625,-14.7031 C8.11458,-15.724 8.35938,-16.7865 8.35938,-17.8906 C8.35938,-18.724 8.22917,-19.5625 7.96875,-20.4062"/>
<path class="Clef" transform="matrix(0.992126,0,0,0.992126,50.0961,159.236)" d="M11.4297,-1.78125 C11.237,-1.97917 11.1406,-2.22135 11.1406,-2.50781 C11.1406,-2.79427 11.237,-3.03385 11.4297,-3.22656 C11.6224,-3.41927 11.862,-3.51562 12.1484,-3.51562 C12.4349,-3.51562 12.6771,-3.41927 12.875,-3.22656 C13.0729,-3.03385 13.1719,-2.79427 13.1719,-2.50781 C13.1719,-2.22135 13.0729,-1.97917 12.875,-1.78125 C12.6771,-1.58333 12.4349,-1.48438 12.1484,-1.48438 C11.862,-1.48438 11.6224,-1.58333 11.4297,-1.78125 M11.4297,3.22656 C11.237,3.03385 11.1406,2.79427 11.1406,2.50781 C11.1406,2.22135 11.237,1.97917 11.4297,1.78125 C11.6224,1.58333 11.862,1.48438 12.1484,1.48438 C12.4349,1.48438 12.6771,1.58333 12.875,1.78125 C13.0729,1.97917 13.1719,2.22135 13.1719,2.50781 C13.1719,2.79427 13.0729,3.03385 12.875,3.22656 C12.6771,3.41927 12.4349,3.51562 12.1484,3.51562 C11.862,3.51562 11.6224,3.41927 11.4297,3.22656 M4.65625,-5.25 C6.38542,-5.25 7.80208,-4.81771 8.90625,-3.95312 C9.97917,-3.03646 10.5156,-1.79688 10.5156,-0.234375 C10.5156,0.817708 10.3073,1.78125 9.89062,2.65625 C9.49479,3.57292 8.97917,4.38021 8.34375,5.07812 C7.6875,5.79688 6.90104,6.47396 5.98438,7.10938 C5.07812,7.73438 4.15104,8.29688 3.20312,8.79688 C1.27604,9.76562 0.208333,10.25 0,10.25 C-0.166667,10.25 -0.25,10.1667 -0.25,10 C-0.25,9.9375 -0.223958,9.88021 -0.171875,9.82812 C0.494792,9.43229 1.30729,8.93229 2.26562,8.32812 C2.89062,7.92188 3.61979,7.35938 4.45312,6.64062 C5.26562,5.96354 5.89062,5.32812 6.32812,4.73438 C6.78646,4.14062 7.20312,3.41146 7.57812,2.54688 C7.90104,1.67188 8.0625,0.807292 8.0625,-0.046875 C8.0625,-1.30729 7.75,-2.40625 7.125,-3.34375 C6.5,-4.28125 5.67708,-4.75 4.65625,-4.75 C3.92708,-4.75 3.30208,-4.51562 2.78125,-4.04688 C2.21875,-3.56771 1.8125,-2.96354 1.5625,-2.23438 C1.8125,-2.33854 2.04167,-2.39062 2.25,-2.39062 C2.79167,-2.39062 3.26042,-2.19271 3.65625,-1.79688 C4.04167,-1.38021 4.23438,-0.90625 4.23438,-0.375 C4.23438,0.1875 4.04688,0.692708 3.67188,1.14062 C3.26562,1.53646 2.79167,1.73438 2.25,1.73438 C1.66667,1.73438 1.14062,1.53646 0.671875,1.14062 C0.223958,0.692708 0,0.1875 0,-0.375 C0,-1.71875 0.458333,-2.86458 1.375,-3.8125 C2.27083,-4.77083 3.36458,-5.25 4.65625,-5.25"/>
<path class="Clef" transform="matrix(0.992126,0,0,0.992126,50.0961,117.071)" d="M7.34375,-5.125 C7.34375,-5.125 7.38542,-5.125 7.46875,-5.125 C7.52083,-5.13542 7.5625,-5.14062 7.59375,-5.14062 C9.05208,-5.14062 10.25,-4.625 11.1875,-3.59375 C12.125,-2.58333 12.5938,-1.40104 12.5938,-0.046875 C12.5938,1.64062 11.901,3.01042 10.5156,4.0625 C10.151,4.35417 9.67188,4.58854 9.07812,4.76562 C9.15104,5.60938 9.1875,6.29167 9.1875,6.8125 C9.1875,6.91667 9.17188,7.29688 9.14062,7.95312 C9.08854,9.16146 8.67188,10.2083 7.89062,11.0938 C7.14062,11.9688 6.20312,12.4062 5.07812,12.4062 C4.02604,12.4062 3.13021,12.0365 2.39062,11.2969 C1.64062,10.5365 1.26562,9.625 1.26562,8.5625 C1.26562,8 1.48438,7.52083 1.92188,7.125 C2.35938,6.73958 2.86979,6.54688 3.45312,6.54688 C3.97396,6.54688 4.41146,6.75 4.76562,7.15625 C5.13021,7.53125 5.3125,8 5.3125,8.5625 C5.3125,9.0625 5.13021,9.49479 4.76562,9.85938 C4.40104,10.224 3.96354,10.4062 3.45312,10.4062 C3.24479,10.4062 3.04688,10.3698 2.85938,10.2969 C3.43229,11.1406 4.19271,11.5625 5.14062,11.5625 C6.03646,11.5625 6.77083,11.1979 7.34375,10.4688 C7.94792,9.71875 8.27604,8.83854 8.32812,7.82812 C8.34896,7.20312 8.35938,6.84896 8.35938,6.76562 C8.35938,6.03646 8.33333,5.4375 8.28125,4.96875 C7.63542,5.07292 7.05729,5.125 6.54688,5.125 C4.73438,5.125 3.19271,4.40625 1.92188,2.96875 C0.671875,1.52083 0.046875,-0.197917 0.046875,-2.1875 C0.046875,-2.60417 0.0833333,-3.02604 0.15625,-3.45312 C0.239583,-3.80729 0.338542,-4.19271 0.453125,-4.60938 C0.515625,-4.84896 0.692708,-5.22917 0.984375,-5.75 C1.08854,-5.90625 1.20573,-6.10156 1.33594,-6.33594 C1.46615,-6.57031 1.55729,-6.72396 1.60938,-6.79688 C1.73438,-7.05729 1.98438,-7.41146 2.35938,-7.85938 C2.46354,-7.97396 2.57292,-8.10156 2.6875,-8.24219 C2.80208,-8.38281 2.89844,-8.5 2.97656,-8.59375 C3.05469,-8.6875 3.11198,-8.76042 3.14844,-8.8125 C3.1849,-8.86458 3.47917,-9.20833 4.03125,-9.84375 C4.15625,-9.97917 4.28125,-10.1198 4.40625,-10.2656 C4.53125,-10.4115 4.63281,-10.5286 4.71094,-10.6172 C4.78906,-10.7057 4.84896,-10.7656 4.89062,-10.7969 C4.42188,-12.349 4.125,-13.5885 4,-14.5156 C3.91667,-15.2552 3.875,-16.2708 3.875,-17.5625 C3.875,-18.6979 4.13542,-19.7604 4.65625,-20.75 C5.15625,-21.7708 5.86458,-22.6094 6.78125,-23.2656 C6.84375,-23.3073 6.90625,-23.3281 6.96875,-23.3281 C7.0625,-23.3281 7.13021,-23.3073 7.17188,-23.2656 C7.86979,-22.4219 8.47396,-21.3229 8.98438,-19.9688 C9.50521,-18.6146 9.76562,-17.3802 9.76562,-16.2656 C9.76562,-15.0156 9.46875,-13.8438 8.875,-12.75 C8.19792,-11.5938 7.32292,-10.3958 6.25,-9.15625 C6.52083,-8.30208 6.88542,-6.95833 7.34375,-5.125 M9,3.96875 C9.67708,3.71875 10.2083,3.29688 10.5938,2.70312 C11.0104,2.13021 11.2188,1.48438 11.2188,0.765625 C11.2188,-0.161458 10.9062,-0.984375 10.2812,-1.70312 C9.63542,-2.44271 8.81771,-2.85938 7.82812,-2.95312 C8.39062,-0.203125 8.78125,2.10417 9,3.96875 M1.45312,-0.546875 C1.45312,0.744792 1.97396,1.88021 3.01562,2.85938 C4.07812,3.80729 5.27604,4.28125 6.60938,4.28125 C7.15104,4.28125 7.68229,4.23958 8.20312,4.15625 C7.99479,2.17708 7.58333,-0.192708 6.96875,-2.95312 C6.22917,-2.86979 5.64062,-2.60938 5.20312,-2.17188 C4.76562,-1.71354 4.54688,-1.19792 4.54688,-0.625 C4.54688,0.364583 5.07812,1.16667 6.14062,1.78125 C6.22396,1.875 6.26562,1.97396 6.26562,2.07812 C6.26562,2.18229 6.22396,2.27604 6.14062,2.35938 C6.05729,2.45312 5.95833,2.5 5.84375,2.5 C5.83333,2.5 5.77604,2.48958 5.67188,2.46875 C4.92188,2.0625 4.34896,1.54167 3.95312,0.90625 C3.56771,0.21875 3.375,-0.46875 3.375,-1.15625 C3.375,-2.05208 3.65625,-2.86458 4.21875,-3.59375 C4.80208,-4.32292 5.5625,-4.79167 6.5,-5 C6.13542,-6.45833 5.83854,-7.59896 5.60938,-8.42188 C5.40104,-8.18229 5.15104,-7.89844 4.85938,-7.57031 C4.56771,-7.24219 4.39583,-7.04167 4.34375,-6.96875 C3.875,-6.36458 3.51562,-5.89062 3.26562,-5.54688 C2.81771,-4.93229 2.48958,-4.40625 2.28125,-3.96875 C2.0625,-3.46875 1.86979,-2.92708 1.70312,-2.34375 C1.53646,-1.78125 1.45312,-1.18229 1.45312,-0.546875 M7.96875,-20.4062 C6.98958,-19.9271 6.22396,-19.2396 5.67188,-18.3438 C5.09896,-17.4167 4.8125,-16.4219 4.8125,-15.3594 C4.8125,-14.4219 5.04688,-13.1562 5.51562,-11.5625 C6.45312,-12.6979 7.15625,-13.7448 7.625,-14.7031 C8.11458,-15.724 8.35938,-16.7865 8.35938,-17.8906 C8.35938,-18.724 8.22917,-19.5625 7.96875,-20.4062"/>
<path class="TimeSig" transform="matrix(0.992126,0,0,0.992126,67.8815,159.236)" d="M4.5,-4.75 C4.88542,-4.75 5.21615,-4.79427 5.49219,-4.88281 C5.76823,-4.97135 5.94271,-5.01562 6.01562,-5.01562 C6.10938,-5.01562 6.18229,-4.98958 6.23438,-4.9375 C6.27604,-4.90625 6.30208,-4.86458 6.3125,-4.8125 C6.3125,-4.78125 6.29688,-4.73958 6.26562,-4.6875 L0.59375,1.92188 L3.92188,1.92188 L3.92188,-0.703125 C3.92188,-0.869792 3.96875,-1.01562 4.0625,-1.14062 C4.21875,-1.26562 4.34896,-1.34375 4.45312,-1.375 C4.61979,-1.44792 4.82812,-1.63021 5.07812,-1.92188 C5.28646,-2.15104 5.53646,-2.55729 5.82812,-3.14062 C5.85938,-3.22396 5.91667,-3.26562 6,-3.26562 C6.15625,-3.26562 6.24479,-3.17188 6.26562,-2.98438 L6.26562,1.92188 L7.70312,1.92188 C7.88021,1.92188 7.98438,2.01562 8.01562,2.20312 C8.01562,2.40104 7.91146,2.5 7.70312,2.5 L6.26562,2.5 L6.26562,2.65625 C6.26562,3.17708 6.39583,3.61979 6.65625,3.98438 C6.95833,4.34896 7.3125,4.53125 7.71875,4.53125 C7.875,4.53125 7.95312,4.60938 7.95312,4.76562 C7.95312,4.92188 7.875,5 7.71875,5 C7.44792,5 7.00521,4.96354 6.39062,4.89062 C5.82812,4.79688 5.39062,4.75 5.07812,4.75 C4.75521,4.75 4.31771,4.79688 3.76562,4.89062 C3.18229,4.96354 2.75,5 2.46875,5 C2.3125,5 2.23438,4.92188 2.23438,4.76562 C2.23438,4.60938 2.3125,4.53125 2.46875,4.53125 C2.86458,4.53125 3.21354,4.34375 3.51562,3.96875 C3.78646,3.58333 3.92188,3.11979 3.92188,2.57812 L0.59375,2.57812 C0.364583,2.57812 0.208333,2.51562 0.125,2.39062 C0.0104167,2.30729 -0.046875,2.1875 -0.046875,2.03125 C-0.046875,1.98958 0.0520833,1.85417 0.25,1.625 C0.479167,1.36458 0.713542,1.04688 0.953125,0.671875 C1.24479,0.223958 1.52083,-0.234375 1.78125,-0.703125 C2.0625,-1.23438 2.29167,-1.84896 2.46875,-2.54688 C2.65625,-3.24479 2.75,-3.95833 2.75,-4.6875 C2.75,-4.89583 2.84375,-5 3.03125,-5 C3.07292,-5 3.15625,-4.97917 3.28125,-4.9375 C3.32292,-4.92708 3.40625,-4.90885 3.53125,-4.88281 C3.65625,-4.85677 3.75521,-4.83333 3.82812,-4.8125 C4.06771,-4.77083 4.29167,-4.75 4.5,-4.75"/>
<path class="TimeSig" transform="matrix(0.992126,0,0,0.992126,67.8815,169.157)" d="M4.5,-4.75 C4.88542,-4.75 5.21615,-4.79427 5.49219,-4.88281 C5.76823,-4.97135 5.94271,-5.01562 6.01562,-5.01562 C6.10938,-5.01562 6.18229,-4.98958 6.23438,-4.9375 C6.27604,-4.90625 6.30208,-4.86458 6.3125,-4.8125 C6.3125,-4.78125 6.29688,-4.73958 6.26562,-4.6875 L0.59375,1.92188 L3.92188,1.92188 L3.92188,-0.703125 C3.92188,-0.869792 3.96875,-1.01562 4.0625,-1.14062 C4.21875,-1.26562 4.34896,-1.34375 4.45312,-1.375 C4.61979,-1.44792 4.82812,-1.63021 5.07812,-1.92188 C5.28646,-2.15104 5.53646,-2.55729 5.82812,-3.14062 C5.85938,-3.22396 5.91667,-3.26562 6,-3.26562 C6.15625,-3.26562 6.24479,-3.17188 6.26562,-2.98438 L6.26562,1.92188 L7.70312,1.92188 C7.88021,1.92188 7.98438,2.01562 8.01562,2.20312 C8.01562,2.40104 7.91146,2.5 7.70312,2.5 L6.26562,2.5 L6.26562,2.65625 C6.26562,3.17708 6.39583,3.61979 6.65625,3.98438 C6.95833,4.34896 7.3125,4.53125 7.71875,4.53125 C7.875,4.53125 7.95312,4.60938 7.95312,4.76562 C7.95312,4.92188 7.875,5 7.71875,5 C7.44792,5 7.00521,4.96354 6.39062,4.89062 C5.82812,4.79688 5.39062,4.75 5.07812,4.75 C4.75521,4.75 4.31771,4.79688 3.76562,4.89062 C3.18229,4.96354 2.75,5 2.46875,5 C2.3125,5 2.23438,4.92188 2.23438,4.76562 C2.23438,4.60938 2.3125,4.53125 2.46875,4.53125 C2.86458,4.53125 3.21354,4.34375 3.51562,3.96875 C3.78646,3.58333 3.92188,3.11979 3.92188,2.57812 L0.59375,2.57812 C0.364583,2.57812 0.208333,2.51562 0.125,2.39062 C0.0104167,2.30729 -0.046875,2.1875 -0.046875,2.03125 C-0.046875,1.98958 0.0520833,1.85417 0.25,1.625 C0.479167,1.36458 0.713542,1.04688 0.953125,0.671875 C1.24479,0.223958 1.52083,-0.234375 1.78125,-0.703125 C2.0625,-1.23438 2.29167,-1.84896 2.46875,-2.54688 C2.65625,-3.24479 2.75,-3.95833 2.75,-4.6875 C2.75,-4.89583 2.84375,-5 3.03125,-5 C3.07292,-5 3.15625,-4.97917 3.28125,-4.9375 C3.32292,-4.92708 3.40625,-4.90885 3.53125,-4.88281 C3.65625,-4.85677 3.75521,-4.83333 3.82812,-4.8125 C4.06771,-4.77083 4.29167,-4.75 4.5,-4.75"/>
<path class="TimeSig" transform="matrix(0.992126,0,0,0.992126,67.8815,107.15)" d="M4.5,-4.75 C4.88542,-4.75 5.21615,-4.79427 5.49219,-4.88281 C5.76823,-4.97135 5.94271,-5.01562 6.01562,-5.01562 C6.10938,-5.01562 6.18229,-4.98958 6.23438,-4.9375 C6.27604,-4.90625 6.30208,-4.86458 6.3125,-4.8125 C6.3125,-4.78125 6.29688,-4.73958 6.26562,-4.6875 L0.59375,1.92188 L3.92188,1.92188 L3.92188,-0.703125 C3.92188,-0.869792 3.96875,-1.01562 4.0625,-1.14062 C4.21875,-1.26562 4.34896,-1.34375 4.45312,-1.375 C4.61979,-1.44792 4.82812,-1.63021 5.07812,-1.92188 C5.28646,-2.15104 5.53646,-2.55729 5.82812,-3.14062 C5.85938,-3.22396 5.91667,-3.26562 6,-3.26562 C6.15625,-3.26562 6.24479,-3.17188 6.26562,-2.98438 L6.26562,1.92188 L7.70312,1.92188 C7.88021,1.92188 7.98438,2.01562 8.01562,2.20312 C8.01562,2.40104 7.91146,2.5 7.70312,2.5 L6.26562,2.5 L6.26562,2.65625 C6.26562,3.17708 6.39583,3.61979 6.65625,3.98438 C6.95833,4.34896 7.3125,4.53125 7.71875,4.53125 C7.875,4.53125 7.95312,4.60938 7.95312,4.76562 C7.95312,4.92188 7.875,5 7.71875,5 C7.44792,5 7.00521,4.96354 6.39062,4.89062 C5.82812,4.79688 5.39062,4.75 5.07812,4.75 C4.75521,4.75 4.31771,4.79688 3.76562,4.89062 C3.18229,4.96354 2.75,5 2.46875,5 C2.3125,5 2.23438,4.92188 2.23438,4.76562 C2.23438,4.60938 2.3125,4.53125 2.46875,4.53125 C2.86458,4.53125 3.21354,4.34375 3.51562,3.96875 C3.78646,3.58333 3.92188,3.11979 3.92188,2.57812 L0.59375,2.57812 C0.364583,2.57812 0.208333,2.51562 0.125,2.39062 C0.0104167,2.30729 -0.046875,2.1875 -0.046875,2.03125 C-0.046875,1.98958 0.0520833,1.85417 0.25,1.625 C0.479167,1.36458 0.713542,1.04688 0.953125,0.671875 C1.24479,0.223958 1.52083,-0.234375 1.78125,-0.703125 C2.0625,-1.23438 2.29167,-1.84896 2.46875,-2.54688 C2.65625,-3.24479 2.75,-3.95833 2.75,-4.6875 C2.75,-4.89583 2.84375,-5 3.03125,-5 C3.07292,-5 3.15625,-4.97917 3.28125,-4.9375 C3.32292,-4.92708 3.40625,-4.90885 3.53125,-4.88281 C3.65625,-4.85677 3.75521,-4.83333 3.82812,-4.8125 C4.06771,-4.77083 4.29167,-4.75 4.5,-4.75"/>
<path class="TimeSig" transform="matrix(0.992126,0,0,0.992126,67.8815,117.071)" d="M4.5,-4.75 C4.88542,-4.75 5.21615,-4.79427 5.49219,-4.88281 C5.76823,-4.97135 5.94271,-5.01562 6.01562,-5.01562 C6.10938,-5.01562 6.18229,-4.98958 6.23438,-4.9375 C6.27604,-4.90625 6.30208,-4.86458 6.3125,-4.8125 C6.3125,-4.78125 6.29688,-4.73958 6.26562,-4.6875 L0.59375,1.92188 L3.92188,1.92188 L3.92188,-0.703125 C3.92188,-0.869792 3.96875,-1.01562 4.0625,-1.14062 C4.21875,-1.26562 4.34896,-1.34375 4.45312,-1.375 C4.61979,-1.44792 4.82812,-1.63021 5.07812,-1.92188 C5.28646,-2.15104 5.53646,-2.55729 5.82812,-3.14062 C5.85938,-3.22396 5.91667,-3.26562 6,-3.26562 C6.15625,-3.26562 6.24479,-3.17188 6.26562,-2.98438 L6.26562,1.92188 L7.70312,1.92188 C7.88021,1.92188 7.98438,2.01562 8.01562,2.20312 C8.01562,2.40104 7.91146,2.5 7.70312,2.5 L6.26562,2.5 L6.26562,2.65625 C6.26562,3.17708 6.39583,3.61979 6.65625,3.98438 C6.95833,4.34896 7.3125,4.53125 7.71875,4.53125 C7.875,4.53125 7.95312,4.60938 7.95312,4.76562 C7.95312,4.92188 7.875,5 7.71875,5 C7.44792,5 7.00521,4.96354 6.39062,4.89062 C5.82812,4.79688 5.39062,4.75 5.07812,4.75 C4.75521,4.75 4.31771,4.79688 3.76562,4.89062 C3.18229,4.96354 2.75,5 2.46875,5 C2.3125,5 2.23438,4.92188 2.23438,4.76562 C2.23438,4.60938 2.3125,4.53125 2.46875,4.53125 C2.86458,4.53125 3.21354,4.34375 3.51562,3.96875 C3.78646,3.58333 3.92188,3.11979 3.92188,2.57812 L0.59375,2.57812 C0.364583,2.57812 0.208333,2.51562 0.125,2.39062 C0.0104167,2.30729 -0.046875,2.1875 -0.046875,2.03125 C-0.046875,1.98958 0.0520833,1.85417 0.25,1.625 C0.479167,1.36458 0.713542,1.04688 0.953125,0.671875 C1.24479,0.223958 1.52083,-0.234375 1.78125,-0.703125 C2.0625,-1.23438 2.29167,-1.84896 2.46875,-2.54688 C2.65625,-3.24479 2.75,-3.95833 2.75,-4.6875 C2.75,-4.89583 2.84375,-5 3.03125,-5 C3.07292,-5 3.15625,-4.97917 3.28125,-4.9375 C3.32292,-4.92708 3.40625,-4.90885 3.53125,-4.88281 C3.65625,-4.85677 3.75521,-4.83333 3.82812,-4.8125 C4.06771,-4.77083 4.29167,-4.75 4.5,-4.75"/>
<path class="Rest" transform="matrix(0.992126,0,0,0.992126,444.212,451.913)" d="M7.3125,3.125 L0.203125,3.125 C0.0677083,3.125 0,3.0625 0,2.9375 L0,0.203125 C0,0.0677083 0.0677083,0 0.203125,0 L7.3125,0 C7.4375,0 7.5,0.0677083 7.5,0.203125 L7.5,2.9375 C7.5,3.0625 7.4375,3.125 7.3125,3.125"/>
<path class="Rest" transform="matrix(0.992126,0,0,0.992126,444.212,399.827)" d="M7.3125,3.125 L0.203125,3.125 C0.0677083,3.125 0,3.0625 0,2.9375 L0,0.203125 C0,0.0677083 0.0677083,0 0.203125,0 L7.3125,0 C7.4375,0 7.5,0.0677083 7.5,0.203125 L7.5,2.9375 C7.5,3.0625 7.4375,3.125 7.3125,3.125"/>
<path class="Rest" transform="matrix(0.992126,0,0,0.992126,327.377,451.913)" d="M7.3125,3.125 L0.203125,3.125 C0.0677083,3.125 0,3.0625 0,2.9375 L0,0.203125 C0,0.0677083 0.0677083,0 0.203125,0 L7.3125,0 C7.4375,0 7.5,0.0677083 7.5,0.203125 L7.5,2.9375 C7.5,3.0625 7.4375,3.125 7.3125,3.125"/>
<path class="Rest" transform="matrix(0.992126,0,0,0.992126,327.377,399.827)" d="M7.3125,3.125 L0.203125,3.125 C0.0677083,3.125 0,3.0625 0,2.9375 L0,0.203125 C0,0.0677083 0.0677083,0 0.203125,0 L7.3125,0 C7.4375,0 7.5,0.0677083 7.5,0.203125 L7.5,2.9375 C7.5,3.0625 7.4375,3.125 7.3125,3.125"/>
<path class="Rest" transform="matrix(0.992126,0,0,0.992126,211.452,399.827)" d="M7.3125,3.125 L0.203125,3.125 C0.0677083,3.125 0,3.0625 0,2.9375 L0,0.203125 C0,0.0677083 0.0677083,0 0.203125,0 L7.3125,0 C7.4375,0 7.5,0.0677083 7.5,0.203125 L7.5,2.9375 C7.5,3.0625 7.4375,3.125 7.3125,3.125"/>
<path class="Rest" transform="matrix(0.992126,0,0,0.992126,71.5524,399.827)" d="M7.3125,3.125 L0.203125,3.125 C0.0677083,3.125 0,3.0625 0,2.9375 L0,0.203125 C0,0.0677083 0.0677083,0 0.203125,0 L7.3125,0 C7.4375,0 7.5,0.0677083 7.5,0.203125 L7.5,2.9375 C7.5,3.0625 7.4375,3.125 7.3125,3.125"/>
<path class="Rest" transform="matrix(0.992126,0,0,0.992126,431.543,305.575)" d="M7.3125,3.125 L0.203125,3.125 C0.0677083,3.125 0,3.0625 0,2.9375 L0,0.203125 C0,0.0677083 0.0677083,0 0.203125,0 L7.3125,0 C7.4375,0 7.5,0.0677083 7.5,0.203125 L7.5,2.9375 C7.5,3.0625 7.4375,3.125 7.3125,3.125"/>
<path class="Rest" transform="matrix(0.992126,0,0,0.992126,297.574,305.575)" d="M7.3125,3.125 L0.203125,3.125 C0.0677083,3.125 0,3.0625 0,2.9375 L0,0.203125 C0,0.0677083 0.0677083,0 0.203125,0 L7.3125,0 C7.4375,0 7.5,0.0677083 7.5,0.203125 L7.5,2.9375 C7.5,3.0625 7.4375,3.125 7.3125,3.125"/>
<path class="Rest" transform="matrix(0.992126,0,0,0.992126,194.566,253.488)" d="M7.3125,3.125 L0.203125,3.125 C0.0677083,3.125 0,3.0625 0,2.9375 L0,0.203125 C0,0.0677083 0.0677083,0 0.203125,0 L7.3125,0 C7.4375,0 7.5,0.0677083 7.5,0.203125 L7.5,2.9375 C7.5,3.0625 7.4375,3.125 7.3125,3.125"/>
<path class="Rest" transform="matrix(0.992126,0,0,0.992126,71.5524,253.488)" d="M7.3125,3.125 L0.203125,3.125 C0.0677083,3.125 0,3.0625 0,2.9375 L0,0.203125 C0,0.0677083 0.0677083,0 0.203125,0 L7.3125,0 C7.4375,0 7.5,0.0677083 7.5,0.203125 L7.5,2.9375 C7.5,3.0625 7.4375,3.125 7.3125,3.125"/>
<path class="Rest" transform="matrix(0.992126,0,0,0.992126,428.994,159.236)" d="M7.3125,3.125 L0.203125,3.125 C0.0677083,3.125 0,3.0625 0,2.9375 L0,0.203125 C0,0.0677083 0.0677083,0 0.203125,0 L7.3125,0 C7.4375,0 7.5,0.0677083 7.5,0.203125 L7.5,2.9375 C7.5,3.0625 7.4375,3.125 7.3125,3.125"/>
<path class="Rest" transform="matrix(0.992126,0,0,0.992126,292.478,159.236)" d="M7.3125,3.125 L0.203125,3.125 C0.0677083,3.125 0,3.0625 0,2.9375 L0,0.203125 C0,0.0677083 0.0677083,0 0.203125,0 L7.3125,0 C7.4375,0 7.5,0.0677083 7.5,0.203125 L7.5,2.9375 C7.5,3.0625 7.4375,3.125 7.3125,3.125"/>
<path class="Rest" transform="matrix(0.992126,0,0,0.992126,186.011,159.236)" d="M7.3125,3.125 L0.203125,3.125 C0.0677083,3.125 0,3.0625 0,2.9375 L0,0.203125 C0,0.0677083 0.0677083,0 0.203125,0 L7.3125,0 C7.4375,0 7.5,0.0677083 7.5,0.203125 L7.5,2.9375 C7.5,3.0625 7.4375,3.125 7.3125,3.125"/>
<path class="Rest" transform="matrix(0.992126,0,0,0.992126,186.011,107.15)" d="M7.3125,3.125 L0.203125,3.125 C0.0677083,3.125 0,3.0625 0,2.9375 L0,0.203125 C0,0.0677083 0.0677083,0 0.203125,0 L7.3125,0 C7.4375,0 7.5,0.0677083 7.5,0.203125 L7.5,2.9375 C7.5,3.0625 7.4375,3.125 7.3125,3.125"/>
<path class="Rest" transform="matrix(0.992126,0,0,0.992126,84.4996,159.236)" d="M7.3125,3.125 L0.203125,3.125 C0.0677083,3.125 0,3.0625 0,2.9375 L0,0.203125 C0,0.0677083 0.0677083,0 0.203125,0 L7.3125,0 C7.4375,0 7.5,0.0677083 7.5,0.203125 L7.5,2.9375 C7.5,3.0625 7.4375,3.125 7.3125,3.125"/>
<path class="Rest" transform="matrix(0.992126,0,0,0.992126,84.4996,107.15)" d="M7.3125,3.125 L0.203125,3.125 C0.0677083,3.125 0,3.0625 0,2.9375 L0,0.203125 C0,0.0677083 0.0677083,0 0.203125,0 L7.3125,0 C7.4375,0 7.5,0.0677083 7.5,0.203125 L7.5,2.9375 C7.5,3.0625 7.4375,3.125 7.3125,3.125"/>
<path class="StaffText" d="M298.103,87.4834 L296.696,87.4834 L296.415,89.6396 L295.665,89.6396 L295.946,87.4834 L294.4,87.4834 L294.118,89.6396 L293.368,89.6396 L293.65,87.4834 L292.712,87.4834 L292.712,86.5928 L293.743,86.5928 L294.025,84.624 L292.712,84.624 L292.712,83.7334 L294.118,83.7334 L294.4,81.624 L295.15,81.624 L294.868,83.7334 L296.415,83.7334 L296.696,81.624 L297.446,81.624 L297.165,83.7334 L298.103,83.7334 L298.103,84.624 L297.071,84.624 L296.79,86.5928 L298.103,86.5928 L298.103,87.4834 M296.321,84.624 L294.775,84.624 L294.493,86.5928 L296.04,86.5928 L296.321,84.624 M305.228,81.249 C304.821,81.3115 304.228,81.499 303.446,81.8115 C303.446,82.624 303.431,83.5459 303.4,84.5771 L306.165,84.5771 L306.165,81.8584 C306.165,81.2334 306.15,80.7178 306.118,80.3115 L307.196,80.3115 C307.165,80.7178 307.15,81.2334 307.15,81.8584 L307.15,84.5771 C308.462,84.5771 309.431,84.5615 310.056,84.5303 L310.056,85.4678 C309.493,85.4365 308.525,85.4209 307.15,85.4209 L307.15,89.0303 C307.15,89.5303 307.165,90.124 307.196,90.8115 L306.118,90.8115 C306.15,90.1553 306.165,89.5615 306.165,89.0303 L306.165,85.4209 L303.4,85.4209 C303.306,86.5146 302.946,87.4912 302.321,88.3506 C301.696,89.21 300.853,89.999 299.79,90.7178 C299.634,90.4365 299.337,90.1865 298.9,89.9678 C299.618,89.6553 300.36,89.0693 301.126,88.21 C301.892,87.3506 302.306,86.4209 302.368,85.4209 L300.118,85.4209 C299.743,85.4209 299.337,85.4365 298.9,85.4678 L298.9,84.5303 C299.337,84.5615 299.743,84.5771 300.118,84.5771 L302.415,84.5771 C302.446,83.9521 302.462,83.124 302.462,82.0928 C301.368,82.374 300.634,82.5771 300.259,82.7021 C300.134,82.3584 299.915,82.0615 299.603,81.8115 C300.165,81.749 300.923,81.5771 301.876,81.2959 C302.829,81.0146 303.65,80.6709 304.337,80.2646 L305.228,81.249 M319.9,80.6396 C319.868,81.1084 319.853,81.6396 319.853,82.2334 C319.853,82.8271 319.868,83.3896 319.9,83.9209 L313.103,83.9209 C313.134,83.4834 313.15,82.9678 313.15,82.374 C313.15,81.749 313.134,81.1709 313.103,80.6396 L319.9,80.6396 M320.181,84.9521 C320.775,84.9521 321.306,84.9365 321.775,84.9053 L321.775,85.749 C321.306,85.7178 320.775,85.7021 320.181,85.7021 L315.071,85.7021 C314.946,86.1396 314.806,86.624 314.65,87.1553 L320.181,87.1553 C320.087,87.6553 320.017,88.0771 319.97,88.4209 C319.923,88.7646 319.853,89.1787 319.759,89.6631 C319.665,90.1475 319.478,90.4756 319.196,90.6475 C318.915,90.8193 318.025,90.9521 316.525,91.0459 C316.4,90.7021 316.243,90.3428 316.056,89.9678 C317.181,89.999 317.892,89.999 318.189,89.9678 C318.485,89.9365 318.681,89.7725 318.775,89.4756 C318.868,89.1787 318.962,88.6709 319.056,87.9521 L313.478,87.9521 C313.759,87.2021 313.978,86.4521 314.134,85.7021 L313.009,85.7021 C312.353,85.7021 311.743,85.7178 311.181,85.749 L311.181,84.9053 C311.743,84.9365 312.353,84.9521 313.009,84.9521 L320.181,84.9521 M318.962,83.1709 L318.962,81.3896 L314.04,81.3896 L314.04,83.1709 L318.962,83.1709 "/>
<path class="StaffText" d="M89.6559,97.0727 L88.7184,97.0727 L88.7184,96.3696 C88.5309,96.6508 88.3121,96.854 88.0621,96.979 C87.8121,97.104 87.5153,97.1665 87.1715,97.1665 C86.5465,97.1665 86.0153,96.9399 85.5778,96.4868 C85.1403,96.0337 84.9215,95.354 84.9215,94.4477 C84.9215,93.5415 85.1403,92.854 85.5778,92.3852 C86.0153,91.9165 86.5465,91.6821 87.1715,91.6821 C87.5153,91.6821 87.8121,91.7524 88.0621,91.893 C88.3121,92.0337 88.5309,92.2446 88.7184,92.5258 L88.7184,89.0571 L89.6559,89.0571 L89.6559,97.0727 M88.7184,94.4477 C88.7184,93.854 88.5856,93.3852 88.32,93.0415 C88.0543,92.6977 87.734,92.5258 87.359,92.5258 C86.8903,92.5258 86.5387,92.6977 86.3043,93.0415 C86.07,93.3852 85.9528,93.854 85.9528,94.4477 C85.9528,95.0415 86.07,95.5024 86.3043,95.8305 C86.5387,96.1587 86.8903,96.3227 87.359,96.3227 C87.734,96.3227 88.0543,96.1587 88.32,95.8305 C88.5856,95.5024 88.7184,95.0415 88.7184,94.4477 M96.0778,91.8696 L90.734,91.8696 L90.734,91.1196 L96.0778,91.1196 L96.0778,91.8696 M96.0778,94.729 L90.734,94.729 L90.734,93.979 L96.0778,93.979 L96.0778,94.729 M96.8278,94.729 C96.8278,94.354 96.9215,93.9868 97.109,93.6274 C97.2965,93.268 97.609,92.979 98.0465,92.7602 C97.6715,92.5415 97.4215,92.2993 97.2965,92.0337 C97.1715,91.768 97.1012,91.4633 97.0856,91.1196 C97.07,90.7758 97.1168,90.479 97.2262,90.229 C97.3356,89.979 97.4996,89.7446 97.7184,89.5258 C97.9371,89.3071 98.1793,89.1587 98.445,89.0805 C98.7106,89.0024 98.9996,88.9633 99.3121,88.9633 C99.6246,88.9633 99.9059,88.9946 100.156,89.0571 C100.406,89.1196 100.672,89.2524 100.953,89.4555 C101.234,89.6587 101.437,89.9477 101.562,90.3227 C101.687,90.6977 101.679,91.1352 101.539,91.6352 C101.398,92.1352 101.031,92.5258 100.437,92.8071 C100.968,92.9633 101.343,93.2055 101.562,93.5337 C101.781,93.8618 101.89,94.2602 101.89,94.729 C101.89,95.1977 101.82,95.5727 101.679,95.854 C101.539,96.1352 101.382,96.3696 101.211,96.5571 C101.039,96.7446 100.804,96.893 100.507,97.0024 C100.211,97.1118 99.8356,97.1665 99.3825,97.1665 C98.9293,97.1665 98.5387,97.1118 98.2106,97.0024 C97.8825,96.893 97.609,96.729 97.3903,96.5102 C97.1715,96.2915 97.0231,96.0337 96.945,95.7368 C96.8668,95.4399 96.8278,95.104 96.8278,94.729 M97.7887,94.6821 C97.7731,95.0571 97.8356,95.3852 97.9762,95.6665 C98.1168,95.9477 98.3746,96.1274 98.7496,96.2055 C99.1246,96.2837 99.5153,96.2758 99.9215,96.1821 C100.328,96.0883 100.609,95.8696 100.765,95.5258 C100.922,95.1821 100.976,94.8383 100.929,94.4946 C100.882,94.1508 100.687,93.8618 100.343,93.6274 C99.9996,93.393 99.6246,93.2915 99.2184,93.3227 C98.8121,93.354 98.4762,93.4946 98.2106,93.7446 C97.945,93.9946 97.8043,94.3071 97.7887,94.6821 M97.9528,91.0258 C97.9528,91.3383 98.0621,91.6352 98.2809,91.9165 C98.4996,92.1977 98.8434,92.3383 99.3121,92.3383 C99.7809,92.3383 100.132,92.1977 100.367,91.9165 C100.601,91.6352 100.711,91.2993 100.695,90.9087 C100.679,90.518 100.539,90.229 100.273,90.0415 C100.007,89.854 99.6481,89.7758 99.195,89.8071 C98.7418,89.8383 98.4215,89.9712 98.234,90.2055 C98.0465,90.4399 97.9528,90.7133 97.9528,91.0258 M103.062,96.8383 C103.093,96.3696 103.312,95.9477 103.718,95.5727 C104.125,95.1977 104.64,94.6118 105.265,93.8149 C105.89,93.018 106.297,92.4008 106.484,91.9633 C106.672,91.5258 106.742,91.1508 106.695,90.8383 C106.648,90.5258 106.5,90.268 106.25,90.0649 C106,89.8618 105.711,89.7758 105.382,89.8071 C105.054,89.8383 104.742,89.9633 104.445,90.1821 C104.148,90.4008 103.922,90.729 103.765,91.1665 L102.875,91.0258 C103.125,90.3071 103.445,89.7837 103.836,89.4555 C104.226,89.1274 104.687,88.9477 105.218,88.9165 C105.531,88.8852 105.812,88.893 106.062,88.9399 C106.312,88.9868 106.57,89.0962 106.836,89.268 C107.101,89.4399 107.32,89.6977 107.492,90.0415 C107.664,90.3852 107.726,90.7993 107.679,91.2837 C107.632,91.768 107.39,92.3462 106.953,93.018 C106.515,93.6899 105.672,94.7446 104.422,96.1821 L107.797,96.1821 L107.797,97.0258 L103.062,97.0258 L103.062,96.8383 "/>
<path class="Bracket" fill-rule="evenodd" d="M44.0589,420.457 C44.0589,414.662 40.0677,409.029 40.0677,403.477 C40.0677,400.681 41.1562,397.966 44.5125,395.535 C44.5578,395.504 44.5805,395.454 44.5805,395.423 C44.5805,395.332 44.331,395.251 44.1496,395.251 C44.0589,395.251 43.9002,395.261 43.7868,395.332 C39.4328,398.452 37.9814,402.059 37.9814,405.706 C37.9814,411.582 42.2447,417.255 42.2447,422.888 C42.2447,425.684 41.1562,428.318 37.8,430.75 L37.8,430.831 L37.8,430.912 C41.1562,433.343 42.2447,435.977 42.2447,438.773 C42.2447,444.406 37.9814,450.079 37.9814,455.955 C37.9814,459.602 39.4328,463.209 43.7868,466.329 C43.9002,466.4 44.0589,466.41 44.1496,466.41 C44.331,466.41 44.5805,466.329 44.5805,466.238 C44.5805,466.208 44.5578,466.157 44.5125,466.127 C41.1562,463.695 40.0677,460.98 40.0677,458.184 C40.0677,452.632 44.0589,447 44.0589,441.205 C44.0589,437.517 42.6076,433.992 38.3443,430.831 C42.6076,427.67 44.0589,424.144 44.0589,420.457" id="36.2126,412.724 71.1592"/>
<path class="Bracket" fill-rule="evenodd" d="M44.0589,274.118 C44.0589,268.323 40.0677,262.691 40.0677,257.139 C40.0677,254.343 41.1562,251.628 44.5125,249.196 C44.5578,249.166 44.5805,249.115 44.5805,249.085 C44.5805,248.994 44.331,248.913 44.1496,248.913 C44.0589,248.913 43.9002,248.923 43.7868,248.994 C39.4328,252.114 37.9814,255.72 37.9814,259.368 C37.9814,265.243 42.2447,270.917 42.2447,276.55 C42.2447,279.346 41.1562,281.98 37.8,284.411 L37.8,284.492 L37.8,284.573 C41.1562,287.005 42.2447,289.639 42.2447,292.435 C42.2447,298.067 37.9814,303.741 37.9814,309.617 C37.9814,313.264 39.4328,316.87 43.7868,319.991 C43.9002,320.062 44.0589,320.072 44.1496,320.072 C44.331,320.072 44.5805,319.991 44.5805,319.9 C44.5805,319.869 44.5578,319.818 44.5125,319.788 C41.1562,317.357 40.0677,314.642 40.0677,311.845 C40.0677,306.294 44.0589,300.661 44.0589,294.866 C44.0589,291.179 42.6076,287.653 38.3443,284.492 C42.6076,281.331 44.0589,277.806 44.0589,274.118" id="36.2126,266.386 71.1592"/>
<path class="Bracket" fill-rule="evenodd" d="M44.0589,127.78 C44.0589,121.985 40.0677,116.352 40.0677,110.8 C40.0677,108.004 41.1562,105.289 44.5125,102.858 C44.5578,102.827 44.5805,102.777 44.5805,102.746 C44.5805,102.655 44.331,102.574 44.1496,102.574 C44.0589,102.574 43.9002,102.584 43.7868,102.655 C39.4328,105.775 37.9814,109.382 37.9814,113.029 C37.9814,118.905 42.2447,124.578 42.2447,130.211 C42.2447,133.007 41.1562,135.641 37.8,138.073 L37.8,138.154 L37.8,138.235 C41.1562,140.666 42.2447,143.3 42.2447,146.096 C42.2447,151.729 37.9814,157.402 37.9814,163.278 C37.9814,166.925 39.4328,170.532 43.7868,173.652 C43.9002,173.723 44.0589,173.733 44.1496,173.733 C44.331,173.733 44.5805,173.652 44.5805,173.561 C44.5805,173.531 44.5578,173.48 44.5125,173.449 C41.1562,171.018 40.0677,168.303 40.0677,165.507 C40.0677,159.955 44.0589,154.322 44.0589,148.528 C44.0589,144.84 42.6076,141.314 38.3443,138.154 C42.6076,134.993 44.0589,131.467 44.0589,127.78" id="36.2126,120.047 71.1592"/>
</svg>
