<?xml version="1.0" encoding="UTF-8" standalone="no"?>
<svg width="1011.97px" height="588.2px" viewBox="0 0 595.275 346"
 xmlns="http://www.w3.org/2000/svg" xmlns:xlink="http://www.w3.org/1999/xlink" version="1.2" baseProfile="tiny">
<title>33.练习曲</title>
<desc>Generated by MuseScore 2.0.3</desc>
<polyline class="StaffLines" fill="none" stroke="#000000" stroke-width="0.40" stroke-linejoin="bevel" points="46.1339,102.189 559.558,102.189" x="46.1339" y="102.189" bx="46.1339" by="137.769" measure_no="0" elid="0" sysno="1" spatium="4.96063"/>
<polyline class="StaffLines" fill="none" stroke="#000000" stroke-width="0.40" stroke-linejoin="bevel" points="46.1339,107.15 559.558,107.15"/>
<polyline class="StaffLines" fill="none" stroke="#000000" stroke-width="0.40" stroke-linejoin="bevel" points="46.1339,112.11 559.558,112.11"/>
<polyline class="StaffLines" fill="none" stroke="#000000" stroke-width="0.40" stroke-linejoin="bevel" points="46.1339,117.071 559.558,117.071"/>
<polyline class="StaffLines" fill="none" stroke="#000000" stroke-width="0.40" stroke-linejoin="bevel" points="46.1339,122.032 559.558,122.032"/>
<polyline class="StaffLines" fill="none" stroke="#000000" stroke-width="0.40" stroke-linejoin="bevel" points="46.1339,154.276 559.558,154.276"/>
<polyline class="StaffLines" fill="none" stroke="#000000" stroke-width="0.40" stroke-linejoin="bevel" points="46.1339,159.236 559.558,159.236"/>
<polyline class="StaffLines" fill="none" stroke="#000000" stroke-width="0.40" stroke-linejoin="bevel" points="46.1339,164.197 559.558,164.197"/>
<polyline class="StaffLines" fill="none" stroke="#000000" stroke-width="0.40" stroke-linejoin="bevel" points="46.1339,169.157 559.558,169.157"/>
<polyline class="StaffLines" fill="none" stroke="#000000" stroke-width="0.40" stroke-linejoin="bevel" points="46.1339,174.118 559.558,174.118"/>
<polyline class="StaffLines" fill="none" stroke="#000000" stroke-width="0.40" stroke-linejoin="bevel" points="46.1339,248.528 559.558,248.528" x="46.1339" y="248.528" bx="46.1339" by="284.107" measure_no="4" elid="13" sysno="2" spatium="4.96063"/>
<polyline class="StaffLines" fill="none" stroke="#000000" stroke-width="0.40" stroke-linejoin="bevel" points="46.1339,253.488 559.558,253.488"/>
<polyline class="StaffLines" fill="none" stroke="#000000" stroke-width="0.40" stroke-linejoin="bevel" points="46.1339,258.449 559.558,258.449"/>
<polyline class="StaffLines" fill="none" stroke="#000000" stroke-width="0.40" stroke-linejoin="bevel" points="46.1339,263.409 559.558,263.409"/>
<polyline class="StaffLines" fill="none" stroke="#000000" stroke-width="0.40" stroke-linejoin="bevel" points="46.1339,268.37 559.558,268.37"/>
<polyline class="StaffLines" fill="none" stroke="#000000" stroke-width="0.40" stroke-linejoin="bevel" points="46.1339,300.614 559.558,300.614"/>
<polyline class="StaffLines" fill="none" stroke="#000000" stroke-width="0.40" stroke-linejoin="bevel" points="46.1339,305.575 559.558,305.575"/>
<polyline class="StaffLines" fill="none" stroke="#000000" stroke-width="0.40" stroke-linejoin="bevel" points="46.1339,310.535 559.558,310.535"/>
<polyline class="StaffLines" fill="none" stroke="#000000" stroke-width="0.40" stroke-linejoin="bevel" points="46.1339,315.496 559.558,315.496"/>
<polyline class="StaffLines" fill="none" stroke="#000000" stroke-width="0.40" stroke-linejoin="bevel" points="46.1339,320.457 559.558,320.457"/>
<path class="Text" d="M47.0089,235.028 C47.0089,234.747 46.9464,234.497 46.8214,234.278 C46.6964,234.059 46.5427,233.888 46.3604,233.763 C46.1781,233.638 45.9776,233.539 45.7589,233.466 C45.5401,233.393 45.35,233.343 45.1886,233.317 C45.0271,233.291 44.8839,233.278 44.7589,233.278 C44.6964,233.278 44.6651,233.257 44.6651,233.216 C44.6651,233.195 44.6651,233.179 44.6651,233.169 L45.5401,231.309 L47.212,231.309 C47.2953,231.309 47.363,231.296 47.4151,231.27 C47.4672,231.244 47.5245,231.19 47.587,231.106 L47.6495,231.169 L47.3526,231.825 C47.3318,231.877 47.2693,231.903 47.1651,231.903 L45.6026,231.903 L45.2589,232.575 C46.0401,232.721 46.6209,232.95 47.0011,233.263 C47.3813,233.575 47.5714,234.039 47.5714,234.653 C47.5714,234.966 47.5219,235.247 47.4229,235.497 C47.324,235.747 47.1964,235.947 47.0401,236.098 C46.8839,236.25 46.7068,236.372 46.5089,236.466 C46.311,236.559 46.1209,236.625 45.9386,236.661 C45.7563,236.697 45.5714,236.716 45.3839,236.716 C45.0818,236.716 44.8422,236.671 44.6651,236.583 C44.488,236.494 44.3995,236.372 44.3995,236.216 C44.3995,236.018 44.5141,235.919 44.7432,235.919 C44.8995,235.919 45.0948,236.002 45.3292,236.169 C45.5636,236.335 45.7537,236.419 45.8995,236.419 C46.212,236.419 46.475,236.286 46.6886,236.02 C46.9021,235.755 47.0089,235.424 47.0089,235.028"/>
<path class="Text" d="M248.982,32.6395 L250.529,32.3895 C250.758,33.1291 251.131,33.7437 251.646,34.2333 C252.162,34.7229 252.808,34.952 253.584,34.9208 C254.36,34.8895 254.977,34.5744 255.435,33.9755 C255.894,33.3765 256.094,32.689 256.037,31.913 C255.98,31.1369 255.677,30.5354 255.131,30.1083 C254.584,29.6812 253.711,29.3791 252.513,29.202 L252.513,28.0927 C253.711,27.9781 254.584,27.663 255.131,27.1473 C255.677,26.6317 255.922,25.9572 255.865,25.1239 C255.808,24.2906 255.435,23.689 254.748,23.3192 C254.06,22.9494 253.329,22.9078 252.552,23.1942 C251.776,23.4807 251.159,24.2802 250.701,25.5927 L249.154,25.3427 C249.498,24.3114 249.972,23.452 250.576,22.7645 C251.18,22.077 251.998,21.676 253.029,21.5614 C254.06,21.4468 254.961,21.5744 255.732,21.9442 C256.503,22.314 257.047,22.8869 257.365,23.663 C257.683,24.439 257.727,25.2854 257.498,26.202 C257.269,27.1187 256.607,27.9208 255.513,28.6083 C256.316,28.952 256.933,29.4677 257.365,30.1552 C257.797,30.8427 257.941,31.7437 257.795,32.8583 C257.649,33.9729 257.146,34.8739 256.287,35.5614 C255.427,36.2489 254.454,36.5796 253.365,36.5536 C252.276,36.5275 251.331,36.1838 250.529,35.5223 C249.727,34.8609 249.211,33.8999 248.982,32.6395 M259.982,32.6395 L261.529,32.3895 C261.758,33.1291 262.131,33.7437 262.646,34.2333 C263.162,34.7229 263.808,34.952 264.584,34.9208 C265.36,34.8895 265.977,34.5744 266.435,33.9755 C266.894,33.3765 267.094,32.689 267.037,31.913 C266.98,31.1369 266.677,30.5354 266.131,30.1083 C265.584,29.6812 264.711,29.3791 263.513,29.202 L263.513,28.0927 C264.711,27.9781 265.584,27.663 266.131,27.1473 C266.677,26.6317 266.922,25.9572 266.865,25.1239 C266.808,24.2906 266.435,23.689 265.748,23.3192 C265.06,22.9494 264.329,22.9078 263.552,23.1942 C262.776,23.4807 262.159,24.2802 261.701,25.5927 L260.154,25.3427 C260.498,24.3114 260.972,23.452 261.576,22.7645 C262.18,22.077 262.998,21.676 264.029,21.5614 C265.06,21.4468 265.961,21.5744 266.732,21.9442 C267.503,22.314 268.047,22.8869 268.365,23.663 C268.683,24.439 268.727,25.2854 268.498,26.202 C268.269,27.1187 267.607,27.9208 266.513,28.6083 C267.316,28.952 267.933,29.4677 268.365,30.1552 C268.797,30.8427 268.941,31.7437 268.795,32.8583 C268.649,33.9729 268.146,34.8739 267.287,35.5614 C266.427,36.2489 265.454,36.5796 264.365,36.5536 C263.276,36.5275 262.331,36.1838 261.529,35.5223 C260.727,34.8609 260.211,33.8999 259.982,32.6395 M273.826,36.4208 L271.842,36.4208 L271.842,34.5302 L273.826,34.5302 L273.826,36.4208 M292.467,23.702 C291.664,23.702 290.633,23.7333 289.373,23.7958 L289.373,22.2489 C290.633,22.301 291.696,22.327 292.56,22.327 L293.592,22.327 C294.164,20.6708 294.477,19.5822 294.529,19.0614 C295.217,19.4052 295.847,19.6916 296.42,19.9208 C296.191,20.1499 295.977,20.5093 295.779,20.9989 C295.581,21.4885 295.394,21.9312 295.217,22.327 L298.404,22.327 C299.321,22.327 300.321,22.301 301.404,22.2489 L301.404,23.7958 C300.602,23.7333 299.602,23.702 298.404,23.702 L294.795,23.702 C294.503,24.3895 294.185,25.1656 293.842,26.0302 L297.201,26.0302 C297.138,26.6552 297.107,27.426 297.107,28.3427 L297.107,30.0614 L298.232,30.0614 C299.086,30.0614 300.029,30.0354 301.06,29.9833 L301.06,31.5302 C300.029,31.4677 299.086,31.4364 298.232,31.4364 L297.107,31.4364 L297.107,36.4208 C297.107,37.3999 296.894,38.0328 296.467,38.3192 C296.039,38.6057 295.107,38.8374 293.67,39.0145 C293.618,38.4416 293.388,37.8374 292.982,37.202 C294.42,37.2645 295.209,37.1786 295.349,36.9442 C295.49,36.7098 295.56,36.3062 295.56,35.7333 L295.56,31.4364 L292.904,31.4364 C292.498,31.4364 292.123,31.452 291.779,31.4833 C291.435,31.5145 291.034,31.6135 290.576,31.7802 C290.347,31.2072 290.118,30.6656 289.888,30.1552 C290.461,29.9781 291.123,29.0302 291.873,27.3114 C291.467,27.3114 290.691,27.3427 289.545,27.4052 L289.545,25.9364 C290.868,25.9989 291.784,26.0302 292.295,26.0302 C292.638,25.1656 292.925,24.3895 293.154,23.702 L292.467,23.702 M286.795,26.7177 C287.316,25.9156 287.831,24.827 288.342,23.452 C288.862,23.8479 289.409,24.1916 289.982,24.4833 C289.409,25.2229 288.779,26.1942 288.092,27.3973 C287.404,28.6005 286.316,30.2072 284.826,32.2177 C285.336,32.1031 286.852,31.8427 289.373,31.4364 C289.258,32.0718 289.232,32.5614 289.295,32.9052 C288.034,33.0197 286.055,33.3895 283.357,34.0145 C283.076,33.4416 282.789,32.926 282.498,32.4677 C283.019,32.1864 283.579,31.6578 284.177,30.8817 C284.776,30.1057 285.42,29.1447 286.107,27.9989 C285.763,27.9468 285.263,27.9624 284.607,28.0458 C283.951,28.1291 283.305,28.2593 282.67,28.4364 C282.441,27.9156 282.211,27.3687 281.982,26.7958 C282.555,26.452 283.201,25.5354 283.92,24.0458 C284.638,22.5562 285.227,21.0979 285.685,19.6708 C286.31,20.0666 286.909,20.3531 287.482,20.5302 C286.909,21.3843 286.381,22.2854 285.896,23.2333 C285.412,24.1812 284.737,25.3687 283.873,26.7958 C285.196,26.7958 286.17,26.7697 286.795,26.7177 M289.467,34.452 C289.404,35.077 289.404,35.5927 289.467,35.9989 C288.487,36.2281 287.383,36.5432 286.154,36.9442 C284.925,37.3453 283.795,37.8062 282.763,38.327 C282.586,37.6916 282.383,37.0562 282.154,36.4208 C283.644,36.077 284.662,35.8348 285.209,35.6942 C285.756,35.5536 287.175,35.1395 289.467,34.452 M293.935,33.8427 C293.758,34.0197 293.256,34.5666 292.427,35.4833 C291.599,36.3999 290.67,37.4052 289.638,38.4989 C289.232,37.9781 288.857,37.577 288.513,37.2958 C289.149,36.7749 289.839,36.0979 290.584,35.2645 C291.329,34.4312 291.987,33.5562 292.56,32.6395 C292.904,33.0458 293.362,33.4468 293.935,33.8427 M299.263,32.6395 C300.753,34.5874 301.81,36.1083 302.435,37.202 C301.862,37.4312 301.347,37.7489 300.888,38.1552 C300.263,36.8843 299.289,35.3635 297.967,33.5927 C298.373,33.3635 298.805,33.0458 299.263,32.6395 M295.56,30.0614 L295.56,27.3114 L293.42,27.3114 C292.847,28.5197 292.388,29.4364 292.045,30.0614 L295.56,30.0614 M311.717,21.9833 C310.06,21.9833 308.487,22.0145 306.998,22.077 L306.998,20.3583 C308.883,20.4104 310.316,20.4364 311.295,20.4364 L322.029,20.4364 C321.914,21.2385 321.831,22.4729 321.779,24.1395 L321.435,35.5614 C321.321,37.1135 320.862,38.0328 320.06,38.3192 C319.258,38.6057 317.941,38.8062 316.107,38.9208 C315.93,38.2333 315.612,37.5458 315.154,36.8583 C316.821,36.9729 317.969,36.9572 318.599,36.8114 C319.23,36.6656 319.602,36.1343 319.717,35.2177 L320.06,21.9833 L311.717,21.9833 M317.56,29.7177 C317.56,30.3531 317.618,30.9572 317.732,31.5302 C314.472,32.7281 311.066,34.2177 307.513,35.9989 C307.222,35.3114 306.821,34.6499 306.31,34.0145 C307.05,33.8479 308.524,33.3635 310.732,32.5614 C312.941,31.7593 315.217,30.8114 317.56,29.7177 M309.31,23.702 C311.779,25.1395 313.612,26.3166 314.81,27.2333 C314.581,27.577 314.18,28.1187 313.607,28.8583 C312.576,27.8895 310.8,26.6604 308.279,25.1708 C308.685,24.6499 309.029,24.1604 309.31,23.702 M345.154,35.1395 C345.154,36.7437 345.18,37.9468 345.232,38.7489 L343.263,38.7489 L343.263,37.0302 L329.076,37.0302 L329.076,38.7489 L327.107,38.7489 C327.159,37.1968 327.185,35.9364 327.185,34.9677 L327.185,27.3114 C327.185,25.8218 327.159,24.5354 327.107,23.452 L332.513,23.452 L332.513,21.5614 C332.461,20.6447 332.435,19.8427 332.435,19.1552 L334.404,19.1552 C334.289,19.8947 334.232,20.6656 334.232,21.4677 L334.232,23.452 L337.842,23.452 L337.842,21.2958 C337.842,20.5562 337.816,19.8114 337.763,19.0614 L339.732,19.0614 C339.68,19.7489 339.654,20.4677 339.654,21.2177 L339.654,23.452 L345.232,23.452 C345.18,24.3062 345.154,25.6239 345.154,27.4052 L345.154,35.1395 M337.842,35.7333 L337.842,30.4052 L334.232,30.4052 L334.232,35.7333 L337.842,35.7333 M343.263,35.7333 L343.263,30.4052 L339.654,30.4052 L339.654,35.7333 L343.263,35.7333 M332.513,35.7333 L332.513,30.4052 L329.076,30.4052 L329.076,35.7333 L332.513,35.7333 M337.842,29.1239 L337.842,24.7333 L334.232,24.7333 L334.232,29.1239 L337.842,29.1239 M343.263,29.1239 L343.263,24.7333 L339.654,24.7333 L339.654,29.1239 L343.263,29.1239 M332.513,29.1239 L332.513,24.7333 L329.076,24.7333 L329.076,29.1239 L332.513,29.1239 "/>
<polyline class="BarLine" fill="none" stroke="#000000" stroke-width="0.79" stroke-linejoin="bevel" points="46.5307,248.528 46.5307,320.457"/>
<polyline class="BarLine" fill="none" stroke="#000000" stroke-width="0.79" stroke-linejoin="bevel" points="46.5307,102.189 46.5307,174.118"/>
<polyline class="BarLine" fill="none" stroke="#000000" stroke-width="0.79" stroke-linejoin="bevel" points="554.697,300.614 554.697,320.457"/>
<polyline class="BarLine" fill="none" stroke="#000000" stroke-width="2.48" stroke-linejoin="bevel" points="558.318,300.614 558.318,320.457"/>
<polyline class="BarLine" fill="none" stroke="#000000" stroke-width="0.79" stroke-linejoin="bevel" points="554.697,248.528 554.697,268.37"/>
<polyline class="BarLine" fill="none" stroke="#000000" stroke-width="2.48" stroke-linejoin="bevel" points="558.318,248.528 558.318,268.37"/>
<polyline class="BarLine" fill="none" stroke="#000000" stroke-width="0.79" stroke-linejoin="bevel" points="452.15,300.614 452.15,320.457"/>
<polyline class="BarLine" fill="none" stroke="#000000" stroke-width="0.79" stroke-linejoin="bevel" points="452.15,248.528 452.15,268.37"/>
<polyline class="BarLine" fill="none" stroke="#000000" stroke-width="0.79" stroke-linejoin="bevel" points="323.969,300.614 323.969,320.457"/>
<polyline class="BarLine" fill="none" stroke="#000000" stroke-width="0.79" stroke-linejoin="bevel" points="323.969,248.528 323.969,268.37"/>
<polyline class="BarLine" fill="none" stroke="#000000" stroke-width="0.79" stroke-linejoin="bevel" points="192.109,300.614 192.109,320.457"/>
<polyline class="BarLine" fill="none" stroke="#000000" stroke-width="0.79" stroke-linejoin="bevel" points="192.109,248.528 192.109,268.37"/>
<polyline class="BarLine" fill="none" stroke="#000000" stroke-width="0.79" stroke-linejoin="bevel" points="559.162,154.276 559.162,174.118"/>
<polyline class="BarLine" fill="none" stroke="#000000" stroke-width="0.79" stroke-linejoin="bevel" points="559.162,102.189 559.162,122.032"/>
<polyline class="BarLine" fill="none" stroke="#000000" stroke-width="0.79" stroke-linejoin="bevel" points="457.743,154.276 457.743,174.118"/>
<polyline class="BarLine" fill="none" stroke="#000000" stroke-width="0.79" stroke-linejoin="bevel" points="457.743,102.189 457.743,122.032"/>
<polyline class="BarLine" fill="none" stroke="#000000" stroke-width="0.79" stroke-linejoin="bevel" points="334.659,154.276 334.659,174.118"/>
<polyline class="BarLine" fill="none" stroke="#000000" stroke-width="0.79" stroke-linejoin="bevel" points="334.659,102.189 334.659,122.032"/>
<polyline class="BarLine" fill="none" stroke="#000000" stroke-width="0.79" stroke-linejoin="bevel" points="203.927,154.276 203.927,174.118"/>
<polyline class="BarLine" fill="none" stroke="#000000" stroke-width="0.79" stroke-linejoin="bevel" points="203.927,102.189 203.927,122.032"/>
<path class="Accidental" transform="matrix(0.992126,0,0,0.992126,223.181,265.89)" d="M4.3125,6.23438 C4.3125,6.48438 4.1901,6.60938 3.94531,6.60938 C3.70052,6.60938 3.57812,6.48438 3.57812,6.23438 L3.57812,3.34375 L1.92188,3.96875 L1.92188,7.125 C1.92188,7.375 1.79688,7.5 1.54688,7.5 C1.29688,7.5 1.17188,7.375 1.17188,7.125 L1.17188,4.21875 L0.546875,4.45312 C0.536458,4.46354 0.484375,4.46875 0.390625,4.46875 C0.286458,4.46875 0.195312,4.42969 0.117188,4.35156 C0.0390625,4.27344 0,4.18229 0,4.07812 L0,2.875 C0,2.67708 0.0833333,2.55208 0.25,2.5 L1.17188,2.1875 L1.17188,-1.01562 L0.546875,-0.796875 C0.536458,-0.786458 0.484375,-0.78125 0.390625,-0.78125 C0.286458,-0.78125 0.195312,-0.820312 0.117188,-0.898438 C0.0390625,-0.976562 0,-1.06771 0,-1.17188 L0,-2.39062 C0,-2.56771 0.0833333,-2.68229 0.25,-2.73438 L1.17188,-3.09375 L1.17188,-6.23438 C1.17188,-6.48438 1.29688,-6.60938 1.54688,-6.60938 C1.79688,-6.60938 1.92188,-6.48438 1.92188,-6.23438 L1.92188,-3.34375 L3.57812,-3.96875 L3.57812,-7.125 C3.57812,-7.375 3.70052,-7.5 3.94531,-7.5 C4.1901,-7.5 4.3125,-7.375 4.3125,-7.125 L4.3125,-4.21875 L4.96875,-4.45312 C4.97917,-4.46354 5.02083,-4.46875 5.09375,-4.46875 C5.1875,-4.46875 5.28646,-4.43229 5.39062,-4.35938 C5.47396,-4.27604 5.51562,-4.18229 5.51562,-4.07812 L5.51562,-2.875 C5.51562,-2.6875 5.42188,-2.5625 5.23438,-2.5 L4.3125,-2.1875 L4.3125,1.01562 L4.96875,0.796875 C4.97917,0.786458 5.02083,0.78125 5.09375,0.78125 C5.1875,0.78125 5.28646,0.822917 5.39062,0.90625 C5.47396,0.979167 5.51562,1.06771 5.51562,1.17188 L5.51562,2.39062 C5.51562,2.55729 5.42188,2.67188 5.23438,2.73438 L4.3125,3.09375 L4.3125,6.23438 M3.57812,-1.89062 L1.92188,-1.3125 L1.92188,1.89062 L3.57812,1.3125 L3.57812,-1.89062 "/>
<path class="Accidental" transform="matrix(0.992126,0,0,0.992126,95.0365,265.89)" d="M4.3125,6.23438 C4.3125,6.48438 4.1901,6.60938 3.94531,6.60938 C3.70052,6.60938 3.57812,6.48438 3.57812,6.23438 L3.57812,3.34375 L1.92188,3.96875 L1.92188,7.125 C1.92188,7.375 1.79688,7.5 1.54688,7.5 C1.29688,7.5 1.17188,7.375 1.17188,7.125 L1.17188,4.21875 L0.546875,4.45312 C0.536458,4.46354 0.484375,4.46875 0.390625,4.46875 C0.286458,4.46875 0.195312,4.42969 0.117188,4.35156 C0.0390625,4.27344 0,4.18229 0,4.07812 L0,2.875 C0,2.67708 0.0833333,2.55208 0.25,2.5 L1.17188,2.1875 L1.17188,-1.01562 L0.546875,-0.796875 C0.536458,-0.786458 0.484375,-0.78125 0.390625,-0.78125 C0.286458,-0.78125 0.195312,-0.820312 0.117188,-0.898438 C0.0390625,-0.976562 0,-1.06771 0,-1.17188 L0,-2.39062 C0,-2.56771 0.0833333,-2.68229 0.25,-2.73438 L1.17188,-3.09375 L1.17188,-6.23438 C1.17188,-6.48438 1.29688,-6.60938 1.54688,-6.60938 C1.79688,-6.60938 1.92188,-6.48438 1.92188,-6.23438 L1.92188,-3.34375 L3.57812,-3.96875 L3.57812,-7.125 C3.57812,-7.375 3.70052,-7.5 3.94531,-7.5 C4.1901,-7.5 4.3125,-7.375 4.3125,-7.125 L4.3125,-4.21875 L4.96875,-4.45312 C4.97917,-4.46354 5.02083,-4.46875 5.09375,-4.46875 C5.1875,-4.46875 5.28646,-4.43229 5.39062,-4.35938 C5.47396,-4.27604 5.51562,-4.18229 5.51562,-4.07812 L5.51562,-2.875 C5.51562,-2.6875 5.42188,-2.5625 5.23438,-2.5 L4.3125,-2.1875 L4.3125,1.01562 L4.96875,0.796875 C4.97917,0.786458 5.02083,0.78125 5.09375,0.78125 C5.1875,0.78125 5.28646,0.822917 5.39062,0.90625 C5.47396,0.979167 5.51562,1.06771 5.51562,1.17188 L5.51562,2.39062 C5.51562,2.55729 5.42188,2.67188 5.23438,2.73438 L4.3125,3.09375 L4.3125,6.23438 M3.57812,-1.89062 L1.92188,-1.3125 L1.92188,1.89062 L3.57812,1.3125 L3.57812,-1.89062 "/>
<path class="Accidental" transform="matrix(0.992126,0,0,0.992126,234.717,119.551)" d="M4.3125,6.23438 C4.3125,6.48438 4.1901,6.60938 3.94531,6.60938 C3.70052,6.60938 3.57812,6.48438 3.57812,6.23438 L3.57812,3.34375 L1.92188,3.96875 L1.92188,7.125 C1.92188,7.375 1.79688,7.5 1.54688,7.5 C1.29688,7.5 1.17188,7.375 1.17188,7.125 L1.17188,4.21875 L0.546875,4.45312 C0.536458,4.46354 0.484375,4.46875 0.390625,4.46875 C0.286458,4.46875 0.195312,4.42969 0.117188,4.35156 C0.0390625,4.27344 0,4.18229 0,4.07812 L0,2.875 C0,2.67708 0.0833333,2.55208 0.25,2.5 L1.17188,2.1875 L1.17188,-1.01562 L0.546875,-0.796875 C0.536458,-0.786458 0.484375,-0.78125 0.390625,-0.78125 C0.286458,-0.78125 0.195312,-0.820312 0.117188,-0.898438 C0.0390625,-0.976562 0,-1.06771 0,-1.17188 L0,-2.39062 C0,-2.56771 0.0833333,-2.68229 0.25,-2.73438 L1.17188,-3.09375 L1.17188,-6.23438 C1.17188,-6.48438 1.29688,-6.60938 1.54688,-6.60938 C1.79688,-6.60938 1.92188,-6.48438 1.92188,-6.23438 L1.92188,-3.34375 L3.57812,-3.96875 L3.57812,-7.125 C3.57812,-7.375 3.70052,-7.5 3.94531,-7.5 C4.1901,-7.5 4.3125,-7.375 4.3125,-7.125 L4.3125,-4.21875 L4.96875,-4.45312 C4.97917,-4.46354 5.02083,-4.46875 5.09375,-4.46875 C5.1875,-4.46875 5.28646,-4.43229 5.39062,-4.35938 C5.47396,-4.27604 5.51562,-4.18229 5.51562,-4.07812 L5.51562,-2.875 C5.51562,-2.6875 5.42188,-2.5625 5.23438,-2.5 L4.3125,-2.1875 L4.3125,1.01562 L4.96875,0.796875 C4.97917,0.786458 5.02083,0.78125 5.09375,0.78125 C5.1875,0.78125 5.28646,0.822917 5.39062,0.90625 C5.47396,0.979167 5.51562,1.06771 5.51562,1.17188 L5.51562,2.39062 C5.51562,2.55729 5.42188,2.67188 5.23438,2.73438 L4.3125,3.09375 L4.3125,6.23438 M3.57812,-1.89062 L1.92188,-1.3125 L1.92188,1.89062 L3.57812,1.3125 L3.57812,-1.89062 "/>
<path class="Accidental" transform="matrix(0.992126,0,0,0.992126,107.702,119.551)" d="M4.3125,6.23438 C4.3125,6.48438 4.1901,6.60938 3.94531,6.60938 C3.70052,6.60938 3.57812,6.48438 3.57812,6.23438 L3.57812,3.34375 L1.92188,3.96875 L1.92188,7.125 C1.92188,7.375 1.79688,7.5 1.54688,7.5 C1.29688,7.5 1.17188,7.375 1.17188,7.125 L1.17188,4.21875 L0.546875,4.45312 C0.536458,4.46354 0.484375,4.46875 0.390625,4.46875 C0.286458,4.46875 0.195312,4.42969 0.117188,4.35156 C0.0390625,4.27344 0,4.18229 0,4.07812 L0,2.875 C0,2.67708 0.0833333,2.55208 0.25,2.5 L1.17188,2.1875 L1.17188,-1.01562 L0.546875,-0.796875 C0.536458,-0.786458 0.484375,-0.78125 0.390625,-0.78125 C0.286458,-0.78125 0.195312,-0.820312 0.117188,-0.898438 C0.0390625,-0.976562 0,-1.06771 0,-1.17188 L0,-2.39062 C0,-2.56771 0.0833333,-2.68229 0.25,-2.73438 L1.17188,-3.09375 L1.17188,-6.23438 C1.17188,-6.48438 1.29688,-6.60938 1.54688,-6.60938 C1.79688,-6.60938 1.92188,-6.48438 1.92188,-6.23438 L1.92188,-3.34375 L3.57812,-3.96875 L3.57812,-7.125 C3.57812,-7.375 3.70052,-7.5 3.94531,-7.5 C4.1901,-7.5 4.3125,-7.375 4.3125,-7.125 L4.3125,-4.21875 L4.96875,-4.45312 C4.97917,-4.46354 5.02083,-4.46875 5.09375,-4.46875 C5.1875,-4.46875 5.28646,-4.43229 5.39062,-4.35938 C5.47396,-4.27604 5.51562,-4.18229 5.51562,-4.07812 L5.51562,-2.875 C5.51562,-2.6875 5.42188,-2.5625 5.23438,-2.5 L4.3125,-2.1875 L4.3125,1.01562 L4.96875,0.796875 C4.97917,0.786458 5.02083,0.78125 5.09375,0.78125 C5.1875,0.78125 5.28646,0.822917 5.39062,0.90625 C5.47396,0.979167 5.51562,1.06771 5.51562,1.17188 L5.51562,2.39062 C5.51562,2.55729 5.42188,2.67188 5.23438,2.73438 L4.3125,3.09375 L4.3125,6.23438 M3.57812,-1.89062 L1.92188,-1.3125 L1.92188,1.89062 L3.57812,1.3125 L3.57812,-1.89062 "/>
<polyline class="Stem" fill="none" stroke="#000000" stroke-width="0.64" stroke-linecap="round" stroke-linejoin="bevel" points="421.717,301.546 421.717,317.976" notes="{899b93e4-da82-4ae7-b34f-d93bb291f7f2}" x1="421.717" y1="301.546" x2="421.717" y2="317.976" height="17.3622"/>
<polyline class="Stem" fill="none" stroke="#000000" stroke-width="0.64" stroke-linecap="round" stroke-linejoin="bevel" points="391.358,299.066 391.358,315.496" notes="{b312891d-035d-4150-806f-1b2341c0d08b}" x1="391.358" y1="299.066" x2="391.358" y2="315.496" height="17.3622"/>
<polyline class="Stem" fill="none" stroke="#000000" stroke-width="0.64" stroke-linecap="round" stroke-linejoin="bevel" points="361,296.585 361,313.016" notes="{78c59cc6-f336-4b08-9bef-0879a8e2dcd5}" x1="361" y1="296.585" x2="361" y2="313.016" height="17.3622"/>
<polyline class="Stem" fill="none" stroke="#000000" stroke-width="0.64" stroke-linecap="round" stroke-linejoin="bevel" points="330.641,294.105 330.641,310.535" notes="{39493bc9-2c2e-4ab5-b673-2020799ead6b}" x1="330.641" y1="294.105" x2="330.641" y2="310.535" height="17.3622"/>
<polyline class="Stem" fill="none" stroke="#000000" stroke-width="0.64" stroke-linecap="round" stroke-linejoin="bevel" points="298.502,269.919 298.502,253.488" notes="{f5e69233-c291-4af5-bdac-31e71cd200ee}" x1="298.502" y1="269.919" x2="298.502" y2="253.488" height="-17.3622"/>
<polyline class="Stem" fill="none" stroke="#000000" stroke-width="0.64" stroke-linecap="round" stroke-linejoin="bevel" points="267.224,262.478 267.224,246.667" notes="{21533a5e-31de-4d92-9f8f-f4675354915c}" x1="267.224" y1="262.478" x2="267.224" y2="246.667" height="-16.7421"/>
<polyline class="Stem" fill="none" stroke="#000000" stroke-width="0.64" stroke-linecap="round" stroke-linejoin="bevel" points="235.945,264.958 235.945,248.528" notes="{5807c74f-cd75-495d-8982-ccc9eae61434}" x1="235.945" y1="264.958" x2="235.945" y2="248.528" height="-17.3622"/>
<polyline class="Stem" fill="none" stroke="#000000" stroke-width="0.64" stroke-linecap="round" stroke-linejoin="bevel" points="204.667,262.478 204.667,246.667" notes="{92388810-06dd-4e67-9ef7-5487e09cba55}" x1="204.667" y1="262.478" x2="204.667" y2="246.667" height="-16.7421"/>
<polyline class="Stem" fill="none" stroke="#000000" stroke-width="0.64" stroke-linecap="round" stroke-linejoin="bevel" points="167.88,269.919 167.88,253.488" notes="{8ccd7380-9f6f-43cb-8b53-e8bece0dfc88}" x1="167.88" y1="269.919" x2="167.88" y2="253.488" height="-17.3622"/>
<polyline class="Stem" fill="none" stroke="#000000" stroke-width="0.64" stroke-linecap="round" stroke-linejoin="bevel" points="137.841,262.478 137.841,246.667" notes="{4b6003f2-f865-440c-82f4-7dcc7059fac1}" x1="137.841" y1="262.478" x2="137.841" y2="246.667" height="-16.7421"/>
<polyline class="Stem" fill="none" stroke="#000000" stroke-width="0.64" stroke-linecap="round" stroke-linejoin="bevel" points="107.801,264.958 107.801,248.528" notes="{63ac8190-63f6-46e9-b7ca-73fb98f0e2d7}" x1="107.801" y1="264.958" x2="107.801" y2="248.528" height="-17.3622"/>
<polyline class="Stem" fill="none" stroke="#000000" stroke-width="0.64" stroke-linecap="round" stroke-linejoin="bevel" points="77.7609,262.478 77.7609,246.667" notes="{e14a786e-c95b-45fb-b1d6-3effdcc637a5}" x1="77.7609" y1="262.478" x2="77.7609" y2="246.667" height="-16.7421"/>
<polyline class="Stem" fill="none" stroke="#000000" stroke-width="0.64" stroke-linecap="round" stroke-linejoin="bevel" points="428.584,150.247 428.584,166.677" notes="{853a6577-50ad-4a0b-874c-85012a914df6}" x1="428.584" y1="150.247" x2="428.584" y2="166.677" height="17.3622"/>
<polyline class="Stem" fill="none" stroke="#000000" stroke-width="0.64" stroke-linecap="round" stroke-linejoin="bevel" points="399.5,152.727 399.5,169.157" notes="{9b20a80b-69a5-49a2-948c-d005e806cc1f}" x1="399.5" y1="152.727" x2="399.5" y2="169.157" height="17.3622"/>
<polyline class="Stem" fill="none" stroke="#000000" stroke-width="0.64" stroke-linecap="round" stroke-linejoin="bevel" points="370.415,155.207 370.415,171.638" notes="{2d6fc45b-bac3-4412-b619-e05c7459ade2}" x1="370.415" y1="155.207" x2="370.415" y2="171.638" height="17.3622"/>
<polyline class="Stem" fill="none" stroke="#000000" stroke-width="0.64" stroke-linecap="round" stroke-linejoin="bevel" points="341.331,157.688 341.331,174.118" notes="{63c77c7a-83a3-4a79-873f-5344b453406f}" x1="341.331" y1="157.688" x2="341.331" y2="174.118" height="17.3622"/>
<polyline class="Stem" fill="none" stroke="#000000" stroke-width="0.64" stroke-linecap="round" stroke-linejoin="bevel" points="309.474,123.58 309.474,107.15" notes="{ceb622f3-ff5d-413a-b214-729840e2c162}" x1="309.474" y1="123.58" x2="309.474" y2="107.15" height="-17.3622"/>
<polyline class="Stem" fill="none" stroke="#000000" stroke-width="0.64" stroke-linecap="round" stroke-linejoin="bevel" points="278.478,116.139 278.478,100.329" notes="{0c315e94-ed26-45aa-a86f-1cbdc70433fd}" x1="278.478" y1="116.139" x2="278.478" y2="100.329" height="-16.7421"/>
<polyline class="Stem" fill="none" stroke="#000000" stroke-width="0.64" stroke-linecap="round" stroke-linejoin="bevel" points="247.482,118.62 247.482,102.189" notes="{052242ce-b4fe-41d7-8cb1-c40dbdc237df}" x1="247.482" y1="118.62" x2="247.482" y2="102.189" height="-17.3622"/>
<polyline class="Stem" fill="none" stroke="#000000" stroke-width="0.64" stroke-linecap="round" stroke-linejoin="bevel" points="216.485,116.139 216.485,100.329" notes="{04d252b2-26f6-47d6-be32-27fdcd11138b}" x1="216.485" y1="116.139" x2="216.485" y2="100.329" height="-16.7421"/>
<polyline class="Stem" fill="none" stroke="#000000" stroke-width="0.64" stroke-linecap="round" stroke-linejoin="bevel" points="179.981,123.58 179.981,107.15" notes="{3fdb4889-bd94-4550-84b8-c7d6c929e6ea}" x1="179.981" y1="123.58" x2="179.981" y2="107.15" height="-17.3622"/>
<polyline class="Stem" fill="none" stroke="#000000" stroke-width="0.64" stroke-linecap="round" stroke-linejoin="bevel" points="150.224,116.139 150.224,100.329" notes="{13e22c44-3439-471b-bdb8-25af348b259b}" x1="150.224" y1="116.139" x2="150.224" y2="100.329" height="-16.7421"/>
<polyline class="Stem" fill="none" stroke="#000000" stroke-width="0.64" stroke-linecap="round" stroke-linejoin="bevel" points="120.466,118.62 120.466,102.189" notes="{67f28ddf-78d8-49fb-b589-1b0521ea3303}" x1="120.466" y1="118.62" x2="120.466" y2="102.189" height="-17.3622"/>
<polyline class="Stem" fill="none" stroke="#000000" stroke-width="0.64" stroke-linecap="round" stroke-linejoin="bevel" points="90.7082,116.139 90.7082,100.329" notes="{494c1807-5ec3-4106-b328-d2e344f98065}" x1="90.7082" y1="116.139" x2="90.7082" y2="100.329" height="-16.7421"/>
<polyline class="LedgerLine" fill="none" stroke="#000000" stroke-width="0.79" stroke-linecap="square" stroke-linejoin="bevel" points="359.189,295.654 368.696,295.654"/>
<polyline class="LedgerLine" fill="none" stroke="#000000" stroke-width="0.79" stroke-linecap="square" stroke-linejoin="bevel" points="328.83,295.654 338.338,295.654"/>
<polyline class="LedgerLine" fill="none" stroke="#000000" stroke-width="0.79" stroke-linecap="square" stroke-linejoin="bevel" points="462.605,149.315 475.406,149.315"/>
<polyline class="LedgerLine" fill="none" stroke="#000000" stroke-width="0.79" stroke-linecap="square" stroke-linejoin="bevel" points="426.774,149.315 436.281,149.315"/>
<path class="Note" transform="matrix(0.992126,0,0,0.992126,458.5,303.094)" d="M4.29688,-2.25 C3.82812,-2.25 3.48958,-2.08854 3.28125,-1.76562 C3.05208,-1.45312 2.9375,-1.02604 2.9375,-0.484375 C2.9375,0.130208 3.09896,0.65625 3.42188,1.09375 C3.74479,1.52083 4.10417,1.82292 4.5,2 C4.84375,2.16667 5.21354,2.25 5.60938,2.25 C6.06771,2.25 6.41146,2.08854 6.64062,1.76562 C6.85938,1.43229 6.96875,1.00521 6.96875,0.484375 C6.96875,-0.130208 6.80729,-0.65625 6.48438,-1.09375 C6.16146,-1.51042 5.8125,-1.8125 5.4375,-2 C5.05208,-2.16667 4.67188,-2.25 4.29688,-2.25 M4.96875,-2.75 C6.375,-2.75 7.54688,-2.47917 8.48438,-1.9375 C9.43229,-1.38542 9.90625,-0.739583 9.90625,0 C9.90625,0.791667 9.41667,1.44271 8.4375,1.95312 C7.45833,2.48438 6.30208,2.75 4.96875,2.75 C3.58333,2.75 2.41146,2.47917 1.45312,1.9375 C0.484375,1.38542 0,0.739583 0,0 C0,-0.791667 0.494792,-1.44271 1.48438,-1.95312 C2.46354,-2.48438 3.625,-2.75 4.96875,-2.75" id="{2afca71b-5a50-4588-b22c-5c01697c1671}"/>
<path class="Note" transform="matrix(0.992126,0,0,0.992126,421.395,300.614)" d="M4.39062,-2.75 C5.01562,-2.75 5.54688,-2.58854 5.98438,-2.26562 C6.38021,-1.91146 6.57812,-1.46875 6.57812,-0.9375 C6.57812,-0.0416667 6.11979,0.796875 5.20312,1.57812 C4.26562,2.35938 3.26042,2.75 2.1875,2.75 C1.5625,2.75 1.03646,2.58854 0.609375,2.26562 C0.203125,1.91146 0,1.46875 0,0.9375 C0,0.0416667 0.46875,-0.796875 1.40625,-1.57812 C2.32292,-2.35938 3.31771,-2.75 4.39062,-2.75" id="{899b93e4-da82-4ae7-b34f-d93bb291f7f2}" stem_h="17.3622"/>
<path class="Note" transform="matrix(0.992126,0,0,0.992126,391.036,298.134)" d="M4.39062,-2.75 C5.01562,-2.75 5.54688,-2.58854 5.98438,-2.26562 C6.38021,-1.91146 6.57812,-1.46875 6.57812,-0.9375 C6.57812,-0.0416667 6.11979,0.796875 5.20312,1.57812 C4.26562,2.35938 3.26042,2.75 2.1875,2.75 C1.5625,2.75 1.03646,2.58854 0.609375,2.26562 C0.203125,1.91146 0,1.46875 0,0.9375 C0,0.0416667 0.46875,-0.796875 1.40625,-1.57812 C2.32292,-2.35938 3.31771,-2.75 4.39062,-2.75" id="{b312891d-035d-4150-806f-1b2341c0d08b}" stem_h="17.3622"/>
<path class="Note" transform="matrix(0.992126,0,0,0.992126,360.677,295.654)" d="M4.39062,-2.75 C5.01562,-2.75 5.54688,-2.58854 5.98438,-2.26562 C6.38021,-1.91146 6.57812,-1.46875 6.57812,-0.9375 C6.57812,-0.0416667 6.11979,0.796875 5.20312,1.57812 C4.26562,2.35938 3.26042,2.75 2.1875,2.75 C1.5625,2.75 1.03646,2.58854 0.609375,2.26562 C0.203125,1.91146 0,1.46875 0,0.9375 C0,0.0416667 0.46875,-0.796875 1.40625,-1.57812 C2.32292,-2.35938 3.31771,-2.75 4.39062,-2.75" id="{78c59cc6-f336-4b08-9bef-0879a8e2dcd5}" stem_h="17.3622"/>
<path class="Note" transform="matrix(0.992126,0,0,0.992126,330.318,293.173)" d="M4.39062,-2.75 C5.01562,-2.75 5.54688,-2.58854 5.98438,-2.26562 C6.38021,-1.91146 6.57812,-1.46875 6.57812,-0.9375 C6.57812,-0.0416667 6.11979,0.796875 5.20312,1.57812 C4.26562,2.35938 3.26042,2.75 2.1875,2.75 C1.5625,2.75 1.03646,2.58854 0.609375,2.26562 C0.203125,1.91146 0,1.46875 0,0.9375 C0,0.0416667 0.46875,-0.796875 1.40625,-1.57812 C2.32292,-2.35938 3.31771,-2.75 4.39062,-2.75" id="{39493bc9-2c2e-4ab5-b673-2020799ead6b}" stem_h="17.3622"/>
<path class="Note" transform="matrix(0.992126,0,0,0.992126,292.293,270.85)" d="M4.39062,-2.75 C5.01562,-2.75 5.54688,-2.58854 5.98438,-2.26562 C6.38021,-1.91146 6.57812,-1.46875 6.57812,-0.9375 C6.57812,-0.0416667 6.11979,0.796875 5.20312,1.57812 C4.26562,2.35938 3.26042,2.75 2.1875,2.75 C1.5625,2.75 1.03646,2.58854 0.609375,2.26562 C0.203125,1.91146 0,1.46875 0,0.9375 C0,0.0416667 0.46875,-0.796875 1.40625,-1.57812 C2.32292,-2.35938 3.31771,-2.75 4.39062,-2.75" id="{f5e69233-c291-4af5-bdac-31e71cd200ee}" stem_h="-17.3622"/>
<path class="Note" transform="matrix(0.992126,0,0,0.992126,261.015,263.409)" d="M4.39062,-2.75 C5.01562,-2.75 5.54688,-2.58854 5.98438,-2.26562 C6.38021,-1.91146 6.57812,-1.46875 6.57812,-0.9375 C6.57812,-0.0416667 6.11979,0.796875 5.20312,1.57812 C4.26562,2.35938 3.26042,2.75 2.1875,2.75 C1.5625,2.75 1.03646,2.58854 0.609375,2.26562 C0.203125,1.91146 0,1.46875 0,0.9375 C0,0.0416667 0.46875,-0.796875 1.40625,-1.57812 C2.32292,-2.35938 3.31771,-2.75 4.39062,-2.75" id="{21533a5e-31de-4d92-9f8f-f4675354915c}" stem_h="-16.7421"/>
<path class="Note" transform="matrix(0.992126,0,0,0.992126,229.737,265.89)" d="M4.39062,-2.75 C5.01562,-2.75 5.54688,-2.58854 5.98438,-2.26562 C6.38021,-1.91146 6.57812,-1.46875 6.57812,-0.9375 C6.57812,-0.0416667 6.11979,0.796875 5.20312,1.57812 C4.26562,2.35938 3.26042,2.75 2.1875,2.75 C1.5625,2.75 1.03646,2.58854 0.609375,2.26562 C0.203125,1.91146 0,1.46875 0,0.9375 C0,0.0416667 0.46875,-0.796875 1.40625,-1.57812 C2.32292,-2.35938 3.31771,-2.75 4.39062,-2.75" id="{5807c74f-cd75-495d-8982-ccc9eae61434}" stem_h="-17.3622"/>
<path class="Note" transform="matrix(0.992126,0,0,0.992126,198.458,263.409)" d="M4.39062,-2.75 C5.01562,-2.75 5.54688,-2.58854 5.98438,-2.26562 C6.38021,-1.91146 6.57812,-1.46875 6.57812,-0.9375 C6.57812,-0.0416667 6.11979,0.796875 5.20312,1.57812 C4.26562,2.35938 3.26042,2.75 2.1875,2.75 C1.5625,2.75 1.03646,2.58854 0.609375,2.26562 C0.203125,1.91146 0,1.46875 0,0.9375 C0,0.0416667 0.46875,-0.796875 1.40625,-1.57812 C2.32292,-2.35938 3.31771,-2.75 4.39062,-2.75" id="{92388810-06dd-4e67-9ef7-5487e09cba55}" stem_h="-16.7421"/>
<path class="Note" transform="matrix(0.992126,0,0,0.992126,161.672,270.85)" d="M4.39062,-2.75 C5.01562,-2.75 5.54688,-2.58854 5.98438,-2.26562 C6.38021,-1.91146 6.57812,-1.46875 6.57812,-0.9375 C6.57812,-0.0416667 6.11979,0.796875 5.20312,1.57812 C4.26562,2.35938 3.26042,2.75 2.1875,2.75 C1.5625,2.75 1.03646,2.58854 0.609375,2.26562 C0.203125,1.91146 0,1.46875 0,0.9375 C0,0.0416667 0.46875,-0.796875 1.40625,-1.57812 C2.32292,-2.35938 3.31771,-2.75 4.39062,-2.75" id="{8ccd7380-9f6f-43cb-8b53-e8bece0dfc88}" stem_h="-17.3622"/>
<path class="Note" transform="matrix(0.992126,0,0,0.992126,131.632,263.409)" d="M4.39062,-2.75 C5.01562,-2.75 5.54688,-2.58854 5.98438,-2.26562 C6.38021,-1.91146 6.57812,-1.46875 6.57812,-0.9375 C6.57812,-0.0416667 6.11979,0.796875 5.20312,1.57812 C4.26562,2.35938 3.26042,2.75 2.1875,2.75 C1.5625,2.75 1.03646,2.58854 0.609375,2.26562 C0.203125,1.91146 0,1.46875 0,0.9375 C0,0.0416667 0.46875,-0.796875 1.40625,-1.57812 C2.32292,-2.35938 3.31771,-2.75 4.39062,-2.75" id="{4b6003f2-f865-440c-82f4-7dcc7059fac1}" stem_h="-16.7421"/>
<path class="Note" transform="matrix(0.992126,0,0,0.992126,101.592,265.89)" d="M4.39062,-2.75 C5.01562,-2.75 5.54688,-2.58854 5.98438,-2.26562 C6.38021,-1.91146 6.57812,-1.46875 6.57812,-0.9375 C6.57812,-0.0416667 6.11979,0.796875 5.20312,1.57812 C4.26562,2.35938 3.26042,2.75 2.1875,2.75 C1.5625,2.75 1.03646,2.58854 0.609375,2.26562 C0.203125,1.91146 0,1.46875 0,0.9375 C0,0.0416667 0.46875,-0.796875 1.40625,-1.57812 C2.32292,-2.35938 3.31771,-2.75 4.39062,-2.75" id="{63ac8190-63f6-46e9-b7ca-73fb98f0e2d7}" stem_h="-17.3622"/>
<path class="Note" transform="matrix(0.992126,0,0,0.992126,71.5524,263.409)" d="M4.39062,-2.75 C5.01562,-2.75 5.54688,-2.58854 5.98438,-2.26562 C6.38021,-1.91146 6.57812,-1.46875 6.57812,-0.9375 C6.57812,-0.0416667 6.11979,0.796875 5.20312,1.57812 C4.26562,2.35938 3.26042,2.75 2.1875,2.75 C1.5625,2.75 1.03646,2.58854 0.609375,2.26562 C0.203125,1.91146 0,1.46875 0,0.9375 C0,0.0416667 0.46875,-0.796875 1.40625,-1.57812 C2.32292,-2.35938 3.31771,-2.75 4.39062,-2.75" id="{e14a786e-c95b-45fb-b1d6-3effdcc637a5}" stem_h="-16.7421"/>
<path class="Note" transform="matrix(0.992126,0,0,0.992126,464.093,146.835)" d="M4.29688,-2.25 C3.82812,-2.25 3.48958,-2.08854 3.28125,-1.76562 C3.05208,-1.45312 2.9375,-1.02604 2.9375,-0.484375 C2.9375,0.130208 3.09896,0.65625 3.42188,1.09375 C3.74479,1.52083 4.10417,1.82292 4.5,2 C4.84375,2.16667 5.21354,2.25 5.60938,2.25 C6.06771,2.25 6.41146,2.08854 6.64062,1.76562 C6.85938,1.43229 6.96875,1.00521 6.96875,0.484375 C6.96875,-0.130208 6.80729,-0.65625 6.48438,-1.09375 C6.16146,-1.51042 5.8125,-1.8125 5.4375,-2 C5.05208,-2.16667 4.67188,-2.25 4.29688,-2.25 M4.96875,-2.75 C6.375,-2.75 7.54688,-2.47917 8.48438,-1.9375 C9.43229,-1.38542 9.90625,-0.739583 9.90625,0 C9.90625,0.791667 9.41667,1.44271 8.4375,1.95312 C7.45833,2.48438 6.30208,2.75 4.96875,2.75 C3.58333,2.75 2.41146,2.47917 1.45312,1.9375 C0.484375,1.38542 0,0.739583 0,0 C0,-0.791667 0.494792,-1.44271 1.48438,-1.95312 C2.46354,-2.48438 3.625,-2.75 4.96875,-2.75" id="{0f31f71c-b348-40a6-ab1d-8a0a878493ed}"/>
<path class="Note" transform="matrix(0.992126,0,0,0.992126,428.262,149.315)" d="M4.39062,-2.75 C5.01562,-2.75 5.54688,-2.58854 5.98438,-2.26562 C6.38021,-1.91146 6.57812,-1.46875 6.57812,-0.9375 C6.57812,-0.0416667 6.11979,0.796875 5.20312,1.57812 C4.26562,2.35938 3.26042,2.75 2.1875,2.75 C1.5625,2.75 1.03646,2.58854 0.609375,2.26562 C0.203125,1.91146 0,1.46875 0,0.9375 C0,0.0416667 0.46875,-0.796875 1.40625,-1.57812 C2.32292,-2.35938 3.31771,-2.75 4.39062,-2.75" id="{853a6577-50ad-4a0b-874c-85012a914df6}" stem_h="17.3622"/>
<path class="Note" transform="matrix(0.992126,0,0,0.992126,399.178,151.795)" d="M4.39062,-2.75 C5.01562,-2.75 5.54688,-2.58854 5.98438,-2.26562 C6.38021,-1.91146 6.57812,-1.46875 6.57812,-0.9375 C6.57812,-0.0416667 6.11979,0.796875 5.20312,1.57812 C4.26562,2.35938 3.26042,2.75 2.1875,2.75 C1.5625,2.75 1.03646,2.58854 0.609375,2.26562 C0.203125,1.91146 0,1.46875 0,0.9375 C0,0.0416667 0.46875,-0.796875 1.40625,-1.57812 C2.32292,-2.35938 3.31771,-2.75 4.39062,-2.75" id="{9b20a80b-69a5-49a2-948c-d005e806cc1f}" stem_h="17.3622"/>
<path class="Note" transform="matrix(0.992126,0,0,0.992126,370.093,154.276)" d="M4.39062,-2.75 C5.01562,-2.75 5.54688,-2.58854 5.98438,-2.26562 C6.38021,-1.91146 6.57812,-1.46875 6.57812,-0.9375 C6.57812,-0.0416667 6.11979,0.796875 5.20312,1.57812 C4.26562,2.35938 3.26042,2.75 2.1875,2.75 C1.5625,2.75 1.03646,2.58854 0.609375,2.26562 C0.203125,1.91146 0,1.46875 0,0.9375 C0,0.0416667 0.46875,-0.796875 1.40625,-1.57812 C2.32292,-2.35938 3.31771,-2.75 4.39062,-2.75" id="{2d6fc45b-bac3-4412-b619-e05c7459ade2}" stem_h="17.3622"/>
<path class="Note" transform="matrix(0.992126,0,0,0.992126,341.009,156.756)" d="M4.39062,-2.75 C5.01562,-2.75 5.54688,-2.58854 5.98438,-2.26562 C6.38021,-1.91146 6.57812,-1.46875 6.57812,-0.9375 C6.57812,-0.0416667 6.11979,0.796875 5.20312,1.57812 C4.26562,2.35938 3.26042,2.75 2.1875,2.75 C1.5625,2.75 1.03646,2.58854 0.609375,2.26562 C0.203125,1.91146 0,1.46875 0,0.9375 C0,0.0416667 0.46875,-0.796875 1.40625,-1.57812 C2.32292,-2.35938 3.31771,-2.75 4.39062,-2.75" id="{63c77c7a-83a3-4a79-873f-5344b453406f}" stem_h="17.3622"/>
<path class="Note" transform="matrix(0.992126,0,0,0.992126,303.266,124.512)" d="M4.39062,-2.75 C5.01562,-2.75 5.54688,-2.58854 5.98438,-2.26562 C6.38021,-1.91146 6.57812,-1.46875 6.57812,-0.9375 C6.57812,-0.0416667 6.11979,0.796875 5.20312,1.57812 C4.26562,2.35938 3.26042,2.75 2.1875,2.75 C1.5625,2.75 1.03646,2.58854 0.609375,2.26562 C0.203125,1.91146 0,1.46875 0,0.9375 C0,0.0416667 0.46875,-0.796875 1.40625,-1.57812 C2.32292,-2.35938 3.31771,-2.75 4.39062,-2.75" id="{ceb622f3-ff5d-413a-b214-729840e2c162}" stem_h="-17.3622"/>
<path class="Note" transform="matrix(0.992126,0,0,0.992126,272.269,117.071)" d="M4.39062,-2.75 C5.01562,-2.75 5.54688,-2.58854 5.98438,-2.26562 C6.38021,-1.91146 6.57812,-1.46875 6.57812,-0.9375 C6.57812,-0.0416667 6.11979,0.796875 5.20312,1.57812 C4.26562,2.35938 3.26042,2.75 2.1875,2.75 C1.5625,2.75 1.03646,2.58854 0.609375,2.26562 C0.203125,1.91146 0,1.46875 0,0.9375 C0,0.0416667 0.46875,-0.796875 1.40625,-1.57812 C2.32292,-2.35938 3.31771,-2.75 4.39062,-2.75" id="{0c315e94-ed26-45aa-a86f-1cbdc70433fd}" stem_h="-16.7421"/>
<path class="Note" transform="matrix(0.992126,0,0,0.992126,241.273,119.551)" d="M4.39062,-2.75 C5.01562,-2.75 5.54688,-2.58854 5.98438,-2.26562 C6.38021,-1.91146 6.57812,-1.46875 6.57812,-0.9375 C6.57812,-0.0416667 6.11979,0.796875 5.20312,1.57812 C4.26562,2.35938 3.26042,2.75 2.1875,2.75 C1.5625,2.75 1.03646,2.58854 0.609375,2.26562 C0.203125,1.91146 0,1.46875 0,0.9375 C0,0.0416667 0.46875,-0.796875 1.40625,-1.57812 C2.32292,-2.35938 3.31771,-2.75 4.39062,-2.75" id="{052242ce-b4fe-41d7-8cb1-c40dbdc237df}" stem_h="-17.3622"/>
<path class="Note" transform="matrix(0.992126,0,0,0.992126,210.277,117.071)" d="M4.39062,-2.75 C5.01562,-2.75 5.54688,-2.58854 5.98438,-2.26562 C6.38021,-1.91146 6.57812,-1.46875 6.57812,-0.9375 C6.57812,-0.0416667 6.11979,0.796875 5.20312,1.57812 C4.26562,2.35938 3.26042,2.75 2.1875,2.75 C1.5625,2.75 1.03646,2.58854 0.609375,2.26562 C0.203125,1.91146 0,1.46875 0,0.9375 C0,0.0416667 0.46875,-0.796875 1.40625,-1.57812 C2.32292,-2.35938 3.31771,-2.75 4.39062,-2.75" id="{04d252b2-26f6-47d6-be32-27fdcd11138b}" stem_h="-16.7421"/>
<path class="Note" transform="matrix(0.992126,0,0,0.992126,173.773,124.512)" d="M4.39062,-2.75 C5.01562,-2.75 5.54688,-2.58854 5.98438,-2.26562 C6.38021,-1.91146 6.57812,-1.46875 6.57812,-0.9375 C6.57812,-0.0416667 6.11979,0.796875 5.20312,1.57812 C4.26562,2.35938 3.26042,2.75 2.1875,2.75 C1.5625,2.75 1.03646,2.58854 0.609375,2.26562 C0.203125,1.91146 0,1.46875 0,0.9375 C0,0.0416667 0.46875,-0.796875 1.40625,-1.57812 C2.32292,-2.35938 3.31771,-2.75 4.39062,-2.75" id="{3fdb4889-bd94-4550-84b8-c7d6c929e6ea}" stem_h="-17.3622"/>
<path class="Note" transform="matrix(0.992126,0,0,0.992126,144.015,117.071)" d="M4.39062,-2.75 C5.01562,-2.75 5.54688,-2.58854 5.98438,-2.26562 C6.38021,-1.91146 6.57812,-1.46875 6.57812,-0.9375 C6.57812,-0.0416667 6.11979,0.796875 5.20312,1.57812 C4.26562,2.35938 3.26042,2.75 2.1875,2.75 C1.5625,2.75 1.03646,2.58854 0.609375,2.26562 C0.203125,1.91146 0,1.46875 0,0.9375 C0,0.0416667 0.46875,-0.796875 1.40625,-1.57812 C2.32292,-2.35938 3.31771,-2.75 4.39062,-2.75" id="{13e22c44-3439-471b-bdb8-25af348b259b}" stem_h="-16.7421"/>
<path class="Note" transform="matrix(0.992126,0,0,0.992126,114.257,119.551)" d="M4.39062,-2.75 C5.01562,-2.75 5.54688,-2.58854 5.98438,-2.26562 C6.38021,-1.91146 6.57812,-1.46875 6.57812,-0.9375 C6.57812,-0.0416667 6.11979,0.796875 5.20312,1.57812 C4.26562,2.35938 3.26042,2.75 2.1875,2.75 C1.5625,2.75 1.03646,2.58854 0.609375,2.26562 C0.203125,1.91146 0,1.46875 0,0.9375 C0,0.0416667 0.46875,-0.796875 1.40625,-1.57812 C2.32292,-2.35938 3.31771,-2.75 4.39062,-2.75" id="{67f28ddf-78d8-49fb-b589-1b0521ea3303}" stem_h="-17.3622"/>
<path class="Note" transform="matrix(0.992126,0,0,0.992126,84.4996,117.071)" d="M4.39062,-2.75 C5.01562,-2.75 5.54688,-2.58854 5.98438,-2.26562 C6.38021,-1.91146 6.57812,-1.46875 6.57812,-0.9375 C6.57812,-0.0416667 6.11979,0.796875 5.20312,1.57812 C4.26562,2.35938 3.26042,2.75 2.1875,2.75 C1.5625,2.75 1.03646,2.58854 0.609375,2.26562 C0.203125,1.91146 0,1.46875 0,0.9375 C0,0.0416667 0.46875,-0.796875 1.40625,-1.57812 C2.32292,-2.35938 3.31771,-2.75 4.39062,-2.75" id="{494c1807-5ec3-4106-b328-d2e344f98065}" stem_h="-16.7421"/>
<path class="Clef" transform="matrix(0.992126,0,0,0.992126,50.0961,305.575)" d="M11.4297,-1.78125 C11.237,-1.97917 11.1406,-2.22135 11.1406,-2.50781 C11.1406,-2.79427 11.237,-3.03385 11.4297,-3.22656 C11.6224,-3.41927 11.862,-3.51562 12.1484,-3.51562 C12.4349,-3.51562 12.6771,-3.41927 12.875,-3.22656 C13.0729,-3.03385 13.1719,-2.79427 13.1719,-2.50781 C13.1719,-2.22135 13.0729,-1.97917 12.875,-1.78125 C12.6771,-1.58333 12.4349,-1.48438 12.1484,-1.48438 C11.862,-1.48438 11.6224,-1.58333 11.4297,-1.78125 M11.4297,3.22656 C11.237,3.03385 11.1406,2.79427 11.1406,2.50781 C11.1406,2.22135 11.237,1.97917 11.4297,1.78125 C11.6224,1.58333 11.862,1.48438 12.1484,1.48438 C12.4349,1.48438 12.6771,1.58333 12.875,1.78125 C13.0729,1.97917 13.1719,2.22135 13.1719,2.50781 C13.1719,2.79427 13.0729,3.03385 12.875,3.22656 C12.6771,3.41927 12.4349,3.51562 12.1484,3.51562 C11.862,3.51562 11.6224,3.41927 11.4297,3.22656 M4.65625,-5.25 C6.38542,-5.25 7.80208,-4.81771 8.90625,-3.95312 C9.97917,-3.03646 10.5156,-1.79688 10.5156,-0.234375 C10.5156,0.817708 10.3073,1.78125 9.89062,2.65625 C9.49479,3.57292 8.97917,4.38021 8.34375,5.07812 C7.6875,5.79688 6.90104,6.47396 5.98438,7.10938 C5.07812,7.73438 4.15104,8.29688 3.20312,8.79688 C1.27604,9.76562 0.208333,10.25 0,10.25 C-0.166667,10.25 -0.25,10.1667 -0.25,10 C-0.25,9.9375 -0.223958,9.88021 -0.171875,9.82812 C0.494792,9.43229 1.30729,8.93229 2.26562,8.32812 C2.89062,7.92188 3.61979,7.35938 4.45312,6.64062 C5.26562,5.96354 5.89062,5.32812 6.32812,4.73438 C6.78646,4.14062 7.20312,3.41146 7.57812,2.54688 C7.90104,1.67188 8.0625,0.807292 8.0625,-0.046875 C8.0625,-1.30729 7.75,-2.40625 7.125,-3.34375 C6.5,-4.28125 5.67708,-4.75 4.65625,-4.75 C3.92708,-4.75 3.30208,-4.51562 2.78125,-4.04688 C2.21875,-3.56771 1.8125,-2.96354 1.5625,-2.23438 C1.8125,-2.33854 2.04167,-2.39062 2.25,-2.39062 C2.79167,-2.39062 3.26042,-2.19271 3.65625,-1.79688 C4.04167,-1.38021 4.23438,-0.90625 4.23438,-0.375 C4.23438,0.1875 4.04688,0.692708 3.67188,1.14062 C3.26562,1.53646 2.79167,1.73438 2.25,1.73438 C1.66667,1.73438 1.14062,1.53646 0.671875,1.14062 C0.223958,0.692708 0,0.1875 0,-0.375 C0,-1.71875 0.458333,-2.86458 1.375,-3.8125 C2.27083,-4.77083 3.36458,-5.25 4.65625,-5.25"/>
<path class="Clef" transform="matrix(0.992126,0,0,0.992126,50.0961,263.409)" d="M7.34375,-5.125 C7.34375,-5.125 7.38542,-5.125 7.46875,-5.125 C7.52083,-5.13542 7.5625,-5.14062 7.59375,-5.14062 C9.05208,-5.14062 10.25,-4.625 11.1875,-3.59375 C12.125,-2.58333 12.5938,-1.40104 12.5938,-0.046875 C12.5938,1.64062 11.901,3.01042 10.5156,4.0625 C10.151,4.35417 9.67188,4.58854 9.07812,4.76562 C9.15104,5.60938 9.1875,6.29167 9.1875,6.8125 C9.1875,6.91667 9.17188,7.29688 9.14062,7.95312 C9.08854,9.16146 8.67188,10.2083 7.89062,11.0938 C7.14062,11.9688 6.20312,12.4062 5.07812,12.4062 C4.02604,12.4062 3.13021,12.0365 2.39062,11.2969 C1.64062,10.5365 1.26562,9.625 1.26562,8.5625 C1.26562,8 1.48438,7.52083 1.92188,7.125 C2.35938,6.73958 2.86979,6.54688 3.45312,6.54688 C3.97396,6.54688 4.41146,6.75 4.76562,7.15625 C5.13021,7.53125 5.3125,8 5.3125,8.5625 C5.3125,9.0625 5.13021,9.49479 4.76562,9.85938 C4.40104,10.224 3.96354,10.4062 3.45312,10.4062 C3.24479,10.4062 3.04688,10.3698 2.85938,10.2969 C3.43229,11.1406 4.19271,11.5625 5.14062,11.5625 C6.03646,11.5625 6.77083,11.1979 7.34375,10.4688 C7.94792,9.71875 8.27604,8.83854 8.32812,7.82812 C8.34896,7.20312 8.35938,6.84896 8.35938,6.76562 C8.35938,6.03646 8.33333,5.4375 8.28125,4.96875 C7.63542,5.07292 7.05729,5.125 6.54688,5.125 C4.73438,5.125 3.19271,4.40625 1.92188,2.96875 C0.671875,1.52083 0.046875,-0.197917 0.046875,-2.1875 C0.046875,-2.60417 0.0833333,-3.02604 0.15625,-3.45312 C0.239583,-3.80729 0.338542,-4.19271 0.453125,-4.60938 C0.515625,-4.84896 0.692708,-5.22917 0.984375,-5.75 C1.08854,-5.90625 1.20573,-6.10156 1.33594,-6.33594 C1.46615,-6.57031 1.55729,-6.72396 1.60938,-6.79688 C1.73438,-7.05729 1.98438,-7.41146 2.35938,-7.85938 C2.46354,-7.97396 2.57292,-8.10156 2.6875,-8.24219 C2.80208,-8.38281 2.89844,-8.5 2.97656,-8.59375 C3.05469,-8.6875 3.11198,-8.76042 3.14844,-8.8125 C3.1849,-8.86458 3.47917,-9.20833 4.03125,-9.84375 C4.15625,-9.97917 4.28125,-10.1198 4.40625,-10.2656 C4.53125,-10.4115 4.63281,-10.5286 4.71094,-10.6172 C4.78906,-10.7057 4.84896,-10.7656 4.89062,-10.7969 C4.42188,-12.349 4.125,-13.5885 4,-14.5156 C3.91667,-15.2552 3.875,-16.2708 3.875,-17.5625 C3.875,-18.6979 4.13542,-19.7604 4.65625,-20.75 C5.15625,-21.7708 5.86458,-22.6094 6.78125,-23.2656 C6.84375,-23.3073 6.90625,-23.3281 6.96875,-23.3281 C7.0625,-23.3281 7.13021,-23.3073 7.17188,-23.2656 C7.86979,-22.4219 8.47396,-21.3229 8.98438,-19.9688 C9.50521,-18.6146 9.76562,-17.3802 9.76562,-16.2656 C9.76562,-15.0156 9.46875,-13.8438 8.875,-12.75 C8.19792,-11.5938 7.32292,-10.3958 6.25,-9.15625 C6.52083,-8.30208 6.88542,-6.95833 7.34375,-5.125 M9,3.96875 C9.67708,3.71875 10.2083,3.29688 10.5938,2.70312 C11.0104,2.13021 11.2188,1.48438 11.2188,0.765625 C11.2188,-0.161458 10.9062,-0.984375 10.2812,-1.70312 C9.63542,-2.44271 8.81771,-2.85938 7.82812,-2.95312 C8.39062,-0.203125 8.78125,2.10417 9,3.96875 M1.45312,-0.546875 C1.45312,0.744792 1.97396,1.88021 3.01562,2.85938 C4.07812,3.80729 5.27604,4.28125 6.60938,4.28125 C7.15104,4.28125 7.68229,4.23958 8.20312,4.15625 C7.99479,2.17708 7.58333,-0.192708 6.96875,-2.95312 C6.22917,-2.86979 5.64062,-2.60938 5.20312,-2.17188 C4.76562,-1.71354 4.54688,-1.19792 4.54688,-0.625 C4.54688,0.364583 5.07812,1.16667 6.14062,1.78125 C6.22396,1.875 6.26562,1.97396 6.26562,2.07812 C6.26562,2.18229 6.22396,2.27604 6.14062,2.35938 C6.05729,2.45312 5.95833,2.5 5.84375,2.5 C5.83333,2.5 5.77604,2.48958 5.67188,2.46875 C4.92188,2.0625 4.34896,1.54167 3.95312,0.90625 C3.56771,0.21875 3.375,-0.46875 3.375,-1.15625 C3.375,-2.05208 3.65625,-2.86458 4.21875,-3.59375 C4.80208,-4.32292 5.5625,-4.79167 6.5,-5 C6.13542,-6.45833 5.83854,-7.59896 5.60938,-8.42188 C5.40104,-8.18229 5.15104,-7.89844 4.85938,-7.57031 C4.56771,-7.24219 4.39583,-7.04167 4.34375,-6.96875 C3.875,-6.36458 3.51562,-5.89062 3.26562,-5.54688 C2.81771,-4.93229 2.48958,-4.40625 2.28125,-3.96875 C2.0625,-3.46875 1.86979,-2.92708 1.70312,-2.34375 C1.53646,-1.78125 1.45312,-1.18229 1.45312,-0.546875 M7.96875,-20.4062 C6.98958,-19.9271 6.22396,-19.2396 5.67188,-18.3438 C5.09896,-17.4167 4.8125,-16.4219 4.8125,-15.3594 C4.8125,-14.4219 5.04688,-13.1562 5.51562,-11.5625 C6.45312,-12.6979 7.15625,-13.7448 7.625,-14.7031 C8.11458,-15.724 8.35938,-16.7865 8.35938,-17.8906 C8.35938,-18.724 8.22917,-19.5625 7.96875,-20.4062"/>
<path class="Clef" transform="matrix(0.992126,0,0,0.992126,50.0961,159.236)" d="M11.4297,-1.78125 C11.237,-1.97917 11.1406,-2.22135 11.1406,-2.50781 C11.1406,-2.79427 11.237,-3.03385 11.4297,-3.22656 C11.6224,-3.41927 11.862,-3.51562 12.1484,-3.51562 C12.4349,-3.51562 12.6771,-3.41927 12.875,-3.22656 C13.0729,-3.03385 13.1719,-2.79427 13.1719,-2.50781 C13.1719,-2.22135 13.0729,-1.97917 12.875,-1.78125 C12.6771,-1.58333 12.4349,-1.48438 12.1484,-1.48438 C11.862,-1.48438 11.6224,-1.58333 11.4297,-1.78125 M11.4297,3.22656 C11.237,3.03385 11.1406,2.79427 11.1406,2.50781 C11.1406,2.22135 11.237,1.97917 11.4297,1.78125 C11.6224,1.58333 11.862,1.48438 12.1484,1.48438 C12.4349,1.48438 12.6771,1.58333 12.875,1.78125 C13.0729,1.97917 13.1719,2.22135 13.1719,2.50781 C13.1719,2.79427 13.0729,3.03385 12.875,3.22656 C12.6771,3.41927 12.4349,3.51562 12.1484,3.51562 C11.862,3.51562 11.6224,3.41927 11.4297,3.22656 M4.65625,-5.25 C6.38542,-5.25 7.80208,-4.81771 8.90625,-3.95312 C9.97917,-3.03646 10.5156,-1.79688 10.5156,-0.234375 C10.5156,0.817708 10.3073,1.78125 9.89062,2.65625 C9.49479,3.57292 8.97917,4.38021 8.34375,5.07812 C7.6875,5.79688 6.90104,6.47396 5.98438,7.10938 C5.07812,7.73438 4.15104,8.29688 3.20312,8.79688 C1.27604,9.76562 0.208333,10.25 0,10.25 C-0.166667,10.25 -0.25,10.1667 -0.25,10 C-0.25,9.9375 -0.223958,9.88021 -0.171875,9.82812 C0.494792,9.43229 1.30729,8.93229 2.26562,8.32812 C2.89062,7.92188 3.61979,7.35938 4.45312,6.64062 C5.26562,5.96354 5.89062,5.32812 6.32812,4.73438 C6.78646,4.14062 7.20312,3.41146 7.57812,2.54688 C7.90104,1.67188 8.0625,0.807292 8.0625,-0.046875 C8.0625,-1.30729 7.75,-2.40625 7.125,-3.34375 C6.5,-4.28125 5.67708,-4.75 4.65625,-4.75 C3.92708,-4.75 3.30208,-4.51562 2.78125,-4.04688 C2.21875,-3.56771 1.8125,-2.96354 1.5625,-2.23438 C1.8125,-2.33854 2.04167,-2.39062 2.25,-2.39062 C2.79167,-2.39062 3.26042,-2.19271 3.65625,-1.79688 C4.04167,-1.38021 4.23438,-0.90625 4.23438,-0.375 C4.23438,0.1875 4.04688,0.692708 3.67188,1.14062 C3.26562,1.53646 2.79167,1.73438 2.25,1.73438 C1.66667,1.73438 1.14062,1.53646 0.671875,1.14062 C0.223958,0.692708 0,0.1875 0,-0.375 C0,-1.71875 0.458333,-2.86458 1.375,-3.8125 C2.27083,-4.77083 3.36458,-5.25 4.65625,-5.25"/>
<path class="Clef" transform="matrix(0.992126,0,0,0.992126,50.0961,117.071)" d="M7.34375,-5.125 C7.34375,-5.125 7.38542,-5.125 7.46875,-5.125 C7.52083,-5.13542 7.5625,-5.14062 7.59375,-5.14062 C9.05208,-5.14062 10.25,-4.625 11.1875,-3.59375 C12.125,-2.58333 12.5938,-1.40104 12.5938,-0.046875 C12.5938,1.64062 11.901,3.01042 10.5156,4.0625 C10.151,4.35417 9.67188,4.58854 9.07812,4.76562 C9.15104,5.60938 9.1875,6.29167 9.1875,6.8125 C9.1875,6.91667 9.17188,7.29688 9.14062,7.95312 C9.08854,9.16146 8.67188,10.2083 7.89062,11.0938 C7.14062,11.9688 6.20312,12.4062 5.07812,12.4062 C4.02604,12.4062 3.13021,12.0365 2.39062,11.2969 C1.64062,10.5365 1.26562,9.625 1.26562,8.5625 C1.26562,8 1.48438,7.52083 1.92188,7.125 C2.35938,6.73958 2.86979,6.54688 3.45312,6.54688 C3.97396,6.54688 4.41146,6.75 4.76562,7.15625 C5.13021,7.53125 5.3125,8 5.3125,8.5625 C5.3125,9.0625 5.13021,9.49479 4.76562,9.85938 C4.40104,10.224 3.96354,10.4062 3.45312,10.4062 C3.24479,10.4062 3.04688,10.3698 2.85938,10.2969 C3.43229,11.1406 4.19271,11.5625 5.14062,11.5625 C6.03646,11.5625 6.77083,11.1979 7.34375,10.4688 C7.94792,9.71875 8.27604,8.83854 8.32812,7.82812 C8.34896,7.20312 8.35938,6.84896 8.35938,6.76562 C8.35938,6.03646 8.33333,5.4375 8.28125,4.96875 C7.63542,5.07292 7.05729,5.125 6.54688,5.125 C4.73438,5.125 3.19271,4.40625 1.92188,2.96875 C0.671875,1.52083 0.046875,-0.197917 0.046875,-2.1875 C0.046875,-2.60417 0.0833333,-3.02604 0.15625,-3.45312 C0.239583,-3.80729 0.338542,-4.19271 0.453125,-4.60938 C0.515625,-4.84896 0.692708,-5.22917 0.984375,-5.75 C1.08854,-5.90625 1.20573,-6.10156 1.33594,-6.33594 C1.46615,-6.57031 1.55729,-6.72396 1.60938,-6.79688 C1.73438,-7.05729 1.98438,-7.41146 2.35938,-7.85938 C2.46354,-7.97396 2.57292,-8.10156 2.6875,-8.24219 C2.80208,-8.38281 2.89844,-8.5 2.97656,-8.59375 C3.05469,-8.6875 3.11198,-8.76042 3.14844,-8.8125 C3.1849,-8.86458 3.47917,-9.20833 4.03125,-9.84375 C4.15625,-9.97917 4.28125,-10.1198 4.40625,-10.2656 C4.53125,-10.4115 4.63281,-10.5286 4.71094,-10.6172 C4.78906,-10.7057 4.84896,-10.7656 4.89062,-10.7969 C4.42188,-12.349 4.125,-13.5885 4,-14.5156 C3.91667,-15.2552 3.875,-16.2708 3.875,-17.5625 C3.875,-18.6979 4.13542,-19.7604 4.65625,-20.75 C5.15625,-21.7708 5.86458,-22.6094 6.78125,-23.2656 C6.84375,-23.3073 6.90625,-23.3281 6.96875,-23.3281 C7.0625,-23.3281 7.13021,-23.3073 7.17188,-23.2656 C7.86979,-22.4219 8.47396,-21.3229 8.98438,-19.9688 C9.50521,-18.6146 9.76562,-17.3802 9.76562,-16.2656 C9.76562,-15.0156 9.46875,-13.8438 8.875,-12.75 C8.19792,-11.5938 7.32292,-10.3958 6.25,-9.15625 C6.52083,-8.30208 6.88542,-6.95833 7.34375,-5.125 M9,3.96875 C9.67708,3.71875 10.2083,3.29688 10.5938,2.70312 C11.0104,2.13021 11.2188,1.48438 11.2188,0.765625 C11.2188,-0.161458 10.9062,-0.984375 10.2812,-1.70312 C9.63542,-2.44271 8.81771,-2.85938 7.82812,-2.95312 C8.39062,-0.203125 8.78125,2.10417 9,3.96875 M1.45312,-0.546875 C1.45312,0.744792 1.97396,1.88021 3.01562,2.85938 C4.07812,3.80729 5.27604,4.28125 6.60938,4.28125 C7.15104,4.28125 7.68229,4.23958 8.20312,4.15625 C7.99479,2.17708 7.58333,-0.192708 6.96875,-2.95312 C6.22917,-2.86979 5.64062,-2.60938 5.20312,-2.17188 C4.76562,-1.71354 4.54688,-1.19792 4.54688,-0.625 C4.54688,0.364583 5.07812,1.16667 6.14062,1.78125 C6.22396,1.875 6.26562,1.97396 6.26562,2.07812 C6.26562,2.18229 6.22396,2.27604 6.14062,2.35938 C6.05729,2.45312 5.95833,2.5 5.84375,2.5 C5.83333,2.5 5.77604,2.48958 5.67188,2.46875 C4.92188,2.0625 4.34896,1.54167 3.95312,0.90625 C3.56771,0.21875 3.375,-0.46875 3.375,-1.15625 C3.375,-2.05208 3.65625,-2.86458 4.21875,-3.59375 C4.80208,-4.32292 5.5625,-4.79167 6.5,-5 C6.13542,-6.45833 5.83854,-7.59896 5.60938,-8.42188 C5.40104,-8.18229 5.15104,-7.89844 4.85938,-7.57031 C4.56771,-7.24219 4.39583,-7.04167 4.34375,-6.96875 C3.875,-6.36458 3.51562,-5.89062 3.26562,-5.54688 C2.81771,-4.93229 2.48958,-4.40625 2.28125,-3.96875 C2.0625,-3.46875 1.86979,-2.92708 1.70312,-2.34375 C1.53646,-1.78125 1.45312,-1.18229 1.45312,-0.546875 M7.96875,-20.4062 C6.98958,-19.9271 6.22396,-19.2396 5.67188,-18.3438 C5.09896,-17.4167 4.8125,-16.4219 4.8125,-15.3594 C4.8125,-14.4219 5.04688,-13.1562 5.51562,-11.5625 C6.45312,-12.6979 7.15625,-13.7448 7.625,-14.7031 C8.11458,-15.724 8.35938,-16.7865 8.35938,-17.8906 C8.35938,-18.724 8.22917,-19.5625 7.96875,-20.4062"/>
<path class="TimeSig" transform="matrix(0.992126,0,0,0.992126,67.8815,159.236)" d="M4.5,-4.75 C4.88542,-4.75 5.21615,-4.79427 5.49219,-4.88281 C5.76823,-4.97135 5.94271,-5.01562 6.01562,-5.01562 C6.10938,-5.01562 6.18229,-4.98958 6.23438,-4.9375 C6.27604,-4.90625 6.30208,-4.86458 6.3125,-4.8125 C6.3125,-4.78125 6.29688,-4.73958 6.26562,-4.6875 L0.59375,1.92188 L3.92188,1.92188 L3.92188,-0.703125 C3.92188,-0.869792 3.96875,-1.01562 4.0625,-1.14062 C4.21875,-1.26562 4.34896,-1.34375 4.45312,-1.375 C4.61979,-1.44792 4.82812,-1.63021 5.07812,-1.92188 C5.28646,-2.15104 5.53646,-2.55729 5.82812,-3.14062 C5.85938,-3.22396 5.91667,-3.26562 6,-3.26562 C6.15625,-3.26562 6.24479,-3.17188 6.26562,-2.98438 L6.26562,1.92188 L7.70312,1.92188 C7.88021,1.92188 7.98438,2.01562 8.01562,2.20312 C8.01562,2.40104 7.91146,2.5 7.70312,2.5 L6.26562,2.5 L6.26562,2.65625 C6.26562,3.17708 6.39583,3.61979 6.65625,3.98438 C6.95833,4.34896 7.3125,4.53125 7.71875,4.53125 C7.875,4.53125 7.95312,4.60938 7.95312,4.76562 C7.95312,4.92188 7.875,5 7.71875,5 C7.44792,5 7.00521,4.96354 6.39062,4.89062 C5.82812,4.79688 5.39062,4.75 5.07812,4.75 C4.75521,4.75 4.31771,4.79688 3.76562,4.89062 C3.18229,4.96354 2.75,5 2.46875,5 C2.3125,5 2.23438,4.92188 2.23438,4.76562 C2.23438,4.60938 2.3125,4.53125 2.46875,4.53125 C2.86458,4.53125 3.21354,4.34375 3.51562,3.96875 C3.78646,3.58333 3.92188,3.11979 3.92188,2.57812 L0.59375,2.57812 C0.364583,2.57812 0.208333,2.51562 0.125,2.39062 C0.0104167,2.30729 -0.046875,2.1875 -0.046875,2.03125 C-0.046875,1.98958 0.0520833,1.85417 0.25,1.625 C0.479167,1.36458 0.713542,1.04688 0.953125,0.671875 C1.24479,0.223958 1.52083,-0.234375 1.78125,-0.703125 C2.0625,-1.23438 2.29167,-1.84896 2.46875,-2.54688 C2.65625,-3.24479 2.75,-3.95833 2.75,-4.6875 C2.75,-4.89583 2.84375,-5 3.03125,-5 C3.07292,-5 3.15625,-4.97917 3.28125,-4.9375 C3.32292,-4.92708 3.40625,-4.90885 3.53125,-4.88281 C3.65625,-4.85677 3.75521,-4.83333 3.82812,-4.8125 C4.06771,-4.77083 4.29167,-4.75 4.5,-4.75"/>
<path class="TimeSig" transform="matrix(0.992126,0,0,0.992126,67.8815,169.157)" d="M4.5,-4.75 C4.88542,-4.75 5.21615,-4.79427 5.49219,-4.88281 C5.76823,-4.97135 5.94271,-5.01562 6.01562,-5.01562 C6.10938,-5.01562 6.18229,-4.98958 6.23438,-4.9375 C6.27604,-4.90625 6.30208,-4.86458 6.3125,-4.8125 C6.3125,-4.78125 6.29688,-4.73958 6.26562,-4.6875 L0.59375,1.92188 L3.92188,1.92188 L3.92188,-0.703125 C3.92188,-0.869792 3.96875,-1.01562 4.0625,-1.14062 C4.21875,-1.26562 4.34896,-1.34375 4.45312,-1.375 C4.61979,-1.44792 4.82812,-1.63021 5.07812,-1.92188 C5.28646,-2.15104 5.53646,-2.55729 5.82812,-3.14062 C5.85938,-3.22396 5.91667,-3.26562 6,-3.26562 C6.15625,-3.26562 6.24479,-3.17188 6.26562,-2.98438 L6.26562,1.92188 L7.70312,1.92188 C7.88021,1.92188 7.98438,2.01562 8.01562,2.20312 C8.01562,2.40104 7.91146,2.5 7.70312,2.5 L6.26562,2.5 L6.26562,2.65625 C6.26562,3.17708 6.39583,3.61979 6.65625,3.98438 C6.95833,4.34896 7.3125,4.53125 7.71875,4.53125 C7.875,4.53125 7.95312,4.60938 7.95312,4.76562 C7.95312,4.92188 7.875,5 7.71875,5 C7.44792,5 7.00521,4.96354 6.39062,4.89062 C5.82812,4.79688 5.39062,4.75 5.07812,4.75 C4.75521,4.75 4.31771,4.79688 3.76562,4.89062 C3.18229,4.96354 2.75,5 2.46875,5 C2.3125,5 2.23438,4.92188 2.23438,4.76562 C2.23438,4.60938 2.3125,4.53125 2.46875,4.53125 C2.86458,4.53125 3.21354,4.34375 3.51562,3.96875 C3.78646,3.58333 3.92188,3.11979 3.92188,2.57812 L0.59375,2.57812 C0.364583,2.57812 0.208333,2.51562 0.125,2.39062 C0.0104167,2.30729 -0.046875,2.1875 -0.046875,2.03125 C-0.046875,1.98958 0.0520833,1.85417 0.25,1.625 C0.479167,1.36458 0.713542,1.04688 0.953125,0.671875 C1.24479,0.223958 1.52083,-0.234375 1.78125,-0.703125 C2.0625,-1.23438 2.29167,-1.84896 2.46875,-2.54688 C2.65625,-3.24479 2.75,-3.95833 2.75,-4.6875 C2.75,-4.89583 2.84375,-5 3.03125,-5 C3.07292,-5 3.15625,-4.97917 3.28125,-4.9375 C3.32292,-4.92708 3.40625,-4.90885 3.53125,-4.88281 C3.65625,-4.85677 3.75521,-4.83333 3.82812,-4.8125 C4.06771,-4.77083 4.29167,-4.75 4.5,-4.75"/>
<path class="TimeSig" transform="matrix(0.992126,0,0,0.992126,67.8815,107.15)" d="M4.5,-4.75 C4.88542,-4.75 5.21615,-4.79427 5.49219,-4.88281 C5.76823,-4.97135 5.94271,-5.01562 6.01562,-5.01562 C6.10938,-5.01562 6.18229,-4.98958 6.23438,-4.9375 C6.27604,-4.90625 6.30208,-4.86458 6.3125,-4.8125 C6.3125,-4.78125 6.29688,-4.73958 6.26562,-4.6875 L0.59375,1.92188 L3.92188,1.92188 L3.92188,-0.703125 C3.92188,-0.869792 3.96875,-1.01562 4.0625,-1.14062 C4.21875,-1.26562 4.34896,-1.34375 4.45312,-1.375 C4.61979,-1.44792 4.82812,-1.63021 5.07812,-1.92188 C5.28646,-2.15104 5.53646,-2.55729 5.82812,-3.14062 C5.85938,-3.22396 5.91667,-3.26562 6,-3.26562 C6.15625,-3.26562 6.24479,-3.17188 6.26562,-2.98438 L6.26562,1.92188 L7.70312,1.92188 C7.88021,1.92188 7.98438,2.01562 8.01562,2.20312 C8.01562,2.40104 7.91146,2.5 7.70312,2.5 L6.26562,2.5 L6.26562,2.65625 C6.26562,3.17708 6.39583,3.61979 6.65625,3.98438 C6.95833,4.34896 7.3125,4.53125 7.71875,4.53125 C7.875,4.53125 7.95312,4.60938 7.95312,4.76562 C7.95312,4.92188 7.875,5 7.71875,5 C7.44792,5 7.00521,4.96354 6.39062,4.89062 C5.82812,4.79688 5.39062,4.75 5.07812,4.75 C4.75521,4.75 4.31771,4.79688 3.76562,4.89062 C3.18229,4.96354 2.75,5 2.46875,5 C2.3125,5 2.23438,4.92188 2.23438,4.76562 C2.23438,4.60938 2.3125,4.53125 2.46875,4.53125 C2.86458,4.53125 3.21354,4.34375 3.51562,3.96875 C3.78646,3.58333 3.92188,3.11979 3.92188,2.57812 L0.59375,2.57812 C0.364583,2.57812 0.208333,2.51562 0.125,2.39062 C0.0104167,2.30729 -0.046875,2.1875 -0.046875,2.03125 C-0.046875,1.98958 0.0520833,1.85417 0.25,1.625 C0.479167,1.36458 0.713542,1.04688 0.953125,0.671875 C1.24479,0.223958 1.52083,-0.234375 1.78125,-0.703125 C2.0625,-1.23438 2.29167,-1.84896 2.46875,-2.54688 C2.65625,-3.24479 2.75,-3.95833 2.75,-4.6875 C2.75,-4.89583 2.84375,-5 3.03125,-5 C3.07292,-5 3.15625,-4.97917 3.28125,-4.9375 C3.32292,-4.92708 3.40625,-4.90885 3.53125,-4.88281 C3.65625,-4.85677 3.75521,-4.83333 3.82812,-4.8125 C4.06771,-4.77083 4.29167,-4.75 4.5,-4.75"/>
<path class="TimeSig" transform="matrix(0.992126,0,0,0.992126,67.8815,117.071)" d="M4.5,-4.75 C4.88542,-4.75 5.21615,-4.79427 5.49219,-4.88281 C5.76823,-4.97135 5.94271,-5.01562 6.01562,-5.01562 C6.10938,-5.01562 6.18229,-4.98958 6.23438,-4.9375 C6.27604,-4.90625 6.30208,-4.86458 6.3125,-4.8125 C6.3125,-4.78125 6.29688,-4.73958 6.26562,-4.6875 L0.59375,1.92188 L3.92188,1.92188 L3.92188,-0.703125 C3.92188,-0.869792 3.96875,-1.01562 4.0625,-1.14062 C4.21875,-1.26562 4.34896,-1.34375 4.45312,-1.375 C4.61979,-1.44792 4.82812,-1.63021 5.07812,-1.92188 C5.28646,-2.15104 5.53646,-2.55729 5.82812,-3.14062 C5.85938,-3.22396 5.91667,-3.26562 6,-3.26562 C6.15625,-3.26562 6.24479,-3.17188 6.26562,-2.98438 L6.26562,1.92188 L7.70312,1.92188 C7.88021,1.92188 7.98438,2.01562 8.01562,2.20312 C8.01562,2.40104 7.91146,2.5 7.70312,2.5 L6.26562,2.5 L6.26562,2.65625 C6.26562,3.17708 6.39583,3.61979 6.65625,3.98438 C6.95833,4.34896 7.3125,4.53125 7.71875,4.53125 C7.875,4.53125 7.95312,4.60938 7.95312,4.76562 C7.95312,4.92188 7.875,5 7.71875,5 C7.44792,5 7.00521,4.96354 6.39062,4.89062 C5.82812,4.79688 5.39062,4.75 5.07812,4.75 C4.75521,4.75 4.31771,4.79688 3.76562,4.89062 C3.18229,4.96354 2.75,5 2.46875,5 C2.3125,5 2.23438,4.92188 2.23438,4.76562 C2.23438,4.60938 2.3125,4.53125 2.46875,4.53125 C2.86458,4.53125 3.21354,4.34375 3.51562,3.96875 C3.78646,3.58333 3.92188,3.11979 3.92188,2.57812 L0.59375,2.57812 C0.364583,2.57812 0.208333,2.51562 0.125,2.39062 C0.0104167,2.30729 -0.046875,2.1875 -0.046875,2.03125 C-0.046875,1.98958 0.0520833,1.85417 0.25,1.625 C0.479167,1.36458 0.713542,1.04688 0.953125,0.671875 C1.24479,0.223958 1.52083,-0.234375 1.78125,-0.703125 C2.0625,-1.23438 2.29167,-1.84896 2.46875,-2.54688 C2.65625,-3.24479 2.75,-3.95833 2.75,-4.6875 C2.75,-4.89583 2.84375,-5 3.03125,-5 C3.07292,-5 3.15625,-4.97917 3.28125,-4.9375 C3.32292,-4.92708 3.40625,-4.90885 3.53125,-4.88281 C3.65625,-4.85677 3.75521,-4.83333 3.82812,-4.8125 C4.06771,-4.77083 4.29167,-4.75 4.5,-4.75"/>
<path class="Rest" transform="matrix(0.992126,0,0,0.992126,460.147,253.488)" d="M7.3125,3.125 L0.203125,3.125 C0.0677083,3.125 0,3.0625 0,2.9375 L0,0.203125 C0,0.0677083 0.0677083,0 0.203125,0 L7.3125,0 C7.4375,0 7.5,0.0677083 7.5,0.203125 L7.5,2.9375 C7.5,3.0625 7.4375,3.125 7.3125,3.125"/>
<path class="Rest" transform="matrix(0.992126,0,0,0.992126,330.318,253.488)" d="M7.3125,3.125 L0.203125,3.125 C0.0677083,3.125 0,3.0625 0,2.9375 L0,0.203125 C0,0.0677083 0.0677083,0 0.203125,0 L7.3125,0 C7.4375,0 7.5,0.0677083 7.5,0.203125 L7.5,2.9375 C7.5,3.0625 7.4375,3.125 7.3125,3.125"/>
<path class="Rest" transform="matrix(0.992126,0,0,0.992126,198.458,305.575)" d="M7.3125,3.125 L0.203125,3.125 C0.0677083,3.125 0,3.0625 0,2.9375 L0,0.203125 C0,0.0677083 0.0677083,0 0.203125,0 L7.3125,0 C7.4375,0 7.5,0.0677083 7.5,0.203125 L7.5,2.9375 C7.5,3.0625 7.4375,3.125 7.3125,3.125"/>
<path class="Rest" transform="matrix(0.992126,0,0,0.992126,71.5524,305.575)" d="M7.3125,3.125 L0.203125,3.125 C0.0677083,3.125 0,3.0625 0,2.9375 L0,0.203125 C0,0.0677083 0.0677083,0 0.203125,0 L7.3125,0 C7.4375,0 7.5,0.0677083 7.5,0.203125 L7.5,2.9375 C7.5,3.0625 7.4375,3.125 7.3125,3.125"/>
<path class="Rest" transform="matrix(0.992126,0,0,0.992126,465.74,107.15)" d="M7.3125,3.125 L0.203125,3.125 C0.0677083,3.125 0,3.0625 0,2.9375 L0,0.203125 C0,0.0677083 0.0677083,0 0.203125,0 L7.3125,0 C7.4375,0 7.5,0.0677083 7.5,0.203125 L7.5,2.9375 C7.5,3.0625 7.4375,3.125 7.3125,3.125"/>
<path class="Rest" transform="matrix(0.992126,0,0,0.992126,341.009,107.15)" d="M7.3125,3.125 L0.203125,3.125 C0.0677083,3.125 0,3.0625 0,2.9375 L0,0.203125 C0,0.0677083 0.0677083,0 0.203125,0 L7.3125,0 C7.4375,0 7.5,0.0677083 7.5,0.203125 L7.5,2.9375 C7.5,3.0625 7.4375,3.125 7.3125,3.125"/>
<path class="Rest" transform="matrix(0.992126,0,0,0.992126,210.277,159.236)" d="M7.3125,3.125 L0.203125,3.125 C0.0677083,3.125 0,3.0625 0,2.9375 L0,0.203125 C0,0.0677083 0.0677083,0 0.203125,0 L7.3125,0 C7.4375,0 7.5,0.0677083 7.5,0.203125 L7.5,2.9375 C7.5,3.0625 7.4375,3.125 7.3125,3.125"/>
<path class="Rest" transform="matrix(0.992126,0,0,0.992126,84.4996,159.236)" d="M7.3125,3.125 L0.203125,3.125 C0.0677083,3.125 0,3.0625 0,2.9375 L0,0.203125 C0,0.0677083 0.0677083,0 0.203125,0 L7.3125,0 C7.4375,0 7.5,0.0677083 7.5,0.203125 L7.5,2.9375 C7.5,3.0625 7.4375,3.125 7.3125,3.125"/>
<path class="Fingering" d="M464.287,311.465 C464.287,311.184 464.225,310.934 464.1,310.715 C463.975,310.496 463.821,310.324 463.639,310.199 C463.457,310.074 463.256,309.975 463.037,309.903 C462.819,309.83 462.629,309.78 462.467,309.754 C462.306,309.728 462.162,309.715 462.037,309.715 C461.975,309.715 461.944,309.694 461.944,309.653 C461.944,309.632 461.944,309.616 461.944,309.606 L462.819,307.746 L464.491,307.746 C464.574,307.746 464.642,307.733 464.694,307.707 C464.746,307.681 464.803,307.627 464.866,307.543 L464.928,307.606 L464.631,308.262 C464.61,308.314 464.548,308.34 464.444,308.34 L462.881,308.34 L462.537,309.012 C463.319,309.158 463.899,309.387 464.28,309.699 C464.66,310.012 464.85,310.475 464.85,311.09 C464.85,311.403 464.801,311.684 464.702,311.934 C464.603,312.184 464.475,312.384 464.319,312.535 C464.162,312.686 463.985,312.809 463.787,312.903 C463.59,312.996 463.399,313.061 463.217,313.098 C463.035,313.134 462.85,313.153 462.662,313.153 C462.36,313.153 462.121,313.108 461.944,313.02 C461.767,312.931 461.678,312.809 461.678,312.653 C461.678,312.455 461.793,312.356 462.022,312.356 C462.178,312.356 462.373,312.439 462.608,312.606 C462.842,312.772 463.032,312.856 463.178,312.856 C463.491,312.856 463.754,312.723 463.967,312.457 C464.181,312.192 464.287,311.861 464.287,311.465"/>
<path class="Fingering" d="M424.473,325.827 L424.473,326.312 L423.645,326.312 L423.645,327.64 L423.035,327.64 L423.035,326.312 L420.785,326.312 L420.785,325.827 L423.301,322.265 L423.645,322.265 L423.645,325.827 L424.473,325.827 M423.02,325.827 L423.02,323.077 L421.113,325.827 L423.02,325.827 "/>
<path class="Fingering" d="M390.973,324.519 C391.098,324.519 391.283,324.594 391.528,324.745 C391.773,324.896 391.984,324.972 392.161,324.972 C392.453,324.972 392.7,324.857 392.903,324.628 C393.106,324.399 393.208,324.118 393.208,323.785 C393.208,323.576 393.179,323.394 393.122,323.238 C393.065,323.081 392.981,322.959 392.872,322.87 C392.762,322.782 392.632,322.709 392.481,322.652 C392.33,322.594 392.187,322.558 392.052,322.542 C391.916,322.527 391.77,322.519 391.614,322.519 L391.614,322.41 C391.791,322.347 391.945,322.287 392.075,322.23 C392.205,322.173 392.343,322.092 392.489,321.988 C392.635,321.883 392.747,321.756 392.825,321.605 C392.903,321.454 392.942,321.285 392.942,321.097 C392.942,320.837 392.861,320.628 392.7,320.472 C392.539,320.316 392.328,320.238 392.067,320.238 C391.807,320.238 391.583,320.305 391.395,320.441 C391.208,320.576 391.031,320.79 390.864,321.081 L390.755,321.05 C390.89,320.675 391.075,320.365 391.309,320.12 C391.544,319.876 391.88,319.753 392.317,319.753 C392.692,319.753 392.994,319.855 393.223,320.058 C393.453,320.261 393.567,320.524 393.567,320.847 C393.567,321.066 393.51,321.258 393.395,321.425 C393.281,321.592 393.088,321.769 392.817,321.956 C393.13,322.092 393.377,322.266 393.559,322.48 C393.742,322.693 393.833,323.003 393.833,323.41 C393.833,323.972 393.617,324.423 393.184,324.761 C392.752,325.1 392.218,325.269 391.583,325.269 C391.302,325.269 391.08,325.227 390.919,325.144 C390.757,325.061 390.677,324.946 390.677,324.8 C390.677,324.717 390.705,324.649 390.762,324.597 C390.82,324.545 390.89,324.519 390.973,324.519"/>
<path class="Fingering" d="M360.224,318.867 C360.245,318.752 360.271,318.648 360.302,318.554 C360.333,318.46 360.391,318.328 360.474,318.156 C360.557,317.984 360.654,317.841 360.763,317.726 C360.872,317.611 361.026,317.51 361.224,317.421 C361.422,317.333 361.641,317.289 361.88,317.289 C362.297,317.289 362.646,317.424 362.927,317.695 C363.208,317.966 363.349,318.299 363.349,318.695 C363.349,319.299 363.01,319.96 362.333,320.679 L361.005,322.101 L362.896,322.101 C363.083,322.101 363.221,322.07 363.31,322.007 C363.398,321.945 363.516,321.799 363.661,321.57 L363.771,321.601 L363.318,322.679 L360.208,322.679 L360.208,322.585 L361.63,321.07 C362.328,320.341 362.677,319.653 362.677,319.007 C362.677,318.664 362.573,318.388 362.365,318.179 C362.156,317.971 361.885,317.867 361.552,317.867 C361.271,317.867 361.047,317.942 360.88,318.093 C360.714,318.244 360.552,318.518 360.396,318.914 L360.224,318.867 "/>
<path class="Fingering" d="M331.084,315.465 C330.98,315.465 330.787,315.522 330.506,315.636 L330.506,315.527 L331.928,314.793 L331.99,314.808 L331.99,319.605 C331.99,319.803 332.04,319.931 332.139,319.988 C332.238,320.045 332.443,320.074 332.756,320.074 L332.756,320.199 L330.553,320.199 L330.553,320.074 C330.855,320.063 331.058,320.019 331.162,319.941 C331.266,319.863 331.318,319.699 331.318,319.449 L331.318,315.84 C331.318,315.59 331.24,315.465 331.084,315.465"/>
<path class="Fingering" d="M295.809,245.012 C295.83,244.898 295.856,244.793 295.887,244.7 C295.918,244.606 295.976,244.473 296.059,244.301 C296.142,244.129 296.239,243.986 296.348,243.872 C296.457,243.757 296.611,243.655 296.809,243.567 C297.007,243.478 297.226,243.434 297.465,243.434 C297.882,243.434 298.231,243.57 298.512,243.84 C298.793,244.111 298.934,244.445 298.934,244.84 C298.934,245.445 298.595,246.106 297.918,246.825 L296.59,248.247 L298.481,248.247 C298.668,248.247 298.806,248.215 298.895,248.153 C298.983,248.09 299.101,247.945 299.246,247.715 L299.356,247.747 L298.903,248.825 L295.793,248.825 L295.793,248.731 L297.215,247.215 C297.913,246.486 298.262,245.799 298.262,245.153 C298.262,244.809 298.158,244.533 297.949,244.325 C297.741,244.116 297.47,244.012 297.137,244.012 C296.856,244.012 296.632,244.088 296.465,244.239 C296.298,244.39 296.137,244.663 295.981,245.059 L295.809,245.012 "/>
<path class="Fingering" d="M267.14,240.426 C267.14,240.145 267.077,239.895 266.952,239.676 C266.827,239.457 266.674,239.285 266.491,239.16 C266.309,239.035 266.109,238.936 265.89,238.863 C265.671,238.79 265.481,238.741 265.319,238.715 C265.158,238.689 265.015,238.676 264.89,238.676 C264.827,238.676 264.796,238.655 264.796,238.613 C264.796,238.592 264.796,238.577 264.796,238.566 L265.671,236.707 L267.343,236.707 C267.426,236.707 267.494,236.694 267.546,236.668 C267.598,236.642 267.655,236.587 267.718,236.504 L267.78,236.566 L267.484,237.223 C267.463,237.275 267.4,237.301 267.296,237.301 L265.734,237.301 L265.39,237.973 C266.171,238.118 266.752,238.348 267.132,238.66 C267.512,238.973 267.702,239.436 267.702,240.051 C267.702,240.363 267.653,240.645 267.554,240.895 C267.455,241.145 267.327,241.345 267.171,241.496 C267.015,241.647 266.838,241.77 266.64,241.863 C266.442,241.957 266.252,242.022 266.069,242.059 C265.887,242.095 265.702,242.113 265.515,242.113 C265.213,242.113 264.973,242.069 264.796,241.98 C264.619,241.892 264.53,241.77 264.53,241.613 C264.53,241.415 264.645,241.316 264.874,241.316 C265.03,241.316 265.226,241.4 265.46,241.566 C265.694,241.733 265.885,241.816 266.03,241.816 C266.343,241.816 266.606,241.684 266.819,241.418 C267.033,241.152 267.14,240.822 267.14,240.426"/>
<path class="Fingering" d="M236.783,242.052 L236.783,242.536 L235.955,242.536 L235.955,243.864 L235.346,243.864 L235.346,242.536 L233.096,242.536 L233.096,242.052 L235.611,238.489 L235.955,238.489 L235.955,242.052 L236.783,242.052 M235.33,242.052 L235.33,239.302 L233.424,242.052 L235.33,242.052 "/>
<path class="Fingering" d="M204.583,240.426 C204.583,240.145 204.52,239.895 204.395,239.676 C204.27,239.457 204.117,239.285 203.934,239.16 C203.752,239.035 203.552,238.936 203.333,238.863 C203.114,238.79 202.924,238.741 202.763,238.715 C202.601,238.689 202.458,238.676 202.333,238.676 C202.27,238.676 202.239,238.655 202.239,238.613 C202.239,238.592 202.239,238.577 202.239,238.566 L203.114,236.707 L204.786,236.707 C204.869,236.707 204.937,236.694 204.989,236.668 C205.041,236.642 205.099,236.587 205.161,236.504 L205.224,236.566 L204.927,237.223 C204.906,237.275 204.843,237.301 204.739,237.301 L203.177,237.301 L202.833,237.973 C203.614,238.118 204.195,238.348 204.575,238.66 C204.955,238.973 205.145,239.436 205.145,240.051 C205.145,240.363 205.096,240.645 204.997,240.895 C204.898,241.145 204.77,241.345 204.614,241.496 C204.458,241.647 204.281,241.77 204.083,241.863 C203.885,241.957 203.695,242.022 203.513,242.059 C203.33,242.095 203.145,242.113 202.958,242.113 C202.656,242.113 202.416,242.069 202.239,241.98 C202.062,241.892 201.974,241.77 201.974,241.613 C201.974,241.415 202.088,241.316 202.317,241.316 C202.474,241.316 202.669,241.4 202.903,241.566 C203.138,241.733 203.328,241.816 203.474,241.816 C203.786,241.816 204.049,241.684 204.263,241.418 C204.476,241.152 204.583,240.822 204.583,240.426"/>
<path class="Fingering" d="M165.187,245.012 C165.208,244.898 165.234,244.793 165.265,244.7 C165.297,244.606 165.354,244.473 165.437,244.301 C165.521,244.129 165.617,243.986 165.726,243.872 C165.836,243.757 165.989,243.655 166.187,243.567 C166.385,243.478 166.604,243.434 166.844,243.434 C167.26,243.434 167.609,243.57 167.89,243.84 C168.172,244.111 168.312,244.445 168.312,244.84 C168.312,245.445 167.974,246.106 167.297,246.825 L165.969,248.247 L167.859,248.247 C168.047,248.247 168.185,248.215 168.273,248.153 C168.362,248.09 168.479,247.945 168.625,247.715 L168.734,247.747 L168.281,248.825 L165.172,248.825 L165.172,248.731 L166.594,247.215 C167.291,246.486 167.64,245.799 167.64,245.153 C167.64,244.809 167.536,244.533 167.328,244.325 C167.12,244.116 166.849,244.012 166.515,244.012 C166.234,244.012 166.01,244.088 165.844,244.239 C165.677,244.39 165.515,244.663 165.359,245.059 L165.187,245.012 "/>
<path class="Fingering" d="M137.757,240.426 C137.757,240.145 137.694,239.895 137.569,239.676 C137.444,239.457 137.291,239.285 137.108,239.16 C136.926,239.035 136.726,238.936 136.507,238.863 C136.288,238.79 136.098,238.741 135.936,238.715 C135.775,238.689 135.632,238.676 135.507,238.676 C135.444,238.676 135.413,238.655 135.413,238.613 C135.413,238.592 135.413,238.577 135.413,238.566 L136.288,236.707 L137.96,236.707 C138.043,236.707 138.111,236.694 138.163,236.668 C138.215,236.642 138.272,236.587 138.335,236.504 L138.397,236.566 L138.101,237.223 C138.08,237.275 138.017,237.301 137.913,237.301 L136.351,237.301 L136.007,237.973 C136.788,238.118 137.369,238.348 137.749,238.66 C138.129,238.973 138.319,239.436 138.319,240.051 C138.319,240.363 138.27,240.645 138.171,240.895 C138.072,241.145 137.944,241.345 137.788,241.496 C137.632,241.647 137.455,241.77 137.257,241.863 C137.059,241.957 136.869,242.022 136.686,242.059 C136.504,242.095 136.319,242.113 136.132,242.113 C135.83,242.113 135.59,242.069 135.413,241.98 C135.236,241.892 135.147,241.77 135.147,241.613 C135.147,241.415 135.262,241.316 135.491,241.316 C135.647,241.316 135.843,241.4 136.077,241.566 C136.311,241.733 136.502,241.816 136.647,241.816 C136.96,241.816 137.223,241.684 137.436,241.418 C137.65,241.152 137.757,240.822 137.757,240.426"/>
<path class="Fingering" d="M108.639,242.052 L108.639,242.536 L107.811,242.536 L107.811,243.864 L107.201,243.864 L107.201,242.536 L104.951,242.536 L104.951,242.052 L107.467,238.489 L107.811,238.489 L107.811,242.052 L108.639,242.052 M107.186,242.052 L107.186,239.302 L105.279,242.052 L107.186,242.052 "/>
<path class="Fingering" d="M77.6771,240.426 C77.6771,240.145 77.6146,239.895 77.4896,239.676 C77.3646,239.457 77.211,239.285 77.0287,239.16 C76.8464,239.035 76.6459,238.936 76.4271,238.863 C76.2084,238.79 76.0183,238.741 75.8568,238.715 C75.6954,238.689 75.5521,238.676 75.4271,238.676 C75.3646,238.676 75.3334,238.655 75.3334,238.613 C75.3334,238.592 75.3334,238.577 75.3334,238.566 L76.2084,236.707 L77.8803,236.707 C77.9636,236.707 78.0313,236.694 78.0834,236.668 C78.1355,236.642 78.1928,236.587 78.2553,236.504 L78.3178,236.566 L78.0209,237.223 C78.0001,237.275 77.9376,237.301 77.8334,237.301 L76.2709,237.301 L75.9271,237.973 C76.7084,238.118 77.2891,238.348 77.6693,238.66 C78.0495,238.973 78.2396,239.436 78.2396,240.051 C78.2396,240.363 78.1902,240.645 78.0912,240.895 C77.9922,241.145 77.8646,241.345 77.7084,241.496 C77.5521,241.647 77.3751,241.77 77.1771,241.863 C76.9792,241.957 76.7891,242.022 76.6068,242.059 C76.4245,242.095 76.2396,242.113 76.0521,242.113 C75.7501,242.113 75.5105,242.069 75.3334,241.98 C75.1563,241.892 75.0678,241.77 75.0678,241.613 C75.0678,241.415 75.1823,241.316 75.4115,241.316 C75.5678,241.316 75.7631,241.4 75.9974,241.566 C76.2318,241.733 76.4219,241.816 76.5678,241.816 C76.8803,241.816 77.1433,241.684 77.3568,241.418 C77.5704,241.152 77.6771,240.822 77.6771,240.426"/>
<path class="Fingering" d="M468.49,152.049 C468.386,152.049 468.193,152.106 467.912,152.221 L467.912,152.111 L469.334,151.377 L469.396,151.393 L469.396,156.19 C469.396,156.388 469.446,156.515 469.545,156.572 C469.644,156.63 469.849,156.658 470.162,156.658 L470.162,156.783 L467.959,156.783 L467.959,156.658 C468.261,156.648 468.464,156.604 468.568,156.526 C468.672,156.447 468.724,156.283 468.724,156.033 L468.724,152.424 C468.724,152.174 468.646,152.049 468.49,152.049"/>
<path class="Fingering" d="M427.809,172.528 C427.83,172.414 427.856,172.309 427.887,172.216 C427.918,172.122 427.976,171.989 428.059,171.817 C428.142,171.645 428.239,171.502 428.348,171.387 C428.457,171.273 428.611,171.171 428.809,171.083 C429.007,170.994 429.226,170.95 429.465,170.95 C429.882,170.95 430.231,171.085 430.512,171.356 C430.793,171.627 430.934,171.96 430.934,172.356 C430.934,172.96 430.595,173.622 429.918,174.341 L428.59,175.762 L430.481,175.762 C430.668,175.762 430.806,175.731 430.895,175.669 C430.983,175.606 431.101,175.46 431.246,175.231 L431.356,175.262 L430.903,176.341 L427.793,176.341 L427.793,176.247 L429.215,174.731 C429.913,174.002 430.262,173.315 430.262,172.669 C430.262,172.325 430.158,172.049 429.95,171.841 C429.741,171.632 429.47,171.528 429.137,171.528 C428.856,171.528 428.632,171.604 428.465,171.755 C428.299,171.906 428.137,172.179 427.981,172.575 L427.809,172.528 "/>
<path class="Fingering" d="M399.115,178.18 C399.24,178.18 399.425,178.256 399.67,178.407 C399.915,178.558 400.125,178.633 400.303,178.633 C400.594,178.633 400.842,178.519 401.045,178.29 C401.248,178.061 401.349,177.779 401.349,177.446 C401.349,177.238 401.321,177.055 401.263,176.899 C401.206,176.743 401.123,176.62 401.013,176.532 C400.904,176.443 400.774,176.37 400.623,176.313 C400.472,176.256 400.329,176.219 400.193,176.204 C400.058,176.188 399.912,176.18 399.756,176.18 L399.756,176.071 C399.933,176.008 400.086,175.949 400.217,175.891 C400.347,175.834 400.485,175.753 400.631,175.649 C400.776,175.545 400.888,175.417 400.967,175.266 C401.045,175.115 401.084,174.946 401.084,174.758 C401.084,174.498 401.003,174.29 400.842,174.133 C400.68,173.977 400.469,173.899 400.209,173.899 C399.948,173.899 399.724,173.967 399.537,174.102 C399.349,174.238 399.172,174.451 399.006,174.743 L398.896,174.712 C399.032,174.337 399.217,174.027 399.451,173.782 C399.685,173.537 400.021,173.415 400.459,173.415 C400.834,173.415 401.136,173.516 401.365,173.719 C401.594,173.922 401.709,174.186 401.709,174.508 C401.709,174.727 401.651,174.92 401.537,175.087 C401.422,175.253 401.23,175.43 400.959,175.618 C401.271,175.753 401.519,175.928 401.701,176.141 C401.883,176.355 401.974,176.665 401.974,177.071 C401.974,177.633 401.758,178.084 401.326,178.422 C400.894,178.761 400.36,178.93 399.724,178.93 C399.443,178.93 399.222,178.889 399.06,178.805 C398.899,178.722 398.818,178.607 398.818,178.462 C398.818,178.378 398.847,178.311 398.904,178.258 C398.961,178.206 399.032,178.18 399.115,178.18"/>
<path class="Fingering" d="M373.171,179.489 L373.171,179.973 L372.343,179.973 L372.343,181.301 L371.734,181.301 L371.734,179.973 L369.484,179.973 L369.484,179.489 L371.999,175.926 L372.343,175.926 L372.343,179.489 L373.171,179.489 M371.718,179.489 L371.718,176.739 L369.812,179.489 L371.718,179.489 "/>
<path class="Fingering" d="M343.165,182.203 C343.165,181.922 343.102,181.672 342.977,181.453 C342.852,181.235 342.699,181.063 342.516,180.938 C342.334,180.813 342.134,180.714 341.915,180.641 C341.696,180.568 341.506,180.519 341.344,180.493 C341.183,180.466 341.04,180.453 340.915,180.453 C340.852,180.453 340.821,180.433 340.821,180.391 C340.821,180.37 340.821,180.354 340.821,180.344 L341.696,178.485 L343.368,178.485 C343.451,178.485 343.519,178.472 343.571,178.446 C343.623,178.42 343.68,178.365 343.743,178.282 L343.805,178.344 L343.509,179 C343.488,179.052 343.425,179.078 343.321,179.078 L341.759,179.078 L341.415,179.75 C342.196,179.896 342.777,180.125 343.157,180.438 C343.537,180.75 343.727,181.214 343.727,181.828 C343.727,182.141 343.678,182.422 343.579,182.672 C343.48,182.922 343.352,183.123 343.196,183.274 C343.04,183.425 342.863,183.547 342.665,183.641 C342.467,183.735 342.277,183.8 342.094,183.836 C341.912,183.873 341.727,183.891 341.54,183.891 C341.238,183.891 340.998,183.847 340.821,183.758 C340.644,183.67 340.555,183.547 340.555,183.391 C340.555,183.193 340.67,183.094 340.899,183.094 C341.055,183.094 341.251,183.177 341.485,183.344 C341.719,183.511 341.91,183.594 342.055,183.594 C342.368,183.594 342.631,183.461 342.844,183.196 C343.058,182.93 343.165,182.599 343.165,182.203"/>
<path class="Fingering" d="M306.781,98.6737 C306.802,98.5591 306.828,98.4549 306.859,98.3612 C306.891,98.2674 306.948,98.1346 307.031,97.9627 C307.114,97.7909 307.211,97.6476 307.32,97.533 C307.43,97.4185 307.583,97.3169 307.781,97.2284 C307.979,97.1398 308.198,97.0955 308.437,97.0955 C308.854,97.0955 309.203,97.231 309.484,97.5018 C309.766,97.7726 309.906,98.106 309.906,98.5018 C309.906,99.106 309.568,99.7674 308.891,100.486 L307.562,101.908 L309.453,101.908 C309.641,101.908 309.779,101.877 309.867,101.814 C309.956,101.752 310.073,101.606 310.219,101.377 L310.328,101.408 L309.875,102.486 L306.766,102.486 L306.766,102.392 L308.187,100.877 C308.885,100.148 309.234,99.4601 309.234,98.8143 C309.234,98.4705 309.13,98.1945 308.922,97.9862 C308.713,97.7778 308.443,97.6737 308.109,97.6737 C307.828,97.6737 307.604,97.7492 307.437,97.9002 C307.271,98.0513 307.109,98.3247 306.953,98.7205 L306.781,98.6737 "/>
<path class="Fingering" d="M278.394,94.0872 C278.394,93.8059 278.332,93.5559 278.207,93.3372 C278.082,93.1184 277.928,92.9466 277.746,92.8216 C277.563,92.6966 277.363,92.5976 277.144,92.5247 C276.925,92.4518 276.735,92.4023 276.574,92.3762 C276.412,92.3502 276.269,92.3372 276.144,92.3372 C276.082,92.3372 276.05,92.3163 276.05,92.2747 C276.05,92.2538 276.05,92.2382 276.05,92.2278 L276.925,90.3684 L278.597,90.3684 C278.681,90.3684 278.748,90.3554 278.8,90.3294 C278.853,90.3033 278.91,90.2486 278.972,90.1653 L279.035,90.2278 L278.738,90.8841 C278.717,90.9361 278.655,90.9622 278.55,90.9622 L276.988,90.9622 L276.644,91.6341 C277.425,91.7799 278.006,92.0091 278.386,92.3216 C278.767,92.6341 278.957,93.0976 278.957,93.7122 C278.957,94.0247 278.907,94.3059 278.808,94.5559 C278.709,94.8059 278.582,95.0064 278.425,95.1575 C278.269,95.3085 278.092,95.4309 277.894,95.5247 C277.696,95.6184 277.506,95.6835 277.324,95.72 C277.142,95.7564 276.957,95.7747 276.769,95.7747 C276.467,95.7747 276.228,95.7304 276.05,95.6419 C275.873,95.5533 275.785,95.4309 275.785,95.2747 C275.785,95.0768 275.899,94.9778 276.129,94.9778 C276.285,94.9778 276.48,95.0611 276.715,95.2278 C276.949,95.3945 277.139,95.4778 277.285,95.4778 C277.597,95.4778 277.86,95.345 278.074,95.0794 C278.287,94.8137 278.394,94.483 278.394,94.0872"/>
<path class="Fingering" d="M248.32,95.713 L248.32,96.1974 L247.492,96.1974 L247.492,97.5255 L246.882,97.5255 L246.882,96.1974 L244.632,96.1974 L244.632,95.713 L247.148,92.1505 L247.492,92.1505 L247.492,95.713 L248.32,95.713 M246.867,95.713 L246.867,92.963 L244.96,95.713 L246.867,95.713 "/>
<path class="Fingering" d="M216.402,94.0872 C216.402,93.8059 216.339,93.5559 216.214,93.3372 C216.089,93.1184 215.935,92.9466 215.753,92.8216 C215.571,92.6966 215.37,92.5976 215.152,92.5247 C214.933,92.4518 214.743,92.4023 214.581,92.3762 C214.42,92.3502 214.277,92.3372 214.152,92.3372 C214.089,92.3372 214.058,92.3163 214.058,92.2747 C214.058,92.2538 214.058,92.2382 214.058,92.2278 L214.933,90.3684 L216.605,90.3684 C216.688,90.3684 216.756,90.3554 216.808,90.3294 C216.86,90.3033 216.917,90.2486 216.98,90.1653 L217.042,90.2278 L216.745,90.8841 C216.725,90.9361 216.662,90.9622 216.558,90.9622 L214.995,90.9622 L214.652,91.6341 C215.433,91.7799 216.014,92.0091 216.394,92.3216 C216.774,92.6341 216.964,93.0976 216.964,93.7122 C216.964,94.0247 216.915,94.3059 216.816,94.5559 C216.717,94.8059 216.589,95.0064 216.433,95.1575 C216.277,95.3085 216.1,95.4309 215.902,95.5247 C215.704,95.6184 215.514,95.6835 215.331,95.72 C215.149,95.7564 214.964,95.7747 214.777,95.7747 C214.475,95.7747 214.235,95.7304 214.058,95.6419 C213.881,95.5533 213.792,95.4309 213.792,95.2747 C213.792,95.0768 213.907,94.9778 214.136,94.9778 C214.292,94.9778 214.488,95.0611 214.722,95.2278 C214.956,95.3945 215.146,95.4778 215.292,95.4778 C215.605,95.4778 215.868,95.345 216.081,95.0794 C216.295,94.8137 216.402,94.483 216.402,94.0872"/>
<path class="Fingering" d="M177.288,98.6737 C177.309,98.5591 177.335,98.4549 177.366,98.3612 C177.397,98.2674 177.455,98.1346 177.538,97.9627 C177.621,97.7909 177.718,97.6476 177.827,97.533 C177.937,97.4185 178.09,97.3169 178.288,97.2284 C178.486,97.1398 178.705,97.0955 178.944,97.0955 C179.361,97.0955 179.71,97.231 179.991,97.5018 C180.272,97.7726 180.413,98.106 180.413,98.5018 C180.413,99.106 180.075,99.7674 179.397,100.486 L178.069,101.908 L179.96,101.908 C180.147,101.908 180.285,101.877 180.374,101.814 C180.463,101.752 180.58,101.606 180.726,101.377 L180.835,101.408 L180.382,102.486 L177.272,102.486 L177.272,102.392 L178.694,100.877 C179.392,100.148 179.741,99.4601 179.741,98.8143 C179.741,98.4705 179.637,98.1945 179.429,97.9862 C179.22,97.7778 178.95,97.6737 178.616,97.6737 C178.335,97.6737 178.111,97.7492 177.944,97.9002 C177.778,98.0513 177.616,98.3247 177.46,98.7205 L177.288,98.6737 "/>
<path class="Fingering" d="M150.14,94.0872 C150.14,93.8059 150.077,93.5559 149.952,93.3372 C149.827,93.1184 149.674,92.9466 149.491,92.8216 C149.309,92.6966 149.109,92.5976 148.89,92.5247 C148.671,92.4518 148.481,92.4023 148.319,92.3762 C148.158,92.3502 148.015,92.3372 147.89,92.3372 C147.827,92.3372 147.796,92.3163 147.796,92.2747 C147.796,92.2538 147.796,92.2382 147.796,92.2278 L148.671,90.3684 L150.343,90.3684 C150.426,90.3684 150.494,90.3554 150.546,90.3294 C150.598,90.3033 150.655,90.2486 150.718,90.1653 L150.78,90.2278 L150.484,90.8841 C150.463,90.9361 150.4,90.9622 150.296,90.9622 L148.734,90.9622 L148.39,91.6341 C149.171,91.7799 149.752,92.0091 150.132,92.3216 C150.512,92.6341 150.702,93.0976 150.702,93.7122 C150.702,94.0247 150.653,94.3059 150.554,94.5559 C150.455,94.8059 150.327,95.0064 150.171,95.1575 C150.015,95.3085 149.838,95.4309 149.64,95.5247 C149.442,95.6184 149.252,95.6835 149.069,95.72 C148.887,95.7564 148.702,95.7747 148.515,95.7747 C148.213,95.7747 147.973,95.7304 147.796,95.6419 C147.619,95.5533 147.53,95.4309 147.53,95.2747 C147.53,95.0768 147.645,94.9778 147.874,94.9778 C148.03,94.9778 148.226,95.0611 148.46,95.2278 C148.694,95.3945 148.885,95.4778 149.03,95.4778 C149.343,95.4778 149.606,95.345 149.819,95.0794 C150.033,94.8137 150.14,94.483 150.14,94.0872"/>
<path class="Fingering" d="M121.304,95.713 L121.304,96.1974 L120.476,96.1974 L120.476,97.5255 L119.866,97.5255 L119.866,96.1974 L117.616,96.1974 L117.616,95.713 L120.132,92.1505 L120.476,92.1505 L120.476,95.713 L121.304,95.713 M119.851,95.713 L119.851,92.963 L117.945,95.713 L119.851,95.713 "/>
<path class="Fingering" d="M90.6244,94.0872 C90.6244,93.8059 90.5619,93.5559 90.4369,93.3372 C90.3119,93.1184 90.1582,92.9466 89.9759,92.8216 C89.7937,92.6966 89.5931,92.5976 89.3744,92.5247 C89.1556,92.4518 88.9655,92.4023 88.8041,92.3762 C88.6426,92.3502 88.4994,92.3372 88.3744,92.3372 C88.3119,92.3372 88.2806,92.3163 88.2806,92.2747 C88.2806,92.2538 88.2806,92.2382 88.2806,92.2278 L89.1556,90.3684 L90.8275,90.3684 C90.9108,90.3684 90.9785,90.3554 91.0306,90.3294 C91.0827,90.3033 91.14,90.2486 91.2025,90.1653 L91.265,90.2278 L90.9681,90.8841 C90.9473,90.9361 90.8848,90.9622 90.7806,90.9622 L89.2181,90.9622 L88.8744,91.6341 C89.6556,91.7799 90.2364,92.0091 90.6166,92.3216 C90.9968,92.6341 91.1869,93.0976 91.1869,93.7122 C91.1869,94.0247 91.1374,94.3059 91.0384,94.5559 C90.9395,94.8059 90.8119,95.0064 90.6556,95.1575 C90.4994,95.3085 90.3223,95.4309 90.1244,95.5247 C89.9265,95.6184 89.7364,95.6835 89.5541,95.72 C89.3718,95.7564 89.1869,95.7747 88.9994,95.7747 C88.6973,95.7747 88.4577,95.7304 88.2806,95.6419 C88.1035,95.5533 88.015,95.4309 88.015,95.2747 C88.015,95.0768 88.1296,94.9778 88.3588,94.9778 C88.515,94.9778 88.7103,95.0611 88.9447,95.2278 C89.1791,95.3945 89.3692,95.4778 89.515,95.4778 C89.8275,95.4778 90.0905,95.345 90.3041,95.0794 C90.5176,94.8137 90.6244,94.483 90.6244,94.0872"/>
<path class="StaffText" d="M57.1247,81.4771 L55.7184,81.4771 L55.4372,83.6334 L54.6872,83.6334 L54.9684,81.4771 L53.4215,81.4771 L53.1403,83.6334 L52.3903,83.6334 L52.6715,81.4771 L51.734,81.4771 L51.734,80.5865 L52.7653,80.5865 L53.0465,78.6177 L51.734,78.6177 L51.734,77.7271 L53.1403,77.7271 L53.4215,75.6177 L54.1715,75.6177 L53.8903,77.7271 L55.4372,77.7271 L55.7184,75.6177 L56.4684,75.6177 L56.1872,77.7271 L57.1247,77.7271 L57.1247,78.6177 L56.0934,78.6177 L55.8122,80.5865 L57.1247,80.5865 L57.1247,81.4771 M55.3434,78.6177 L53.7965,78.6177 L53.5153,80.5865 L55.0622,80.5865 L55.3434,78.6177 M64.2497,75.2427 C63.8434,75.3052 63.2497,75.4927 62.4684,75.8052 C62.4684,76.6177 62.4528,77.5396 62.4215,78.5709 L65.1872,78.5709 L65.1872,75.8521 C65.1872,75.2271 65.1715,74.7115 65.1403,74.3052 L66.2184,74.3052 C66.1872,74.7115 66.1715,75.2271 66.1715,75.8521 L66.1715,78.5709 C67.484,78.5709 68.4528,78.5552 69.0778,78.524 L69.0778,79.4615 C68.5153,79.4302 67.5465,79.4146 66.1715,79.4146 L66.1715,83.024 C66.1715,83.524 66.1872,84.1177 66.2184,84.8052 L65.1403,84.8052 C65.1715,84.149 65.1872,83.5552 65.1872,83.024 L65.1872,79.4146 L62.4215,79.4146 C62.3278,80.5084 61.9684,81.4849 61.3434,82.3443 C60.7184,83.2037 59.8747,83.9927 58.8122,84.7115 C58.6559,84.4302 58.359,84.1802 57.9215,83.9615 C58.6403,83.649 59.3825,83.0631 60.1481,82.2037 C60.9137,81.3443 61.3278,80.4146 61.3903,79.4146 L59.1403,79.4146 C58.7653,79.4146 58.359,79.4302 57.9215,79.4615 L57.9215,78.524 C58.359,78.5552 58.7653,78.5709 59.1403,78.5709 L61.4372,78.5709 C61.4684,77.9459 61.484,77.1177 61.484,76.0865 C60.3903,76.3677 59.6559,76.5709 59.2809,76.6959 C59.1559,76.3521 58.9372,76.0552 58.6247,75.8052 C59.1872,75.7427 59.945,75.5709 60.8981,75.2896 C61.8512,75.0084 62.6715,74.6646 63.359,74.2584 L64.2497,75.2427 M78.9215,74.6334 C78.8903,75.1021 78.8747,75.6334 78.8747,76.2271 C78.8747,76.8209 78.8903,77.3834 78.9215,77.9146 L72.1247,77.9146 C72.1559,77.4771 72.1715,76.9615 72.1715,76.3677 C72.1715,75.7427 72.1559,75.1646 72.1247,74.6334 L78.9215,74.6334 M79.2028,78.9459 C79.7965,78.9459 80.3278,78.9302 80.7965,78.899 L80.7965,79.7427 C80.3278,79.7115 79.7965,79.6959 79.2028,79.6959 L74.0934,79.6959 C73.9684,80.1334 73.8278,80.6177 73.6715,81.149 L79.2028,81.149 C79.109,81.649 79.0387,82.0709 78.9918,82.4146 C78.945,82.7584 78.8747,83.1724 78.7809,83.6568 C78.6872,84.1412 78.4997,84.4693 78.2184,84.6412 C77.9372,84.8131 77.0465,84.9459 75.5465,85.0396 C75.4215,84.6959 75.2653,84.3365 75.0778,83.9615 C76.2028,83.9927 76.9137,83.9927 77.2106,83.9615 C77.5075,83.9302 77.7028,83.7662 77.7965,83.4693 C77.8903,83.1724 77.984,82.6646 78.0778,81.9459 L72.4997,81.9459 C72.7809,81.1959 72.9997,80.4459 73.1559,79.6959 L72.0309,79.6959 C71.3747,79.6959 70.7653,79.7115 70.2028,79.7427 L70.2028,78.899 C70.7653,78.9302 71.3747,78.9459 72.0309,78.9459 L79.2028,78.9459 M77.984,77.1646 L77.984,75.3834 L73.0622,75.3834 L73.0622,77.1646 L77.984,77.1646 "/>
<path class="Bracket" fill-rule="evenodd" d="M44.0589,274.118 C44.0589,268.323 40.0677,262.691 40.0677,257.139 C40.0677,254.343 41.1562,251.628 44.5125,249.196 C44.5578,249.166 44.5805,249.115 44.5805,249.085 C44.5805,248.994 44.331,248.913 44.1496,248.913 C44.0589,248.913 43.9002,248.923 43.7868,248.994 C39.4328,252.114 37.9814,255.72 37.9814,259.368 C37.9814,265.243 42.2447,270.917 42.2447,276.55 C42.2447,279.346 41.1562,281.98 37.8,284.411 L37.8,284.492 L37.8,284.573 C41.1562,287.005 42.2447,289.639 42.2447,292.435 C42.2447,298.067 37.9814,303.741 37.9814,309.617 C37.9814,313.264 39.4328,316.87 43.7868,319.991 C43.9002,320.062 44.0589,320.072 44.1496,320.072 C44.331,320.072 44.5805,319.991 44.5805,319.9 C44.5805,319.869 44.5578,319.818 44.5125,319.788 C41.1562,317.357 40.0677,314.642 40.0677,311.845 C40.0677,306.294 44.0589,300.661 44.0589,294.866 C44.0589,291.179 42.6076,287.653 38.3443,284.492 C42.6076,281.331 44.0589,277.806 44.0589,274.118" id="36.2126,266.386 71.1592"/>
<path class="Bracket" fill-rule="evenodd" d="M44.0589,127.78 C44.0589,121.985 40.0677,116.352 40.0677,110.8 C40.0677,108.004 41.1562,105.289 44.5125,102.858 C44.5578,102.827 44.5805,102.777 44.5805,102.746 C44.5805,102.655 44.331,102.574 44.1496,102.574 C44.0589,102.574 43.9002,102.584 43.7868,102.655 C39.4328,105.775 37.9814,109.382 37.9814,113.029 C37.9814,118.905 42.2447,124.578 42.2447,130.211 C42.2447,133.007 41.1562,135.641 37.8,138.073 L37.8,138.154 L37.8,138.235 C41.1562,140.666 42.2447,143.3 42.2447,146.096 C42.2447,151.729 37.9814,157.402 37.9814,163.278 C37.9814,166.925 39.4328,170.532 43.7868,173.652 C43.9002,173.723 44.0589,173.733 44.1496,173.733 C44.331,173.733 44.5805,173.652 44.5805,173.561 C44.5805,173.531 44.5578,173.48 44.5125,173.449 C41.1562,171.018 40.0677,168.303 40.0677,165.507 C40.0677,159.955 44.0589,154.322 44.0589,148.528 C44.0589,144.84 42.6076,141.314 38.3443,138.154 C42.6076,134.993 44.0589,131.467 44.0589,127.78" id="36.2126,120.047 71.1592"/>
</svg>
